%TF.GenerationSoftware,KiCad,Pcbnew,9.0.2*%
%TF.CreationDate,2025-05-19T00:13:54-04:00*%
%TF.ProjectId,WLED-Salon,574c4544-2d53-4616-9c6f-6e2e6b696361,rev?*%
%TF.SameCoordinates,Original*%
%TF.FileFunction,Soldermask,Bot*%
%TF.FilePolarity,Negative*%
%FSLAX46Y46*%
G04 Gerber Fmt 4.6, Leading zero omitted, Abs format (unit mm)*
G04 Created by KiCad (PCBNEW 9.0.2) date 2025-05-19 00:13:54*
%MOMM*%
%LPD*%
G01*
G04 APERTURE LIST*
G04 Aperture macros list*
%AMRoundRect*
0 Rectangle with rounded corners*
0 $1 Rounding radius*
0 $2 $3 $4 $5 $6 $7 $8 $9 X,Y pos of 4 corners*
0 Add a 4 corners polygon primitive as box body*
4,1,4,$2,$3,$4,$5,$6,$7,$8,$9,$2,$3,0*
0 Add four circle primitives for the rounded corners*
1,1,$1+$1,$2,$3*
1,1,$1+$1,$4,$5*
1,1,$1+$1,$6,$7*
1,1,$1+$1,$8,$9*
0 Add four rect primitives between the rounded corners*
20,1,$1+$1,$2,$3,$4,$5,0*
20,1,$1+$1,$4,$5,$6,$7,0*
20,1,$1+$1,$6,$7,$8,$9,0*
20,1,$1+$1,$8,$9,$2,$3,0*%
G04 Aperture macros list end*
%ADD10O,1.500000X2.800000*%
%ADD11R,3.000000X3.000000*%
%ADD12C,3.000000*%
%ADD13RoundRect,0.250000X-0.750000X0.750000X-0.750000X-0.750000X0.750000X-0.750000X0.750000X0.750000X0*%
%ADD14C,2.000000*%
%ADD15C,4.300000*%
%ADD16C,1.400000*%
%ADD17R,1.700000X1.700000*%
%ADD18C,1.700000*%
%ADD19C,1.600000*%
%ADD20R,2.000000X1.200000*%
%ADD21O,2.000000X1.200000*%
%ADD22RoundRect,0.250000X0.550000X-0.550000X0.550000X0.550000X-0.550000X0.550000X-0.550000X-0.550000X0*%
G04 APERTURE END LIST*
D10*
%TO.C,F1*%
X166500000Y-79937500D03*
X162700000Y-79937500D03*
X158400000Y-79937500D03*
X154600000Y-79937500D03*
%TD*%
%TO.C,F2*%
X166500000Y-96937500D03*
X162700000Y-96937500D03*
X158400000Y-96937500D03*
X154600000Y-96937500D03*
%TD*%
D11*
%TO.C,J3*%
X130500000Y-77500000D03*
D12*
X130500000Y-82500000D03*
%TD*%
D13*
%TO.C,C1*%
X144000000Y-77569823D03*
D14*
X144000000Y-82569823D03*
%TD*%
D15*
%TO.C,REF\u002A\u002A*%
X198000000Y-120000000D03*
%TD*%
%TO.C,REF\u002A\u002A*%
X130000000Y-52000000D03*
%TD*%
D13*
%TO.C,C2*%
X144000000Y-94569823D03*
D14*
X144000000Y-99569823D03*
%TD*%
D16*
%TO.C,R2*%
X145500000Y-116500000D03*
X140420000Y-116500000D03*
%TD*%
%TO.C,R1*%
X145500000Y-111500000D03*
X140420000Y-111500000D03*
%TD*%
D11*
%TO.C,J5*%
X130500000Y-111500000D03*
D12*
X130500000Y-116500000D03*
%TD*%
D11*
%TO.C,J4*%
X130500000Y-94500000D03*
D12*
X130500000Y-99500000D03*
%TD*%
D17*
%TO.C,J2*%
X143500000Y-66747500D03*
D18*
X143500000Y-64207500D03*
X143500000Y-61667500D03*
X143500000Y-59127500D03*
%TD*%
D11*
%TO.C,J1*%
X130500000Y-60500000D03*
D12*
X130500000Y-65500000D03*
%TD*%
D19*
%TO.C,C3*%
X150500000Y-112687500D03*
X150500000Y-115187500D03*
%TD*%
D20*
%TO.C,U1*%
X173800000Y-58096560D03*
D21*
X173800000Y-60636560D03*
X173800000Y-63176560D03*
X173800000Y-65716560D03*
X173800000Y-68256560D03*
X173800000Y-70796560D03*
X173800000Y-73336560D03*
X173800000Y-75876560D03*
X173800000Y-78416560D03*
X173800000Y-80956560D03*
X173800000Y-83496560D03*
X173800000Y-86036560D03*
X173800000Y-88576560D03*
X173800000Y-91116560D03*
X173800000Y-93656560D03*
X173800000Y-96196560D03*
X173800000Y-98736560D03*
X173800000Y-101276560D03*
X173800000Y-103816560D03*
X199196320Y-103813840D03*
X199196320Y-101273840D03*
X199200000Y-98736560D03*
X199200000Y-96196560D03*
X199200000Y-93656560D03*
X199200000Y-91116560D03*
X199200000Y-88576560D03*
X199200000Y-86036560D03*
X199200000Y-83496560D03*
X199200000Y-80956560D03*
X199200000Y-78416560D03*
X199200000Y-75876560D03*
X199200000Y-73336560D03*
X199200000Y-70796560D03*
X199200000Y-68256560D03*
X199200000Y-65716560D03*
X199200000Y-63176560D03*
X199200000Y-60636560D03*
X199200000Y-58096560D03*
%TD*%
D22*
%TO.C,U2*%
X157300000Y-117747500D03*
D19*
X159840000Y-117747500D03*
X162380000Y-117747500D03*
X164920000Y-117747500D03*
X167460000Y-117747500D03*
X170000000Y-117747500D03*
X172540000Y-117747500D03*
X172540000Y-110127500D03*
X170000000Y-110127500D03*
X167460000Y-110127500D03*
X164920000Y-110127500D03*
X162380000Y-110127500D03*
X159840000Y-110127500D03*
X157300000Y-110127500D03*
%TD*%
M02*
