%TF.GenerationSoftware,KiCad,Pcbnew,9.0.2*%
%TF.CreationDate,2025-05-19T00:13:54-04:00*%
%TF.ProjectId,WLED-Salon,574c4544-2d53-4616-9c6f-6e2e6b696361,rev?*%
%TF.SameCoordinates,Original*%
%TF.FileFunction,Copper,L1,Top*%
%TF.FilePolarity,Positive*%
%FSLAX46Y46*%
G04 Gerber Fmt 4.6, Leading zero omitted, Abs format (unit mm)*
G04 Created by KiCad (PCBNEW 9.0.2) date 2025-05-19 00:13:54*
%MOMM*%
%LPD*%
G01*
G04 APERTURE LIST*
G04 Aperture macros list*
%AMRoundRect*
0 Rectangle with rounded corners*
0 $1 Rounding radius*
0 $2 $3 $4 $5 $6 $7 $8 $9 X,Y pos of 4 corners*
0 Add a 4 corners polygon primitive as box body*
4,1,4,$2,$3,$4,$5,$6,$7,$8,$9,$2,$3,0*
0 Add four circle primitives for the rounded corners*
1,1,$1+$1,$2,$3*
1,1,$1+$1,$4,$5*
1,1,$1+$1,$6,$7*
1,1,$1+$1,$8,$9*
0 Add four rect primitives between the rounded corners*
20,1,$1+$1,$2,$3,$4,$5,0*
20,1,$1+$1,$4,$5,$6,$7,0*
20,1,$1+$1,$6,$7,$8,$9,0*
20,1,$1+$1,$8,$9,$2,$3,0*%
G04 Aperture macros list end*
%TA.AperFunction,ComponentPad*%
%ADD10O,1.500000X2.800000*%
%TD*%
%TA.AperFunction,ComponentPad*%
%ADD11R,3.000000X3.000000*%
%TD*%
%TA.AperFunction,ComponentPad*%
%ADD12C,3.000000*%
%TD*%
%TA.AperFunction,ComponentPad*%
%ADD13RoundRect,0.250000X-0.750000X0.750000X-0.750000X-0.750000X0.750000X-0.750000X0.750000X0.750000X0*%
%TD*%
%TA.AperFunction,ComponentPad*%
%ADD14C,2.000000*%
%TD*%
%TA.AperFunction,ComponentPad*%
%ADD15C,1.400000*%
%TD*%
%TA.AperFunction,ComponentPad*%
%ADD16R,1.700000X1.700000*%
%TD*%
%TA.AperFunction,ComponentPad*%
%ADD17C,1.700000*%
%TD*%
%TA.AperFunction,ComponentPad*%
%ADD18C,1.600000*%
%TD*%
%TA.AperFunction,ComponentPad*%
%ADD19R,2.000000X1.200000*%
%TD*%
%TA.AperFunction,ComponentPad*%
%ADD20O,2.000000X1.200000*%
%TD*%
%TA.AperFunction,ComponentPad*%
%ADD21RoundRect,0.250000X0.550000X-0.550000X0.550000X0.550000X-0.550000X0.550000X-0.550000X-0.550000X0*%
%TD*%
%TA.AperFunction,Conductor*%
%ADD22C,0.200000*%
%TD*%
%TA.AperFunction,Conductor*%
%ADD23C,2.000000*%
%TD*%
%TA.AperFunction,Conductor*%
%ADD24C,1.524000*%
%TD*%
%TA.AperFunction,Conductor*%
%ADD25C,2.540000*%
%TD*%
G04 APERTURE END LIST*
D10*
%TO.P,F1,1*%
%TO.N,+12V*%
X166500000Y-79937500D03*
X162700000Y-79937500D03*
%TO.P,F1,2*%
%TO.N,Net-(J3-Pin_1)*%
X158400000Y-79937500D03*
X154600000Y-79937500D03*
%TD*%
%TO.P,F2,1*%
%TO.N,+12V*%
X166500000Y-96937500D03*
X162700000Y-96937500D03*
%TO.P,F2,2*%
%TO.N,Net-(J4-Pin_1)*%
X158400000Y-96937500D03*
X154600000Y-96937500D03*
%TD*%
D11*
%TO.P,J3,1,Pin_1*%
%TO.N,Net-(J3-Pin_1)*%
X130500000Y-77500000D03*
D12*
%TO.P,J3,2,Pin_2*%
%TO.N,GND*%
X130500000Y-82500000D03*
%TD*%
D13*
%TO.P,C1,1*%
%TO.N,Net-(J3-Pin_1)*%
X144000000Y-77569823D03*
D14*
%TO.P,C1,2*%
%TO.N,GND*%
X144000000Y-82569823D03*
%TD*%
D13*
%TO.P,C2,1*%
%TO.N,Net-(J4-Pin_1)*%
X144000000Y-94569823D03*
D14*
%TO.P,C2,2*%
%TO.N,GND*%
X144000000Y-99569823D03*
%TD*%
D15*
%TO.P,R2,1*%
%TO.N,Net-(R2-Pad1)*%
X145500000Y-116500000D03*
%TO.P,R2,2*%
%TO.N,DATA2*%
X140420000Y-116500000D03*
%TD*%
%TO.P,R1,1*%
%TO.N,Net-(R1-Pad1)*%
X145500000Y-111500000D03*
%TO.P,R1,2*%
%TO.N,DATA1*%
X140420000Y-111500000D03*
%TD*%
D11*
%TO.P,J5,1,Pin_1*%
%TO.N,DATA1*%
X130500000Y-111500000D03*
D12*
%TO.P,J5,2,Pin_2*%
%TO.N,DATA2*%
X130500000Y-116500000D03*
%TD*%
D11*
%TO.P,J4,1,Pin_1*%
%TO.N,Net-(J4-Pin_1)*%
X130500000Y-94500000D03*
D12*
%TO.P,J4,2,Pin_2*%
%TO.N,GND*%
X130500000Y-99500000D03*
%TD*%
D16*
%TO.P,J2,1,Pin_1*%
%TO.N,+5V*%
X143500000Y-66747500D03*
D17*
%TO.P,J2,2,Pin_2*%
%TO.N,GND*%
X143500000Y-64207500D03*
%TO.P,J2,3,Pin_3*%
%TO.N,+12V*%
X143500000Y-61667500D03*
%TO.P,J2,4,Pin_4*%
%TO.N,unconnected-(J2-Pin_4-Pad4)*%
X143500000Y-59127500D03*
%TD*%
D11*
%TO.P,J1,1,Pin_1*%
%TO.N,+12V*%
X130500000Y-60500000D03*
D12*
%TO.P,J1,2,Pin_2*%
%TO.N,GND*%
X130500000Y-65500000D03*
%TD*%
D18*
%TO.P,C3,1*%
%TO.N,+5V*%
X150500000Y-112687500D03*
%TO.P,C3,2*%
%TO.N,GND*%
X150500000Y-115187500D03*
%TD*%
D19*
%TO.P,U1,1,3V3*%
%TO.N,unconnected-(U1-3V3-Pad1)*%
X173800000Y-58096560D03*
D20*
%TO.P,U1,2,CHIP_PU*%
%TO.N,unconnected-(U1-CHIP_PU-Pad2)*%
X173800000Y-60636560D03*
%TO.P,U1,3,SENSOR_VP/GPIO36/ADC1_CH0*%
%TO.N,unconnected-(U1-SENSOR_VP{slash}GPIO36{slash}ADC1_CH0-Pad3)*%
X173800000Y-63176560D03*
%TO.P,U1,4,SENSOR_VN/GPIO39/ADC1_CH3*%
%TO.N,unconnected-(U1-SENSOR_VN{slash}GPIO39{slash}ADC1_CH3-Pad4)*%
X173800000Y-65716560D03*
%TO.P,U1,5,VDET_1/GPIO34/ADC1_CH6*%
%TO.N,unconnected-(U1-VDET_1{slash}GPIO34{slash}ADC1_CH6-Pad5)*%
X173800000Y-68256560D03*
%TO.P,U1,6,VDET_2/GPIO35/ADC1_CH7*%
%TO.N,unconnected-(U1-VDET_2{slash}GPIO35{slash}ADC1_CH7-Pad6)*%
X173800000Y-70796560D03*
%TO.P,U1,7,32K_XP/GPIO32/ADC1_CH4*%
%TO.N,unconnected-(U1-32K_XP{slash}GPIO32{slash}ADC1_CH4-Pad7)*%
X173800000Y-73336560D03*
%TO.P,U1,8,32K_XN/GPIO33/ADC1_CH5*%
%TO.N,unconnected-(U1-32K_XN{slash}GPIO33{slash}ADC1_CH5-Pad8)*%
X173800000Y-75876560D03*
%TO.P,U1,9,DAC_1/ADC2_CH8/GPIO25*%
%TO.N,unconnected-(U1-DAC_1{slash}ADC2_CH8{slash}GPIO25-Pad9)*%
X173800000Y-78416560D03*
%TO.P,U1,10,DAC_2/ADC2_CH9/GPIO26*%
%TO.N,unconnected-(U1-DAC_2{slash}ADC2_CH9{slash}GPIO26-Pad10)*%
X173800000Y-80956560D03*
%TO.P,U1,11,ADC2_CH7/GPIO27*%
%TO.N,unconnected-(U1-ADC2_CH7{slash}GPIO27-Pad11)*%
X173800000Y-83496560D03*
%TO.P,U1,12,MTMS/GPIO14/ADC2_CH6*%
%TO.N,unconnected-(U1-MTMS{slash}GPIO14{slash}ADC2_CH6-Pad12)*%
X173800000Y-86036560D03*
%TO.P,U1,13,MTDI/GPIO12/ADC2_CH5*%
%TO.N,unconnected-(U1-MTDI{slash}GPIO12{slash}ADC2_CH5-Pad13)*%
X173800000Y-88576560D03*
%TO.P,U1,14,GND*%
%TO.N,GND*%
X173800000Y-91116560D03*
%TO.P,U1,15,MTCK/GPIO13/ADC2_CH4*%
%TO.N,unconnected-(U1-MTCK{slash}GPIO13{slash}ADC2_CH4-Pad15)*%
X173800000Y-93656560D03*
%TO.P,U1,16,SD_DATA2/GPIO9*%
%TO.N,unconnected-(U1-SD_DATA2{slash}GPIO9-Pad16)*%
X173800000Y-96196560D03*
%TO.P,U1,17,SD_DATA3/GPIO10*%
%TO.N,unconnected-(U1-SD_DATA3{slash}GPIO10-Pad17)*%
X173800000Y-98736560D03*
%TO.P,U1,18,CMD*%
%TO.N,unconnected-(U1-CMD-Pad18)*%
X173800000Y-101276560D03*
%TO.P,U1,19,5V*%
%TO.N,+5V*%
X173800000Y-103816560D03*
%TO.P,U1,20,SD_CLK/GPIO6*%
%TO.N,unconnected-(U1-SD_CLK{slash}GPIO6-Pad20)*%
X199196320Y-103813840D03*
%TO.P,U1,21,SD_DATA0/GPIO7*%
%TO.N,unconnected-(U1-SD_DATA0{slash}GPIO7-Pad21)*%
X199196320Y-101273840D03*
%TO.P,U1,22,SD_DATA1/GPIO8*%
%TO.N,unconnected-(U1-SD_DATA1{slash}GPIO8-Pad22)*%
X199200000Y-98736560D03*
%TO.P,U1,23,MTDO/GPIO15/ADC2_CH3*%
%TO.N,unconnected-(U1-MTDO{slash}GPIO15{slash}ADC2_CH3-Pad23)*%
X199200000Y-96196560D03*
%TO.P,U1,24,ADC2_CH2/GPIO2*%
%TO.N,unconnected-(U1-ADC2_CH2{slash}GPIO2-Pad24)*%
X199200000Y-93656560D03*
%TO.P,U1,25,GPIO0/BOOT/ADC2_CH1*%
%TO.N,unconnected-(U1-GPIO0{slash}BOOT{slash}ADC2_CH1-Pad25)*%
X199200000Y-91116560D03*
%TO.P,U1,26,ADC2_CH0/GPIO4*%
%TO.N,unconnected-(U1-ADC2_CH0{slash}GPIO4-Pad26)*%
X199200000Y-88576560D03*
%TO.P,U1,27,GPIO16*%
%TO.N,GPIO16*%
X199200000Y-86036560D03*
%TO.P,U1,28,GPIO17*%
%TO.N,GPIO17*%
X199200000Y-83496560D03*
%TO.P,U1,29,GPIO5*%
%TO.N,unconnected-(U1-GPIO5-Pad29)*%
X199200000Y-80956560D03*
%TO.P,U1,30,GPIO18*%
%TO.N,unconnected-(U1-GPIO18-Pad30)*%
X199200000Y-78416560D03*
%TO.P,U1,31,GPIO19*%
%TO.N,unconnected-(U1-GPIO19-Pad31)*%
X199200000Y-75876560D03*
%TO.P,U1,32,GND*%
%TO.N,GND*%
X199200000Y-73336560D03*
%TO.P,U1,33,GPIO21*%
%TO.N,unconnected-(U1-GPIO21-Pad33)*%
X199200000Y-70796560D03*
%TO.P,U1,34,U0RXD/GPIO3*%
%TO.N,unconnected-(U1-U0RXD{slash}GPIO3-Pad34)*%
X199200000Y-68256560D03*
%TO.P,U1,35,U0TXD/GPIO1*%
%TO.N,unconnected-(U1-U0TXD{slash}GPIO1-Pad35)*%
X199200000Y-65716560D03*
%TO.P,U1,36,GPIO22*%
%TO.N,unconnected-(U1-GPIO22-Pad36)*%
X199200000Y-63176560D03*
%TO.P,U1,37,GPIO23*%
%TO.N,unconnected-(U1-GPIO23-Pad37)*%
X199200000Y-60636560D03*
%TO.P,U1,38,GND*%
%TO.N,GND*%
X199200000Y-58096560D03*
%TD*%
D21*
%TO.P,U2,1*%
%TO.N,GND*%
X157300000Y-117747500D03*
D18*
%TO.P,U2,2*%
%TO.N,GPIO16*%
X159840000Y-117747500D03*
%TO.P,U2,3*%
%TO.N,Net-(R1-Pad1)*%
X162380000Y-117747500D03*
%TO.P,U2,4*%
%TO.N,GND*%
X164920000Y-117747500D03*
%TO.P,U2,5*%
%TO.N,GPIO17*%
X167460000Y-117747500D03*
%TO.P,U2,6*%
%TO.N,Net-(R2-Pad1)*%
X170000000Y-117747500D03*
%TO.P,U2,7,GND*%
%TO.N,GND*%
X172540000Y-117747500D03*
%TO.P,U2,8*%
%TO.N,unconnected-(U2-Pad8)*%
X172540000Y-110127500D03*
%TO.P,U2,9*%
%TO.N,GND*%
X170000000Y-110127500D03*
%TO.P,U2,10*%
%TO.N,+5V*%
X167460000Y-110127500D03*
%TO.P,U2,11*%
%TO.N,unconnected-(U2-Pad11)*%
X164920000Y-110127500D03*
%TO.P,U2,12*%
%TO.N,GND*%
X162380000Y-110127500D03*
%TO.P,U2,13*%
%TO.N,+5V*%
X159840000Y-110127500D03*
%TO.P,U2,14,VCC*%
X157300000Y-110127500D03*
%TD*%
D22*
%TO.N,DATA2*%
X140420000Y-116500000D02*
X130500000Y-116500000D01*
%TO.N,DATA1*%
X140420000Y-111500000D02*
X130500000Y-111500000D01*
%TO.N,GPIO16*%
X199200000Y-86036560D02*
X199200000Y-86836560D01*
X199200000Y-86836560D02*
X175500000Y-110536560D01*
X175500000Y-110536560D02*
X175500000Y-117500000D01*
X175500000Y-117500000D02*
X173000000Y-120000000D01*
X173000000Y-120000000D02*
X162092500Y-120000000D01*
X162092500Y-120000000D02*
X159840000Y-117747500D01*
%TO.N,GPIO17*%
X199200000Y-83496560D02*
X197899000Y-84797560D01*
X197899000Y-87308500D02*
X167460000Y-117747500D01*
X197899000Y-84797560D02*
X197899000Y-87308500D01*
D23*
%TO.N,Net-(J4-Pin_1)*%
X144000000Y-94569823D02*
X130569823Y-94569823D01*
D24*
X130569823Y-94569823D02*
X130500000Y-94500000D01*
D23*
X154600000Y-96937500D02*
X146367677Y-96937500D01*
X146367677Y-96937500D02*
X144000000Y-94569823D01*
%TO.N,Net-(J3-Pin_1)*%
X144000000Y-77569823D02*
X130569823Y-77569823D01*
D24*
X130569823Y-77569823D02*
X130500000Y-77500000D01*
D23*
X154600000Y-79937500D02*
X146367677Y-79937500D01*
X146367677Y-79937500D02*
X144000000Y-77569823D01*
%TO.N,Net-(J4-Pin_1)*%
X158400000Y-96937500D02*
X154600000Y-96937500D01*
%TO.N,Net-(J3-Pin_1)*%
X158400000Y-79937500D02*
X154600000Y-79937500D01*
D25*
%TO.N,+12V*%
X166500000Y-96937500D02*
X166500000Y-79937500D01*
X162700000Y-79937500D02*
X162700000Y-96937500D01*
X162700000Y-79937500D02*
X166500000Y-79937500D01*
X143500000Y-61667500D02*
X144430000Y-61667500D01*
X144430000Y-61667500D02*
X162700000Y-79937500D01*
X130500000Y-60500000D02*
X131667500Y-61667500D01*
X131667500Y-61667500D02*
X143500000Y-61667500D01*
%TD*%
%TA.AperFunction,Conductor*%
%TO.N,+12V*%
G36*
X174943039Y-47520185D02*
G01*
X174988794Y-47572989D01*
X175000000Y-47624500D01*
X175000000Y-57000000D01*
X197000000Y-57000000D01*
X197000000Y-47624500D01*
X197019685Y-47557461D01*
X197072489Y-47511706D01*
X197124000Y-47500500D01*
X198934108Y-47500500D01*
X198996949Y-47500500D01*
X199003032Y-47500648D01*
X199336929Y-47517052D01*
X199349037Y-47518245D01*
X199362116Y-47520185D01*
X199676699Y-47566849D01*
X199688617Y-47569219D01*
X200009951Y-47649709D01*
X200021588Y-47653240D01*
X200092806Y-47678722D01*
X200333467Y-47764832D01*
X200344688Y-47769479D01*
X200644163Y-47911120D01*
X200654871Y-47916844D01*
X200938988Y-48087137D01*
X200949106Y-48093897D01*
X201215170Y-48291224D01*
X201224576Y-48298944D01*
X201470013Y-48521395D01*
X201478604Y-48529986D01*
X201665755Y-48736475D01*
X201701055Y-48775423D01*
X201708775Y-48784829D01*
X201906102Y-49050893D01*
X201912862Y-49061011D01*
X202041776Y-49276092D01*
X202083148Y-49345116D01*
X202088885Y-49355848D01*
X202230514Y-49655297D01*
X202235170Y-49666540D01*
X202346759Y-49978411D01*
X202350292Y-49990055D01*
X202430777Y-50311369D01*
X202433151Y-50323305D01*
X202481754Y-50650962D01*
X202482947Y-50663071D01*
X202499351Y-50996966D01*
X202499500Y-51003051D01*
X202499500Y-100670500D01*
X202479815Y-100737539D01*
X202427011Y-100783294D01*
X202375500Y-100794500D01*
X200509127Y-100794500D01*
X200508597Y-100794507D01*
X200503571Y-100794574D01*
X200496987Y-100794750D01*
X200434128Y-100806382D01*
X200434122Y-100806383D01*
X200434122Y-100806384D01*
X200373314Y-100827836D01*
X200303546Y-100831576D01*
X200242830Y-100797002D01*
X200228960Y-100779790D01*
X200218109Y-100763551D01*
X200218106Y-100763547D01*
X200106612Y-100652053D01*
X200106608Y-100652050D01*
X199975505Y-100564449D01*
X199975492Y-100564442D01*
X199829821Y-100504104D01*
X199829809Y-100504101D01*
X199675165Y-100473340D01*
X199675162Y-100473340D01*
X198717478Y-100473340D01*
X198717475Y-100473340D01*
X198562830Y-100504101D01*
X198562818Y-100504104D01*
X198417147Y-100564442D01*
X198417134Y-100564449D01*
X198286031Y-100652050D01*
X198286027Y-100652053D01*
X198174535Y-100763545D01*
X198174525Y-100763557D01*
X198164190Y-100779024D01*
X198110576Y-100823827D01*
X198041250Y-100832530D01*
X198013053Y-100824445D01*
X198008448Y-100822509D01*
X197941416Y-100802826D01*
X197941412Y-100802825D01*
X197941411Y-100802825D01*
X197883513Y-100794500D01*
X197883509Y-100794500D01*
X185966393Y-100794500D01*
X185899354Y-100774815D01*
X185853599Y-100722011D01*
X185843655Y-100652853D01*
X185872680Y-100589297D01*
X185878712Y-100582819D01*
X187803818Y-98657713D01*
X197999500Y-98657713D01*
X197999500Y-98815406D01*
X198030261Y-98970049D01*
X198030264Y-98970061D01*
X198090602Y-99115732D01*
X198090609Y-99115745D01*
X198178210Y-99246848D01*
X198178213Y-99246852D01*
X198289707Y-99358346D01*
X198289711Y-99358349D01*
X198420814Y-99445950D01*
X198420827Y-99445957D01*
X198491770Y-99475342D01*
X198566503Y-99506297D01*
X198721153Y-99537059D01*
X198721156Y-99537060D01*
X198721158Y-99537060D01*
X199678844Y-99537060D01*
X199678845Y-99537059D01*
X199833497Y-99506297D01*
X199979179Y-99445954D01*
X200110289Y-99358349D01*
X200221789Y-99246849D01*
X200309394Y-99115739D01*
X200369737Y-98970057D01*
X200400500Y-98815402D01*
X200400500Y-98657718D01*
X200400500Y-98657715D01*
X200400499Y-98657713D01*
X200379713Y-98553217D01*
X200369737Y-98503063D01*
X200350772Y-98457276D01*
X200309397Y-98357387D01*
X200309390Y-98357374D01*
X200221789Y-98226271D01*
X200221786Y-98226267D01*
X200110292Y-98114773D01*
X200110288Y-98114770D01*
X199979185Y-98027169D01*
X199979172Y-98027162D01*
X199833501Y-97966824D01*
X199833489Y-97966821D01*
X199678845Y-97936060D01*
X199678842Y-97936060D01*
X198721158Y-97936060D01*
X198721155Y-97936060D01*
X198566510Y-97966821D01*
X198566498Y-97966824D01*
X198420827Y-98027162D01*
X198420814Y-98027169D01*
X198289711Y-98114770D01*
X198289707Y-98114773D01*
X198178213Y-98226267D01*
X198178210Y-98226271D01*
X198090609Y-98357374D01*
X198090602Y-98357387D01*
X198030264Y-98503058D01*
X198030261Y-98503070D01*
X197999500Y-98657713D01*
X187803818Y-98657713D01*
X187897586Y-98563945D01*
X189063199Y-97398332D01*
X190343818Y-96117713D01*
X197999500Y-96117713D01*
X197999500Y-96275406D01*
X198030261Y-96430049D01*
X198030264Y-96430061D01*
X198090602Y-96575732D01*
X198090609Y-96575745D01*
X198178210Y-96706848D01*
X198178213Y-96706852D01*
X198289707Y-96818346D01*
X198289711Y-96818349D01*
X198420814Y-96905950D01*
X198420827Y-96905957D01*
X198566498Y-96966295D01*
X198566503Y-96966297D01*
X198721153Y-96997059D01*
X198721156Y-96997060D01*
X198721158Y-96997060D01*
X199678844Y-96997060D01*
X199678845Y-96997059D01*
X199833497Y-96966297D01*
X199979179Y-96905954D01*
X200110289Y-96818349D01*
X200221789Y-96706849D01*
X200309394Y-96575739D01*
X200369737Y-96430057D01*
X200400500Y-96275402D01*
X200400500Y-96117718D01*
X200400500Y-96117715D01*
X200400499Y-96117713D01*
X200392114Y-96075560D01*
X200369737Y-95963063D01*
X200313496Y-95827284D01*
X200309397Y-95817387D01*
X200309390Y-95817374D01*
X200221789Y-95686271D01*
X200221786Y-95686267D01*
X200110292Y-95574773D01*
X200110288Y-95574770D01*
X199979185Y-95487169D01*
X199979172Y-95487162D01*
X199833501Y-95426824D01*
X199833489Y-95426821D01*
X199678845Y-95396060D01*
X199678842Y-95396060D01*
X198721158Y-95396060D01*
X198721155Y-95396060D01*
X198566510Y-95426821D01*
X198566498Y-95426824D01*
X198420827Y-95487162D01*
X198420814Y-95487169D01*
X198289711Y-95574770D01*
X198289707Y-95574773D01*
X198178213Y-95686267D01*
X198178210Y-95686271D01*
X198090609Y-95817374D01*
X198090602Y-95817387D01*
X198030264Y-95963058D01*
X198030261Y-95963070D01*
X197999500Y-96117713D01*
X190343818Y-96117713D01*
X192883817Y-93577713D01*
X197999500Y-93577713D01*
X197999500Y-93735406D01*
X198030261Y-93890049D01*
X198030264Y-93890061D01*
X198090602Y-94035732D01*
X198090609Y-94035745D01*
X198178210Y-94166848D01*
X198178213Y-94166852D01*
X198289707Y-94278346D01*
X198289711Y-94278349D01*
X198420814Y-94365950D01*
X198420827Y-94365957D01*
X198566498Y-94426295D01*
X198566503Y-94426297D01*
X198721153Y-94457059D01*
X198721156Y-94457060D01*
X198721158Y-94457060D01*
X199678844Y-94457060D01*
X199678845Y-94457059D01*
X199833497Y-94426297D01*
X199979179Y-94365954D01*
X200110289Y-94278349D01*
X200221789Y-94166849D01*
X200309394Y-94035739D01*
X200315418Y-94021197D01*
X200369735Y-93890061D01*
X200369737Y-93890057D01*
X200400500Y-93735402D01*
X200400500Y-93577718D01*
X200400500Y-93577715D01*
X200400499Y-93577713D01*
X200369738Y-93423070D01*
X200369737Y-93423063D01*
X200367238Y-93417029D01*
X200309397Y-93277387D01*
X200309390Y-93277374D01*
X200221789Y-93146271D01*
X200221786Y-93146267D01*
X200110292Y-93034773D01*
X200110288Y-93034770D01*
X199979185Y-92947169D01*
X199979172Y-92947162D01*
X199833501Y-92886824D01*
X199833489Y-92886821D01*
X199678845Y-92856060D01*
X199678842Y-92856060D01*
X198721158Y-92856060D01*
X198721155Y-92856060D01*
X198566510Y-92886821D01*
X198566498Y-92886824D01*
X198420827Y-92947162D01*
X198420814Y-92947169D01*
X198289711Y-93034770D01*
X198289707Y-93034773D01*
X198178213Y-93146267D01*
X198178210Y-93146271D01*
X198090609Y-93277374D01*
X198090602Y-93277387D01*
X198030264Y-93423058D01*
X198030261Y-93423070D01*
X197999500Y-93577713D01*
X192883817Y-93577713D01*
X195423817Y-91037713D01*
X197999500Y-91037713D01*
X197999500Y-91195406D01*
X198030261Y-91350049D01*
X198030264Y-91350061D01*
X198090602Y-91495732D01*
X198090609Y-91495745D01*
X198178210Y-91626848D01*
X198178213Y-91626852D01*
X198289707Y-91738346D01*
X198289711Y-91738349D01*
X198420814Y-91825950D01*
X198420827Y-91825957D01*
X198566498Y-91886295D01*
X198566503Y-91886297D01*
X198721153Y-91917059D01*
X198721156Y-91917060D01*
X198721158Y-91917060D01*
X199678844Y-91917060D01*
X199678845Y-91917059D01*
X199833497Y-91886297D01*
X199979179Y-91825954D01*
X200110289Y-91738349D01*
X200221789Y-91626849D01*
X200309394Y-91495739D01*
X200369737Y-91350057D01*
X200400500Y-91195402D01*
X200400500Y-91037718D01*
X200400500Y-91037715D01*
X200400499Y-91037713D01*
X200369738Y-90883070D01*
X200369737Y-90883063D01*
X200369735Y-90883058D01*
X200309397Y-90737387D01*
X200309390Y-90737374D01*
X200221789Y-90606271D01*
X200221786Y-90606267D01*
X200110292Y-90494773D01*
X200110288Y-90494770D01*
X199979185Y-90407169D01*
X199979172Y-90407162D01*
X199833501Y-90346824D01*
X199833489Y-90346821D01*
X199678845Y-90316060D01*
X199678842Y-90316060D01*
X198721158Y-90316060D01*
X198721155Y-90316060D01*
X198566510Y-90346821D01*
X198566498Y-90346824D01*
X198420827Y-90407162D01*
X198420814Y-90407169D01*
X198289711Y-90494770D01*
X198289707Y-90494773D01*
X198178213Y-90606267D01*
X198178210Y-90606271D01*
X198090609Y-90737374D01*
X198090602Y-90737387D01*
X198030264Y-90883058D01*
X198030261Y-90883070D01*
X197999500Y-91037713D01*
X195423817Y-91037713D01*
X197803379Y-88658150D01*
X197864700Y-88624667D01*
X197934392Y-88629651D01*
X197990325Y-88671523D01*
X198012675Y-88721641D01*
X198030261Y-88810051D01*
X198030264Y-88810061D01*
X198090602Y-88955732D01*
X198090609Y-88955745D01*
X198178210Y-89086848D01*
X198178213Y-89086852D01*
X198289707Y-89198346D01*
X198289711Y-89198349D01*
X198420814Y-89285950D01*
X198420827Y-89285957D01*
X198566498Y-89346295D01*
X198566503Y-89346297D01*
X198721153Y-89377059D01*
X198721156Y-89377060D01*
X198721158Y-89377060D01*
X199678844Y-89377060D01*
X199678845Y-89377059D01*
X199833497Y-89346297D01*
X199979179Y-89285954D01*
X200110289Y-89198349D01*
X200221789Y-89086849D01*
X200309394Y-88955739D01*
X200369737Y-88810057D01*
X200400500Y-88655402D01*
X200400500Y-88497718D01*
X200400500Y-88497715D01*
X200400499Y-88497713D01*
X200369737Y-88343063D01*
X200369735Y-88343058D01*
X200309397Y-88197387D01*
X200309390Y-88197374D01*
X200221789Y-88066271D01*
X200221786Y-88066267D01*
X200110292Y-87954773D01*
X200110288Y-87954770D01*
X199979185Y-87867169D01*
X199979172Y-87867162D01*
X199833501Y-87806824D01*
X199833489Y-87806821D01*
X199678845Y-87776060D01*
X199678842Y-87776060D01*
X198984832Y-87776060D01*
X198917793Y-87756375D01*
X198872038Y-87703571D01*
X198862094Y-87634413D01*
X198891119Y-87570857D01*
X198897151Y-87564379D01*
X199037042Y-87424488D01*
X199440460Y-87021071D01*
X199480021Y-86952549D01*
X199486341Y-86928964D01*
X199522707Y-86869305D01*
X199585554Y-86838777D01*
X199606115Y-86837060D01*
X199678844Y-86837060D01*
X199678845Y-86837059D01*
X199833497Y-86806297D01*
X199979179Y-86745954D01*
X200110289Y-86658349D01*
X200221789Y-86546849D01*
X200309394Y-86415739D01*
X200369737Y-86270057D01*
X200400500Y-86115402D01*
X200400500Y-85957718D01*
X200400500Y-85957715D01*
X200400499Y-85957713D01*
X200369738Y-85803070D01*
X200369737Y-85803063D01*
X200369735Y-85803058D01*
X200309397Y-85657387D01*
X200309390Y-85657374D01*
X200221789Y-85526271D01*
X200221786Y-85526267D01*
X200110292Y-85414773D01*
X200110288Y-85414770D01*
X199979185Y-85327169D01*
X199979172Y-85327162D01*
X199833501Y-85266824D01*
X199833489Y-85266821D01*
X199678845Y-85236060D01*
X199678842Y-85236060D01*
X198721158Y-85236060D01*
X198721155Y-85236060D01*
X198566510Y-85266821D01*
X198566498Y-85266824D01*
X198420827Y-85327162D01*
X198420811Y-85327171D01*
X198392389Y-85346162D01*
X198325712Y-85367039D01*
X198258332Y-85348554D01*
X198211642Y-85296574D01*
X198199500Y-85243059D01*
X198199500Y-84973393D01*
X198219185Y-84906354D01*
X198235819Y-84885712D01*
X198788152Y-84333379D01*
X198849475Y-84299894D01*
X198875833Y-84297060D01*
X199678844Y-84297060D01*
X199678845Y-84297059D01*
X199833497Y-84266297D01*
X199979179Y-84205954D01*
X200110289Y-84118349D01*
X200221789Y-84006849D01*
X200309394Y-83875739D01*
X200369737Y-83730057D01*
X200400500Y-83575402D01*
X200400500Y-83417718D01*
X200400500Y-83417715D01*
X200400499Y-83417713D01*
X200369738Y-83263070D01*
X200369737Y-83263063D01*
X200343211Y-83199022D01*
X200309397Y-83117387D01*
X200309390Y-83117374D01*
X200221789Y-82986271D01*
X200221786Y-82986267D01*
X200110292Y-82874773D01*
X200110288Y-82874770D01*
X199979185Y-82787169D01*
X199979172Y-82787162D01*
X199833501Y-82726824D01*
X199833489Y-82726821D01*
X199678845Y-82696060D01*
X199678842Y-82696060D01*
X198721158Y-82696060D01*
X198721155Y-82696060D01*
X198566510Y-82726821D01*
X198566498Y-82726824D01*
X198420827Y-82787162D01*
X198420814Y-82787169D01*
X198289711Y-82874770D01*
X198289707Y-82874773D01*
X198178213Y-82986267D01*
X198178210Y-82986271D01*
X198090609Y-83117374D01*
X198090602Y-83117387D01*
X198030264Y-83263058D01*
X198030261Y-83263070D01*
X197999500Y-83417713D01*
X197999500Y-83575406D01*
X198030261Y-83730049D01*
X198030264Y-83730061D01*
X198090602Y-83875732D01*
X198090612Y-83875750D01*
X198156331Y-83974106D01*
X198177209Y-84040783D01*
X198158724Y-84108163D01*
X198140910Y-84130677D01*
X197714489Y-84557100D01*
X197658541Y-84613047D01*
X197658535Y-84613055D01*
X197618982Y-84681564D01*
X197618979Y-84681569D01*
X197598500Y-84757999D01*
X197598500Y-87132666D01*
X197578815Y-87199705D01*
X197562181Y-87220347D01*
X183888778Y-100893749D01*
X183827455Y-100927234D01*
X183757763Y-100922250D01*
X183707392Y-100887280D01*
X183705510Y-100885108D01*
X183687924Y-100867160D01*
X183687923Y-100867159D01*
X183687921Y-100867157D01*
X183687919Y-100867156D01*
X183687917Y-100867154D01*
X183608107Y-100822511D01*
X183608102Y-100822509D01*
X183541070Y-100802826D01*
X183541066Y-100802825D01*
X183541065Y-100802825D01*
X183483167Y-100794500D01*
X175112266Y-100794500D01*
X175111736Y-100794507D01*
X175106710Y-100794574D01*
X175100126Y-100794750D01*
X175037264Y-100806382D01*
X174975421Y-100828200D01*
X174905651Y-100831939D01*
X174844936Y-100797365D01*
X174831067Y-100780155D01*
X174821791Y-100766273D01*
X174821786Y-100766267D01*
X174710292Y-100654773D01*
X174710288Y-100654770D01*
X174579185Y-100567169D01*
X174579172Y-100567162D01*
X174433501Y-100506824D01*
X174433489Y-100506821D01*
X174278845Y-100476060D01*
X174278842Y-100476060D01*
X173321158Y-100476060D01*
X173321155Y-100476060D01*
X173166510Y-100506821D01*
X173166498Y-100506824D01*
X173020827Y-100567162D01*
X173020814Y-100567169D01*
X172889711Y-100654770D01*
X172889707Y-100654773D01*
X172778217Y-100766264D01*
X172778214Y-100766267D01*
X172778211Y-100766270D01*
X172778211Y-100766271D01*
X172773292Y-100773631D01*
X172769408Y-100779445D01*
X172715792Y-100824246D01*
X172646467Y-100832949D01*
X172618271Y-100824863D01*
X172612676Y-100822512D01*
X172612673Y-100822511D01*
X172612671Y-100822510D01*
X172571440Y-100810403D01*
X172545637Y-100802826D01*
X172545633Y-100802825D01*
X172545632Y-100802825D01*
X172487734Y-100794500D01*
X172487730Y-100794500D01*
X144738422Y-100794500D01*
X144671383Y-100774815D01*
X144625628Y-100722011D01*
X144615684Y-100652853D01*
X144644709Y-100589297D01*
X144665533Y-100570184D01*
X144782073Y-100485513D01*
X144915690Y-100351896D01*
X145026760Y-100199022D01*
X145112547Y-100030655D01*
X145170940Y-99850941D01*
X145173868Y-99832452D01*
X145200500Y-99664309D01*
X145200500Y-99475336D01*
X145170940Y-99288704D01*
X145131569Y-99167534D01*
X145112547Y-99108991D01*
X145112545Y-99108988D01*
X145112545Y-99108986D01*
X145041757Y-98970057D01*
X145026760Y-98940624D01*
X144915690Y-98787750D01*
X144782073Y-98654133D01*
X144629199Y-98543063D01*
X144619260Y-98537999D01*
X144460836Y-98457277D01*
X144281118Y-98398882D01*
X144094486Y-98369323D01*
X144094481Y-98369323D01*
X143905519Y-98369323D01*
X143905514Y-98369323D01*
X143718881Y-98398882D01*
X143539163Y-98457277D01*
X143370800Y-98543063D01*
X143283579Y-98606433D01*
X143217927Y-98654133D01*
X143217925Y-98654135D01*
X143217924Y-98654135D01*
X143084312Y-98787747D01*
X143084312Y-98787748D01*
X143084310Y-98787750D01*
X143070529Y-98806718D01*
X142973240Y-98940623D01*
X142887454Y-99108986D01*
X142829059Y-99288704D01*
X142799500Y-99475336D01*
X142799500Y-99664309D01*
X142829059Y-99850941D01*
X142887454Y-100030659D01*
X142973240Y-100199022D01*
X143084310Y-100351896D01*
X143217927Y-100485513D01*
X143334464Y-100570183D01*
X143377129Y-100625512D01*
X143383108Y-100695126D01*
X143350502Y-100756921D01*
X143289663Y-100791278D01*
X143261578Y-100794500D01*
X131901577Y-100794500D01*
X131834538Y-100774815D01*
X131788783Y-100722011D01*
X131778839Y-100652853D01*
X131803201Y-100595014D01*
X131916941Y-100446783D01*
X131916940Y-100446783D01*
X131916948Y-100446774D01*
X132028405Y-100253726D01*
X132113710Y-100047781D01*
X132171404Y-99832463D01*
X132200500Y-99611457D01*
X132200500Y-99388543D01*
X132171404Y-99167537D01*
X132113710Y-98952219D01*
X132028405Y-98746274D01*
X131916948Y-98553226D01*
X131798517Y-98398883D01*
X131781248Y-98376377D01*
X131781242Y-98376370D01*
X131623629Y-98218757D01*
X131623622Y-98218751D01*
X131446782Y-98083058D01*
X131446780Y-98083057D01*
X131446774Y-98083052D01*
X131253726Y-97971595D01*
X131253722Y-97971593D01*
X131047790Y-97886293D01*
X131047783Y-97886291D01*
X131047781Y-97886290D01*
X130832463Y-97828596D01*
X130832457Y-97828595D01*
X130832452Y-97828594D01*
X130611466Y-97799501D01*
X130611463Y-97799500D01*
X130611457Y-97799500D01*
X130388543Y-97799500D01*
X130388537Y-97799500D01*
X130388533Y-97799501D01*
X130167547Y-97828594D01*
X130167540Y-97828595D01*
X130167537Y-97828596D01*
X130032634Y-97864743D01*
X129952219Y-97886290D01*
X129952209Y-97886293D01*
X129746277Y-97971593D01*
X129746273Y-97971595D01*
X129553226Y-98083052D01*
X129553217Y-98083058D01*
X129376377Y-98218751D01*
X129376370Y-98218757D01*
X129218757Y-98376370D01*
X129218751Y-98376377D01*
X129083058Y-98553217D01*
X129083052Y-98553226D01*
X128971595Y-98746273D01*
X128971593Y-98746277D01*
X128886293Y-98952209D01*
X128886290Y-98952219D01*
X128881513Y-98970049D01*
X128828597Y-99167534D01*
X128828594Y-99167547D01*
X128799501Y-99388533D01*
X128799500Y-99388549D01*
X128799500Y-99611450D01*
X128799501Y-99611466D01*
X128828594Y-99832452D01*
X128828595Y-99832457D01*
X128828596Y-99832463D01*
X128881701Y-100030655D01*
X128886290Y-100047780D01*
X128886293Y-100047790D01*
X128971593Y-100253722D01*
X128971595Y-100253726D01*
X129083052Y-100446774D01*
X129083054Y-100446777D01*
X129083058Y-100446783D01*
X129196799Y-100595014D01*
X129221993Y-100660183D01*
X129207954Y-100728628D01*
X129159140Y-100778618D01*
X129098423Y-100794500D01*
X125624500Y-100794500D01*
X125557461Y-100774815D01*
X125511706Y-100722011D01*
X125500500Y-100670500D01*
X125500500Y-92980247D01*
X128799500Y-92980247D01*
X128799500Y-96019752D01*
X128811131Y-96078229D01*
X128811132Y-96078230D01*
X128855447Y-96144552D01*
X128921769Y-96188867D01*
X128921770Y-96188868D01*
X128980247Y-96200499D01*
X128980250Y-96200500D01*
X128980252Y-96200500D01*
X132019750Y-96200500D01*
X132019751Y-96200499D01*
X132034568Y-96197552D01*
X132078229Y-96188868D01*
X132078229Y-96188867D01*
X132078231Y-96188867D01*
X132144552Y-96144552D01*
X132188867Y-96078231D01*
X132188867Y-96078229D01*
X132188868Y-96078229D01*
X132200499Y-96019752D01*
X132200500Y-96019750D01*
X132200500Y-95894323D01*
X132220185Y-95827284D01*
X132272989Y-95781529D01*
X132324500Y-95770323D01*
X143195734Y-95770323D01*
X143451374Y-95770323D01*
X143518413Y-95790008D01*
X143539055Y-95806642D01*
X144575427Y-96843013D01*
X145585604Y-97853190D01*
X145738478Y-97964260D01*
X145818024Y-98004790D01*
X145906840Y-98050045D01*
X145906842Y-98050045D01*
X145906845Y-98050047D01*
X145960052Y-98067335D01*
X146086558Y-98108440D01*
X146273191Y-98138000D01*
X146273196Y-98138000D01*
X146462159Y-98138000D01*
X153758397Y-98138000D01*
X153825436Y-98157685D01*
X153857388Y-98189072D01*
X153857838Y-98188704D01*
X153861268Y-98192884D01*
X153861500Y-98193112D01*
X153861698Y-98193408D01*
X153861699Y-98193409D01*
X153861702Y-98193413D01*
X153994088Y-98325799D01*
X153994092Y-98325802D01*
X154149762Y-98429818D01*
X154149768Y-98429821D01*
X154149769Y-98429822D01*
X154322749Y-98501473D01*
X154506379Y-98537999D01*
X154506383Y-98538000D01*
X154506384Y-98538000D01*
X154693617Y-98538000D01*
X154693618Y-98537999D01*
X154877251Y-98501473D01*
X155050231Y-98429822D01*
X155205908Y-98325802D01*
X155338302Y-98193408D01*
X155338498Y-98193113D01*
X155338641Y-98192994D01*
X155342162Y-98188704D01*
X155342975Y-98189371D01*
X155392107Y-98148307D01*
X155441603Y-98138000D01*
X157558397Y-98138000D01*
X157625436Y-98157685D01*
X157657388Y-98189072D01*
X157657838Y-98188704D01*
X157661268Y-98192884D01*
X157661500Y-98193112D01*
X157661698Y-98193408D01*
X157661699Y-98193409D01*
X157661702Y-98193413D01*
X157794088Y-98325799D01*
X157794092Y-98325802D01*
X157949762Y-98429818D01*
X157949768Y-98429821D01*
X157949769Y-98429822D01*
X158122749Y-98501473D01*
X158306379Y-98537999D01*
X158306383Y-98538000D01*
X158306384Y-98538000D01*
X158493617Y-98538000D01*
X158493618Y-98537999D01*
X158677251Y-98501473D01*
X158850231Y-98429822D01*
X159005908Y-98325802D01*
X159138302Y-98193408D01*
X159242322Y-98037731D01*
X159313973Y-97864751D01*
X159347782Y-97694781D01*
X159369081Y-97646086D01*
X159375517Y-97637228D01*
X159426760Y-97566699D01*
X159512547Y-97398332D01*
X159570940Y-97218618D01*
X159587076Y-97116740D01*
X159600500Y-97031986D01*
X159600500Y-96843013D01*
X159570940Y-96656381D01*
X159512545Y-96476663D01*
X159426759Y-96308300D01*
X159402857Y-96275402D01*
X159369080Y-96228911D01*
X159351674Y-96189117D01*
X161450000Y-96189117D01*
X161450000Y-96687500D01*
X162450000Y-96687500D01*
X162450000Y-97187500D01*
X161450000Y-97187500D01*
X161450000Y-97685882D01*
X161480778Y-97880205D01*
X161541581Y-98067335D01*
X161630904Y-98242643D01*
X161746555Y-98401821D01*
X161885678Y-98540944D01*
X162044856Y-98656595D01*
X162220162Y-98745918D01*
X162407283Y-98806718D01*
X162450000Y-98813484D01*
X162450000Y-97637228D01*
X162488060Y-97729114D01*
X162558386Y-97799440D01*
X162650272Y-97837500D01*
X162749728Y-97837500D01*
X162841614Y-97799440D01*
X162911940Y-97729114D01*
X162950000Y-97637228D01*
X162950000Y-98813484D01*
X162992716Y-98806718D01*
X163179837Y-98745918D01*
X163355143Y-98656595D01*
X163514321Y-98540944D01*
X163653444Y-98401821D01*
X163769095Y-98242643D01*
X163858418Y-98067335D01*
X163919221Y-97880205D01*
X163950000Y-97685882D01*
X163950000Y-97187500D01*
X162950000Y-97187500D01*
X162950000Y-96687500D01*
X163950000Y-96687500D01*
X163950000Y-96189117D01*
X165250000Y-96189117D01*
X165250000Y-96687500D01*
X166250000Y-96687500D01*
X166250000Y-97187500D01*
X165250000Y-97187500D01*
X165250000Y-97685882D01*
X165280778Y-97880205D01*
X165341581Y-98067335D01*
X165430904Y-98242643D01*
X165546555Y-98401821D01*
X165685678Y-98540944D01*
X165844856Y-98656595D01*
X166020162Y-98745918D01*
X166207283Y-98806718D01*
X166250000Y-98813484D01*
X166250000Y-97637228D01*
X166288060Y-97729114D01*
X166358386Y-97799440D01*
X166450272Y-97837500D01*
X166549728Y-97837500D01*
X166641614Y-97799440D01*
X166711940Y-97729114D01*
X166750000Y-97637228D01*
X166750000Y-98813484D01*
X166792716Y-98806718D01*
X166979837Y-98745918D01*
X167152949Y-98657713D01*
X172599500Y-98657713D01*
X172599500Y-98815406D01*
X172630261Y-98970049D01*
X172630264Y-98970061D01*
X172690602Y-99115732D01*
X172690609Y-99115745D01*
X172778210Y-99246848D01*
X172778213Y-99246852D01*
X172889707Y-99358346D01*
X172889711Y-99358349D01*
X173020814Y-99445950D01*
X173020827Y-99445957D01*
X173091770Y-99475342D01*
X173166503Y-99506297D01*
X173321153Y-99537059D01*
X173321156Y-99537060D01*
X173321158Y-99537060D01*
X174278844Y-99537060D01*
X174278845Y-99537059D01*
X174433497Y-99506297D01*
X174579179Y-99445954D01*
X174710289Y-99358349D01*
X174821789Y-99246849D01*
X174909394Y-99115739D01*
X174969737Y-98970057D01*
X175000500Y-98815402D01*
X175000500Y-98657718D01*
X175000500Y-98657715D01*
X175000499Y-98657713D01*
X174979713Y-98553217D01*
X174969737Y-98503063D01*
X174950772Y-98457276D01*
X174909397Y-98357387D01*
X174909390Y-98357374D01*
X174821789Y-98226271D01*
X174821786Y-98226267D01*
X174710292Y-98114773D01*
X174710288Y-98114770D01*
X174579185Y-98027169D01*
X174579172Y-98027162D01*
X174433501Y-97966824D01*
X174433489Y-97966821D01*
X174278845Y-97936060D01*
X174278842Y-97936060D01*
X173321158Y-97936060D01*
X173321155Y-97936060D01*
X173166510Y-97966821D01*
X173166498Y-97966824D01*
X173020827Y-98027162D01*
X173020814Y-98027169D01*
X172889711Y-98114770D01*
X172889707Y-98114773D01*
X172778213Y-98226267D01*
X172778210Y-98226271D01*
X172690609Y-98357374D01*
X172690602Y-98357387D01*
X172630264Y-98503058D01*
X172630261Y-98503070D01*
X172599500Y-98657713D01*
X167152949Y-98657713D01*
X167155143Y-98656595D01*
X167300057Y-98551308D01*
X167300058Y-98551307D01*
X167314316Y-98540948D01*
X167314322Y-98540943D01*
X167453444Y-98401821D01*
X167569095Y-98242643D01*
X167658418Y-98067335D01*
X167719221Y-97880205D01*
X167750000Y-97685882D01*
X167750000Y-97187500D01*
X166750000Y-97187500D01*
X166750000Y-96687500D01*
X167750000Y-96687500D01*
X167750000Y-96189117D01*
X167740799Y-96131024D01*
X167738691Y-96117713D01*
X172599500Y-96117713D01*
X172599500Y-96275406D01*
X172630261Y-96430049D01*
X172630264Y-96430061D01*
X172690602Y-96575732D01*
X172690609Y-96575745D01*
X172778210Y-96706848D01*
X172778213Y-96706852D01*
X172889707Y-96818346D01*
X172889711Y-96818349D01*
X173020814Y-96905950D01*
X173020827Y-96905957D01*
X173166498Y-96966295D01*
X173166503Y-96966297D01*
X173321153Y-96997059D01*
X173321156Y-96997060D01*
X173321158Y-96997060D01*
X174278844Y-96997060D01*
X174278845Y-96997059D01*
X174433497Y-96966297D01*
X174579179Y-96905954D01*
X174710289Y-96818349D01*
X174821789Y-96706849D01*
X174909394Y-96575739D01*
X174969737Y-96430057D01*
X175000500Y-96275402D01*
X175000500Y-96117718D01*
X175000500Y-96117715D01*
X175000499Y-96117713D01*
X174992114Y-96075560D01*
X174969737Y-95963063D01*
X174913496Y-95827284D01*
X174909397Y-95817387D01*
X174909390Y-95817374D01*
X174821789Y-95686271D01*
X174821786Y-95686267D01*
X174710292Y-95574773D01*
X174710288Y-95574770D01*
X174579185Y-95487169D01*
X174579172Y-95487162D01*
X174433501Y-95426824D01*
X174433489Y-95426821D01*
X174278845Y-95396060D01*
X174278842Y-95396060D01*
X173321158Y-95396060D01*
X173321155Y-95396060D01*
X173166510Y-95426821D01*
X173166498Y-95426824D01*
X173020827Y-95487162D01*
X173020814Y-95487169D01*
X172889711Y-95574770D01*
X172889707Y-95574773D01*
X172778213Y-95686267D01*
X172778210Y-95686271D01*
X172690609Y-95817374D01*
X172690602Y-95817387D01*
X172630264Y-95963058D01*
X172630261Y-95963070D01*
X172599500Y-96117713D01*
X167738691Y-96117713D01*
X167719221Y-95994794D01*
X167658418Y-95807664D01*
X167569095Y-95632356D01*
X167453444Y-95473178D01*
X167314321Y-95334055D01*
X167155143Y-95218404D01*
X166979835Y-95129081D01*
X166792705Y-95068278D01*
X166750000Y-95061514D01*
X166750000Y-96237772D01*
X166711940Y-96145886D01*
X166641614Y-96075560D01*
X166549728Y-96037500D01*
X166450272Y-96037500D01*
X166358386Y-96075560D01*
X166288060Y-96145886D01*
X166250000Y-96237772D01*
X166250000Y-95061514D01*
X166249999Y-95061514D01*
X166207294Y-95068278D01*
X166020164Y-95129081D01*
X165844856Y-95218404D01*
X165685678Y-95334055D01*
X165546555Y-95473178D01*
X165430904Y-95632356D01*
X165341581Y-95807664D01*
X165280778Y-95994794D01*
X165250000Y-96189117D01*
X163950000Y-96189117D01*
X163919221Y-95994794D01*
X163858418Y-95807664D01*
X163769095Y-95632356D01*
X163653444Y-95473178D01*
X163514321Y-95334055D01*
X163355143Y-95218404D01*
X163179835Y-95129081D01*
X162992705Y-95068278D01*
X162950000Y-95061514D01*
X162950000Y-96237772D01*
X162911940Y-96145886D01*
X162841614Y-96075560D01*
X162749728Y-96037500D01*
X162650272Y-96037500D01*
X162558386Y-96075560D01*
X162488060Y-96145886D01*
X162450000Y-96237772D01*
X162450000Y-95061514D01*
X162449999Y-95061514D01*
X162407294Y-95068278D01*
X162220164Y-95129081D01*
X162044856Y-95218404D01*
X161885678Y-95334055D01*
X161746555Y-95473178D01*
X161630904Y-95632356D01*
X161541581Y-95807664D01*
X161480778Y-95994794D01*
X161450000Y-96189117D01*
X159351674Y-96189117D01*
X159347782Y-96180218D01*
X159326964Y-96075560D01*
X159313973Y-96010249D01*
X159242322Y-95837269D01*
X159242321Y-95837268D01*
X159242318Y-95837262D01*
X159138302Y-95681592D01*
X159138299Y-95681588D01*
X159005911Y-95549200D01*
X159005907Y-95549197D01*
X158850237Y-95445181D01*
X158850228Y-95445176D01*
X158677251Y-95373527D01*
X158677243Y-95373525D01*
X158493620Y-95337000D01*
X158493616Y-95337000D01*
X158306384Y-95337000D01*
X158306379Y-95337000D01*
X158122756Y-95373525D01*
X158122748Y-95373527D01*
X157949771Y-95445176D01*
X157949762Y-95445181D01*
X157794092Y-95549197D01*
X157794088Y-95549200D01*
X157661702Y-95681586D01*
X157661698Y-95681591D01*
X157661698Y-95681592D01*
X157661501Y-95681886D01*
X157661358Y-95682005D01*
X157657838Y-95686296D01*
X157657024Y-95685628D01*
X157607893Y-95726693D01*
X157558397Y-95737000D01*
X155441603Y-95737000D01*
X155374564Y-95717315D01*
X155342611Y-95685927D01*
X155342162Y-95686296D01*
X155338731Y-95682115D01*
X155338499Y-95681887D01*
X155338302Y-95681592D01*
X155338298Y-95681588D01*
X155338297Y-95681586D01*
X155205911Y-95549200D01*
X155205907Y-95549197D01*
X155050237Y-95445181D01*
X155050228Y-95445176D01*
X154877251Y-95373527D01*
X154877243Y-95373525D01*
X154693620Y-95337000D01*
X154693616Y-95337000D01*
X154506384Y-95337000D01*
X154506379Y-95337000D01*
X154322756Y-95373525D01*
X154322748Y-95373527D01*
X154149771Y-95445176D01*
X154149762Y-95445181D01*
X153994092Y-95549197D01*
X153994088Y-95549200D01*
X153861702Y-95681586D01*
X153861698Y-95681591D01*
X153861698Y-95681592D01*
X153861501Y-95681886D01*
X153861358Y-95682005D01*
X153857838Y-95686296D01*
X153857024Y-95685628D01*
X153807893Y-95726693D01*
X153758397Y-95737000D01*
X146916302Y-95737000D01*
X146849263Y-95717315D01*
X146828621Y-95700681D01*
X145236819Y-94108878D01*
X145203334Y-94047555D01*
X145200500Y-94021197D01*
X145200500Y-93765553D01*
X145197646Y-93735124D01*
X145152793Y-93606941D01*
X145131222Y-93577713D01*
X172599500Y-93577713D01*
X172599500Y-93735406D01*
X172630261Y-93890049D01*
X172630264Y-93890061D01*
X172690602Y-94035732D01*
X172690609Y-94035745D01*
X172778210Y-94166848D01*
X172778213Y-94166852D01*
X172889707Y-94278346D01*
X172889711Y-94278349D01*
X173020814Y-94365950D01*
X173020827Y-94365957D01*
X173166498Y-94426295D01*
X173166503Y-94426297D01*
X173321153Y-94457059D01*
X173321156Y-94457060D01*
X173321158Y-94457060D01*
X174278844Y-94457060D01*
X174278845Y-94457059D01*
X174433497Y-94426297D01*
X174579179Y-94365954D01*
X174710289Y-94278349D01*
X174821789Y-94166849D01*
X174909394Y-94035739D01*
X174915418Y-94021197D01*
X174969735Y-93890061D01*
X174969737Y-93890057D01*
X175000500Y-93735402D01*
X175000500Y-93577718D01*
X175000500Y-93577715D01*
X175000499Y-93577713D01*
X174969738Y-93423070D01*
X174969737Y-93423063D01*
X174967238Y-93417029D01*
X174909397Y-93277387D01*
X174909390Y-93277374D01*
X174821789Y-93146271D01*
X174821786Y-93146267D01*
X174710292Y-93034773D01*
X174710288Y-93034770D01*
X174579185Y-92947169D01*
X174579172Y-92947162D01*
X174433501Y-92886824D01*
X174433489Y-92886821D01*
X174278845Y-92856060D01*
X174278842Y-92856060D01*
X173321158Y-92856060D01*
X173321155Y-92856060D01*
X173166510Y-92886821D01*
X173166498Y-92886824D01*
X173020827Y-92947162D01*
X173020814Y-92947169D01*
X172889711Y-93034770D01*
X172889707Y-93034773D01*
X172778213Y-93146267D01*
X172778210Y-93146271D01*
X172690609Y-93277374D01*
X172690602Y-93277387D01*
X172630264Y-93423058D01*
X172630261Y-93423070D01*
X172599500Y-93577713D01*
X145131222Y-93577713D01*
X145072150Y-93497673D01*
X144962882Y-93417030D01*
X144962880Y-93417029D01*
X144834700Y-93372176D01*
X144804270Y-93369323D01*
X144804266Y-93369323D01*
X144094481Y-93369323D01*
X132324500Y-93369323D01*
X132257461Y-93349638D01*
X132211706Y-93296834D01*
X132200500Y-93245323D01*
X132200500Y-92980249D01*
X132200499Y-92980247D01*
X132188868Y-92921770D01*
X132188867Y-92921769D01*
X132144552Y-92855447D01*
X132078230Y-92811132D01*
X132078229Y-92811131D01*
X132019752Y-92799500D01*
X132019748Y-92799500D01*
X128980252Y-92799500D01*
X128980247Y-92799500D01*
X128921770Y-92811131D01*
X128921769Y-92811132D01*
X128855447Y-92855447D01*
X128811132Y-92921769D01*
X128811131Y-92921770D01*
X128799500Y-92980247D01*
X125500500Y-92980247D01*
X125500500Y-91037713D01*
X172599500Y-91037713D01*
X172599500Y-91195406D01*
X172630261Y-91350049D01*
X172630264Y-91350061D01*
X172690602Y-91495732D01*
X172690609Y-91495745D01*
X172778210Y-91626848D01*
X172778213Y-91626852D01*
X172889707Y-91738346D01*
X172889711Y-91738349D01*
X173020814Y-91825950D01*
X173020827Y-91825957D01*
X173166498Y-91886295D01*
X173166503Y-91886297D01*
X173321153Y-91917059D01*
X173321156Y-91917060D01*
X173321158Y-91917060D01*
X174278844Y-91917060D01*
X174278845Y-91917059D01*
X174433497Y-91886297D01*
X174579179Y-91825954D01*
X174710289Y-91738349D01*
X174821789Y-91626849D01*
X174909394Y-91495739D01*
X174969737Y-91350057D01*
X175000500Y-91195402D01*
X175000500Y-91037718D01*
X175000500Y-91037715D01*
X175000499Y-91037713D01*
X174969738Y-90883070D01*
X174969737Y-90883063D01*
X174969735Y-90883058D01*
X174909397Y-90737387D01*
X174909390Y-90737374D01*
X174821789Y-90606271D01*
X174821786Y-90606267D01*
X174710292Y-90494773D01*
X174710288Y-90494770D01*
X174579185Y-90407169D01*
X174579172Y-90407162D01*
X174433501Y-90346824D01*
X174433489Y-90346821D01*
X174278845Y-90316060D01*
X174278842Y-90316060D01*
X173321158Y-90316060D01*
X173321155Y-90316060D01*
X173166510Y-90346821D01*
X173166498Y-90346824D01*
X173020827Y-90407162D01*
X173020814Y-90407169D01*
X172889711Y-90494770D01*
X172889707Y-90494773D01*
X172778213Y-90606267D01*
X172778210Y-90606271D01*
X172690609Y-90737374D01*
X172690602Y-90737387D01*
X172630264Y-90883058D01*
X172630261Y-90883070D01*
X172599500Y-91037713D01*
X125500500Y-91037713D01*
X125500500Y-88497713D01*
X172599500Y-88497713D01*
X172599500Y-88655406D01*
X172630261Y-88810049D01*
X172630264Y-88810061D01*
X172690602Y-88955732D01*
X172690609Y-88955745D01*
X172778210Y-89086848D01*
X172778213Y-89086852D01*
X172889707Y-89198346D01*
X172889711Y-89198349D01*
X173020814Y-89285950D01*
X173020827Y-89285957D01*
X173166498Y-89346295D01*
X173166503Y-89346297D01*
X173321153Y-89377059D01*
X173321156Y-89377060D01*
X173321158Y-89377060D01*
X174278844Y-89377060D01*
X174278845Y-89377059D01*
X174433497Y-89346297D01*
X174579179Y-89285954D01*
X174710289Y-89198349D01*
X174821789Y-89086849D01*
X174909394Y-88955739D01*
X174969737Y-88810057D01*
X175000500Y-88655402D01*
X175000500Y-88497718D01*
X175000500Y-88497715D01*
X175000499Y-88497713D01*
X174969737Y-88343063D01*
X174969735Y-88343058D01*
X174909397Y-88197387D01*
X174909390Y-88197374D01*
X174821789Y-88066271D01*
X174821786Y-88066267D01*
X174710292Y-87954773D01*
X174710288Y-87954770D01*
X174579185Y-87867169D01*
X174579172Y-87867162D01*
X174433501Y-87806824D01*
X174433489Y-87806821D01*
X174278845Y-87776060D01*
X174278842Y-87776060D01*
X173321158Y-87776060D01*
X173321155Y-87776060D01*
X173166510Y-87806821D01*
X173166498Y-87806824D01*
X173020827Y-87867162D01*
X173020814Y-87867169D01*
X172889711Y-87954770D01*
X172889707Y-87954773D01*
X172778213Y-88066267D01*
X172778210Y-88066271D01*
X172690609Y-88197374D01*
X172690602Y-88197387D01*
X172630264Y-88343058D01*
X172630261Y-88343070D01*
X172599500Y-88497713D01*
X125500500Y-88497713D01*
X125500500Y-85957713D01*
X172599500Y-85957713D01*
X172599500Y-86115406D01*
X172630261Y-86270049D01*
X172630264Y-86270061D01*
X172690602Y-86415732D01*
X172690609Y-86415745D01*
X172778210Y-86546848D01*
X172778213Y-86546852D01*
X172889707Y-86658346D01*
X172889711Y-86658349D01*
X173020814Y-86745950D01*
X173020827Y-86745957D01*
X173166498Y-86806295D01*
X173166503Y-86806297D01*
X173285967Y-86830060D01*
X173321153Y-86837059D01*
X173321156Y-86837060D01*
X173321158Y-86837060D01*
X174278844Y-86837060D01*
X174278845Y-86837059D01*
X174433497Y-86806297D01*
X174579179Y-86745954D01*
X174710289Y-86658349D01*
X174821789Y-86546849D01*
X174909394Y-86415739D01*
X174969737Y-86270057D01*
X175000500Y-86115402D01*
X175000500Y-85957718D01*
X175000500Y-85957715D01*
X175000499Y-85957713D01*
X174969738Y-85803070D01*
X174969737Y-85803063D01*
X174969735Y-85803058D01*
X174909397Y-85657387D01*
X174909390Y-85657374D01*
X174821789Y-85526271D01*
X174821786Y-85526267D01*
X174710292Y-85414773D01*
X174710288Y-85414770D01*
X174579185Y-85327169D01*
X174579172Y-85327162D01*
X174433501Y-85266824D01*
X174433489Y-85266821D01*
X174278845Y-85236060D01*
X174278842Y-85236060D01*
X173321158Y-85236060D01*
X173321155Y-85236060D01*
X173166510Y-85266821D01*
X173166498Y-85266824D01*
X173020827Y-85327162D01*
X173020814Y-85327169D01*
X172889711Y-85414770D01*
X172889707Y-85414773D01*
X172778213Y-85526267D01*
X172778210Y-85526271D01*
X172690609Y-85657374D01*
X172690602Y-85657387D01*
X172630264Y-85803058D01*
X172630261Y-85803070D01*
X172599500Y-85957713D01*
X125500500Y-85957713D01*
X125500500Y-82388549D01*
X128799500Y-82388549D01*
X128799500Y-82611450D01*
X128799501Y-82611466D01*
X128828594Y-82832452D01*
X128828595Y-82832457D01*
X128828596Y-82832463D01*
X128869809Y-82986271D01*
X128886290Y-83047780D01*
X128886293Y-83047790D01*
X128971593Y-83253722D01*
X128971595Y-83253726D01*
X129083052Y-83446774D01*
X129083057Y-83446780D01*
X129083058Y-83446782D01*
X129218751Y-83623622D01*
X129218757Y-83623629D01*
X129376370Y-83781242D01*
X129376376Y-83781247D01*
X129553226Y-83916948D01*
X129746274Y-84028405D01*
X129952219Y-84113710D01*
X130167537Y-84171404D01*
X130388543Y-84200500D01*
X130388550Y-84200500D01*
X130611450Y-84200500D01*
X130611457Y-84200500D01*
X130832463Y-84171404D01*
X131047781Y-84113710D01*
X131253726Y-84028405D01*
X131446774Y-83916948D01*
X131623624Y-83781247D01*
X131781247Y-83623624D01*
X131916948Y-83446774D01*
X132028405Y-83253726D01*
X132113710Y-83047781D01*
X132171404Y-82832463D01*
X132200500Y-82611457D01*
X132200500Y-82475336D01*
X142799500Y-82475336D01*
X142799500Y-82664309D01*
X142829059Y-82850941D01*
X142887454Y-83030659D01*
X142931645Y-83117387D01*
X142973240Y-83199022D01*
X143084310Y-83351896D01*
X143217927Y-83485513D01*
X143370801Y-83596583D01*
X143423872Y-83623624D01*
X143539163Y-83682368D01*
X143539165Y-83682368D01*
X143539168Y-83682370D01*
X143635497Y-83713669D01*
X143718881Y-83740763D01*
X143905514Y-83770323D01*
X143905519Y-83770323D01*
X144094486Y-83770323D01*
X144281118Y-83740763D01*
X144314092Y-83730049D01*
X144460832Y-83682370D01*
X144629199Y-83596583D01*
X144782073Y-83485513D01*
X144849873Y-83417713D01*
X172599500Y-83417713D01*
X172599500Y-83575406D01*
X172630261Y-83730049D01*
X172630264Y-83730061D01*
X172690602Y-83875732D01*
X172690609Y-83875745D01*
X172778210Y-84006848D01*
X172778213Y-84006852D01*
X172889707Y-84118346D01*
X172889711Y-84118349D01*
X173020814Y-84205950D01*
X173020827Y-84205957D01*
X173166498Y-84266295D01*
X173166503Y-84266297D01*
X173321153Y-84297059D01*
X173321156Y-84297060D01*
X173321158Y-84297060D01*
X174278844Y-84297060D01*
X174278845Y-84297059D01*
X174433497Y-84266297D01*
X174579179Y-84205954D01*
X174710289Y-84118349D01*
X174821789Y-84006849D01*
X174909394Y-83875739D01*
X174969737Y-83730057D01*
X175000500Y-83575402D01*
X175000500Y-83417718D01*
X175000500Y-83417715D01*
X175000499Y-83417713D01*
X174969738Y-83263070D01*
X174969737Y-83263063D01*
X174943211Y-83199022D01*
X174909397Y-83117387D01*
X174909390Y-83117374D01*
X174821789Y-82986271D01*
X174821786Y-82986267D01*
X174710292Y-82874773D01*
X174710288Y-82874770D01*
X174579185Y-82787169D01*
X174579172Y-82787162D01*
X174433501Y-82726824D01*
X174433489Y-82726821D01*
X174278845Y-82696060D01*
X174278842Y-82696060D01*
X173321158Y-82696060D01*
X173321155Y-82696060D01*
X173166510Y-82726821D01*
X173166498Y-82726824D01*
X173020827Y-82787162D01*
X173020814Y-82787169D01*
X172889711Y-82874770D01*
X172889707Y-82874773D01*
X172778213Y-82986267D01*
X172778210Y-82986271D01*
X172690609Y-83117374D01*
X172690602Y-83117387D01*
X172630264Y-83263058D01*
X172630261Y-83263070D01*
X172599500Y-83417713D01*
X144849873Y-83417713D01*
X144915690Y-83351896D01*
X145026760Y-83199022D01*
X145112547Y-83030655D01*
X145170940Y-82850941D01*
X145173868Y-82832452D01*
X145200500Y-82664309D01*
X145200500Y-82475336D01*
X145170940Y-82288704D01*
X145112545Y-82108986D01*
X145032668Y-81952219D01*
X145026760Y-81940624D01*
X144915690Y-81787750D01*
X144782073Y-81654133D01*
X144629199Y-81543063D01*
X144619260Y-81537999D01*
X144460836Y-81457277D01*
X144281118Y-81398882D01*
X144094486Y-81369323D01*
X144094481Y-81369323D01*
X143905519Y-81369323D01*
X143905514Y-81369323D01*
X143718881Y-81398882D01*
X143539163Y-81457277D01*
X143370800Y-81543063D01*
X143322238Y-81578346D01*
X143217927Y-81654133D01*
X143217925Y-81654135D01*
X143217924Y-81654135D01*
X143084312Y-81787747D01*
X143084312Y-81787748D01*
X143084310Y-81787750D01*
X143070529Y-81806718D01*
X142973240Y-81940623D01*
X142887454Y-82108986D01*
X142829059Y-82288704D01*
X142799500Y-82475336D01*
X132200500Y-82475336D01*
X132200500Y-82388543D01*
X132171404Y-82167537D01*
X132113710Y-81952219D01*
X132028405Y-81746274D01*
X131916948Y-81553226D01*
X131798517Y-81398883D01*
X131781248Y-81376377D01*
X131781242Y-81376370D01*
X131623629Y-81218757D01*
X131623622Y-81218751D01*
X131446782Y-81083058D01*
X131446780Y-81083057D01*
X131446774Y-81083052D01*
X131253726Y-80971595D01*
X131253722Y-80971593D01*
X131047790Y-80886293D01*
X131047783Y-80886291D01*
X131047781Y-80886290D01*
X130832463Y-80828596D01*
X130832457Y-80828595D01*
X130832452Y-80828594D01*
X130611466Y-80799501D01*
X130611463Y-80799500D01*
X130611457Y-80799500D01*
X130388543Y-80799500D01*
X130388537Y-80799500D01*
X130388533Y-80799501D01*
X130167547Y-80828594D01*
X130167540Y-80828595D01*
X130167537Y-80828596D01*
X129984210Y-80877718D01*
X129952219Y-80886290D01*
X129952209Y-80886293D01*
X129746277Y-80971593D01*
X129746273Y-80971595D01*
X129553226Y-81083052D01*
X129553217Y-81083058D01*
X129376377Y-81218751D01*
X129376370Y-81218757D01*
X129218757Y-81376370D01*
X129218751Y-81376377D01*
X129083058Y-81553217D01*
X129083052Y-81553226D01*
X128971595Y-81746273D01*
X128971593Y-81746277D01*
X128886293Y-81952209D01*
X128886290Y-81952219D01*
X128828597Y-82167534D01*
X128828594Y-82167547D01*
X128799501Y-82388533D01*
X128799500Y-82388549D01*
X125500500Y-82388549D01*
X125500500Y-75980247D01*
X128799500Y-75980247D01*
X128799500Y-79019752D01*
X128811131Y-79078229D01*
X128811132Y-79078230D01*
X128855447Y-79144552D01*
X128921769Y-79188867D01*
X128921770Y-79188868D01*
X128980247Y-79200499D01*
X128980250Y-79200500D01*
X128980252Y-79200500D01*
X132019750Y-79200500D01*
X132019751Y-79200499D01*
X132034568Y-79197552D01*
X132078229Y-79188868D01*
X132078229Y-79188867D01*
X132078231Y-79188867D01*
X132144552Y-79144552D01*
X132188867Y-79078231D01*
X132188867Y-79078229D01*
X132188868Y-79078229D01*
X132200499Y-79019752D01*
X132200500Y-79019750D01*
X132200500Y-78894323D01*
X132220185Y-78827284D01*
X132272989Y-78781529D01*
X132324500Y-78770323D01*
X143195734Y-78770323D01*
X143451374Y-78770323D01*
X143518413Y-78790008D01*
X143539055Y-78806642D01*
X145585604Y-80853190D01*
X145738478Y-80964260D01*
X145818024Y-81004790D01*
X145906840Y-81050045D01*
X145906842Y-81050045D01*
X145906845Y-81050047D01*
X145960052Y-81067335D01*
X146086558Y-81108440D01*
X146273191Y-81138000D01*
X146273196Y-81138000D01*
X146462159Y-81138000D01*
X153758397Y-81138000D01*
X153825436Y-81157685D01*
X153857388Y-81189072D01*
X153857838Y-81188704D01*
X153861268Y-81192884D01*
X153861500Y-81193112D01*
X153861698Y-81193408D01*
X153861699Y-81193409D01*
X153861702Y-81193413D01*
X153994088Y-81325799D01*
X153994092Y-81325802D01*
X154149762Y-81429818D01*
X154149768Y-81429821D01*
X154149769Y-81429822D01*
X154322749Y-81501473D01*
X154506379Y-81537999D01*
X154506383Y-81538000D01*
X154506384Y-81538000D01*
X154693617Y-81538000D01*
X154693618Y-81537999D01*
X154877251Y-81501473D01*
X155050231Y-81429822D01*
X155205908Y-81325802D01*
X155338302Y-81193408D01*
X155338498Y-81193113D01*
X155338641Y-81192994D01*
X155342162Y-81188704D01*
X155342975Y-81189371D01*
X155392107Y-81148307D01*
X155441603Y-81138000D01*
X157558397Y-81138000D01*
X157625436Y-81157685D01*
X157657388Y-81189072D01*
X157657838Y-81188704D01*
X157661268Y-81192884D01*
X157661500Y-81193112D01*
X157661698Y-81193408D01*
X157661699Y-81193409D01*
X157661702Y-81193413D01*
X157794088Y-81325799D01*
X157794092Y-81325802D01*
X157949762Y-81429818D01*
X157949768Y-81429821D01*
X157949769Y-81429822D01*
X158122749Y-81501473D01*
X158306379Y-81537999D01*
X158306383Y-81538000D01*
X158306384Y-81538000D01*
X158493617Y-81538000D01*
X158493618Y-81537999D01*
X158677251Y-81501473D01*
X158850231Y-81429822D01*
X159005908Y-81325802D01*
X159138302Y-81193408D01*
X159242322Y-81037731D01*
X159313973Y-80864751D01*
X159347782Y-80694781D01*
X159369081Y-80646086D01*
X159375517Y-80637228D01*
X159426760Y-80566699D01*
X159512547Y-80398332D01*
X159570940Y-80218618D01*
X159587076Y-80116740D01*
X159600500Y-80031986D01*
X159600500Y-79843013D01*
X159570940Y-79656381D01*
X159512545Y-79476663D01*
X159426759Y-79308300D01*
X159389587Y-79257137D01*
X159369080Y-79228911D01*
X159351674Y-79189117D01*
X161450000Y-79189117D01*
X161450000Y-79687500D01*
X162450000Y-79687500D01*
X162450000Y-80187500D01*
X161450000Y-80187500D01*
X161450000Y-80685882D01*
X161480778Y-80880205D01*
X161541581Y-81067335D01*
X161630904Y-81242643D01*
X161746555Y-81401821D01*
X161885678Y-81540944D01*
X162044856Y-81656595D01*
X162220162Y-81745918D01*
X162407283Y-81806718D01*
X162450000Y-81813484D01*
X162450000Y-80637228D01*
X162488060Y-80729114D01*
X162558386Y-80799440D01*
X162650272Y-80837500D01*
X162749728Y-80837500D01*
X162841614Y-80799440D01*
X162911940Y-80729114D01*
X162950000Y-80637228D01*
X162950000Y-81813483D01*
X162992716Y-81806718D01*
X163179837Y-81745918D01*
X163355143Y-81656595D01*
X163514321Y-81540944D01*
X163653444Y-81401821D01*
X163769095Y-81242643D01*
X163858418Y-81067335D01*
X163919221Y-80880205D01*
X163950000Y-80685882D01*
X163950000Y-80187500D01*
X162950000Y-80187500D01*
X162950000Y-79687500D01*
X163950000Y-79687500D01*
X163950000Y-79189117D01*
X165250000Y-79189117D01*
X165250000Y-79687500D01*
X166250000Y-79687500D01*
X166250000Y-80187500D01*
X165250000Y-80187500D01*
X165250000Y-80685882D01*
X165280778Y-80880205D01*
X165341581Y-81067335D01*
X165430904Y-81242643D01*
X165546555Y-81401821D01*
X165685678Y-81540944D01*
X165844856Y-81656595D01*
X166020162Y-81745918D01*
X166207283Y-81806718D01*
X166250000Y-81813484D01*
X166250000Y-80637228D01*
X166288060Y-80729114D01*
X166358386Y-80799440D01*
X166450272Y-80837500D01*
X166549728Y-80837500D01*
X166641614Y-80799440D01*
X166711940Y-80729114D01*
X166750000Y-80637228D01*
X166750000Y-81813483D01*
X166792716Y-81806718D01*
X166979837Y-81745918D01*
X167155143Y-81656595D01*
X167314321Y-81540944D01*
X167453444Y-81401821D01*
X167569095Y-81242643D01*
X167658418Y-81067335D01*
X167719221Y-80880205D01*
X167719616Y-80877713D01*
X172599500Y-80877713D01*
X172599500Y-81035406D01*
X172630261Y-81190049D01*
X172630264Y-81190061D01*
X172690602Y-81335732D01*
X172690609Y-81335745D01*
X172778210Y-81466848D01*
X172778213Y-81466852D01*
X172889707Y-81578346D01*
X172889711Y-81578349D01*
X173020814Y-81665950D01*
X173020827Y-81665957D01*
X173166498Y-81726295D01*
X173166503Y-81726297D01*
X173266949Y-81746277D01*
X173321153Y-81757059D01*
X173321156Y-81757060D01*
X173321158Y-81757060D01*
X174278844Y-81757060D01*
X174278845Y-81757059D01*
X174433497Y-81726297D01*
X174579179Y-81665954D01*
X174710289Y-81578349D01*
X174821789Y-81466849D01*
X174909394Y-81335739D01*
X174969737Y-81190057D01*
X175000500Y-81035402D01*
X175000500Y-80877718D01*
X175000500Y-80877715D01*
X175000499Y-80877713D01*
X197999500Y-80877713D01*
X197999500Y-81035406D01*
X198030261Y-81190049D01*
X198030264Y-81190061D01*
X198090602Y-81335732D01*
X198090609Y-81335745D01*
X198178210Y-81466848D01*
X198178213Y-81466852D01*
X198289707Y-81578346D01*
X198289711Y-81578349D01*
X198420814Y-81665950D01*
X198420827Y-81665957D01*
X198566498Y-81726295D01*
X198566503Y-81726297D01*
X198666949Y-81746277D01*
X198721153Y-81757059D01*
X198721156Y-81757060D01*
X198721158Y-81757060D01*
X199678844Y-81757060D01*
X199678845Y-81757059D01*
X199833497Y-81726297D01*
X199979179Y-81665954D01*
X200110289Y-81578349D01*
X200221789Y-81466849D01*
X200309394Y-81335739D01*
X200369737Y-81190057D01*
X200400500Y-81035402D01*
X200400500Y-80877718D01*
X200400500Y-80877715D01*
X200400499Y-80877713D01*
X200390729Y-80828596D01*
X200369737Y-80723063D01*
X200348446Y-80671661D01*
X200309397Y-80577387D01*
X200309390Y-80577374D01*
X200221789Y-80446271D01*
X200221786Y-80446267D01*
X200110292Y-80334773D01*
X200110288Y-80334770D01*
X199979185Y-80247169D01*
X199979172Y-80247162D01*
X199833501Y-80186824D01*
X199833489Y-80186821D01*
X199678845Y-80156060D01*
X199678842Y-80156060D01*
X198721158Y-80156060D01*
X198721155Y-80156060D01*
X198566510Y-80186821D01*
X198566498Y-80186824D01*
X198420827Y-80247162D01*
X198420814Y-80247169D01*
X198289711Y-80334770D01*
X198289707Y-80334773D01*
X198178213Y-80446267D01*
X198178210Y-80446271D01*
X198090609Y-80577374D01*
X198090602Y-80577387D01*
X198030264Y-80723058D01*
X198030261Y-80723070D01*
X197999500Y-80877713D01*
X175000499Y-80877713D01*
X174990729Y-80828596D01*
X174969737Y-80723063D01*
X174948446Y-80671661D01*
X174909397Y-80577387D01*
X174909390Y-80577374D01*
X174821789Y-80446271D01*
X174821786Y-80446267D01*
X174710292Y-80334773D01*
X174710288Y-80334770D01*
X174579185Y-80247169D01*
X174579172Y-80247162D01*
X174433501Y-80186824D01*
X174433489Y-80186821D01*
X174278845Y-80156060D01*
X174278842Y-80156060D01*
X173321158Y-80156060D01*
X173321155Y-80156060D01*
X173166510Y-80186821D01*
X173166498Y-80186824D01*
X173020827Y-80247162D01*
X173020814Y-80247169D01*
X172889711Y-80334770D01*
X172889707Y-80334773D01*
X172778213Y-80446267D01*
X172778210Y-80446271D01*
X172690609Y-80577374D01*
X172690602Y-80577387D01*
X172630264Y-80723058D01*
X172630261Y-80723070D01*
X172599500Y-80877713D01*
X167719616Y-80877713D01*
X167723653Y-80852228D01*
X167750000Y-80685882D01*
X167750000Y-80187500D01*
X166750000Y-80187500D01*
X166750000Y-79687500D01*
X167750000Y-79687500D01*
X167750000Y-79189117D01*
X167719221Y-78994794D01*
X167658418Y-78807664D01*
X167569095Y-78632356D01*
X167453444Y-78473178D01*
X167317979Y-78337713D01*
X172599500Y-78337713D01*
X172599500Y-78495406D01*
X172630261Y-78650049D01*
X172630264Y-78650061D01*
X172690602Y-78795732D01*
X172690609Y-78795745D01*
X172778210Y-78926848D01*
X172778213Y-78926852D01*
X172889707Y-79038346D01*
X172889711Y-79038349D01*
X173020814Y-79125950D01*
X173020827Y-79125957D01*
X173068941Y-79145886D01*
X173166503Y-79186297D01*
X173321153Y-79217059D01*
X173321156Y-79217060D01*
X173321158Y-79217060D01*
X174278844Y-79217060D01*
X174278845Y-79217059D01*
X174433497Y-79186297D01*
X174579179Y-79125954D01*
X174710289Y-79038349D01*
X174821789Y-78926849D01*
X174909394Y-78795739D01*
X174969737Y-78650057D01*
X175000500Y-78495402D01*
X175000500Y-78337718D01*
X175000500Y-78337715D01*
X175000499Y-78337713D01*
X197999500Y-78337713D01*
X197999500Y-78495406D01*
X198030261Y-78650049D01*
X198030264Y-78650061D01*
X198090602Y-78795732D01*
X198090609Y-78795745D01*
X198178210Y-78926848D01*
X198178213Y-78926852D01*
X198289707Y-79038346D01*
X198289711Y-79038349D01*
X198420814Y-79125950D01*
X198420827Y-79125957D01*
X198468941Y-79145886D01*
X198566503Y-79186297D01*
X198721153Y-79217059D01*
X198721156Y-79217060D01*
X198721158Y-79217060D01*
X199678844Y-79217060D01*
X199678845Y-79217059D01*
X199833497Y-79186297D01*
X199979179Y-79125954D01*
X200110289Y-79038349D01*
X200221789Y-78926849D01*
X200309394Y-78795739D01*
X200369737Y-78650057D01*
X200400500Y-78495402D01*
X200400500Y-78337718D01*
X200400500Y-78337715D01*
X200400499Y-78337713D01*
X200369738Y-78183070D01*
X200369737Y-78183063D01*
X200322192Y-78068278D01*
X200309397Y-78037387D01*
X200309390Y-78037374D01*
X200221789Y-77906271D01*
X200221786Y-77906267D01*
X200110292Y-77794773D01*
X200110288Y-77794770D01*
X199979185Y-77707169D01*
X199979172Y-77707162D01*
X199833501Y-77646824D01*
X199833489Y-77646821D01*
X199678845Y-77616060D01*
X199678842Y-77616060D01*
X198721158Y-77616060D01*
X198721155Y-77616060D01*
X198566510Y-77646821D01*
X198566498Y-77646824D01*
X198420827Y-77707162D01*
X198420814Y-77707169D01*
X198289711Y-77794770D01*
X198289707Y-77794773D01*
X198178213Y-77906267D01*
X198178210Y-77906271D01*
X198090609Y-78037374D01*
X198090602Y-78037387D01*
X198030264Y-78183058D01*
X198030261Y-78183070D01*
X197999500Y-78337713D01*
X175000499Y-78337713D01*
X174969738Y-78183070D01*
X174969737Y-78183063D01*
X174922192Y-78068278D01*
X174909397Y-78037387D01*
X174909390Y-78037374D01*
X174821789Y-77906271D01*
X174821786Y-77906267D01*
X174710292Y-77794773D01*
X174710288Y-77794770D01*
X174579185Y-77707169D01*
X174579172Y-77707162D01*
X174433501Y-77646824D01*
X174433489Y-77646821D01*
X174278845Y-77616060D01*
X174278842Y-77616060D01*
X173321158Y-77616060D01*
X173321155Y-77616060D01*
X173166510Y-77646821D01*
X173166498Y-77646824D01*
X173020827Y-77707162D01*
X173020814Y-77707169D01*
X172889711Y-77794770D01*
X172889707Y-77794773D01*
X172778213Y-77906267D01*
X172778210Y-77906271D01*
X172690609Y-78037374D01*
X172690602Y-78037387D01*
X172630264Y-78183058D01*
X172630261Y-78183070D01*
X172599500Y-78337713D01*
X167317979Y-78337713D01*
X167314321Y-78334055D01*
X167155143Y-78218404D01*
X166979835Y-78129081D01*
X166792705Y-78068278D01*
X166750000Y-78061514D01*
X166750000Y-79237772D01*
X166711940Y-79145886D01*
X166641614Y-79075560D01*
X166549728Y-79037500D01*
X166450272Y-79037500D01*
X166358386Y-79075560D01*
X166288060Y-79145886D01*
X166250000Y-79237772D01*
X166250000Y-78061514D01*
X166249999Y-78061514D01*
X166207294Y-78068278D01*
X166020164Y-78129081D01*
X165844856Y-78218404D01*
X165685678Y-78334055D01*
X165546555Y-78473178D01*
X165430904Y-78632356D01*
X165341581Y-78807664D01*
X165280778Y-78994794D01*
X165250000Y-79189117D01*
X163950000Y-79189117D01*
X163919221Y-78994794D01*
X163858418Y-78807664D01*
X163769095Y-78632356D01*
X163653444Y-78473178D01*
X163514321Y-78334055D01*
X163355143Y-78218404D01*
X163179835Y-78129081D01*
X162992705Y-78068278D01*
X162950000Y-78061514D01*
X162950000Y-79237772D01*
X162911940Y-79145886D01*
X162841614Y-79075560D01*
X162749728Y-79037500D01*
X162650272Y-79037500D01*
X162558386Y-79075560D01*
X162488060Y-79145886D01*
X162450000Y-79237772D01*
X162450000Y-78061514D01*
X162449999Y-78061514D01*
X162407294Y-78068278D01*
X162220164Y-78129081D01*
X162044856Y-78218404D01*
X161885678Y-78334055D01*
X161746555Y-78473178D01*
X161630904Y-78632356D01*
X161541581Y-78807664D01*
X161480778Y-78994794D01*
X161450000Y-79189117D01*
X159351674Y-79189117D01*
X159347782Y-79180218D01*
X159319562Y-79038346D01*
X159313973Y-79010249D01*
X159242322Y-78837269D01*
X159242321Y-78837268D01*
X159242318Y-78837262D01*
X159138302Y-78681592D01*
X159138299Y-78681588D01*
X159005911Y-78549200D01*
X159005907Y-78549197D01*
X158850237Y-78445181D01*
X158850228Y-78445176D01*
X158677251Y-78373527D01*
X158677243Y-78373525D01*
X158493620Y-78337000D01*
X158493616Y-78337000D01*
X158306384Y-78337000D01*
X158306379Y-78337000D01*
X158122756Y-78373525D01*
X158122748Y-78373527D01*
X157949771Y-78445176D01*
X157949762Y-78445181D01*
X157794092Y-78549197D01*
X157794088Y-78549200D01*
X157661702Y-78681586D01*
X157661698Y-78681591D01*
X157661698Y-78681592D01*
X157661501Y-78681886D01*
X157661358Y-78682005D01*
X157657838Y-78686296D01*
X157657024Y-78685628D01*
X157607893Y-78726693D01*
X157558397Y-78737000D01*
X155441603Y-78737000D01*
X155374564Y-78717315D01*
X155342611Y-78685927D01*
X155342162Y-78686296D01*
X155338731Y-78682115D01*
X155338499Y-78681887D01*
X155338302Y-78681592D01*
X155338298Y-78681588D01*
X155338297Y-78681586D01*
X155205911Y-78549200D01*
X155205907Y-78549197D01*
X155050237Y-78445181D01*
X155050228Y-78445176D01*
X154877251Y-78373527D01*
X154877243Y-78373525D01*
X154693620Y-78337000D01*
X154693616Y-78337000D01*
X154506384Y-78337000D01*
X154506379Y-78337000D01*
X154322756Y-78373525D01*
X154322748Y-78373527D01*
X154149771Y-78445176D01*
X154149762Y-78445181D01*
X153994092Y-78549197D01*
X153994088Y-78549200D01*
X153861702Y-78681586D01*
X153861698Y-78681591D01*
X153861698Y-78681592D01*
X153861501Y-78681886D01*
X153861358Y-78682005D01*
X153857838Y-78686296D01*
X153857024Y-78685628D01*
X153807893Y-78726693D01*
X153758397Y-78737000D01*
X146916302Y-78737000D01*
X146849263Y-78717315D01*
X146828621Y-78700681D01*
X145236819Y-77108878D01*
X145203334Y-77047555D01*
X145200500Y-77021197D01*
X145200500Y-76765553D01*
X145197646Y-76735123D01*
X145197646Y-76735121D01*
X145152793Y-76606942D01*
X145152792Y-76606940D01*
X145137301Y-76585950D01*
X145072150Y-76497673D01*
X144962882Y-76417030D01*
X144962880Y-76417029D01*
X144834700Y-76372176D01*
X144804270Y-76369323D01*
X144804266Y-76369323D01*
X144094481Y-76369323D01*
X132324500Y-76369323D01*
X132257461Y-76349638D01*
X132211706Y-76296834D01*
X132200500Y-76245323D01*
X132200500Y-75980249D01*
X132200499Y-75980247D01*
X132188868Y-75921771D01*
X132188867Y-75921769D01*
X132147938Y-75860515D01*
X132144552Y-75855447D01*
X132078230Y-75811132D01*
X132078229Y-75811131D01*
X132019752Y-75799500D01*
X132019748Y-75799500D01*
X128980252Y-75799500D01*
X128980247Y-75799500D01*
X128921770Y-75811131D01*
X128921769Y-75811132D01*
X128855447Y-75855447D01*
X128811132Y-75921769D01*
X128811131Y-75921770D01*
X128799500Y-75980247D01*
X125500500Y-75980247D01*
X125500500Y-75797713D01*
X172599500Y-75797713D01*
X172599500Y-75955406D01*
X172630261Y-76110049D01*
X172630264Y-76110061D01*
X172690602Y-76255732D01*
X172690609Y-76255745D01*
X172778210Y-76386848D01*
X172778213Y-76386852D01*
X172889707Y-76498346D01*
X172889711Y-76498349D01*
X173020814Y-76585950D01*
X173020827Y-76585957D01*
X173166498Y-76646295D01*
X173166503Y-76646297D01*
X173321153Y-76677059D01*
X173321156Y-76677060D01*
X173321158Y-76677060D01*
X174278844Y-76677060D01*
X174278845Y-76677059D01*
X174433497Y-76646297D01*
X174579179Y-76585954D01*
X174710289Y-76498349D01*
X174821789Y-76386849D01*
X174909394Y-76255739D01*
X174969737Y-76110057D01*
X175000500Y-75955402D01*
X175000500Y-75797718D01*
X175000500Y-75797715D01*
X175000499Y-75797713D01*
X197999500Y-75797713D01*
X197999500Y-75955406D01*
X198030261Y-76110049D01*
X198030264Y-76110061D01*
X198090602Y-76255732D01*
X198090609Y-76255745D01*
X198178210Y-76386848D01*
X198178213Y-76386852D01*
X198289707Y-76498346D01*
X198289711Y-76498349D01*
X198420814Y-76585950D01*
X198420827Y-76585957D01*
X198566498Y-76646295D01*
X198566503Y-76646297D01*
X198721153Y-76677059D01*
X198721156Y-76677060D01*
X198721158Y-76677060D01*
X199678844Y-76677060D01*
X199678845Y-76677059D01*
X199833497Y-76646297D01*
X199979179Y-76585954D01*
X200110289Y-76498349D01*
X200221789Y-76386849D01*
X200309394Y-76255739D01*
X200369737Y-76110057D01*
X200400500Y-75955402D01*
X200400500Y-75797718D01*
X200400500Y-75797715D01*
X200400499Y-75797713D01*
X200369738Y-75643070D01*
X200369737Y-75643063D01*
X200369735Y-75643058D01*
X200309397Y-75497387D01*
X200309390Y-75497374D01*
X200221789Y-75366271D01*
X200221786Y-75366267D01*
X200110292Y-75254773D01*
X200110288Y-75254770D01*
X199979185Y-75167169D01*
X199979172Y-75167162D01*
X199833501Y-75106824D01*
X199833489Y-75106821D01*
X199678845Y-75076060D01*
X199678842Y-75076060D01*
X198721158Y-75076060D01*
X198721155Y-75076060D01*
X198566510Y-75106821D01*
X198566498Y-75106824D01*
X198420827Y-75167162D01*
X198420814Y-75167169D01*
X198289711Y-75254770D01*
X198289707Y-75254773D01*
X198178213Y-75366267D01*
X198178210Y-75366271D01*
X198090609Y-75497374D01*
X198090602Y-75497387D01*
X198030264Y-75643058D01*
X198030261Y-75643070D01*
X197999500Y-75797713D01*
X175000499Y-75797713D01*
X174969738Y-75643070D01*
X174969737Y-75643063D01*
X174969735Y-75643058D01*
X174909397Y-75497387D01*
X174909390Y-75497374D01*
X174821789Y-75366271D01*
X174821786Y-75366267D01*
X174710292Y-75254773D01*
X174710288Y-75254770D01*
X174579185Y-75167169D01*
X174579172Y-75167162D01*
X174433501Y-75106824D01*
X174433489Y-75106821D01*
X174278845Y-75076060D01*
X174278842Y-75076060D01*
X173321158Y-75076060D01*
X173321155Y-75076060D01*
X173166510Y-75106821D01*
X173166498Y-75106824D01*
X173020827Y-75167162D01*
X173020814Y-75167169D01*
X172889711Y-75254770D01*
X172889707Y-75254773D01*
X172778213Y-75366267D01*
X172778210Y-75366271D01*
X172690609Y-75497374D01*
X172690602Y-75497387D01*
X172630264Y-75643058D01*
X172630261Y-75643070D01*
X172599500Y-75797713D01*
X125500500Y-75797713D01*
X125500500Y-73257713D01*
X172599500Y-73257713D01*
X172599500Y-73415406D01*
X172630261Y-73570049D01*
X172630264Y-73570061D01*
X172690602Y-73715732D01*
X172690609Y-73715745D01*
X172778210Y-73846848D01*
X172778213Y-73846852D01*
X172889707Y-73958346D01*
X172889711Y-73958349D01*
X173020814Y-74045950D01*
X173020827Y-74045957D01*
X173166498Y-74106295D01*
X173166503Y-74106297D01*
X173321153Y-74137059D01*
X173321156Y-74137060D01*
X173321158Y-74137060D01*
X174278844Y-74137060D01*
X174278845Y-74137059D01*
X174433497Y-74106297D01*
X174579179Y-74045954D01*
X174710289Y-73958349D01*
X174821789Y-73846849D01*
X174909394Y-73715739D01*
X174969737Y-73570057D01*
X175000500Y-73415402D01*
X175000500Y-73257718D01*
X175000500Y-73257715D01*
X175000499Y-73257713D01*
X197999500Y-73257713D01*
X197999500Y-73415406D01*
X198030261Y-73570049D01*
X198030264Y-73570061D01*
X198090602Y-73715732D01*
X198090609Y-73715745D01*
X198178210Y-73846848D01*
X198178213Y-73846852D01*
X198289707Y-73958346D01*
X198289711Y-73958349D01*
X198420814Y-74045950D01*
X198420827Y-74045957D01*
X198566498Y-74106295D01*
X198566503Y-74106297D01*
X198721153Y-74137059D01*
X198721156Y-74137060D01*
X198721158Y-74137060D01*
X199678844Y-74137060D01*
X199678845Y-74137059D01*
X199833497Y-74106297D01*
X199979179Y-74045954D01*
X200110289Y-73958349D01*
X200221789Y-73846849D01*
X200309394Y-73715739D01*
X200369737Y-73570057D01*
X200400500Y-73415402D01*
X200400500Y-73257718D01*
X200400500Y-73257715D01*
X200400499Y-73257713D01*
X200369738Y-73103070D01*
X200369737Y-73103063D01*
X200369735Y-73103058D01*
X200309397Y-72957387D01*
X200309390Y-72957374D01*
X200221789Y-72826271D01*
X200221786Y-72826267D01*
X200110292Y-72714773D01*
X200110288Y-72714770D01*
X199979185Y-72627169D01*
X199979172Y-72627162D01*
X199833501Y-72566824D01*
X199833489Y-72566821D01*
X199678845Y-72536060D01*
X199678842Y-72536060D01*
X198721158Y-72536060D01*
X198721155Y-72536060D01*
X198566510Y-72566821D01*
X198566498Y-72566824D01*
X198420827Y-72627162D01*
X198420814Y-72627169D01*
X198289711Y-72714770D01*
X198289707Y-72714773D01*
X198178213Y-72826267D01*
X198178210Y-72826271D01*
X198090609Y-72957374D01*
X198090602Y-72957387D01*
X198030264Y-73103058D01*
X198030261Y-73103070D01*
X197999500Y-73257713D01*
X175000499Y-73257713D01*
X174969738Y-73103070D01*
X174969737Y-73103063D01*
X174969735Y-73103058D01*
X174909397Y-72957387D01*
X174909390Y-72957374D01*
X174821789Y-72826271D01*
X174821786Y-72826267D01*
X174710292Y-72714773D01*
X174710288Y-72714770D01*
X174579185Y-72627169D01*
X174579172Y-72627162D01*
X174433501Y-72566824D01*
X174433489Y-72566821D01*
X174278845Y-72536060D01*
X174278842Y-72536060D01*
X173321158Y-72536060D01*
X173321155Y-72536060D01*
X173166510Y-72566821D01*
X173166498Y-72566824D01*
X173020827Y-72627162D01*
X173020814Y-72627169D01*
X172889711Y-72714770D01*
X172889707Y-72714773D01*
X172778213Y-72826267D01*
X172778210Y-72826271D01*
X172690609Y-72957374D01*
X172690602Y-72957387D01*
X172630264Y-73103058D01*
X172630261Y-73103070D01*
X172599500Y-73257713D01*
X125500500Y-73257713D01*
X125500500Y-70717713D01*
X172599500Y-70717713D01*
X172599500Y-70875406D01*
X172630261Y-71030049D01*
X172630264Y-71030061D01*
X172690602Y-71175732D01*
X172690609Y-71175745D01*
X172778210Y-71306848D01*
X172778213Y-71306852D01*
X172889707Y-71418346D01*
X172889711Y-71418349D01*
X173020814Y-71505950D01*
X173020827Y-71505957D01*
X173166498Y-71566295D01*
X173166503Y-71566297D01*
X173321153Y-71597059D01*
X173321156Y-71597060D01*
X173321158Y-71597060D01*
X174278844Y-71597060D01*
X174278845Y-71597059D01*
X174433497Y-71566297D01*
X174579179Y-71505954D01*
X174710289Y-71418349D01*
X174821789Y-71306849D01*
X174909394Y-71175739D01*
X174969737Y-71030057D01*
X175000500Y-70875402D01*
X175000500Y-70717718D01*
X175000500Y-70717715D01*
X175000499Y-70717713D01*
X197999500Y-70717713D01*
X197999500Y-70875406D01*
X198030261Y-71030049D01*
X198030264Y-71030061D01*
X198090602Y-71175732D01*
X198090609Y-71175745D01*
X198178210Y-71306848D01*
X198178213Y-71306852D01*
X198289707Y-71418346D01*
X198289711Y-71418349D01*
X198420814Y-71505950D01*
X198420827Y-71505957D01*
X198566498Y-71566295D01*
X198566503Y-71566297D01*
X198721153Y-71597059D01*
X198721156Y-71597060D01*
X198721158Y-71597060D01*
X199678844Y-71597060D01*
X199678845Y-71597059D01*
X199833497Y-71566297D01*
X199979179Y-71505954D01*
X200110289Y-71418349D01*
X200221789Y-71306849D01*
X200309394Y-71175739D01*
X200369737Y-71030057D01*
X200400500Y-70875402D01*
X200400500Y-70717718D01*
X200400500Y-70717715D01*
X200400499Y-70717713D01*
X200369738Y-70563070D01*
X200369737Y-70563063D01*
X200369735Y-70563058D01*
X200309397Y-70417387D01*
X200309390Y-70417374D01*
X200221789Y-70286271D01*
X200221786Y-70286267D01*
X200110292Y-70174773D01*
X200110288Y-70174770D01*
X199979185Y-70087169D01*
X199979172Y-70087162D01*
X199833501Y-70026824D01*
X199833489Y-70026821D01*
X199678845Y-69996060D01*
X199678842Y-69996060D01*
X198721158Y-69996060D01*
X198721155Y-69996060D01*
X198566510Y-70026821D01*
X198566498Y-70026824D01*
X198420827Y-70087162D01*
X198420814Y-70087169D01*
X198289711Y-70174770D01*
X198289707Y-70174773D01*
X198178213Y-70286267D01*
X198178210Y-70286271D01*
X198090609Y-70417374D01*
X198090602Y-70417387D01*
X198030264Y-70563058D01*
X198030261Y-70563070D01*
X197999500Y-70717713D01*
X175000499Y-70717713D01*
X174969738Y-70563070D01*
X174969737Y-70563063D01*
X174969735Y-70563058D01*
X174909397Y-70417387D01*
X174909390Y-70417374D01*
X174821789Y-70286271D01*
X174821786Y-70286267D01*
X174710292Y-70174773D01*
X174710288Y-70174770D01*
X174579185Y-70087169D01*
X174579172Y-70087162D01*
X174433501Y-70026824D01*
X174433489Y-70026821D01*
X174278845Y-69996060D01*
X174278842Y-69996060D01*
X173321158Y-69996060D01*
X173321155Y-69996060D01*
X173166510Y-70026821D01*
X173166498Y-70026824D01*
X173020827Y-70087162D01*
X173020814Y-70087169D01*
X172889711Y-70174770D01*
X172889707Y-70174773D01*
X172778213Y-70286267D01*
X172778210Y-70286271D01*
X172690609Y-70417374D01*
X172690602Y-70417387D01*
X172630264Y-70563058D01*
X172630261Y-70563070D01*
X172599500Y-70717713D01*
X125500500Y-70717713D01*
X125500500Y-68177713D01*
X172599500Y-68177713D01*
X172599500Y-68335406D01*
X172630261Y-68490049D01*
X172630264Y-68490061D01*
X172690602Y-68635732D01*
X172690609Y-68635745D01*
X172778210Y-68766848D01*
X172778213Y-68766852D01*
X172889707Y-68878346D01*
X172889711Y-68878349D01*
X173020814Y-68965950D01*
X173020827Y-68965957D01*
X173166498Y-69026295D01*
X173166503Y-69026297D01*
X173321153Y-69057059D01*
X173321156Y-69057060D01*
X173321158Y-69057060D01*
X174278844Y-69057060D01*
X174278845Y-69057059D01*
X174433497Y-69026297D01*
X174579179Y-68965954D01*
X174710289Y-68878349D01*
X174821789Y-68766849D01*
X174909394Y-68635739D01*
X174969737Y-68490057D01*
X175000500Y-68335402D01*
X175000500Y-68177718D01*
X175000500Y-68177715D01*
X175000499Y-68177713D01*
X197999500Y-68177713D01*
X197999500Y-68335406D01*
X198030261Y-68490049D01*
X198030264Y-68490061D01*
X198090602Y-68635732D01*
X198090609Y-68635745D01*
X198178210Y-68766848D01*
X198178213Y-68766852D01*
X198289707Y-68878346D01*
X198289711Y-68878349D01*
X198420814Y-68965950D01*
X198420827Y-68965957D01*
X198566498Y-69026295D01*
X198566503Y-69026297D01*
X198721153Y-69057059D01*
X198721156Y-69057060D01*
X198721158Y-69057060D01*
X199678844Y-69057060D01*
X199678845Y-69057059D01*
X199833497Y-69026297D01*
X199979179Y-68965954D01*
X200110289Y-68878349D01*
X200221789Y-68766849D01*
X200309394Y-68635739D01*
X200369737Y-68490057D01*
X200400500Y-68335402D01*
X200400500Y-68177718D01*
X200400500Y-68177715D01*
X200400499Y-68177713D01*
X200369738Y-68023070D01*
X200369737Y-68023063D01*
X200369735Y-68023058D01*
X200309397Y-67877387D01*
X200309390Y-67877374D01*
X200221789Y-67746271D01*
X200221786Y-67746267D01*
X200110292Y-67634773D01*
X200110288Y-67634770D01*
X199979185Y-67547169D01*
X199979172Y-67547162D01*
X199833501Y-67486824D01*
X199833489Y-67486821D01*
X199678845Y-67456060D01*
X199678842Y-67456060D01*
X198721158Y-67456060D01*
X198721155Y-67456060D01*
X198566510Y-67486821D01*
X198566498Y-67486824D01*
X198420827Y-67547162D01*
X198420814Y-67547169D01*
X198289711Y-67634770D01*
X198289707Y-67634773D01*
X198178213Y-67746267D01*
X198178210Y-67746271D01*
X198090609Y-67877374D01*
X198090602Y-67877387D01*
X198030264Y-68023058D01*
X198030261Y-68023070D01*
X197999500Y-68177713D01*
X175000499Y-68177713D01*
X174969738Y-68023070D01*
X174969737Y-68023063D01*
X174969735Y-68023058D01*
X174909397Y-67877387D01*
X174909390Y-67877374D01*
X174821789Y-67746271D01*
X174821786Y-67746267D01*
X174710292Y-67634773D01*
X174710288Y-67634770D01*
X174579185Y-67547169D01*
X174579172Y-67547162D01*
X174433501Y-67486824D01*
X174433489Y-67486821D01*
X174278845Y-67456060D01*
X174278842Y-67456060D01*
X173321158Y-67456060D01*
X173321155Y-67456060D01*
X173166510Y-67486821D01*
X173166498Y-67486824D01*
X173020827Y-67547162D01*
X173020814Y-67547169D01*
X172889711Y-67634770D01*
X172889707Y-67634773D01*
X172778213Y-67746267D01*
X172778210Y-67746271D01*
X172690609Y-67877374D01*
X172690602Y-67877387D01*
X172630264Y-68023058D01*
X172630261Y-68023070D01*
X172599500Y-68177713D01*
X125500500Y-68177713D01*
X125500500Y-65388549D01*
X128799500Y-65388549D01*
X128799500Y-65611450D01*
X128799501Y-65611466D01*
X128828594Y-65832452D01*
X128828595Y-65832457D01*
X128828596Y-65832463D01*
X128860103Y-65950049D01*
X128886290Y-66047780D01*
X128886293Y-66047790D01*
X128960462Y-66226849D01*
X128971595Y-66253726D01*
X129083052Y-66446774D01*
X129083057Y-66446780D01*
X129083058Y-66446782D01*
X129218751Y-66623622D01*
X129218757Y-66623629D01*
X129376370Y-66781242D01*
X129376376Y-66781247D01*
X129553226Y-66916948D01*
X129746274Y-67028405D01*
X129952219Y-67113710D01*
X130167537Y-67171404D01*
X130388543Y-67200500D01*
X130388550Y-67200500D01*
X130611450Y-67200500D01*
X130611457Y-67200500D01*
X130832463Y-67171404D01*
X131047781Y-67113710D01*
X131253726Y-67028405D01*
X131446774Y-66916948D01*
X131623624Y-66781247D01*
X131781247Y-66623624D01*
X131916948Y-66446774D01*
X132028405Y-66253726D01*
X132113710Y-66047781D01*
X132159270Y-65877747D01*
X142449500Y-65877747D01*
X142449500Y-67617252D01*
X142461131Y-67675729D01*
X142461132Y-67675730D01*
X142505447Y-67742052D01*
X142571769Y-67786367D01*
X142571770Y-67786368D01*
X142630247Y-67797999D01*
X142630250Y-67798000D01*
X142630252Y-67798000D01*
X144369750Y-67798000D01*
X144369751Y-67797999D01*
X144384568Y-67795052D01*
X144428229Y-67786368D01*
X144428229Y-67786367D01*
X144428231Y-67786367D01*
X144494552Y-67742052D01*
X144538867Y-67675731D01*
X144538867Y-67675729D01*
X144538868Y-67675729D01*
X144550499Y-67617252D01*
X144550500Y-67617250D01*
X144550500Y-65877749D01*
X144550499Y-65877747D01*
X144538868Y-65819270D01*
X144538867Y-65819269D01*
X144494553Y-65752948D01*
X144467284Y-65734728D01*
X144467282Y-65734726D01*
X144428230Y-65708632D01*
X144428229Y-65708631D01*
X144369752Y-65697000D01*
X144369748Y-65697000D01*
X142630252Y-65697000D01*
X142630247Y-65697000D01*
X142571770Y-65708631D01*
X142571769Y-65708632D01*
X142505447Y-65752947D01*
X142461132Y-65819269D01*
X142461131Y-65819270D01*
X142449500Y-65877747D01*
X132159270Y-65877747D01*
X132171404Y-65832463D01*
X132197043Y-65637713D01*
X172599500Y-65637713D01*
X172599500Y-65795406D01*
X172630261Y-65950049D01*
X172630264Y-65950061D01*
X172690602Y-66095732D01*
X172690609Y-66095745D01*
X172778210Y-66226848D01*
X172778213Y-66226852D01*
X172889707Y-66338346D01*
X172889711Y-66338349D01*
X173020814Y-66425950D01*
X173020827Y-66425957D01*
X173166498Y-66486295D01*
X173166503Y-66486297D01*
X173321153Y-66517059D01*
X173321156Y-66517060D01*
X173321158Y-66517060D01*
X174278844Y-66517060D01*
X174278845Y-66517059D01*
X174433497Y-66486297D01*
X174579179Y-66425954D01*
X174710289Y-66338349D01*
X174821789Y-66226849D01*
X174909394Y-66095739D01*
X174969737Y-65950057D01*
X175000500Y-65795402D01*
X175000500Y-65637718D01*
X175000500Y-65637715D01*
X175000499Y-65637713D01*
X197999500Y-65637713D01*
X197999500Y-65795406D01*
X198030261Y-65950049D01*
X198030264Y-65950061D01*
X198090602Y-66095732D01*
X198090609Y-66095745D01*
X198178210Y-66226848D01*
X198178213Y-66226852D01*
X198289707Y-66338346D01*
X198289711Y-66338349D01*
X198420814Y-66425950D01*
X198420827Y-66425957D01*
X198566498Y-66486295D01*
X198566503Y-66486297D01*
X198721153Y-66517059D01*
X198721156Y-66517060D01*
X198721158Y-66517060D01*
X199678844Y-66517060D01*
X199678845Y-66517059D01*
X199833497Y-66486297D01*
X199979179Y-66425954D01*
X200110289Y-66338349D01*
X200221789Y-66226849D01*
X200309394Y-66095739D01*
X200369737Y-65950057D01*
X200400500Y-65795402D01*
X200400500Y-65637718D01*
X200400500Y-65637715D01*
X200400499Y-65637713D01*
X200369738Y-65483070D01*
X200369737Y-65483063D01*
X200369735Y-65483058D01*
X200309397Y-65337387D01*
X200309390Y-65337374D01*
X200221789Y-65206271D01*
X200221786Y-65206267D01*
X200110292Y-65094773D01*
X200110288Y-65094770D01*
X199979185Y-65007169D01*
X199979172Y-65007162D01*
X199833501Y-64946824D01*
X199833489Y-64946821D01*
X199678845Y-64916060D01*
X199678842Y-64916060D01*
X198721158Y-64916060D01*
X198721155Y-64916060D01*
X198566510Y-64946821D01*
X198566498Y-64946824D01*
X198420827Y-65007162D01*
X198420814Y-65007169D01*
X198289711Y-65094770D01*
X198289707Y-65094773D01*
X198178213Y-65206267D01*
X198178210Y-65206271D01*
X198090609Y-65337374D01*
X198090602Y-65337387D01*
X198030264Y-65483058D01*
X198030261Y-65483070D01*
X197999500Y-65637713D01*
X175000499Y-65637713D01*
X174969738Y-65483070D01*
X174969737Y-65483063D01*
X174969735Y-65483058D01*
X174909397Y-65337387D01*
X174909390Y-65337374D01*
X174821789Y-65206271D01*
X174821786Y-65206267D01*
X174710292Y-65094773D01*
X174710288Y-65094770D01*
X174579185Y-65007169D01*
X174579172Y-65007162D01*
X174433501Y-64946824D01*
X174433489Y-64946821D01*
X174278845Y-64916060D01*
X174278842Y-64916060D01*
X173321158Y-64916060D01*
X173321155Y-64916060D01*
X173166510Y-64946821D01*
X173166498Y-64946824D01*
X173020827Y-65007162D01*
X173020814Y-65007169D01*
X172889711Y-65094770D01*
X172889707Y-65094773D01*
X172778213Y-65206267D01*
X172778210Y-65206271D01*
X172690609Y-65337374D01*
X172690602Y-65337387D01*
X172630264Y-65483058D01*
X172630261Y-65483070D01*
X172599500Y-65637713D01*
X132197043Y-65637713D01*
X132200500Y-65611457D01*
X132200500Y-65388543D01*
X132171404Y-65167537D01*
X132113710Y-64952219D01*
X132098732Y-64916060D01*
X132028406Y-64746277D01*
X132028405Y-64746274D01*
X131916948Y-64553226D01*
X131781247Y-64376376D01*
X131781242Y-64376370D01*
X131623629Y-64218757D01*
X131623622Y-64218751D01*
X131594388Y-64196319D01*
X131446782Y-64083058D01*
X131446780Y-64083057D01*
X131446774Y-64083052D01*
X131253726Y-63971595D01*
X131253722Y-63971593D01*
X131047790Y-63886293D01*
X131047783Y-63886291D01*
X131047781Y-63886290D01*
X130832463Y-63828596D01*
X130832457Y-63828595D01*
X130832452Y-63828594D01*
X130611466Y-63799501D01*
X130611463Y-63799500D01*
X130611457Y-63799500D01*
X130388543Y-63799500D01*
X130388537Y-63799500D01*
X130388533Y-63799501D01*
X130167547Y-63828594D01*
X130167540Y-63828595D01*
X130167537Y-63828596D01*
X129953488Y-63885950D01*
X129952219Y-63886290D01*
X129952209Y-63886293D01*
X129746277Y-63971593D01*
X129746273Y-63971595D01*
X129553226Y-64083052D01*
X129553217Y-64083058D01*
X129376377Y-64218751D01*
X129376370Y-64218757D01*
X129218757Y-64376370D01*
X129218751Y-64376377D01*
X129083058Y-64553217D01*
X129083052Y-64553226D01*
X128971595Y-64746273D01*
X128971593Y-64746277D01*
X128886293Y-64952209D01*
X128886290Y-64952219D01*
X128848094Y-65094771D01*
X128828597Y-65167534D01*
X128828594Y-65167547D01*
X128799501Y-65388533D01*
X128799500Y-65388549D01*
X125500500Y-65388549D01*
X125500500Y-58952155D01*
X128500000Y-58952155D01*
X128500000Y-60250000D01*
X129899999Y-60250000D01*
X129874979Y-60310402D01*
X129850000Y-60435981D01*
X129850000Y-60564019D01*
X129874979Y-60689598D01*
X129899999Y-60750000D01*
X128500000Y-60750000D01*
X128500000Y-62047844D01*
X128506401Y-62107372D01*
X128506403Y-62107379D01*
X128556645Y-62242086D01*
X128556649Y-62242093D01*
X128642809Y-62357187D01*
X128642812Y-62357190D01*
X128757906Y-62443350D01*
X128757913Y-62443354D01*
X128892620Y-62493596D01*
X128892627Y-62493598D01*
X128952155Y-62499999D01*
X128952172Y-62500000D01*
X130250000Y-62500000D01*
X130250000Y-61100001D01*
X130310402Y-61125021D01*
X130435981Y-61150000D01*
X130564019Y-61150000D01*
X130689598Y-61125021D01*
X130750000Y-61100001D01*
X130750000Y-62500000D01*
X132047828Y-62500000D01*
X132047844Y-62499999D01*
X132107372Y-62493598D01*
X132107379Y-62493596D01*
X132242086Y-62443354D01*
X132242093Y-62443350D01*
X132357187Y-62357190D01*
X132357190Y-62357187D01*
X132443350Y-62242093D01*
X132443354Y-62242086D01*
X132493596Y-62107379D01*
X132493598Y-62107372D01*
X132499999Y-62047844D01*
X132500000Y-62047827D01*
X132500000Y-61561253D01*
X142150000Y-61561253D01*
X142150000Y-61773746D01*
X142183242Y-61983627D01*
X142183242Y-61983630D01*
X142248904Y-62185717D01*
X142345375Y-62375050D01*
X142384728Y-62429216D01*
X143017036Y-61796907D01*
X143034075Y-61860493D01*
X143099901Y-61974507D01*
X143192993Y-62067599D01*
X143307007Y-62133425D01*
X143370590Y-62150462D01*
X142738282Y-62782769D01*
X142738282Y-62782770D01*
X142792449Y-62822124D01*
X142981782Y-62918595D01*
X143157973Y-62975843D01*
X143215648Y-63015280D01*
X143242847Y-63079639D01*
X143230932Y-63148485D01*
X143183688Y-63199961D01*
X143167108Y-63208335D01*
X143002403Y-63276557D01*
X142830342Y-63391524D01*
X142684024Y-63537842D01*
X142569058Y-63709903D01*
X142489870Y-63901079D01*
X142489868Y-63901087D01*
X142449500Y-64104030D01*
X142449500Y-64310969D01*
X142489868Y-64513912D01*
X142489870Y-64513920D01*
X142569058Y-64705096D01*
X142684024Y-64877157D01*
X142830342Y-65023475D01*
X142830345Y-65023477D01*
X143002402Y-65138441D01*
X143193580Y-65217630D01*
X143396530Y-65257999D01*
X143396534Y-65258000D01*
X143396535Y-65258000D01*
X143603466Y-65258000D01*
X143603467Y-65257999D01*
X143806420Y-65217630D01*
X143997598Y-65138441D01*
X144169655Y-65023477D01*
X144315977Y-64877155D01*
X144430941Y-64705098D01*
X144510130Y-64513920D01*
X144550500Y-64310965D01*
X144550500Y-64104035D01*
X144510130Y-63901080D01*
X144430941Y-63709902D01*
X144315977Y-63537845D01*
X144315975Y-63537842D01*
X144169657Y-63391524D01*
X144083626Y-63334041D01*
X143997598Y-63276559D01*
X143997593Y-63276557D01*
X143935891Y-63250999D01*
X143832890Y-63208334D01*
X143811981Y-63191485D01*
X143788988Y-63177619D01*
X143785190Y-63169895D01*
X143778488Y-63164494D01*
X143770007Y-63139014D01*
X143758160Y-63114918D01*
X143759141Y-63106366D01*
X143756423Y-63098200D01*
X143756547Y-63097713D01*
X172599500Y-63097713D01*
X172599500Y-63255406D01*
X172630261Y-63410049D01*
X172630264Y-63410061D01*
X172690602Y-63555732D01*
X172690609Y-63555745D01*
X172778210Y-63686848D01*
X172778213Y-63686852D01*
X172889707Y-63798346D01*
X172889711Y-63798349D01*
X173020814Y-63885950D01*
X173020827Y-63885957D01*
X173166498Y-63946295D01*
X173166503Y-63946297D01*
X173293674Y-63971593D01*
X173321153Y-63977059D01*
X173321156Y-63977060D01*
X173321158Y-63977060D01*
X174278844Y-63977060D01*
X174278845Y-63977059D01*
X174433497Y-63946297D01*
X174579179Y-63885954D01*
X174710289Y-63798349D01*
X174821789Y-63686849D01*
X174909394Y-63555739D01*
X174969737Y-63410057D01*
X175000500Y-63255402D01*
X175000500Y-63097718D01*
X175000500Y-63097715D01*
X175000499Y-63097713D01*
X197999500Y-63097713D01*
X197999500Y-63255406D01*
X198030261Y-63410049D01*
X198030264Y-63410061D01*
X198090602Y-63555732D01*
X198090609Y-63555745D01*
X198178210Y-63686848D01*
X198178213Y-63686852D01*
X198289707Y-63798346D01*
X198289711Y-63798349D01*
X198420814Y-63885950D01*
X198420827Y-63885957D01*
X198566498Y-63946295D01*
X198566503Y-63946297D01*
X198693674Y-63971593D01*
X198721153Y-63977059D01*
X198721156Y-63977060D01*
X198721158Y-63977060D01*
X199678844Y-63977060D01*
X199678845Y-63977059D01*
X199833497Y-63946297D01*
X199979179Y-63885954D01*
X200110289Y-63798349D01*
X200221789Y-63686849D01*
X200309394Y-63555739D01*
X200369737Y-63410057D01*
X200400500Y-63255402D01*
X200400500Y-63097718D01*
X200400500Y-63097715D01*
X200400499Y-63097713D01*
X200390114Y-63045504D01*
X200369737Y-62943063D01*
X200319642Y-62822122D01*
X200309397Y-62797387D01*
X200309390Y-62797374D01*
X200221789Y-62666271D01*
X200221786Y-62666267D01*
X200110292Y-62554773D01*
X200110288Y-62554770D01*
X199979185Y-62467169D01*
X199979172Y-62467162D01*
X199833501Y-62406824D01*
X199833489Y-62406821D01*
X199678845Y-62376060D01*
X199678842Y-62376060D01*
X198721158Y-62376060D01*
X198721155Y-62376060D01*
X198566510Y-62406821D01*
X198566498Y-62406824D01*
X198420827Y-62467162D01*
X198420814Y-62467169D01*
X198289711Y-62554770D01*
X198289707Y-62554773D01*
X198178213Y-62666267D01*
X198178210Y-62666271D01*
X198090609Y-62797374D01*
X198090602Y-62797387D01*
X198030264Y-62943058D01*
X198030261Y-62943070D01*
X197999500Y-63097713D01*
X175000499Y-63097713D01*
X174990114Y-63045504D01*
X174969737Y-62943063D01*
X174919642Y-62822122D01*
X174909397Y-62797387D01*
X174909390Y-62797374D01*
X174821789Y-62666271D01*
X174821786Y-62666267D01*
X174710292Y-62554773D01*
X174710288Y-62554770D01*
X174579185Y-62467169D01*
X174579172Y-62467162D01*
X174433501Y-62406824D01*
X174433489Y-62406821D01*
X174278845Y-62376060D01*
X174278842Y-62376060D01*
X173321158Y-62376060D01*
X173321155Y-62376060D01*
X173166510Y-62406821D01*
X173166498Y-62406824D01*
X173020827Y-62467162D01*
X173020814Y-62467169D01*
X172889711Y-62554770D01*
X172889707Y-62554773D01*
X172778213Y-62666267D01*
X172778210Y-62666271D01*
X172690609Y-62797374D01*
X172690602Y-62797387D01*
X172630264Y-62943058D01*
X172630261Y-62943070D01*
X172599500Y-63097713D01*
X143756547Y-63097713D01*
X143763063Y-63072180D01*
X143766125Y-63045504D01*
X143771573Y-63038841D01*
X143773702Y-63030501D01*
X143791744Y-63013702D01*
X143793242Y-63010423D01*
X143796668Y-63008150D01*
X143810354Y-62991415D01*
X143821644Y-62985863D01*
X143824839Y-62982890D01*
X143842027Y-62975843D01*
X143848636Y-62973695D01*
X143848637Y-62973695D01*
X144018217Y-62918595D01*
X144207554Y-62822122D01*
X144261716Y-62782770D01*
X144261717Y-62782770D01*
X143629408Y-62150462D01*
X143692993Y-62133425D01*
X143807007Y-62067599D01*
X143900099Y-61974507D01*
X143965925Y-61860493D01*
X143982962Y-61796908D01*
X144615270Y-62429217D01*
X144615270Y-62429216D01*
X144654622Y-62375054D01*
X144751095Y-62185717D01*
X144816757Y-61983630D01*
X144816757Y-61983627D01*
X144850000Y-61773746D01*
X144850000Y-61561253D01*
X144816757Y-61351372D01*
X144816757Y-61351369D01*
X144751095Y-61149282D01*
X144654624Y-60959949D01*
X144615270Y-60905782D01*
X144615269Y-60905782D01*
X143982962Y-61538090D01*
X143965925Y-61474507D01*
X143900099Y-61360493D01*
X143807007Y-61267401D01*
X143692993Y-61201575D01*
X143629409Y-61184537D01*
X144256231Y-60557713D01*
X172599500Y-60557713D01*
X172599500Y-60715406D01*
X172630261Y-60870049D01*
X172630264Y-60870061D01*
X172690602Y-61015732D01*
X172690609Y-61015745D01*
X172778210Y-61146848D01*
X172778213Y-61146852D01*
X172889707Y-61258346D01*
X172889711Y-61258349D01*
X173020814Y-61345950D01*
X173020827Y-61345957D01*
X173166498Y-61406295D01*
X173166503Y-61406297D01*
X173321153Y-61437059D01*
X173321156Y-61437060D01*
X173321158Y-61437060D01*
X174278844Y-61437060D01*
X174278845Y-61437059D01*
X174433497Y-61406297D01*
X174579179Y-61345954D01*
X174710289Y-61258349D01*
X174821789Y-61146849D01*
X174909394Y-61015739D01*
X174969737Y-60870057D01*
X175000500Y-60715402D01*
X175000500Y-60557718D01*
X175000500Y-60557715D01*
X175000499Y-60557713D01*
X197999500Y-60557713D01*
X197999500Y-60715406D01*
X198030261Y-60870049D01*
X198030264Y-60870061D01*
X198090602Y-61015732D01*
X198090609Y-61015745D01*
X198178210Y-61146848D01*
X198178213Y-61146852D01*
X198289707Y-61258346D01*
X198289711Y-61258349D01*
X198420814Y-61345950D01*
X198420827Y-61345957D01*
X198566498Y-61406295D01*
X198566503Y-61406297D01*
X198721153Y-61437059D01*
X198721156Y-61437060D01*
X198721158Y-61437060D01*
X199678844Y-61437060D01*
X199678845Y-61437059D01*
X199833497Y-61406297D01*
X199979179Y-61345954D01*
X200110289Y-61258349D01*
X200221789Y-61146849D01*
X200309394Y-61015739D01*
X200369737Y-60870057D01*
X200400500Y-60715402D01*
X200400500Y-60557718D01*
X200400500Y-60557715D01*
X200400499Y-60557713D01*
X200372391Y-60416405D01*
X200369737Y-60403063D01*
X200351550Y-60359156D01*
X200309397Y-60257387D01*
X200309390Y-60257374D01*
X200221789Y-60126271D01*
X200221786Y-60126267D01*
X200110292Y-60014773D01*
X200110288Y-60014770D01*
X199979185Y-59927169D01*
X199979172Y-59927162D01*
X199833501Y-59866824D01*
X199833489Y-59866821D01*
X199678845Y-59836060D01*
X199678842Y-59836060D01*
X198721158Y-59836060D01*
X198721155Y-59836060D01*
X198566510Y-59866821D01*
X198566498Y-59866824D01*
X198420827Y-59927162D01*
X198420814Y-59927169D01*
X198289711Y-60014770D01*
X198289707Y-60014773D01*
X198178213Y-60126267D01*
X198178210Y-60126271D01*
X198090609Y-60257374D01*
X198090602Y-60257387D01*
X198030264Y-60403058D01*
X198030261Y-60403070D01*
X197999500Y-60557713D01*
X175000499Y-60557713D01*
X174972391Y-60416405D01*
X174969737Y-60403063D01*
X174951550Y-60359156D01*
X174909397Y-60257387D01*
X174909390Y-60257374D01*
X174821789Y-60126271D01*
X174821786Y-60126267D01*
X174710292Y-60014773D01*
X174710288Y-60014770D01*
X174579185Y-59927169D01*
X174579172Y-59927162D01*
X174433501Y-59866824D01*
X174433489Y-59866821D01*
X174278845Y-59836060D01*
X174278842Y-59836060D01*
X173321158Y-59836060D01*
X173321155Y-59836060D01*
X173166510Y-59866821D01*
X173166498Y-59866824D01*
X173020827Y-59927162D01*
X173020814Y-59927169D01*
X172889711Y-60014770D01*
X172889707Y-60014773D01*
X172778213Y-60126267D01*
X172778210Y-60126271D01*
X172690609Y-60257374D01*
X172690602Y-60257387D01*
X172630264Y-60403058D01*
X172630261Y-60403070D01*
X172599500Y-60557713D01*
X144256231Y-60557713D01*
X144261716Y-60552228D01*
X144207550Y-60512875D01*
X144018216Y-60416404D01*
X143842026Y-60359156D01*
X143784350Y-60319718D01*
X143757152Y-60255360D01*
X143769067Y-60186513D01*
X143816311Y-60135038D01*
X143832882Y-60126668D01*
X143997598Y-60058441D01*
X144169655Y-59943477D01*
X144315977Y-59797155D01*
X144430941Y-59625098D01*
X144510130Y-59433920D01*
X144550500Y-59230965D01*
X144550500Y-59024035D01*
X144510130Y-58821080D01*
X144430941Y-58629902D01*
X144315977Y-58457845D01*
X144315975Y-58457842D01*
X144169657Y-58311524D01*
X144083626Y-58254041D01*
X143997598Y-58196559D01*
X143946530Y-58175406D01*
X143806420Y-58117370D01*
X143806412Y-58117368D01*
X143603469Y-58077000D01*
X143603465Y-58077000D01*
X143396535Y-58077000D01*
X143396530Y-58077000D01*
X143193587Y-58117368D01*
X143193579Y-58117370D01*
X143002403Y-58196558D01*
X142830342Y-58311524D01*
X142684024Y-58457842D01*
X142569058Y-58629903D01*
X142489870Y-58821079D01*
X142489868Y-58821087D01*
X142449500Y-59024030D01*
X142449500Y-59230969D01*
X142489868Y-59433912D01*
X142489870Y-59433920D01*
X142569058Y-59625096D01*
X142684024Y-59797157D01*
X142830342Y-59943475D01*
X143002405Y-60058443D01*
X143105043Y-60100956D01*
X143167108Y-60126664D01*
X143221511Y-60170505D01*
X143243576Y-60236799D01*
X143226297Y-60304498D01*
X143175160Y-60352109D01*
X143157974Y-60359156D01*
X142981781Y-60416405D01*
X142792439Y-60512880D01*
X142738282Y-60552227D01*
X142738282Y-60552228D01*
X143370591Y-61184537D01*
X143307007Y-61201575D01*
X143192993Y-61267401D01*
X143099901Y-61360493D01*
X143034075Y-61474507D01*
X143017037Y-61538091D01*
X142384728Y-60905782D01*
X142384727Y-60905782D01*
X142345380Y-60959939D01*
X142248904Y-61149282D01*
X142183242Y-61351369D01*
X142183242Y-61351372D01*
X142150000Y-61561253D01*
X132500000Y-61561253D01*
X132500000Y-60750000D01*
X131100001Y-60750000D01*
X131125021Y-60689598D01*
X131150000Y-60564019D01*
X131150000Y-60435981D01*
X131125021Y-60310402D01*
X131100001Y-60250000D01*
X132500000Y-60250000D01*
X132500000Y-58952172D01*
X132499999Y-58952155D01*
X132493598Y-58892627D01*
X132493596Y-58892620D01*
X132443354Y-58757913D01*
X132443350Y-58757906D01*
X132357190Y-58642812D01*
X132357187Y-58642809D01*
X132242093Y-58556649D01*
X132242086Y-58556645D01*
X132107379Y-58506403D01*
X132107372Y-58506401D01*
X132047844Y-58500000D01*
X130750000Y-58500000D01*
X130750000Y-59899998D01*
X130689598Y-59874979D01*
X130564019Y-59850000D01*
X130435981Y-59850000D01*
X130310402Y-59874979D01*
X130250000Y-59899998D01*
X130250000Y-58500000D01*
X128952155Y-58500000D01*
X128892627Y-58506401D01*
X128892620Y-58506403D01*
X128757913Y-58556645D01*
X128757906Y-58556649D01*
X128642812Y-58642809D01*
X128642809Y-58642812D01*
X128556649Y-58757906D01*
X128556645Y-58757913D01*
X128506403Y-58892620D01*
X128506401Y-58892627D01*
X128500000Y-58952155D01*
X125500500Y-58952155D01*
X125500500Y-57476807D01*
X172599500Y-57476807D01*
X172599500Y-58716312D01*
X172611131Y-58774789D01*
X172611132Y-58774790D01*
X172655447Y-58841112D01*
X172721769Y-58885427D01*
X172721770Y-58885428D01*
X172780247Y-58897059D01*
X172780250Y-58897060D01*
X172780252Y-58897060D01*
X174819750Y-58897060D01*
X174819751Y-58897059D01*
X174834568Y-58894112D01*
X174878229Y-58885428D01*
X174878229Y-58885427D01*
X174878231Y-58885427D01*
X174944552Y-58841112D01*
X174988867Y-58774791D01*
X174988867Y-58774789D01*
X174988868Y-58774789D01*
X175000094Y-58718349D01*
X175000500Y-58716308D01*
X175000500Y-58017713D01*
X197999500Y-58017713D01*
X197999500Y-58175406D01*
X198030261Y-58330049D01*
X198030264Y-58330061D01*
X198090602Y-58475732D01*
X198090609Y-58475745D01*
X198178210Y-58606848D01*
X198178213Y-58606852D01*
X198289707Y-58718346D01*
X198289711Y-58718349D01*
X198420814Y-58805950D01*
X198420827Y-58805957D01*
X198566498Y-58866295D01*
X198566503Y-58866297D01*
X198698837Y-58892620D01*
X198721153Y-58897059D01*
X198721156Y-58897060D01*
X198721158Y-58897060D01*
X199678844Y-58897060D01*
X199678845Y-58897059D01*
X199833497Y-58866297D01*
X199979179Y-58805954D01*
X200110289Y-58718349D01*
X200221789Y-58606849D01*
X200309394Y-58475739D01*
X200369737Y-58330057D01*
X200400500Y-58175402D01*
X200400500Y-58017718D01*
X200400500Y-58017715D01*
X200400499Y-58017713D01*
X200369738Y-57863070D01*
X200369737Y-57863063D01*
X200369735Y-57863058D01*
X200309397Y-57717387D01*
X200309390Y-57717374D01*
X200221789Y-57586271D01*
X200221786Y-57586267D01*
X200110292Y-57474773D01*
X200110288Y-57474770D01*
X199979185Y-57387169D01*
X199979172Y-57387162D01*
X199833501Y-57326824D01*
X199833489Y-57326821D01*
X199678845Y-57296060D01*
X199678842Y-57296060D01*
X198721158Y-57296060D01*
X198721155Y-57296060D01*
X198566510Y-57326821D01*
X198566498Y-57326824D01*
X198420827Y-57387162D01*
X198420814Y-57387169D01*
X198289711Y-57474770D01*
X198289707Y-57474773D01*
X198178213Y-57586267D01*
X198178210Y-57586271D01*
X198090609Y-57717374D01*
X198090602Y-57717387D01*
X198030264Y-57863058D01*
X198030261Y-57863070D01*
X197999500Y-58017713D01*
X175000500Y-58017713D01*
X175000500Y-57476812D01*
X175000500Y-57476809D01*
X175000499Y-57476807D01*
X174988868Y-57418330D01*
X174988867Y-57418329D01*
X174944552Y-57352007D01*
X174878230Y-57307692D01*
X174878229Y-57307691D01*
X174819752Y-57296060D01*
X174819748Y-57296060D01*
X172780252Y-57296060D01*
X172780247Y-57296060D01*
X172721770Y-57307691D01*
X172721769Y-57307692D01*
X172655447Y-57352007D01*
X172611132Y-57418329D01*
X172611131Y-57418330D01*
X172599500Y-57476807D01*
X125500500Y-57476807D01*
X125500500Y-56624000D01*
X125520185Y-56556961D01*
X125572989Y-56511206D01*
X125624500Y-56500000D01*
X134500000Y-56500000D01*
X134500000Y-47624500D01*
X134519685Y-47557461D01*
X134572489Y-47511706D01*
X134624000Y-47500500D01*
X174876000Y-47500500D01*
X174943039Y-47520185D01*
G37*
%TD.AperFunction*%
%TD*%
%TA.AperFunction,Conductor*%
%TO.N,+5V*%
G36*
X129725848Y-101016612D02*
G01*
X129746274Y-101028405D01*
X129952219Y-101113710D01*
X130167537Y-101171404D01*
X130388543Y-101200500D01*
X130388550Y-101200500D01*
X130611450Y-101200500D01*
X130611457Y-101200500D01*
X130832463Y-101171404D01*
X131047781Y-101113710D01*
X131253726Y-101028405D01*
X131274151Y-101016612D01*
X131336150Y-101000000D01*
X172487734Y-101000000D01*
X172554773Y-101019685D01*
X172600528Y-101072489D01*
X172610472Y-101141647D01*
X172609351Y-101148192D01*
X172599500Y-101197715D01*
X172599500Y-101355406D01*
X172630261Y-101510049D01*
X172630264Y-101510061D01*
X172690602Y-101655732D01*
X172690609Y-101655745D01*
X172778210Y-101786848D01*
X172778213Y-101786852D01*
X172889707Y-101898346D01*
X172889711Y-101898349D01*
X173020814Y-101985950D01*
X173020827Y-101985957D01*
X173166498Y-102046295D01*
X173166503Y-102046297D01*
X173307479Y-102074339D01*
X173321153Y-102077059D01*
X173321156Y-102077060D01*
X173321158Y-102077060D01*
X174278844Y-102077060D01*
X174278845Y-102077059D01*
X174433497Y-102046297D01*
X174579179Y-101985954D01*
X174710289Y-101898349D01*
X174821789Y-101786849D01*
X174909394Y-101655739D01*
X174969737Y-101510057D01*
X175000500Y-101355402D01*
X175000500Y-101197718D01*
X175000500Y-101197715D01*
X174990649Y-101148192D01*
X174996876Y-101078600D01*
X175039739Y-101023423D01*
X175105629Y-101000178D01*
X175112266Y-101000000D01*
X183483167Y-101000000D01*
X183550206Y-101019685D01*
X183595961Y-101072489D01*
X183605905Y-101141647D01*
X183576880Y-101205203D01*
X183570854Y-101211674D01*
X178559487Y-106223041D01*
X167983835Y-116798692D01*
X167922512Y-116832177D01*
X167852820Y-116827193D01*
X167848702Y-116825572D01*
X167751839Y-116785450D01*
X167751829Y-116785447D01*
X167558543Y-116747000D01*
X167558541Y-116747000D01*
X167361459Y-116747000D01*
X167361457Y-116747000D01*
X167168170Y-116785447D01*
X167168160Y-116785450D01*
X166986092Y-116860864D01*
X166986079Y-116860871D01*
X166822218Y-116970360D01*
X166822214Y-116970363D01*
X166682863Y-117109714D01*
X166682860Y-117109718D01*
X166573371Y-117273579D01*
X166573364Y-117273592D01*
X166497950Y-117455660D01*
X166497947Y-117455670D01*
X166459500Y-117648956D01*
X166459500Y-117648959D01*
X166459500Y-117846041D01*
X166459500Y-117846043D01*
X166459499Y-117846043D01*
X166497947Y-118039329D01*
X166497950Y-118039339D01*
X166573364Y-118221407D01*
X166573371Y-118221420D01*
X166682860Y-118385281D01*
X166682863Y-118385285D01*
X166822214Y-118524636D01*
X166822218Y-118524639D01*
X166986079Y-118634128D01*
X166986092Y-118634135D01*
X167145814Y-118700293D01*
X167168165Y-118709551D01*
X167168169Y-118709551D01*
X167168170Y-118709552D01*
X167361456Y-118748000D01*
X167361459Y-118748000D01*
X167558543Y-118748000D01*
X167688582Y-118722132D01*
X167751835Y-118709551D01*
X167933914Y-118634132D01*
X168097782Y-118524639D01*
X168237139Y-118385282D01*
X168346632Y-118221414D01*
X168422051Y-118039335D01*
X168460500Y-117846043D01*
X168999499Y-117846043D01*
X169037947Y-118039329D01*
X169037950Y-118039339D01*
X169113364Y-118221407D01*
X169113371Y-118221420D01*
X169222860Y-118385281D01*
X169222863Y-118385285D01*
X169362214Y-118524636D01*
X169362218Y-118524639D01*
X169526079Y-118634128D01*
X169526092Y-118634135D01*
X169685814Y-118700293D01*
X169708165Y-118709551D01*
X169708169Y-118709551D01*
X169708170Y-118709552D01*
X169901456Y-118748000D01*
X169901459Y-118748000D01*
X170098543Y-118748000D01*
X170228582Y-118722132D01*
X170291835Y-118709551D01*
X170473914Y-118634132D01*
X170637782Y-118524639D01*
X170777139Y-118385282D01*
X170886632Y-118221414D01*
X170962051Y-118039335D01*
X171000500Y-117846043D01*
X171539499Y-117846043D01*
X171577947Y-118039329D01*
X171577950Y-118039339D01*
X171653364Y-118221407D01*
X171653371Y-118221420D01*
X171762860Y-118385281D01*
X171762863Y-118385285D01*
X171902214Y-118524636D01*
X171902218Y-118524639D01*
X172066079Y-118634128D01*
X172066092Y-118634135D01*
X172225814Y-118700293D01*
X172248165Y-118709551D01*
X172248169Y-118709551D01*
X172248170Y-118709552D01*
X172441456Y-118748000D01*
X172441459Y-118748000D01*
X172638543Y-118748000D01*
X172768582Y-118722132D01*
X172831835Y-118709551D01*
X173013914Y-118634132D01*
X173177782Y-118524639D01*
X173317139Y-118385282D01*
X173426632Y-118221414D01*
X173502051Y-118039335D01*
X173540500Y-117846041D01*
X173540500Y-117648959D01*
X173540500Y-117648956D01*
X173502052Y-117455670D01*
X173502051Y-117455669D01*
X173502051Y-117455665D01*
X173479201Y-117400499D01*
X173426635Y-117273592D01*
X173426628Y-117273579D01*
X173317139Y-117109718D01*
X173317136Y-117109714D01*
X173177785Y-116970363D01*
X173177781Y-116970360D01*
X173013920Y-116860871D01*
X173013907Y-116860864D01*
X172831839Y-116785450D01*
X172831829Y-116785447D01*
X172638543Y-116747000D01*
X172638541Y-116747000D01*
X172441459Y-116747000D01*
X172441457Y-116747000D01*
X172248170Y-116785447D01*
X172248160Y-116785450D01*
X172066092Y-116860864D01*
X172066079Y-116860871D01*
X171902218Y-116970360D01*
X171902214Y-116970363D01*
X171762863Y-117109714D01*
X171762860Y-117109718D01*
X171653371Y-117273579D01*
X171653364Y-117273592D01*
X171577950Y-117455660D01*
X171577947Y-117455670D01*
X171539500Y-117648956D01*
X171539500Y-117648959D01*
X171539500Y-117846041D01*
X171539500Y-117846043D01*
X171539499Y-117846043D01*
X171000500Y-117846043D01*
X171000500Y-117846041D01*
X171000500Y-117648959D01*
X171000500Y-117648956D01*
X170962052Y-117455670D01*
X170962051Y-117455669D01*
X170962051Y-117455665D01*
X170939201Y-117400499D01*
X170886635Y-117273592D01*
X170886628Y-117273579D01*
X170777139Y-117109718D01*
X170777136Y-117109714D01*
X170637785Y-116970363D01*
X170637781Y-116970360D01*
X170473920Y-116860871D01*
X170473907Y-116860864D01*
X170291839Y-116785450D01*
X170291829Y-116785447D01*
X170098543Y-116747000D01*
X170098541Y-116747000D01*
X169901459Y-116747000D01*
X169901457Y-116747000D01*
X169708170Y-116785447D01*
X169708160Y-116785450D01*
X169526092Y-116860864D01*
X169526079Y-116860871D01*
X169362218Y-116970360D01*
X169362214Y-116970363D01*
X169222863Y-117109714D01*
X169222860Y-117109718D01*
X169113371Y-117273579D01*
X169113364Y-117273592D01*
X169037950Y-117455660D01*
X169037947Y-117455670D01*
X168999500Y-117648956D01*
X168999500Y-117648959D01*
X168999500Y-117846041D01*
X168999500Y-117846043D01*
X168999499Y-117846043D01*
X168460500Y-117846043D01*
X168460500Y-117846041D01*
X168460500Y-117648959D01*
X168460500Y-117648956D01*
X168422052Y-117455670D01*
X168422051Y-117455669D01*
X168422051Y-117455665D01*
X168381925Y-117358794D01*
X168374457Y-117289328D01*
X168405732Y-117226849D01*
X168408778Y-117223691D01*
X174987819Y-110644651D01*
X175049142Y-110611166D01*
X175118834Y-110616150D01*
X175174767Y-110658022D01*
X175199184Y-110723486D01*
X175199500Y-110732332D01*
X175199500Y-117324167D01*
X175179815Y-117391206D01*
X175163181Y-117411848D01*
X172911848Y-119663181D01*
X172850525Y-119696666D01*
X172824167Y-119699500D01*
X162268333Y-119699500D01*
X162201294Y-119679815D01*
X162180652Y-119663181D01*
X160788806Y-118271335D01*
X160755321Y-118210012D01*
X160760305Y-118140320D01*
X160761910Y-118136243D01*
X160802051Y-118039335D01*
X160840500Y-117846043D01*
X161379499Y-117846043D01*
X161417947Y-118039329D01*
X161417950Y-118039339D01*
X161493364Y-118221407D01*
X161493371Y-118221420D01*
X161602860Y-118385281D01*
X161602863Y-118385285D01*
X161742214Y-118524636D01*
X161742218Y-118524639D01*
X161906079Y-118634128D01*
X161906092Y-118634135D01*
X162065814Y-118700293D01*
X162088165Y-118709551D01*
X162088169Y-118709551D01*
X162088170Y-118709552D01*
X162281456Y-118748000D01*
X162281459Y-118748000D01*
X162478543Y-118748000D01*
X162608582Y-118722132D01*
X162671835Y-118709551D01*
X162853914Y-118634132D01*
X163017782Y-118524639D01*
X163157139Y-118385282D01*
X163266632Y-118221414D01*
X163342051Y-118039335D01*
X163380500Y-117846043D01*
X163919499Y-117846043D01*
X163957947Y-118039329D01*
X163957950Y-118039339D01*
X164033364Y-118221407D01*
X164033371Y-118221420D01*
X164142860Y-118385281D01*
X164142863Y-118385285D01*
X164282214Y-118524636D01*
X164282218Y-118524639D01*
X164446079Y-118634128D01*
X164446092Y-118634135D01*
X164605814Y-118700293D01*
X164628165Y-118709551D01*
X164628169Y-118709551D01*
X164628170Y-118709552D01*
X164821456Y-118748000D01*
X164821459Y-118748000D01*
X165018543Y-118748000D01*
X165148582Y-118722132D01*
X165211835Y-118709551D01*
X165393914Y-118634132D01*
X165557782Y-118524639D01*
X165697139Y-118385282D01*
X165806632Y-118221414D01*
X165882051Y-118039335D01*
X165920500Y-117846041D01*
X165920500Y-117648959D01*
X165920500Y-117648956D01*
X165882052Y-117455670D01*
X165882051Y-117455669D01*
X165882051Y-117455665D01*
X165859201Y-117400499D01*
X165806635Y-117273592D01*
X165806628Y-117273579D01*
X165697139Y-117109718D01*
X165697136Y-117109714D01*
X165557785Y-116970363D01*
X165557781Y-116970360D01*
X165393920Y-116860871D01*
X165393907Y-116860864D01*
X165211839Y-116785450D01*
X165211829Y-116785447D01*
X165018543Y-116747000D01*
X165018541Y-116747000D01*
X164821459Y-116747000D01*
X164821457Y-116747000D01*
X164628170Y-116785447D01*
X164628160Y-116785450D01*
X164446092Y-116860864D01*
X164446079Y-116860871D01*
X164282218Y-116970360D01*
X164282214Y-116970363D01*
X164142863Y-117109714D01*
X164142860Y-117109718D01*
X164033371Y-117273579D01*
X164033364Y-117273592D01*
X163957950Y-117455660D01*
X163957947Y-117455670D01*
X163919500Y-117648956D01*
X163919500Y-117648959D01*
X163919500Y-117846041D01*
X163919500Y-117846043D01*
X163919499Y-117846043D01*
X163380500Y-117846043D01*
X163380500Y-117846041D01*
X163380500Y-117648959D01*
X163380500Y-117648956D01*
X163342052Y-117455670D01*
X163342051Y-117455669D01*
X163342051Y-117455665D01*
X163319201Y-117400499D01*
X163266635Y-117273592D01*
X163266628Y-117273579D01*
X163157139Y-117109718D01*
X163157136Y-117109714D01*
X163017785Y-116970363D01*
X163017781Y-116970360D01*
X162853920Y-116860871D01*
X162853907Y-116860864D01*
X162671839Y-116785450D01*
X162671829Y-116785447D01*
X162478543Y-116747000D01*
X162478541Y-116747000D01*
X162281459Y-116747000D01*
X162281457Y-116747000D01*
X162088170Y-116785447D01*
X162088160Y-116785450D01*
X161906092Y-116860864D01*
X161906079Y-116860871D01*
X161742218Y-116970360D01*
X161742214Y-116970363D01*
X161602863Y-117109714D01*
X161602860Y-117109718D01*
X161493371Y-117273579D01*
X161493364Y-117273592D01*
X161417950Y-117455660D01*
X161417947Y-117455670D01*
X161379500Y-117648956D01*
X161379500Y-117648959D01*
X161379500Y-117846041D01*
X161379500Y-117846043D01*
X161379499Y-117846043D01*
X160840500Y-117846043D01*
X160840500Y-117846041D01*
X160840500Y-117648959D01*
X160840500Y-117648956D01*
X160802052Y-117455670D01*
X160802051Y-117455669D01*
X160802051Y-117455665D01*
X160779201Y-117400499D01*
X160726635Y-117273592D01*
X160726628Y-117273579D01*
X160617139Y-117109718D01*
X160617136Y-117109714D01*
X160477785Y-116970363D01*
X160477781Y-116970360D01*
X160313920Y-116860871D01*
X160313907Y-116860864D01*
X160131839Y-116785450D01*
X160131829Y-116785447D01*
X159938543Y-116747000D01*
X159938541Y-116747000D01*
X159741459Y-116747000D01*
X159741457Y-116747000D01*
X159548170Y-116785447D01*
X159548160Y-116785450D01*
X159366092Y-116860864D01*
X159366079Y-116860871D01*
X159202218Y-116970360D01*
X159202214Y-116970363D01*
X159062863Y-117109714D01*
X159062860Y-117109718D01*
X158953371Y-117273579D01*
X158953364Y-117273592D01*
X158877950Y-117455660D01*
X158877947Y-117455670D01*
X158839500Y-117648956D01*
X158839500Y-117648959D01*
X158839500Y-117846041D01*
X158839500Y-117846043D01*
X158839499Y-117846043D01*
X158877947Y-118039329D01*
X158877950Y-118039339D01*
X158953364Y-118221407D01*
X158953371Y-118221420D01*
X159062860Y-118385281D01*
X159062863Y-118385285D01*
X159202214Y-118524636D01*
X159202218Y-118524639D01*
X159366079Y-118634128D01*
X159366092Y-118634135D01*
X159525814Y-118700293D01*
X159548165Y-118709551D01*
X159548169Y-118709551D01*
X159548170Y-118709552D01*
X159741456Y-118748000D01*
X159741459Y-118748000D01*
X159938543Y-118748000D01*
X160068582Y-118722132D01*
X160131835Y-118709551D01*
X160228702Y-118669426D01*
X160298169Y-118661957D01*
X160360649Y-118693231D01*
X160363835Y-118696306D01*
X161852040Y-120184511D01*
X161907989Y-120240460D01*
X161907991Y-120240461D01*
X161907995Y-120240464D01*
X161976504Y-120280017D01*
X161976511Y-120280021D01*
X162052938Y-120300500D01*
X162052940Y-120300500D01*
X173039560Y-120300500D01*
X173039562Y-120300500D01*
X173115989Y-120280021D01*
X173184511Y-120240460D01*
X173240460Y-120184511D01*
X175740460Y-117684511D01*
X175760986Y-117648959D01*
X175780021Y-117615989D01*
X175800500Y-117539562D01*
X175800500Y-110712393D01*
X175820185Y-110645354D01*
X175836819Y-110624712D01*
X182726538Y-103734993D01*
X197995820Y-103734993D01*
X197995820Y-103892686D01*
X198026581Y-104047329D01*
X198026584Y-104047341D01*
X198086922Y-104193012D01*
X198086929Y-104193025D01*
X198174530Y-104324128D01*
X198174533Y-104324132D01*
X198286027Y-104435626D01*
X198286031Y-104435629D01*
X198417134Y-104523230D01*
X198417147Y-104523237D01*
X198562818Y-104583575D01*
X198562823Y-104583577D01*
X198717473Y-104614339D01*
X198717476Y-104614340D01*
X198717478Y-104614340D01*
X199675164Y-104614340D01*
X199675165Y-104614339D01*
X199829817Y-104583577D01*
X199975499Y-104523234D01*
X200106609Y-104435629D01*
X200218109Y-104324129D01*
X200305714Y-104193019D01*
X200366057Y-104047337D01*
X200396820Y-103892682D01*
X200396820Y-103734998D01*
X200396820Y-103734995D01*
X200396819Y-103734993D01*
X200366058Y-103580350D01*
X200366057Y-103580343D01*
X200331320Y-103496480D01*
X200305717Y-103434667D01*
X200305710Y-103434654D01*
X200218109Y-103303551D01*
X200218106Y-103303547D01*
X200106612Y-103192053D01*
X200106608Y-103192050D01*
X199975505Y-103104449D01*
X199975492Y-103104442D01*
X199829821Y-103044104D01*
X199829809Y-103044101D01*
X199675165Y-103013340D01*
X199675162Y-103013340D01*
X198717478Y-103013340D01*
X198717475Y-103013340D01*
X198562830Y-103044101D01*
X198562818Y-103044104D01*
X198417147Y-103104442D01*
X198417134Y-103104449D01*
X198286031Y-103192050D01*
X198286027Y-103192053D01*
X198174533Y-103303547D01*
X198174530Y-103303551D01*
X198086929Y-103434654D01*
X198086922Y-103434667D01*
X198026584Y-103580338D01*
X198026581Y-103580350D01*
X197995820Y-103734993D01*
X182726538Y-103734993D01*
X185425212Y-101036319D01*
X185486535Y-101002834D01*
X185512893Y-101000000D01*
X197883513Y-101000000D01*
X197950552Y-101019685D01*
X197996307Y-101072489D01*
X198006251Y-101141647D01*
X198005130Y-101148192D01*
X197995820Y-101194995D01*
X197995820Y-101352686D01*
X198026581Y-101507329D01*
X198026584Y-101507341D01*
X198086922Y-101653012D01*
X198086929Y-101653025D01*
X198174530Y-101784128D01*
X198174533Y-101784132D01*
X198286027Y-101895626D01*
X198286031Y-101895629D01*
X198417134Y-101983230D01*
X198417147Y-101983237D01*
X198562818Y-102043575D01*
X198562823Y-102043577D01*
X198717473Y-102074339D01*
X198717476Y-102074340D01*
X198717478Y-102074340D01*
X199675164Y-102074340D01*
X199675165Y-102074339D01*
X199829817Y-102043577D01*
X199975499Y-101983234D01*
X200106609Y-101895629D01*
X200218109Y-101784129D01*
X200305714Y-101653019D01*
X200366057Y-101507337D01*
X200396820Y-101352682D01*
X200396820Y-101194998D01*
X200396820Y-101194995D01*
X200387510Y-101148192D01*
X200393737Y-101078600D01*
X200436600Y-101023423D01*
X200502490Y-101000178D01*
X200509127Y-101000000D01*
X202375500Y-101000000D01*
X202442539Y-101019685D01*
X202488294Y-101072489D01*
X202499500Y-101124000D01*
X202499500Y-114876000D01*
X202479815Y-114943039D01*
X202427011Y-114988794D01*
X202375500Y-115000000D01*
X193500000Y-115000000D01*
X193500000Y-124375500D01*
X193480315Y-124442539D01*
X193427511Y-124488294D01*
X193376000Y-124499500D01*
X129003051Y-124499500D01*
X128996968Y-124499351D01*
X128976900Y-124498365D01*
X128663071Y-124482947D01*
X128650962Y-124481754D01*
X128323305Y-124433151D01*
X128311369Y-124430777D01*
X127990055Y-124350292D01*
X127978411Y-124346759D01*
X127666540Y-124235170D01*
X127655301Y-124230515D01*
X127355844Y-124088883D01*
X127345121Y-124083150D01*
X127061011Y-123912862D01*
X127050893Y-123906102D01*
X126784829Y-123708775D01*
X126775423Y-123701055D01*
X126736475Y-123665755D01*
X126529986Y-123478604D01*
X126521395Y-123470013D01*
X126298944Y-123224576D01*
X126291224Y-123215170D01*
X126191034Y-123080080D01*
X126093895Y-122949103D01*
X126087137Y-122938988D01*
X125916844Y-122654871D01*
X125911120Y-122644163D01*
X125769479Y-122344688D01*
X125764829Y-122333459D01*
X125653240Y-122021588D01*
X125649707Y-122009944D01*
X125640958Y-121975015D01*
X125569219Y-121688617D01*
X125566848Y-121676694D01*
X125518245Y-121349037D01*
X125517052Y-121336927D01*
X125500649Y-121003032D01*
X125500500Y-120996948D01*
X125500500Y-116388549D01*
X128799500Y-116388549D01*
X128799500Y-116611450D01*
X128799501Y-116611466D01*
X128828594Y-116832452D01*
X128828595Y-116832457D01*
X128828596Y-116832463D01*
X128869366Y-116984618D01*
X128886290Y-117047780D01*
X128886293Y-117047790D01*
X128960462Y-117226849D01*
X128971595Y-117253726D01*
X129083052Y-117446774D01*
X129083057Y-117446780D01*
X129083058Y-117446782D01*
X129218751Y-117623622D01*
X129218757Y-117623629D01*
X129376370Y-117781242D01*
X129376376Y-117781247D01*
X129553226Y-117916948D01*
X129746274Y-118028405D01*
X129952219Y-118113710D01*
X130167537Y-118171404D01*
X130388543Y-118200500D01*
X130388550Y-118200500D01*
X130611450Y-118200500D01*
X130611457Y-118200500D01*
X130832463Y-118171404D01*
X131047781Y-118113710D01*
X131253726Y-118028405D01*
X131446774Y-117916948D01*
X131623624Y-117781247D01*
X131781247Y-117623624D01*
X131916948Y-117446774D01*
X132028405Y-117253726D01*
X132113710Y-117047781D01*
X132155342Y-116892404D01*
X132191707Y-116832746D01*
X132254554Y-116802217D01*
X132275117Y-116800500D01*
X139486923Y-116800500D01*
X139553962Y-116820185D01*
X139599717Y-116872989D01*
X139601472Y-116877021D01*
X139611814Y-116901988D01*
X139621986Y-116926546D01*
X139621990Y-116926553D01*
X139720535Y-117074034D01*
X139720538Y-117074038D01*
X139845961Y-117199461D01*
X139845965Y-117199464D01*
X139993446Y-117298009D01*
X139993459Y-117298016D01*
X140116363Y-117348923D01*
X140157334Y-117365894D01*
X140157336Y-117365894D01*
X140157341Y-117365896D01*
X140331304Y-117400499D01*
X140331307Y-117400500D01*
X140331309Y-117400500D01*
X140508693Y-117400500D01*
X140508694Y-117400499D01*
X140566682Y-117388964D01*
X140682658Y-117365896D01*
X140682661Y-117365894D01*
X140682666Y-117365894D01*
X140846547Y-117298013D01*
X140994035Y-117199464D01*
X141119464Y-117074035D01*
X141218013Y-116926547D01*
X141285894Y-116762666D01*
X141288443Y-116749854D01*
X141315970Y-116611466D01*
X141320500Y-116588691D01*
X141320500Y-116411309D01*
X141320500Y-116411306D01*
X141320499Y-116411304D01*
X144599500Y-116411304D01*
X144599500Y-116588695D01*
X144634103Y-116762658D01*
X144634106Y-116762667D01*
X144701983Y-116926540D01*
X144701990Y-116926553D01*
X144800535Y-117074034D01*
X144800538Y-117074038D01*
X144925961Y-117199461D01*
X144925965Y-117199464D01*
X145073446Y-117298009D01*
X145073459Y-117298016D01*
X145196363Y-117348923D01*
X145237334Y-117365894D01*
X145237336Y-117365894D01*
X145237341Y-117365896D01*
X145411304Y-117400499D01*
X145411307Y-117400500D01*
X145411309Y-117400500D01*
X145588693Y-117400500D01*
X145588694Y-117400499D01*
X145646682Y-117388964D01*
X145762658Y-117365896D01*
X145762661Y-117365894D01*
X145762666Y-117365894D01*
X145926547Y-117298013D01*
X146074035Y-117199464D01*
X146130269Y-117143230D01*
X156299500Y-117143230D01*
X156299500Y-118351769D01*
X156302353Y-118382199D01*
X156302353Y-118382201D01*
X156347206Y-118510380D01*
X156347207Y-118510382D01*
X156427850Y-118619650D01*
X156537118Y-118700293D01*
X156563576Y-118709551D01*
X156665299Y-118745146D01*
X156695730Y-118748000D01*
X156695734Y-118748000D01*
X157904270Y-118748000D01*
X157934699Y-118745146D01*
X157934701Y-118745146D01*
X157998790Y-118722719D01*
X158062882Y-118700293D01*
X158172150Y-118619650D01*
X158252793Y-118510382D01*
X158275219Y-118446290D01*
X158297646Y-118382201D01*
X158297646Y-118382199D01*
X158300500Y-118351769D01*
X158300500Y-117143230D01*
X158297646Y-117112800D01*
X158297646Y-117112798D01*
X158252793Y-116984619D01*
X158252792Y-116984617D01*
X158209939Y-116926553D01*
X158172150Y-116875350D01*
X158062882Y-116794707D01*
X158062880Y-116794706D01*
X157934700Y-116749853D01*
X157904270Y-116747000D01*
X157904266Y-116747000D01*
X156695734Y-116747000D01*
X156695730Y-116747000D01*
X156665300Y-116749853D01*
X156665298Y-116749853D01*
X156537119Y-116794706D01*
X156537117Y-116794707D01*
X156427850Y-116875350D01*
X156347207Y-116984617D01*
X156347206Y-116984619D01*
X156302353Y-117112798D01*
X156302353Y-117112800D01*
X156299500Y-117143230D01*
X146130269Y-117143230D01*
X146199464Y-117074035D01*
X146298013Y-116926547D01*
X146365894Y-116762666D01*
X146368443Y-116749854D01*
X146395970Y-116611466D01*
X146400500Y-116588691D01*
X146400500Y-116411309D01*
X146400500Y-116411306D01*
X146400499Y-116411304D01*
X146365896Y-116237341D01*
X146365893Y-116237332D01*
X146298016Y-116073459D01*
X146298009Y-116073446D01*
X146199464Y-115925965D01*
X146199461Y-115925961D01*
X146074038Y-115800538D01*
X146074034Y-115800535D01*
X145926553Y-115701990D01*
X145926540Y-115701983D01*
X145762667Y-115634106D01*
X145762658Y-115634103D01*
X145588694Y-115599500D01*
X145588691Y-115599500D01*
X145411309Y-115599500D01*
X145411306Y-115599500D01*
X145237341Y-115634103D01*
X145237332Y-115634106D01*
X145073459Y-115701983D01*
X145073446Y-115701990D01*
X144925965Y-115800535D01*
X144925961Y-115800538D01*
X144800538Y-115925961D01*
X144800535Y-115925965D01*
X144701990Y-116073446D01*
X144701983Y-116073459D01*
X144634106Y-116237332D01*
X144634103Y-116237341D01*
X144599500Y-116411304D01*
X141320499Y-116411304D01*
X141285896Y-116237341D01*
X141285893Y-116237332D01*
X141218016Y-116073459D01*
X141218009Y-116073446D01*
X141119464Y-115925965D01*
X141119461Y-115925961D01*
X140994038Y-115800538D01*
X140994034Y-115800535D01*
X140846553Y-115701990D01*
X140846540Y-115701983D01*
X140682667Y-115634106D01*
X140682658Y-115634103D01*
X140508694Y-115599500D01*
X140508691Y-115599500D01*
X140331309Y-115599500D01*
X140331306Y-115599500D01*
X140157341Y-115634103D01*
X140157332Y-115634106D01*
X139993459Y-115701983D01*
X139993446Y-115701990D01*
X139845965Y-115800535D01*
X139845961Y-115800538D01*
X139720538Y-115925961D01*
X139720535Y-115925965D01*
X139621990Y-116073446D01*
X139621986Y-116073453D01*
X139609131Y-116104488D01*
X139601483Y-116122952D01*
X139557644Y-116177355D01*
X139491350Y-116199421D01*
X139486923Y-116199500D01*
X132275117Y-116199500D01*
X132208078Y-116179815D01*
X132162323Y-116127011D01*
X132155342Y-116107594D01*
X132146375Y-116074128D01*
X132113710Y-115952219D01*
X132028405Y-115746274D01*
X131916948Y-115553226D01*
X131781247Y-115376376D01*
X131781242Y-115376370D01*
X131623629Y-115218757D01*
X131623622Y-115218751D01*
X131574740Y-115181243D01*
X131446782Y-115083058D01*
X131446780Y-115083057D01*
X131446774Y-115083052D01*
X131253726Y-114971595D01*
X131253722Y-114971593D01*
X131047790Y-114886293D01*
X131047783Y-114886291D01*
X131047781Y-114886290D01*
X130832463Y-114828596D01*
X130832457Y-114828595D01*
X130832452Y-114828594D01*
X130611466Y-114799501D01*
X130611463Y-114799500D01*
X130611457Y-114799500D01*
X130388543Y-114799500D01*
X130388537Y-114799500D01*
X130388533Y-114799501D01*
X130167547Y-114828594D01*
X130167540Y-114828595D01*
X130167537Y-114828596D01*
X129990622Y-114876000D01*
X129952219Y-114886290D01*
X129952209Y-114886293D01*
X129746277Y-114971593D01*
X129746273Y-114971595D01*
X129553226Y-115083052D01*
X129553217Y-115083058D01*
X129376377Y-115218751D01*
X129376370Y-115218757D01*
X129218757Y-115376370D01*
X129218751Y-115376377D01*
X129083058Y-115553217D01*
X129083052Y-115553226D01*
X128971595Y-115746273D01*
X128971593Y-115746277D01*
X128886293Y-115952209D01*
X128886291Y-115952216D01*
X128886290Y-115952219D01*
X128853808Y-116073446D01*
X128828597Y-116167534D01*
X128828594Y-116167547D01*
X128799501Y-116388533D01*
X128799500Y-116388549D01*
X125500500Y-116388549D01*
X125500500Y-109980247D01*
X128799500Y-109980247D01*
X128799500Y-113019752D01*
X128811131Y-113078229D01*
X128811132Y-113078230D01*
X128855447Y-113144552D01*
X128921769Y-113188867D01*
X128921770Y-113188868D01*
X128980247Y-113200499D01*
X128980250Y-113200500D01*
X128980252Y-113200500D01*
X132019750Y-113200500D01*
X132019751Y-113200499D01*
X132034568Y-113197552D01*
X132078229Y-113188868D01*
X132078229Y-113188867D01*
X132078231Y-113188867D01*
X132144552Y-113144552D01*
X132188867Y-113078231D01*
X132188867Y-113078229D01*
X132188868Y-113078229D01*
X132200499Y-113019752D01*
X132200500Y-113019750D01*
X132200500Y-112585182D01*
X149200000Y-112585182D01*
X149200000Y-112789817D01*
X149232009Y-112991917D01*
X149295244Y-113186531D01*
X149388141Y-113368850D01*
X149388147Y-113368859D01*
X149420523Y-113413421D01*
X149420524Y-113413422D01*
X150100000Y-112733946D01*
X150100000Y-112740161D01*
X150127259Y-112841894D01*
X150179920Y-112933106D01*
X150254394Y-113007580D01*
X150345606Y-113060241D01*
X150447339Y-113087500D01*
X150453553Y-113087500D01*
X149774076Y-113766974D01*
X149818650Y-113799359D01*
X150000968Y-113892255D01*
X150195576Y-113955488D01*
X150272317Y-113967642D01*
X150335452Y-113997571D01*
X150372384Y-114056883D01*
X150371386Y-114126745D01*
X150332777Y-114184978D01*
X150277113Y-114211733D01*
X150208169Y-114225447D01*
X150208160Y-114225450D01*
X150026092Y-114300864D01*
X150026079Y-114300871D01*
X149862218Y-114410360D01*
X149862214Y-114410363D01*
X149722863Y-114549714D01*
X149722860Y-114549718D01*
X149613371Y-114713579D01*
X149613364Y-114713592D01*
X149537950Y-114895660D01*
X149537947Y-114895670D01*
X149499500Y-115088956D01*
X149499500Y-115088959D01*
X149499500Y-115286041D01*
X149499500Y-115286043D01*
X149499499Y-115286043D01*
X149537947Y-115479329D01*
X149537950Y-115479339D01*
X149613364Y-115661407D01*
X149613371Y-115661420D01*
X149722860Y-115825281D01*
X149722863Y-115825285D01*
X149862214Y-115964636D01*
X149862218Y-115964639D01*
X150026079Y-116074128D01*
X150026092Y-116074135D01*
X150143946Y-116122951D01*
X150208165Y-116149551D01*
X150208169Y-116149551D01*
X150208170Y-116149552D01*
X150401456Y-116188000D01*
X150401459Y-116188000D01*
X150598543Y-116188000D01*
X150728582Y-116162132D01*
X150791835Y-116149551D01*
X150973914Y-116074132D01*
X151137782Y-115964639D01*
X151277139Y-115825282D01*
X151386632Y-115661414D01*
X151397945Y-115634103D01*
X151412277Y-115599500D01*
X151462051Y-115479335D01*
X151500500Y-115286041D01*
X151500500Y-115088959D01*
X151500500Y-115088956D01*
X151462052Y-114895670D01*
X151462051Y-114895669D01*
X151462051Y-114895665D01*
X151434271Y-114828597D01*
X151386635Y-114713592D01*
X151386628Y-114713579D01*
X151277139Y-114549718D01*
X151277136Y-114549714D01*
X151137785Y-114410363D01*
X151137781Y-114410360D01*
X150973920Y-114300871D01*
X150973907Y-114300864D01*
X150791839Y-114225450D01*
X150791830Y-114225447D01*
X150722886Y-114211733D01*
X150660976Y-114179347D01*
X150626402Y-114118631D01*
X150630143Y-114048861D01*
X150671010Y-113992190D01*
X150727682Y-113967642D01*
X150804423Y-113955488D01*
X150999031Y-113892255D01*
X151181349Y-113799359D01*
X151225921Y-113766974D01*
X150546447Y-113087500D01*
X150552661Y-113087500D01*
X150654394Y-113060241D01*
X150745606Y-113007580D01*
X150820080Y-112933106D01*
X150872741Y-112841894D01*
X150900000Y-112740161D01*
X150900000Y-112733947D01*
X151579474Y-113413421D01*
X151611859Y-113368849D01*
X151704755Y-113186531D01*
X151767990Y-112991917D01*
X151800000Y-112789817D01*
X151800000Y-112585182D01*
X151767990Y-112383082D01*
X151704755Y-112188468D01*
X151611859Y-112006150D01*
X151579474Y-111961577D01*
X151579474Y-111961576D01*
X150900000Y-112641051D01*
X150900000Y-112634839D01*
X150872741Y-112533106D01*
X150820080Y-112441894D01*
X150745606Y-112367420D01*
X150654394Y-112314759D01*
X150552661Y-112287500D01*
X150546446Y-112287500D01*
X151225922Y-111608024D01*
X151225921Y-111608023D01*
X151181359Y-111575647D01*
X151181350Y-111575641D01*
X150999031Y-111482744D01*
X150804417Y-111419509D01*
X150602317Y-111387500D01*
X150397683Y-111387500D01*
X150195582Y-111419509D01*
X150000968Y-111482744D01*
X149818644Y-111575643D01*
X149774077Y-111608023D01*
X149774077Y-111608024D01*
X150453554Y-112287500D01*
X150447339Y-112287500D01*
X150345606Y-112314759D01*
X150254394Y-112367420D01*
X150179920Y-112441894D01*
X150127259Y-112533106D01*
X150100000Y-112634839D01*
X150100000Y-112641053D01*
X149420524Y-111961577D01*
X149420523Y-111961577D01*
X149388143Y-112006144D01*
X149295244Y-112188468D01*
X149232009Y-112383082D01*
X149200000Y-112585182D01*
X132200500Y-112585182D01*
X132200500Y-111924500D01*
X132220185Y-111857461D01*
X132272989Y-111811706D01*
X132324500Y-111800500D01*
X139486923Y-111800500D01*
X139553962Y-111820185D01*
X139599717Y-111872989D01*
X139601472Y-111877021D01*
X139611814Y-111901988D01*
X139621986Y-111926546D01*
X139621990Y-111926553D01*
X139720535Y-112074034D01*
X139720538Y-112074038D01*
X139845961Y-112199461D01*
X139845965Y-112199464D01*
X139993446Y-112298009D01*
X139993459Y-112298016D01*
X140080204Y-112333946D01*
X140157334Y-112365894D01*
X140157336Y-112365894D01*
X140157341Y-112365896D01*
X140331304Y-112400499D01*
X140331307Y-112400500D01*
X140331309Y-112400500D01*
X140508693Y-112400500D01*
X140508694Y-112400499D01*
X140596257Y-112383082D01*
X140682658Y-112365896D01*
X140682661Y-112365894D01*
X140682666Y-112365894D01*
X140846547Y-112298013D01*
X140994035Y-112199464D01*
X141119464Y-112074035D01*
X141218013Y-111926547D01*
X141285894Y-111762666D01*
X141285894Y-111762661D01*
X141285896Y-111762658D01*
X141316654Y-111608024D01*
X141320500Y-111588691D01*
X141320500Y-111411309D01*
X141320500Y-111411306D01*
X141320499Y-111411304D01*
X144599500Y-111411304D01*
X144599500Y-111588695D01*
X144634103Y-111762658D01*
X144634106Y-111762667D01*
X144701983Y-111926540D01*
X144701990Y-111926553D01*
X144800535Y-112074034D01*
X144800538Y-112074038D01*
X144925961Y-112199461D01*
X144925965Y-112199464D01*
X145073446Y-112298009D01*
X145073459Y-112298016D01*
X145160204Y-112333946D01*
X145237334Y-112365894D01*
X145237336Y-112365894D01*
X145237341Y-112365896D01*
X145411304Y-112400499D01*
X145411307Y-112400500D01*
X145411309Y-112400500D01*
X145588693Y-112400500D01*
X145588694Y-112400499D01*
X145676257Y-112383082D01*
X145762658Y-112365896D01*
X145762661Y-112365894D01*
X145762666Y-112365894D01*
X145926547Y-112298013D01*
X146074035Y-112199464D01*
X146199464Y-112074035D01*
X146298013Y-111926547D01*
X146365894Y-111762666D01*
X146377232Y-111705661D01*
X146392062Y-111631114D01*
X146392066Y-111631093D01*
X146400499Y-111588695D01*
X146400500Y-111588691D01*
X146400500Y-111411309D01*
X146400500Y-111411306D01*
X146400499Y-111411304D01*
X146365896Y-111237341D01*
X146365894Y-111237338D01*
X146365894Y-111237334D01*
X146318516Y-111122951D01*
X146298016Y-111073459D01*
X146298009Y-111073446D01*
X146199464Y-110925965D01*
X146199461Y-110925961D01*
X146074038Y-110800538D01*
X146074034Y-110800535D01*
X145926553Y-110701990D01*
X145926540Y-110701983D01*
X145762667Y-110634106D01*
X145762658Y-110634103D01*
X145588694Y-110599500D01*
X145588691Y-110599500D01*
X145411309Y-110599500D01*
X145411306Y-110599500D01*
X145237341Y-110634103D01*
X145237332Y-110634106D01*
X145073459Y-110701983D01*
X145073446Y-110701990D01*
X144925965Y-110800535D01*
X144925961Y-110800538D01*
X144800538Y-110925961D01*
X144800535Y-110925965D01*
X144701990Y-111073446D01*
X144701983Y-111073459D01*
X144634106Y-111237332D01*
X144634103Y-111237341D01*
X144599500Y-111411304D01*
X141320499Y-111411304D01*
X141285896Y-111237341D01*
X141285893Y-111237332D01*
X141218016Y-111073459D01*
X141218009Y-111073446D01*
X141119464Y-110925965D01*
X141119461Y-110925961D01*
X140994038Y-110800538D01*
X140994034Y-110800535D01*
X140846553Y-110701990D01*
X140846540Y-110701983D01*
X140682667Y-110634106D01*
X140682658Y-110634103D01*
X140508694Y-110599500D01*
X140508691Y-110599500D01*
X140331309Y-110599500D01*
X140331306Y-110599500D01*
X140157341Y-110634103D01*
X140157332Y-110634106D01*
X139993459Y-110701983D01*
X139993446Y-110701990D01*
X139845965Y-110800535D01*
X139845961Y-110800538D01*
X139720538Y-110925961D01*
X139720535Y-110925965D01*
X139621990Y-111073446D01*
X139621986Y-111073453D01*
X139609131Y-111104488D01*
X139601483Y-111122952D01*
X139557644Y-111177355D01*
X139491350Y-111199421D01*
X139486923Y-111199500D01*
X132324500Y-111199500D01*
X132257461Y-111179815D01*
X132211706Y-111127011D01*
X132200500Y-111075500D01*
X132200500Y-110025182D01*
X156000000Y-110025182D01*
X156000000Y-110229817D01*
X156032009Y-110431917D01*
X156095244Y-110626531D01*
X156188141Y-110808850D01*
X156188147Y-110808859D01*
X156220523Y-110853421D01*
X156220524Y-110853422D01*
X156900000Y-110173946D01*
X156900000Y-110180161D01*
X156927259Y-110281894D01*
X156979920Y-110373106D01*
X157054394Y-110447580D01*
X157145606Y-110500241D01*
X157247339Y-110527500D01*
X157253553Y-110527500D01*
X156574076Y-111206974D01*
X156618650Y-111239359D01*
X156800968Y-111332255D01*
X156995582Y-111395490D01*
X157197683Y-111427500D01*
X157402317Y-111427500D01*
X157604417Y-111395490D01*
X157799031Y-111332255D01*
X157981349Y-111239359D01*
X158025921Y-111206974D01*
X157346447Y-110527500D01*
X157352661Y-110527500D01*
X157454394Y-110500241D01*
X157545606Y-110447580D01*
X157620080Y-110373106D01*
X157672741Y-110281894D01*
X157700000Y-110180161D01*
X157700000Y-110173947D01*
X158379474Y-110853421D01*
X158411861Y-110808847D01*
X158411861Y-110808846D01*
X158459515Y-110715320D01*
X158507489Y-110664524D01*
X158575310Y-110647728D01*
X158641445Y-110670265D01*
X158680485Y-110715319D01*
X158728141Y-110808850D01*
X158728147Y-110808859D01*
X158760523Y-110853421D01*
X158760524Y-110853422D01*
X159440000Y-110173946D01*
X159440000Y-110180161D01*
X159467259Y-110281894D01*
X159519920Y-110373106D01*
X159594394Y-110447580D01*
X159685606Y-110500241D01*
X159787339Y-110527500D01*
X159793553Y-110527500D01*
X159114076Y-111206974D01*
X159158650Y-111239359D01*
X159340968Y-111332255D01*
X159535582Y-111395490D01*
X159737683Y-111427500D01*
X159942317Y-111427500D01*
X160144417Y-111395490D01*
X160339031Y-111332255D01*
X160521349Y-111239359D01*
X160565921Y-111206974D01*
X159886447Y-110527500D01*
X159892661Y-110527500D01*
X159994394Y-110500241D01*
X160085606Y-110447580D01*
X160160080Y-110373106D01*
X160212741Y-110281894D01*
X160240000Y-110180161D01*
X160240000Y-110173947D01*
X160919474Y-110853421D01*
X160951859Y-110808849D01*
X161044755Y-110626531D01*
X161107990Y-110431917D01*
X161137875Y-110243231D01*
X161167804Y-110180096D01*
X161227116Y-110143165D01*
X161296978Y-110144163D01*
X161355211Y-110182773D01*
X161381965Y-110238437D01*
X161417947Y-110419329D01*
X161417950Y-110419339D01*
X161493364Y-110601407D01*
X161493371Y-110601420D01*
X161602860Y-110765281D01*
X161602863Y-110765285D01*
X161742214Y-110904636D01*
X161742218Y-110904639D01*
X161906079Y-111014128D01*
X161906092Y-111014135D01*
X162088160Y-111089549D01*
X162088165Y-111089551D01*
X162088169Y-111089551D01*
X162088170Y-111089552D01*
X162281456Y-111128000D01*
X162281459Y-111128000D01*
X162478543Y-111128000D01*
X162608582Y-111102132D01*
X162671835Y-111089551D01*
X162853914Y-111014132D01*
X163017782Y-110904639D01*
X163157139Y-110765282D01*
X163266632Y-110601414D01*
X163342051Y-110419335D01*
X163378034Y-110238438D01*
X163380500Y-110226043D01*
X163919499Y-110226043D01*
X163957947Y-110419329D01*
X163957950Y-110419339D01*
X164033364Y-110601407D01*
X164033371Y-110601420D01*
X164142860Y-110765281D01*
X164142863Y-110765285D01*
X164282214Y-110904636D01*
X164282218Y-110904639D01*
X164446079Y-111014128D01*
X164446092Y-111014135D01*
X164628160Y-111089549D01*
X164628165Y-111089551D01*
X164628169Y-111089551D01*
X164628170Y-111089552D01*
X164821456Y-111128000D01*
X164821459Y-111128000D01*
X165018543Y-111128000D01*
X165148582Y-111102132D01*
X165211835Y-111089551D01*
X165253164Y-111072431D01*
X165319021Y-111045154D01*
X165393907Y-111014135D01*
X165393907Y-111014134D01*
X165393914Y-111014132D01*
X165557782Y-110904639D01*
X165697139Y-110765282D01*
X165806632Y-110601414D01*
X165882051Y-110419335D01*
X165918034Y-110238437D01*
X165950419Y-110176527D01*
X166011134Y-110141953D01*
X166080904Y-110145692D01*
X166137576Y-110186559D01*
X166162124Y-110243231D01*
X166192009Y-110431917D01*
X166255244Y-110626531D01*
X166348141Y-110808850D01*
X166348147Y-110808859D01*
X166380523Y-110853421D01*
X166380524Y-110853422D01*
X167060000Y-110173946D01*
X167060000Y-110180161D01*
X167087259Y-110281894D01*
X167139920Y-110373106D01*
X167214394Y-110447580D01*
X167305606Y-110500241D01*
X167407339Y-110527500D01*
X167413553Y-110527500D01*
X166734076Y-111206974D01*
X166778650Y-111239359D01*
X166960968Y-111332255D01*
X167155582Y-111395490D01*
X167357683Y-111427500D01*
X167562317Y-111427500D01*
X167764417Y-111395490D01*
X167959031Y-111332255D01*
X168141349Y-111239359D01*
X168185921Y-111206974D01*
X167506447Y-110527500D01*
X167512661Y-110527500D01*
X167614394Y-110500241D01*
X167705606Y-110447580D01*
X167780080Y-110373106D01*
X167832741Y-110281894D01*
X167860000Y-110180161D01*
X167860000Y-110173948D01*
X168539474Y-110853422D01*
X168539474Y-110853421D01*
X168571859Y-110808849D01*
X168664755Y-110626531D01*
X168727990Y-110431917D01*
X168757875Y-110243231D01*
X168787804Y-110180096D01*
X168847116Y-110143165D01*
X168916978Y-110144163D01*
X168975211Y-110182773D01*
X169001965Y-110238437D01*
X169037947Y-110419329D01*
X169037950Y-110419339D01*
X169113364Y-110601407D01*
X169113371Y-110601420D01*
X169222860Y-110765281D01*
X169222863Y-110765285D01*
X169362214Y-110904636D01*
X169362218Y-110904639D01*
X169526079Y-111014128D01*
X169526092Y-111014135D01*
X169708160Y-111089549D01*
X169708165Y-111089551D01*
X169708169Y-111089551D01*
X169708170Y-111089552D01*
X169901456Y-111128000D01*
X169901459Y-111128000D01*
X170098543Y-111128000D01*
X170228582Y-111102132D01*
X170291835Y-111089551D01*
X170473914Y-111014132D01*
X170637782Y-110904639D01*
X170777139Y-110765282D01*
X170886632Y-110601414D01*
X170962051Y-110419335D01*
X170998034Y-110238438D01*
X171000500Y-110226043D01*
X171539499Y-110226043D01*
X171577947Y-110419329D01*
X171577950Y-110419339D01*
X171653364Y-110601407D01*
X171653371Y-110601420D01*
X171762860Y-110765281D01*
X171762863Y-110765285D01*
X171902214Y-110904636D01*
X171902218Y-110904639D01*
X172066079Y-111014128D01*
X172066092Y-111014135D01*
X172248160Y-111089549D01*
X172248165Y-111089551D01*
X172248169Y-111089551D01*
X172248170Y-111089552D01*
X172441456Y-111128000D01*
X172441459Y-111128000D01*
X172638543Y-111128000D01*
X172768582Y-111102132D01*
X172831835Y-111089551D01*
X173013914Y-111014132D01*
X173177782Y-110904639D01*
X173317139Y-110765282D01*
X173426632Y-110601414D01*
X173502051Y-110419335D01*
X173538034Y-110238438D01*
X173540500Y-110226043D01*
X173540500Y-110028956D01*
X173502052Y-109835670D01*
X173502051Y-109835669D01*
X173502051Y-109835665D01*
X173487071Y-109799500D01*
X173426635Y-109653592D01*
X173426628Y-109653579D01*
X173317139Y-109489718D01*
X173317136Y-109489714D01*
X173177785Y-109350363D01*
X173177781Y-109350360D01*
X173013920Y-109240871D01*
X173013907Y-109240864D01*
X172831839Y-109165450D01*
X172831829Y-109165447D01*
X172638543Y-109127000D01*
X172638541Y-109127000D01*
X172441459Y-109127000D01*
X172441457Y-109127000D01*
X172248170Y-109165447D01*
X172248160Y-109165450D01*
X172066092Y-109240864D01*
X172066079Y-109240871D01*
X171902218Y-109350360D01*
X171902214Y-109350363D01*
X171762863Y-109489714D01*
X171762860Y-109489718D01*
X171653371Y-109653579D01*
X171653364Y-109653592D01*
X171577950Y-109835660D01*
X171577947Y-109835670D01*
X171539500Y-110028956D01*
X171539500Y-110028959D01*
X171539500Y-110226041D01*
X171539500Y-110226043D01*
X171539499Y-110226043D01*
X171000500Y-110226043D01*
X171000500Y-110028956D01*
X170962052Y-109835670D01*
X170962051Y-109835669D01*
X170962051Y-109835665D01*
X170947071Y-109799500D01*
X170886635Y-109653592D01*
X170886628Y-109653579D01*
X170777139Y-109489718D01*
X170777136Y-109489714D01*
X170637785Y-109350363D01*
X170637781Y-109350360D01*
X170473920Y-109240871D01*
X170473907Y-109240864D01*
X170291839Y-109165450D01*
X170291829Y-109165447D01*
X170098543Y-109127000D01*
X170098541Y-109127000D01*
X169901459Y-109127000D01*
X169901457Y-109127000D01*
X169708170Y-109165447D01*
X169708160Y-109165450D01*
X169526092Y-109240864D01*
X169526079Y-109240871D01*
X169362218Y-109350360D01*
X169362214Y-109350363D01*
X169222863Y-109489714D01*
X169222860Y-109489718D01*
X169113371Y-109653579D01*
X169113364Y-109653592D01*
X169037950Y-109835660D01*
X169037947Y-109835670D01*
X169001965Y-110016562D01*
X168969580Y-110078473D01*
X168908864Y-110113047D01*
X168839094Y-110109306D01*
X168782423Y-110068440D01*
X168757875Y-110011768D01*
X168727990Y-109823082D01*
X168664755Y-109628468D01*
X168571859Y-109446150D01*
X168539474Y-109401577D01*
X168539474Y-109401576D01*
X167860000Y-110081051D01*
X167860000Y-110074839D01*
X167832741Y-109973106D01*
X167780080Y-109881894D01*
X167705606Y-109807420D01*
X167614394Y-109754759D01*
X167512661Y-109727500D01*
X167506446Y-109727500D01*
X168185922Y-109048024D01*
X168185921Y-109048023D01*
X168141359Y-109015647D01*
X168141350Y-109015641D01*
X167959031Y-108922744D01*
X167764417Y-108859509D01*
X167562317Y-108827500D01*
X167357683Y-108827500D01*
X167155582Y-108859509D01*
X166960968Y-108922744D01*
X166778644Y-109015643D01*
X166734077Y-109048023D01*
X166734077Y-109048024D01*
X167413554Y-109727500D01*
X167407339Y-109727500D01*
X167305606Y-109754759D01*
X167214394Y-109807420D01*
X167139920Y-109881894D01*
X167087259Y-109973106D01*
X167060000Y-110074839D01*
X167060000Y-110081053D01*
X166380524Y-109401577D01*
X166380523Y-109401577D01*
X166348143Y-109446144D01*
X166255244Y-109628468D01*
X166192010Y-109823081D01*
X166162124Y-110011769D01*
X166132194Y-110074903D01*
X166072883Y-110111834D01*
X166003020Y-110110836D01*
X165944788Y-110072226D01*
X165918034Y-110016561D01*
X165908409Y-109968174D01*
X165882051Y-109835665D01*
X165867071Y-109799500D01*
X165806635Y-109653592D01*
X165806628Y-109653579D01*
X165697139Y-109489718D01*
X165697136Y-109489714D01*
X165557785Y-109350363D01*
X165557781Y-109350360D01*
X165393920Y-109240871D01*
X165393907Y-109240864D01*
X165319016Y-109209844D01*
X165211839Y-109165450D01*
X165211829Y-109165447D01*
X165018543Y-109127000D01*
X165018541Y-109127000D01*
X164821459Y-109127000D01*
X164821457Y-109127000D01*
X164628170Y-109165447D01*
X164628160Y-109165450D01*
X164446092Y-109240864D01*
X164446079Y-109240871D01*
X164282218Y-109350360D01*
X164282214Y-109350363D01*
X164142863Y-109489714D01*
X164142860Y-109489718D01*
X164033371Y-109653579D01*
X164033364Y-109653592D01*
X163957950Y-109835660D01*
X163957947Y-109835670D01*
X163919500Y-110028956D01*
X163919500Y-110028959D01*
X163919500Y-110226041D01*
X163919500Y-110226043D01*
X163919499Y-110226043D01*
X163380500Y-110226043D01*
X163380500Y-110028956D01*
X163342052Y-109835670D01*
X163342051Y-109835669D01*
X163342051Y-109835665D01*
X163327071Y-109799500D01*
X163266635Y-109653592D01*
X163266628Y-109653579D01*
X163157139Y-109489718D01*
X163157136Y-109489714D01*
X163017785Y-109350363D01*
X163017781Y-109350360D01*
X162853920Y-109240871D01*
X162853907Y-109240864D01*
X162671839Y-109165450D01*
X162671829Y-109165447D01*
X162478543Y-109127000D01*
X162478541Y-109127000D01*
X162281459Y-109127000D01*
X162281457Y-109127000D01*
X162088170Y-109165447D01*
X162088160Y-109165450D01*
X161906092Y-109240864D01*
X161906079Y-109240871D01*
X161742218Y-109350360D01*
X161742214Y-109350363D01*
X161602863Y-109489714D01*
X161602860Y-109489718D01*
X161493371Y-109653579D01*
X161493364Y-109653592D01*
X161417950Y-109835660D01*
X161417947Y-109835670D01*
X161381965Y-110016562D01*
X161349580Y-110078473D01*
X161288864Y-110113047D01*
X161219094Y-110109306D01*
X161162423Y-110068440D01*
X161137875Y-110011768D01*
X161107990Y-109823082D01*
X161044755Y-109628468D01*
X160951859Y-109446150D01*
X160919474Y-109401577D01*
X160919474Y-109401576D01*
X160240000Y-110081051D01*
X160240000Y-110074839D01*
X160212741Y-109973106D01*
X160160080Y-109881894D01*
X160085606Y-109807420D01*
X159994394Y-109754759D01*
X159892661Y-109727500D01*
X159886446Y-109727500D01*
X160565922Y-109048024D01*
X160565921Y-109048023D01*
X160521359Y-109015647D01*
X160521350Y-109015641D01*
X160339031Y-108922744D01*
X160144417Y-108859509D01*
X159942317Y-108827500D01*
X159737683Y-108827500D01*
X159535582Y-108859509D01*
X159340968Y-108922744D01*
X159158644Y-109015643D01*
X159114077Y-109048023D01*
X159114077Y-109048024D01*
X159793554Y-109727500D01*
X159787339Y-109727500D01*
X159685606Y-109754759D01*
X159594394Y-109807420D01*
X159519920Y-109881894D01*
X159467259Y-109973106D01*
X159440000Y-110074839D01*
X159440000Y-110081053D01*
X158760524Y-109401577D01*
X158760523Y-109401577D01*
X158728143Y-109446144D01*
X158680485Y-109539680D01*
X158632510Y-109590476D01*
X158564689Y-109607271D01*
X158498554Y-109584733D01*
X158459515Y-109539680D01*
X158411859Y-109446150D01*
X158379474Y-109401577D01*
X158379474Y-109401576D01*
X157700000Y-110081051D01*
X157700000Y-110074839D01*
X157672741Y-109973106D01*
X157620080Y-109881894D01*
X157545606Y-109807420D01*
X157454394Y-109754759D01*
X157352661Y-109727500D01*
X157346446Y-109727500D01*
X158025922Y-109048024D01*
X158025921Y-109048023D01*
X157981359Y-109015647D01*
X157981350Y-109015641D01*
X157799031Y-108922744D01*
X157604417Y-108859509D01*
X157402317Y-108827500D01*
X157197683Y-108827500D01*
X156995582Y-108859509D01*
X156800968Y-108922744D01*
X156618644Y-109015643D01*
X156574077Y-109048023D01*
X156574077Y-109048024D01*
X157253554Y-109727500D01*
X157247339Y-109727500D01*
X157145606Y-109754759D01*
X157054394Y-109807420D01*
X156979920Y-109881894D01*
X156927259Y-109973106D01*
X156900000Y-110074839D01*
X156900000Y-110081053D01*
X156220524Y-109401577D01*
X156220523Y-109401577D01*
X156188143Y-109446144D01*
X156095244Y-109628468D01*
X156032009Y-109823082D01*
X156000000Y-110025182D01*
X132200500Y-110025182D01*
X132200500Y-109980249D01*
X132200499Y-109980247D01*
X132188868Y-109921770D01*
X132188867Y-109921769D01*
X132144552Y-109855447D01*
X132078230Y-109811132D01*
X132078229Y-109811131D01*
X132019752Y-109799500D01*
X132019748Y-109799500D01*
X128980252Y-109799500D01*
X128980247Y-109799500D01*
X128921770Y-109811131D01*
X128921769Y-109811132D01*
X128855447Y-109855447D01*
X128811132Y-109921769D01*
X128811131Y-109921770D01*
X128799500Y-109980247D01*
X125500500Y-109980247D01*
X125500500Y-103566559D01*
X172325884Y-103566559D01*
X172325885Y-103566560D01*
X173484314Y-103566560D01*
X173479920Y-103570954D01*
X173427259Y-103662166D01*
X173400000Y-103763899D01*
X173400000Y-103869221D01*
X173427259Y-103970954D01*
X173479920Y-104062166D01*
X173484314Y-104066560D01*
X172325885Y-104066560D01*
X172327085Y-104074144D01*
X172380591Y-104238815D01*
X172459195Y-104393084D01*
X172560967Y-104533162D01*
X172683397Y-104655592D01*
X172823475Y-104757364D01*
X172977742Y-104835968D01*
X173142415Y-104889474D01*
X173313429Y-104916560D01*
X173550000Y-104916560D01*
X173550000Y-104132246D01*
X173554394Y-104136640D01*
X173645606Y-104189301D01*
X173747339Y-104216560D01*
X173852661Y-104216560D01*
X173954394Y-104189301D01*
X174045606Y-104136640D01*
X174050000Y-104132246D01*
X174050000Y-104916560D01*
X174286571Y-104916560D01*
X174457584Y-104889474D01*
X174622257Y-104835968D01*
X174776524Y-104757364D01*
X174916602Y-104655592D01*
X175039032Y-104533162D01*
X175140804Y-104393084D01*
X175219408Y-104238815D01*
X175272914Y-104074144D01*
X175274115Y-104066560D01*
X174115686Y-104066560D01*
X174120080Y-104062166D01*
X174172741Y-103970954D01*
X174200000Y-103869221D01*
X174200000Y-103763899D01*
X174172741Y-103662166D01*
X174120080Y-103570954D01*
X174115686Y-103566560D01*
X175274115Y-103566560D01*
X175274115Y-103566559D01*
X175272914Y-103558975D01*
X175219408Y-103394304D01*
X175140804Y-103240035D01*
X175039032Y-103099957D01*
X174916602Y-102977527D01*
X174776524Y-102875755D01*
X174622257Y-102797151D01*
X174457584Y-102743645D01*
X174286571Y-102716560D01*
X174050000Y-102716560D01*
X174050000Y-103500874D01*
X174045606Y-103496480D01*
X173954394Y-103443819D01*
X173852661Y-103416560D01*
X173747339Y-103416560D01*
X173645606Y-103443819D01*
X173554394Y-103496480D01*
X173550000Y-103500874D01*
X173550000Y-102716560D01*
X173313429Y-102716560D01*
X173142415Y-102743645D01*
X172977742Y-102797151D01*
X172823475Y-102875755D01*
X172683397Y-102977527D01*
X172560967Y-103099957D01*
X172459195Y-103240035D01*
X172380591Y-103394304D01*
X172327085Y-103558975D01*
X172325884Y-103566559D01*
X125500500Y-103566559D01*
X125500500Y-101124000D01*
X125520185Y-101056961D01*
X125572989Y-101011206D01*
X125624500Y-101000000D01*
X129663850Y-101000000D01*
X129725848Y-101016612D01*
G37*
%TD.AperFunction*%
%TD*%
M02*
