M48
; DRILL file {KiCad 9.0.2} date 2025-05-19T20:07:15-0400
; FORMAT={-:-/ absolute / metric / decimal}
; #@! TF.CreationDate,2025-05-19T20:07:15-04:00
; #@! TF.GenerationSoftware,Kicad,Pcbnew,9.0.2
; #@! TF.FileFunction,Plated,1,2,PTH
FMAT,2
METRIC
; #@! TA.AperFunction,Plated,PTH,ComponentDrill
T1C0.500
; #@! TA.AperFunction,Plated,PTH,ComponentDrill
T2C0.700
; #@! TA.AperFunction,Plated,PTH,ComponentDrill
T3C0.800
; #@! TA.AperFunction,Plated,PTH,ComponentDrill
T4C1.000
; #@! TA.AperFunction,Plated,PTH,ComponentDrill
T5C1.300
%
G90
G05
T2
X140.42Y-111.5
X140.42Y-116.5
X145.5Y-111.5
X145.5Y-116.5
T3
X150.5Y-112.688
X150.5Y-115.188
X157.3Y-110.127
X157.3Y-117.747
X159.84Y-110.127
X159.84Y-117.747
X162.38Y-110.127
X162.38Y-117.747
X164.92Y-110.127
X164.92Y-117.747
X167.46Y-110.127
X167.46Y-117.747
X170.0Y-110.127
X170.0Y-117.747
X172.54Y-110.127
X172.54Y-117.747
X173.8Y-58.097
X173.8Y-60.637
X173.8Y-63.177
X173.8Y-65.717
X173.8Y-68.257
X173.8Y-70.797
X173.8Y-73.337
X173.8Y-75.877
X173.8Y-78.417
X173.8Y-80.957
X173.8Y-83.497
X173.8Y-86.037
X173.8Y-88.577
X173.8Y-91.117
X173.8Y-93.657
X173.8Y-96.197
X173.8Y-98.737
X173.8Y-101.277
X173.8Y-103.817
X199.196Y-101.274
X199.196Y-103.814
X199.2Y-58.097
X199.2Y-60.637
X199.2Y-63.177
X199.2Y-65.717
X199.2Y-68.257
X199.2Y-70.797
X199.2Y-73.337
X199.2Y-75.877
X199.2Y-78.417
X199.2Y-80.957
X199.2Y-83.497
X199.2Y-86.037
X199.2Y-88.577
X199.2Y-91.117
X199.2Y-93.657
X199.2Y-96.197
X199.2Y-98.737
T4
X143.5Y-59.127
X143.5Y-61.667
X143.5Y-64.207
X143.5Y-66.748
X144.0Y-77.57
X144.0Y-82.57
X144.0Y-94.57
X144.0Y-99.57
T5
X130.5Y-60.5
X130.5Y-65.5
X130.5Y-77.5
X130.5Y-82.5
X130.5Y-94.5
X130.5Y-99.5
X130.5Y-111.5
X130.5Y-116.5
T1
G00X154.6Y-80.587
M15
G01X154.6Y-79.287
M16
G05
G00X154.6Y-97.587
M15
G01X154.6Y-96.287
M16
G05
G00X158.4Y-80.587
M15
G01X158.4Y-79.287
M16
G05
G00X158.4Y-97.587
M15
G01X158.4Y-96.287
M16
G05
G00X162.7Y-80.587
M15
G01X162.7Y-79.287
M16
G05
G00X162.7Y-97.587
M15
G01X162.7Y-96.287
M16
G05
G00X166.5Y-80.587
M15
G01X166.5Y-79.287
M16
G05
G00X166.5Y-97.587
M15
G01X166.5Y-96.287
M16
G05
M30
