%TF.GenerationSoftware,KiCad,Pcbnew,9.0.2*%
%TF.CreationDate,2025-05-19T00:13:54-04:00*%
%TF.ProjectId,WLED-Salon,574c4544-2d53-4616-9c6f-6e2e6b696361,rev?*%
%TF.SameCoordinates,Original*%
%TF.FileFunction,Copper,L2,Bot*%
%TF.FilePolarity,Positive*%
%FSLAX46Y46*%
G04 Gerber Fmt 4.6, Leading zero omitted, Abs format (unit mm)*
G04 Created by KiCad (PCBNEW 9.0.2) date 2025-05-19 00:13:54*
%MOMM*%
%LPD*%
G01*
G04 APERTURE LIST*
G04 Aperture macros list*
%AMRoundRect*
0 Rectangle with rounded corners*
0 $1 Rounding radius*
0 $2 $3 $4 $5 $6 $7 $8 $9 X,Y pos of 4 corners*
0 Add a 4 corners polygon primitive as box body*
4,1,4,$2,$3,$4,$5,$6,$7,$8,$9,$2,$3,0*
0 Add four circle primitives for the rounded corners*
1,1,$1+$1,$2,$3*
1,1,$1+$1,$4,$5*
1,1,$1+$1,$6,$7*
1,1,$1+$1,$8,$9*
0 Add four rect primitives between the rounded corners*
20,1,$1+$1,$2,$3,$4,$5,0*
20,1,$1+$1,$4,$5,$6,$7,0*
20,1,$1+$1,$6,$7,$8,$9,0*
20,1,$1+$1,$8,$9,$2,$3,0*%
G04 Aperture macros list end*
%TA.AperFunction,ComponentPad*%
%ADD10O,1.500000X2.800000*%
%TD*%
%TA.AperFunction,ComponentPad*%
%ADD11R,3.000000X3.000000*%
%TD*%
%TA.AperFunction,ComponentPad*%
%ADD12C,3.000000*%
%TD*%
%TA.AperFunction,ComponentPad*%
%ADD13RoundRect,0.250000X-0.750000X0.750000X-0.750000X-0.750000X0.750000X-0.750000X0.750000X0.750000X0*%
%TD*%
%TA.AperFunction,ComponentPad*%
%ADD14C,2.000000*%
%TD*%
%TA.AperFunction,ComponentPad*%
%ADD15C,1.400000*%
%TD*%
%TA.AperFunction,ComponentPad*%
%ADD16R,1.700000X1.700000*%
%TD*%
%TA.AperFunction,ComponentPad*%
%ADD17C,1.700000*%
%TD*%
%TA.AperFunction,ComponentPad*%
%ADD18C,1.600000*%
%TD*%
%TA.AperFunction,ComponentPad*%
%ADD19R,2.000000X1.200000*%
%TD*%
%TA.AperFunction,ComponentPad*%
%ADD20O,2.000000X1.200000*%
%TD*%
%TA.AperFunction,ComponentPad*%
%ADD21RoundRect,0.250000X0.550000X-0.550000X0.550000X0.550000X-0.550000X0.550000X-0.550000X-0.550000X0*%
%TD*%
%TA.AperFunction,Conductor*%
%ADD22C,0.200000*%
%TD*%
%TA.AperFunction,Conductor*%
%ADD23C,1.524000*%
%TD*%
G04 APERTURE END LIST*
D10*
%TO.P,F1,1*%
%TO.N,+12V*%
X166500000Y-79937500D03*
X162700000Y-79937500D03*
%TO.P,F1,2*%
%TO.N,Net-(J3-Pin_1)*%
X158400000Y-79937500D03*
X154600000Y-79937500D03*
%TD*%
%TO.P,F2,1*%
%TO.N,+12V*%
X166500000Y-96937500D03*
X162700000Y-96937500D03*
%TO.P,F2,2*%
%TO.N,Net-(J4-Pin_1)*%
X158400000Y-96937500D03*
X154600000Y-96937500D03*
%TD*%
D11*
%TO.P,J3,1,Pin_1*%
%TO.N,Net-(J3-Pin_1)*%
X130500000Y-77500000D03*
D12*
%TO.P,J3,2,Pin_2*%
%TO.N,GND*%
X130500000Y-82500000D03*
%TD*%
D13*
%TO.P,C1,1*%
%TO.N,Net-(J3-Pin_1)*%
X144000000Y-77569823D03*
D14*
%TO.P,C1,2*%
%TO.N,GND*%
X144000000Y-82569823D03*
%TD*%
D13*
%TO.P,C2,1*%
%TO.N,Net-(J4-Pin_1)*%
X144000000Y-94569823D03*
D14*
%TO.P,C2,2*%
%TO.N,GND*%
X144000000Y-99569823D03*
%TD*%
D15*
%TO.P,R2,1*%
%TO.N,Net-(R2-Pad1)*%
X145500000Y-116500000D03*
%TO.P,R2,2*%
%TO.N,DATA2*%
X140420000Y-116500000D03*
%TD*%
%TO.P,R1,1*%
%TO.N,Net-(R1-Pad1)*%
X145500000Y-111500000D03*
%TO.P,R1,2*%
%TO.N,DATA1*%
X140420000Y-111500000D03*
%TD*%
D11*
%TO.P,J5,1,Pin_1*%
%TO.N,DATA1*%
X130500000Y-111500000D03*
D12*
%TO.P,J5,2,Pin_2*%
%TO.N,DATA2*%
X130500000Y-116500000D03*
%TD*%
D11*
%TO.P,J4,1,Pin_1*%
%TO.N,Net-(J4-Pin_1)*%
X130500000Y-94500000D03*
D12*
%TO.P,J4,2,Pin_2*%
%TO.N,GND*%
X130500000Y-99500000D03*
%TD*%
D16*
%TO.P,J2,1,Pin_1*%
%TO.N,+5V*%
X143500000Y-66747500D03*
D17*
%TO.P,J2,2,Pin_2*%
%TO.N,GND*%
X143500000Y-64207500D03*
%TO.P,J2,3,Pin_3*%
%TO.N,+12V*%
X143500000Y-61667500D03*
%TO.P,J2,4,Pin_4*%
%TO.N,unconnected-(J2-Pin_4-Pad4)*%
X143500000Y-59127500D03*
%TD*%
D11*
%TO.P,J1,1,Pin_1*%
%TO.N,+12V*%
X130500000Y-60500000D03*
D12*
%TO.P,J1,2,Pin_2*%
%TO.N,GND*%
X130500000Y-65500000D03*
%TD*%
D18*
%TO.P,C3,1*%
%TO.N,+5V*%
X150500000Y-112687500D03*
%TO.P,C3,2*%
%TO.N,GND*%
X150500000Y-115187500D03*
%TD*%
D19*
%TO.P,U1,1,3V3*%
%TO.N,unconnected-(U1-3V3-Pad1)*%
X173800000Y-58096560D03*
D20*
%TO.P,U1,2,CHIP_PU*%
%TO.N,unconnected-(U1-CHIP_PU-Pad2)*%
X173800000Y-60636560D03*
%TO.P,U1,3,SENSOR_VP/GPIO36/ADC1_CH0*%
%TO.N,unconnected-(U1-SENSOR_VP{slash}GPIO36{slash}ADC1_CH0-Pad3)*%
X173800000Y-63176560D03*
%TO.P,U1,4,SENSOR_VN/GPIO39/ADC1_CH3*%
%TO.N,unconnected-(U1-SENSOR_VN{slash}GPIO39{slash}ADC1_CH3-Pad4)*%
X173800000Y-65716560D03*
%TO.P,U1,5,VDET_1/GPIO34/ADC1_CH6*%
%TO.N,unconnected-(U1-VDET_1{slash}GPIO34{slash}ADC1_CH6-Pad5)*%
X173800000Y-68256560D03*
%TO.P,U1,6,VDET_2/GPIO35/ADC1_CH7*%
%TO.N,unconnected-(U1-VDET_2{slash}GPIO35{slash}ADC1_CH7-Pad6)*%
X173800000Y-70796560D03*
%TO.P,U1,7,32K_XP/GPIO32/ADC1_CH4*%
%TO.N,unconnected-(U1-32K_XP{slash}GPIO32{slash}ADC1_CH4-Pad7)*%
X173800000Y-73336560D03*
%TO.P,U1,8,32K_XN/GPIO33/ADC1_CH5*%
%TO.N,unconnected-(U1-32K_XN{slash}GPIO33{slash}ADC1_CH5-Pad8)*%
X173800000Y-75876560D03*
%TO.P,U1,9,DAC_1/ADC2_CH8/GPIO25*%
%TO.N,unconnected-(U1-DAC_1{slash}ADC2_CH8{slash}GPIO25-Pad9)*%
X173800000Y-78416560D03*
%TO.P,U1,10,DAC_2/ADC2_CH9/GPIO26*%
%TO.N,unconnected-(U1-DAC_2{slash}ADC2_CH9{slash}GPIO26-Pad10)*%
X173800000Y-80956560D03*
%TO.P,U1,11,ADC2_CH7/GPIO27*%
%TO.N,unconnected-(U1-ADC2_CH7{slash}GPIO27-Pad11)*%
X173800000Y-83496560D03*
%TO.P,U1,12,MTMS/GPIO14/ADC2_CH6*%
%TO.N,unconnected-(U1-MTMS{slash}GPIO14{slash}ADC2_CH6-Pad12)*%
X173800000Y-86036560D03*
%TO.P,U1,13,MTDI/GPIO12/ADC2_CH5*%
%TO.N,unconnected-(U1-MTDI{slash}GPIO12{slash}ADC2_CH5-Pad13)*%
X173800000Y-88576560D03*
%TO.P,U1,14,GND*%
%TO.N,GND*%
X173800000Y-91116560D03*
%TO.P,U1,15,MTCK/GPIO13/ADC2_CH4*%
%TO.N,unconnected-(U1-MTCK{slash}GPIO13{slash}ADC2_CH4-Pad15)*%
X173800000Y-93656560D03*
%TO.P,U1,16,SD_DATA2/GPIO9*%
%TO.N,unconnected-(U1-SD_DATA2{slash}GPIO9-Pad16)*%
X173800000Y-96196560D03*
%TO.P,U1,17,SD_DATA3/GPIO10*%
%TO.N,unconnected-(U1-SD_DATA3{slash}GPIO10-Pad17)*%
X173800000Y-98736560D03*
%TO.P,U1,18,CMD*%
%TO.N,unconnected-(U1-CMD-Pad18)*%
X173800000Y-101276560D03*
%TO.P,U1,19,5V*%
%TO.N,+5V*%
X173800000Y-103816560D03*
%TO.P,U1,20,SD_CLK/GPIO6*%
%TO.N,unconnected-(U1-SD_CLK{slash}GPIO6-Pad20)*%
X199196320Y-103813840D03*
%TO.P,U1,21,SD_DATA0/GPIO7*%
%TO.N,unconnected-(U1-SD_DATA0{slash}GPIO7-Pad21)*%
X199196320Y-101273840D03*
%TO.P,U1,22,SD_DATA1/GPIO8*%
%TO.N,unconnected-(U1-SD_DATA1{slash}GPIO8-Pad22)*%
X199200000Y-98736560D03*
%TO.P,U1,23,MTDO/GPIO15/ADC2_CH3*%
%TO.N,unconnected-(U1-MTDO{slash}GPIO15{slash}ADC2_CH3-Pad23)*%
X199200000Y-96196560D03*
%TO.P,U1,24,ADC2_CH2/GPIO2*%
%TO.N,unconnected-(U1-ADC2_CH2{slash}GPIO2-Pad24)*%
X199200000Y-93656560D03*
%TO.P,U1,25,GPIO0/BOOT/ADC2_CH1*%
%TO.N,unconnected-(U1-GPIO0{slash}BOOT{slash}ADC2_CH1-Pad25)*%
X199200000Y-91116560D03*
%TO.P,U1,26,ADC2_CH0/GPIO4*%
%TO.N,unconnected-(U1-ADC2_CH0{slash}GPIO4-Pad26)*%
X199200000Y-88576560D03*
%TO.P,U1,27,GPIO16*%
%TO.N,GPIO16*%
X199200000Y-86036560D03*
%TO.P,U1,28,GPIO17*%
%TO.N,GPIO17*%
X199200000Y-83496560D03*
%TO.P,U1,29,GPIO5*%
%TO.N,unconnected-(U1-GPIO5-Pad29)*%
X199200000Y-80956560D03*
%TO.P,U1,30,GPIO18*%
%TO.N,unconnected-(U1-GPIO18-Pad30)*%
X199200000Y-78416560D03*
%TO.P,U1,31,GPIO19*%
%TO.N,unconnected-(U1-GPIO19-Pad31)*%
X199200000Y-75876560D03*
%TO.P,U1,32,GND*%
%TO.N,GND*%
X199200000Y-73336560D03*
%TO.P,U1,33,GPIO21*%
%TO.N,unconnected-(U1-GPIO21-Pad33)*%
X199200000Y-70796560D03*
%TO.P,U1,34,U0RXD/GPIO3*%
%TO.N,unconnected-(U1-U0RXD{slash}GPIO3-Pad34)*%
X199200000Y-68256560D03*
%TO.P,U1,35,U0TXD/GPIO1*%
%TO.N,unconnected-(U1-U0TXD{slash}GPIO1-Pad35)*%
X199200000Y-65716560D03*
%TO.P,U1,36,GPIO22*%
%TO.N,unconnected-(U1-GPIO22-Pad36)*%
X199200000Y-63176560D03*
%TO.P,U1,37,GPIO23*%
%TO.N,unconnected-(U1-GPIO23-Pad37)*%
X199200000Y-60636560D03*
%TO.P,U1,38,GND*%
%TO.N,GND*%
X199200000Y-58096560D03*
%TD*%
D21*
%TO.P,U2,1*%
%TO.N,GND*%
X157300000Y-117747500D03*
D18*
%TO.P,U2,2*%
%TO.N,GPIO16*%
X159840000Y-117747500D03*
%TO.P,U2,3*%
%TO.N,Net-(R1-Pad1)*%
X162380000Y-117747500D03*
%TO.P,U2,4*%
%TO.N,GND*%
X164920000Y-117747500D03*
%TO.P,U2,5*%
%TO.N,GPIO17*%
X167460000Y-117747500D03*
%TO.P,U2,6*%
%TO.N,Net-(R2-Pad1)*%
X170000000Y-117747500D03*
%TO.P,U2,7,GND*%
%TO.N,GND*%
X172540000Y-117747500D03*
%TO.P,U2,8*%
%TO.N,unconnected-(U2-Pad8)*%
X172540000Y-110127500D03*
%TO.P,U2,9*%
%TO.N,GND*%
X170000000Y-110127500D03*
%TO.P,U2,10*%
%TO.N,+5V*%
X167460000Y-110127500D03*
%TO.P,U2,11*%
%TO.N,unconnected-(U2-Pad11)*%
X164920000Y-110127500D03*
%TO.P,U2,12*%
%TO.N,GND*%
X162380000Y-110127500D03*
%TO.P,U2,13*%
%TO.N,+5V*%
X159840000Y-110127500D03*
%TO.P,U2,14,VCC*%
X157300000Y-110127500D03*
%TD*%
D22*
%TO.N,Net-(R1-Pad1)*%
X162380000Y-117747500D02*
X156132500Y-111500000D01*
X156132500Y-111500000D02*
X145500000Y-111500000D01*
%TO.N,Net-(R2-Pad1)*%
X170000000Y-117747500D02*
X167747500Y-120000000D01*
X167747500Y-120000000D02*
X149000000Y-120000000D01*
X149000000Y-120000000D02*
X145500000Y-116500000D01*
D23*
%TO.N,+5V*%
X143500000Y-66747500D02*
X167584500Y-66747500D01*
X167584500Y-66747500D02*
X171837000Y-71000000D01*
X171837000Y-71000000D02*
X171837000Y-101923976D01*
X171837000Y-101923976D02*
X173729584Y-103816560D01*
X173729584Y-103816560D02*
X173800000Y-103816560D01*
%TD*%
%TA.AperFunction,Conductor*%
%TO.N,GND*%
G36*
X174943039Y-47520185D02*
G01*
X174988794Y-47572989D01*
X175000000Y-47624500D01*
X175000000Y-57000000D01*
X197000000Y-57000000D01*
X197000000Y-47624500D01*
X197019685Y-47557461D01*
X197072489Y-47511706D01*
X197124000Y-47500500D01*
X198934108Y-47500500D01*
X198996949Y-47500500D01*
X199003032Y-47500648D01*
X199336929Y-47517052D01*
X199349037Y-47518245D01*
X199362116Y-47520185D01*
X199676699Y-47566849D01*
X199688617Y-47569219D01*
X200009951Y-47649709D01*
X200021588Y-47653240D01*
X200092806Y-47678722D01*
X200333467Y-47764832D01*
X200344688Y-47769479D01*
X200644163Y-47911120D01*
X200654871Y-47916844D01*
X200938988Y-48087137D01*
X200949106Y-48093897D01*
X201215170Y-48291224D01*
X201224576Y-48298944D01*
X201470013Y-48521395D01*
X201478604Y-48529986D01*
X201665755Y-48736475D01*
X201701055Y-48775423D01*
X201708775Y-48784829D01*
X201906102Y-49050893D01*
X201912862Y-49061011D01*
X202041776Y-49276092D01*
X202083148Y-49345116D01*
X202088885Y-49355848D01*
X202230514Y-49655297D01*
X202235170Y-49666540D01*
X202346759Y-49978411D01*
X202350292Y-49990055D01*
X202430777Y-50311369D01*
X202433151Y-50323305D01*
X202481754Y-50650962D01*
X202482947Y-50663071D01*
X202499351Y-50996966D01*
X202499500Y-51003051D01*
X202499500Y-114876000D01*
X202479815Y-114943039D01*
X202427011Y-114988794D01*
X202375500Y-115000000D01*
X193500000Y-115000000D01*
X193500000Y-124375500D01*
X193480315Y-124442539D01*
X193427511Y-124488294D01*
X193376000Y-124499500D01*
X129003051Y-124499500D01*
X128996968Y-124499351D01*
X128976900Y-124498365D01*
X128663071Y-124482947D01*
X128650962Y-124481754D01*
X128323305Y-124433151D01*
X128311369Y-124430777D01*
X127990055Y-124350292D01*
X127978411Y-124346759D01*
X127666540Y-124235170D01*
X127655301Y-124230515D01*
X127355844Y-124088883D01*
X127345121Y-124083150D01*
X127061011Y-123912862D01*
X127050893Y-123906102D01*
X126784829Y-123708775D01*
X126775423Y-123701055D01*
X126736475Y-123665755D01*
X126529986Y-123478604D01*
X126521395Y-123470013D01*
X126298944Y-123224576D01*
X126291224Y-123215170D01*
X126191034Y-123080080D01*
X126093895Y-122949103D01*
X126087137Y-122938988D01*
X125916844Y-122654871D01*
X125911120Y-122644163D01*
X125769479Y-122344688D01*
X125764829Y-122333459D01*
X125653240Y-122021588D01*
X125649707Y-122009944D01*
X125640958Y-121975015D01*
X125569219Y-121688617D01*
X125566848Y-121676694D01*
X125518245Y-121349037D01*
X125517052Y-121336927D01*
X125500649Y-121003032D01*
X125500500Y-120996948D01*
X125500500Y-116388549D01*
X128799500Y-116388549D01*
X128799500Y-116611450D01*
X128799501Y-116611466D01*
X128828594Y-116832452D01*
X128828595Y-116832457D01*
X128828596Y-116832463D01*
X128879269Y-117021577D01*
X128886290Y-117047780D01*
X128886293Y-117047790D01*
X128969417Y-117248468D01*
X128971595Y-117253726D01*
X129083052Y-117446774D01*
X129083057Y-117446780D01*
X129083058Y-117446782D01*
X129218751Y-117623622D01*
X129218757Y-117623629D01*
X129376370Y-117781242D01*
X129376377Y-117781248D01*
X129476974Y-117858438D01*
X129553226Y-117916948D01*
X129746274Y-118028405D01*
X129952219Y-118113710D01*
X130167537Y-118171404D01*
X130388543Y-118200500D01*
X130388550Y-118200500D01*
X130611450Y-118200500D01*
X130611457Y-118200500D01*
X130832463Y-118171404D01*
X131047781Y-118113710D01*
X131253726Y-118028405D01*
X131446774Y-117916948D01*
X131623624Y-117781247D01*
X131781247Y-117623624D01*
X131916948Y-117446774D01*
X132028405Y-117253726D01*
X132113710Y-117047781D01*
X132171404Y-116832463D01*
X132200500Y-116611457D01*
X132200500Y-116411304D01*
X139519500Y-116411304D01*
X139519500Y-116588695D01*
X139554103Y-116762658D01*
X139554106Y-116762667D01*
X139621983Y-116926540D01*
X139621990Y-116926553D01*
X139720535Y-117074034D01*
X139720538Y-117074038D01*
X139845961Y-117199461D01*
X139845965Y-117199464D01*
X139993446Y-117298009D01*
X139993459Y-117298016D01*
X140089800Y-117337921D01*
X140157334Y-117365894D01*
X140157336Y-117365894D01*
X140157341Y-117365896D01*
X140331304Y-117400499D01*
X140331307Y-117400500D01*
X140331309Y-117400500D01*
X140508693Y-117400500D01*
X140508694Y-117400499D01*
X140566682Y-117388964D01*
X140682658Y-117365896D01*
X140682661Y-117365894D01*
X140682666Y-117365894D01*
X140846547Y-117298013D01*
X140994035Y-117199464D01*
X141119464Y-117074035D01*
X141218013Y-116926547D01*
X141285894Y-116762666D01*
X141289011Y-116747000D01*
X141315970Y-116611466D01*
X141320500Y-116588691D01*
X141320500Y-116411309D01*
X141320500Y-116411306D01*
X141320499Y-116411304D01*
X144599500Y-116411304D01*
X144599500Y-116588695D01*
X144634103Y-116762658D01*
X144634106Y-116762667D01*
X144701983Y-116926540D01*
X144701990Y-116926553D01*
X144800535Y-117074034D01*
X144800538Y-117074038D01*
X144925961Y-117199461D01*
X144925965Y-117199464D01*
X145073446Y-117298009D01*
X145073459Y-117298016D01*
X145169800Y-117337921D01*
X145237334Y-117365894D01*
X145237336Y-117365894D01*
X145237341Y-117365896D01*
X145411304Y-117400499D01*
X145411307Y-117400500D01*
X145411309Y-117400500D01*
X145588693Y-117400500D01*
X145588694Y-117400499D01*
X145762666Y-117365894D01*
X145812168Y-117345389D01*
X145881633Y-117337921D01*
X145944113Y-117369195D01*
X145947299Y-117372270D01*
X148759540Y-120184511D01*
X148815489Y-120240460D01*
X148815491Y-120240461D01*
X148815495Y-120240464D01*
X148884004Y-120280017D01*
X148884011Y-120280021D01*
X148960438Y-120300500D01*
X148960440Y-120300500D01*
X167787060Y-120300500D01*
X167787062Y-120300500D01*
X167863489Y-120280021D01*
X167932011Y-120240460D01*
X167987960Y-120184511D01*
X169476165Y-118696304D01*
X169537486Y-118662821D01*
X169607177Y-118667805D01*
X169611254Y-118669409D01*
X169708165Y-118709551D01*
X169708169Y-118709551D01*
X169708170Y-118709552D01*
X169901456Y-118748000D01*
X169901459Y-118748000D01*
X170098543Y-118748000D01*
X170228582Y-118722132D01*
X170291835Y-118709551D01*
X170333164Y-118692431D01*
X170399021Y-118665154D01*
X170473907Y-118634135D01*
X170473907Y-118634134D01*
X170473914Y-118634132D01*
X170637782Y-118524639D01*
X170777139Y-118385282D01*
X170886632Y-118221414D01*
X170962051Y-118039335D01*
X170998034Y-117858437D01*
X171030419Y-117796527D01*
X171091134Y-117761953D01*
X171160904Y-117765692D01*
X171217576Y-117806559D01*
X171242124Y-117863231D01*
X171272009Y-118051917D01*
X171335244Y-118246531D01*
X171428141Y-118428850D01*
X171428147Y-118428859D01*
X171460523Y-118473421D01*
X171460524Y-118473422D01*
X172140000Y-117793946D01*
X172140000Y-117800161D01*
X172167259Y-117901894D01*
X172219920Y-117993106D01*
X172294394Y-118067580D01*
X172385606Y-118120241D01*
X172487339Y-118147500D01*
X172493553Y-118147500D01*
X171814076Y-118826974D01*
X171858650Y-118859359D01*
X172040968Y-118952255D01*
X172235582Y-119015490D01*
X172437683Y-119047500D01*
X172642317Y-119047500D01*
X172844417Y-119015490D01*
X173039031Y-118952255D01*
X173221349Y-118859359D01*
X173265921Y-118826974D01*
X172586447Y-118147500D01*
X172592661Y-118147500D01*
X172694394Y-118120241D01*
X172785606Y-118067580D01*
X172860080Y-117993106D01*
X172912741Y-117901894D01*
X172940000Y-117800161D01*
X172940000Y-117793948D01*
X173619474Y-118473422D01*
X173619474Y-118473421D01*
X173651859Y-118428849D01*
X173744755Y-118246531D01*
X173807990Y-118051917D01*
X173840000Y-117849817D01*
X173840000Y-117645182D01*
X173807990Y-117443082D01*
X173744755Y-117248468D01*
X173651859Y-117066150D01*
X173619474Y-117021577D01*
X173619474Y-117021576D01*
X172940000Y-117701051D01*
X172940000Y-117694839D01*
X172912741Y-117593106D01*
X172860080Y-117501894D01*
X172785606Y-117427420D01*
X172694394Y-117374759D01*
X172592661Y-117347500D01*
X172586446Y-117347500D01*
X173265922Y-116668024D01*
X173265921Y-116668023D01*
X173221359Y-116635647D01*
X173221350Y-116635641D01*
X173039031Y-116542744D01*
X172844417Y-116479509D01*
X172642317Y-116447500D01*
X172437683Y-116447500D01*
X172235582Y-116479509D01*
X172040968Y-116542744D01*
X171858644Y-116635643D01*
X171814077Y-116668023D01*
X171814077Y-116668024D01*
X172493554Y-117347500D01*
X172487339Y-117347500D01*
X172385606Y-117374759D01*
X172294394Y-117427420D01*
X172219920Y-117501894D01*
X172167259Y-117593106D01*
X172140000Y-117694839D01*
X172140000Y-117701053D01*
X171460524Y-117021577D01*
X171460523Y-117021577D01*
X171428143Y-117066144D01*
X171335244Y-117248468D01*
X171272010Y-117443081D01*
X171242124Y-117631769D01*
X171212194Y-117694903D01*
X171152883Y-117731834D01*
X171083020Y-117730836D01*
X171024788Y-117692226D01*
X170998034Y-117636561D01*
X170988409Y-117588174D01*
X170962051Y-117455665D01*
X170939201Y-117400499D01*
X170886635Y-117273592D01*
X170886628Y-117273579D01*
X170777139Y-117109718D01*
X170777136Y-117109714D01*
X170637785Y-116970363D01*
X170637781Y-116970360D01*
X170473920Y-116860871D01*
X170473907Y-116860864D01*
X170399016Y-116829844D01*
X170291839Y-116785450D01*
X170291829Y-116785447D01*
X170098543Y-116747000D01*
X170098541Y-116747000D01*
X169901459Y-116747000D01*
X169901457Y-116747000D01*
X169708170Y-116785447D01*
X169708160Y-116785450D01*
X169526092Y-116860864D01*
X169526079Y-116860871D01*
X169362218Y-116970360D01*
X169362214Y-116970363D01*
X169222863Y-117109714D01*
X169222860Y-117109718D01*
X169113371Y-117273579D01*
X169113364Y-117273592D01*
X169037950Y-117455660D01*
X169037947Y-117455670D01*
X168999500Y-117648956D01*
X168999500Y-117648959D01*
X168999500Y-117846041D01*
X168999500Y-117846043D01*
X168999499Y-117846043D01*
X169037947Y-118039329D01*
X169037950Y-118039339D01*
X169078072Y-118136202D01*
X169085541Y-118205671D01*
X169054266Y-118268150D01*
X169051192Y-118271335D01*
X167659348Y-119663181D01*
X167598025Y-119696666D01*
X167571667Y-119699500D01*
X149175833Y-119699500D01*
X149108794Y-119679815D01*
X149088152Y-119663181D01*
X146572484Y-117147513D01*
X156000000Y-117147513D01*
X156000000Y-117497500D01*
X156984314Y-117497500D01*
X156979920Y-117501894D01*
X156927259Y-117593106D01*
X156900000Y-117694839D01*
X156900000Y-117800161D01*
X156927259Y-117901894D01*
X156979920Y-117993106D01*
X156984314Y-117997500D01*
X156000001Y-117997500D01*
X156000001Y-118347486D01*
X156010494Y-118450197D01*
X156065641Y-118616619D01*
X156065643Y-118616624D01*
X156157684Y-118765845D01*
X156281654Y-118889815D01*
X156430875Y-118981856D01*
X156430880Y-118981858D01*
X156597302Y-119037005D01*
X156597309Y-119037006D01*
X156700019Y-119047499D01*
X157049999Y-119047499D01*
X157050000Y-119047498D01*
X157050000Y-118063186D01*
X157054394Y-118067580D01*
X157145606Y-118120241D01*
X157247339Y-118147500D01*
X157352661Y-118147500D01*
X157454394Y-118120241D01*
X157545606Y-118067580D01*
X157550000Y-118063186D01*
X157550000Y-119047499D01*
X157899972Y-119047499D01*
X157899986Y-119047498D01*
X158002697Y-119037005D01*
X158169119Y-118981858D01*
X158169124Y-118981856D01*
X158318345Y-118889815D01*
X158442315Y-118765845D01*
X158534356Y-118616624D01*
X158534358Y-118616619D01*
X158589505Y-118450197D01*
X158589506Y-118450190D01*
X158599999Y-118347486D01*
X158599999Y-117900985D01*
X158619683Y-117833946D01*
X158672487Y-117788191D01*
X158741646Y-117778247D01*
X158805202Y-117807272D01*
X158842976Y-117866050D01*
X158845616Y-117876793D01*
X158877947Y-118039329D01*
X158877950Y-118039339D01*
X158953364Y-118221407D01*
X158953371Y-118221420D01*
X159062860Y-118385281D01*
X159062863Y-118385285D01*
X159202214Y-118524636D01*
X159202218Y-118524639D01*
X159366079Y-118634128D01*
X159366092Y-118634135D01*
X159516188Y-118696306D01*
X159548165Y-118709551D01*
X159548169Y-118709551D01*
X159548170Y-118709552D01*
X159741456Y-118748000D01*
X159741459Y-118748000D01*
X159938543Y-118748000D01*
X160068582Y-118722132D01*
X160131835Y-118709551D01*
X160313914Y-118634132D01*
X160477782Y-118524639D01*
X160617139Y-118385282D01*
X160726632Y-118221414D01*
X160802051Y-118039335D01*
X160838034Y-117858438D01*
X160840500Y-117846043D01*
X160840500Y-117648956D01*
X160802052Y-117455670D01*
X160802051Y-117455669D01*
X160802051Y-117455665D01*
X160779201Y-117400499D01*
X160726635Y-117273592D01*
X160726628Y-117273579D01*
X160617139Y-117109718D01*
X160617136Y-117109714D01*
X160477785Y-116970363D01*
X160477781Y-116970360D01*
X160313920Y-116860871D01*
X160313907Y-116860864D01*
X160131839Y-116785450D01*
X160131829Y-116785447D01*
X159938543Y-116747000D01*
X159938541Y-116747000D01*
X159741459Y-116747000D01*
X159741457Y-116747000D01*
X159548170Y-116785447D01*
X159548160Y-116785450D01*
X159366092Y-116860864D01*
X159366079Y-116860871D01*
X159202218Y-116970360D01*
X159202214Y-116970363D01*
X159062863Y-117109714D01*
X159062860Y-117109718D01*
X158953371Y-117273579D01*
X158953364Y-117273592D01*
X158877950Y-117455660D01*
X158877947Y-117455670D01*
X158845616Y-117618207D01*
X158813231Y-117680118D01*
X158752515Y-117714692D01*
X158682745Y-117710951D01*
X158626074Y-117670085D01*
X158600492Y-117605067D01*
X158599999Y-117594015D01*
X158599999Y-117147528D01*
X158599998Y-117147512D01*
X158589505Y-117044802D01*
X158534358Y-116878380D01*
X158534354Y-116878372D01*
X158442315Y-116729154D01*
X158318345Y-116605184D01*
X158169124Y-116513143D01*
X158169119Y-116513141D01*
X158002697Y-116457994D01*
X158002690Y-116457993D01*
X157899986Y-116447500D01*
X157550000Y-116447500D01*
X157550000Y-117431814D01*
X157545606Y-117427420D01*
X157454394Y-117374759D01*
X157352661Y-117347500D01*
X157247339Y-117347500D01*
X157145606Y-117374759D01*
X157054394Y-117427420D01*
X157050000Y-117431814D01*
X157050000Y-116447500D01*
X156700028Y-116447500D01*
X156700012Y-116447501D01*
X156597302Y-116457994D01*
X156430880Y-116513141D01*
X156430875Y-116513143D01*
X156281654Y-116605184D01*
X156157684Y-116729154D01*
X156065646Y-116878372D01*
X156065641Y-116878380D01*
X156010494Y-117044802D01*
X156010493Y-117044809D01*
X156000000Y-117147513D01*
X146572484Y-117147513D01*
X146372270Y-116947299D01*
X146338785Y-116885976D01*
X146343769Y-116816284D01*
X146345363Y-116812231D01*
X146365894Y-116762666D01*
X146400500Y-116588691D01*
X146400500Y-116411309D01*
X146400500Y-116411306D01*
X146400499Y-116411304D01*
X146367202Y-116243906D01*
X146365895Y-116237339D01*
X146365893Y-116237332D01*
X146298016Y-116073459D01*
X146298009Y-116073446D01*
X146199464Y-115925965D01*
X146199461Y-115925961D01*
X146074038Y-115800538D01*
X146074034Y-115800535D01*
X145926553Y-115701990D01*
X145926540Y-115701983D01*
X145762667Y-115634106D01*
X145762658Y-115634103D01*
X145588694Y-115599500D01*
X145588691Y-115599500D01*
X145411309Y-115599500D01*
X145411306Y-115599500D01*
X145237341Y-115634103D01*
X145237332Y-115634106D01*
X145073459Y-115701983D01*
X145073446Y-115701990D01*
X144925965Y-115800535D01*
X144925961Y-115800538D01*
X144800538Y-115925961D01*
X144800535Y-115925965D01*
X144701990Y-116073446D01*
X144701983Y-116073459D01*
X144634106Y-116237332D01*
X144634103Y-116237341D01*
X144599500Y-116411304D01*
X141320499Y-116411304D01*
X141285896Y-116237341D01*
X141285893Y-116237332D01*
X141218016Y-116073459D01*
X141218009Y-116073446D01*
X141119464Y-115925965D01*
X141119461Y-115925961D01*
X140994038Y-115800538D01*
X140994034Y-115800535D01*
X140846553Y-115701990D01*
X140846540Y-115701983D01*
X140682667Y-115634106D01*
X140682658Y-115634103D01*
X140508694Y-115599500D01*
X140508691Y-115599500D01*
X140331309Y-115599500D01*
X140331306Y-115599500D01*
X140157341Y-115634103D01*
X140157332Y-115634106D01*
X139993459Y-115701983D01*
X139993446Y-115701990D01*
X139845965Y-115800535D01*
X139845961Y-115800538D01*
X139720538Y-115925961D01*
X139720535Y-115925965D01*
X139621990Y-116073446D01*
X139621983Y-116073459D01*
X139554106Y-116237332D01*
X139554103Y-116237341D01*
X139519500Y-116411304D01*
X132200500Y-116411304D01*
X132200500Y-116388543D01*
X132171404Y-116167537D01*
X132113710Y-115952219D01*
X132028405Y-115746274D01*
X131916948Y-115553226D01*
X131781247Y-115376376D01*
X131781242Y-115376370D01*
X131623629Y-115218757D01*
X131623622Y-115218751D01*
X131571416Y-115178692D01*
X131446783Y-115083058D01*
X131446777Y-115083054D01*
X131446774Y-115083052D01*
X131253726Y-114971595D01*
X131253722Y-114971593D01*
X131047790Y-114886293D01*
X131047783Y-114886291D01*
X131047781Y-114886290D01*
X130832463Y-114828596D01*
X130832457Y-114828595D01*
X130832452Y-114828594D01*
X130611466Y-114799501D01*
X130611463Y-114799500D01*
X130611457Y-114799500D01*
X130388543Y-114799500D01*
X130388537Y-114799500D01*
X130388533Y-114799501D01*
X130167547Y-114828594D01*
X130167540Y-114828595D01*
X130167537Y-114828596D01*
X129952219Y-114886290D01*
X129952209Y-114886293D01*
X129746277Y-114971593D01*
X129746273Y-114971595D01*
X129553226Y-115083052D01*
X129553217Y-115083058D01*
X129376377Y-115218751D01*
X129376370Y-115218757D01*
X129218757Y-115376370D01*
X129218751Y-115376377D01*
X129083058Y-115553217D01*
X129083052Y-115553226D01*
X128971595Y-115746273D01*
X128971593Y-115746277D01*
X128886293Y-115952209D01*
X128886290Y-115952219D01*
X128853808Y-116073446D01*
X128828597Y-116167534D01*
X128828594Y-116167547D01*
X128799501Y-116388533D01*
X128799500Y-116388549D01*
X125500500Y-116388549D01*
X125500500Y-109980247D01*
X128799500Y-109980247D01*
X128799500Y-113019752D01*
X128811131Y-113078229D01*
X128811132Y-113078230D01*
X128855447Y-113144552D01*
X128921769Y-113188867D01*
X128921770Y-113188868D01*
X128980247Y-113200499D01*
X128980250Y-113200500D01*
X128980252Y-113200500D01*
X132019750Y-113200500D01*
X132019751Y-113200499D01*
X132034568Y-113197552D01*
X132078229Y-113188868D01*
X132078229Y-113188867D01*
X132078231Y-113188867D01*
X132144552Y-113144552D01*
X132188867Y-113078231D01*
X132188867Y-113078229D01*
X132188868Y-113078229D01*
X132200499Y-113019752D01*
X132200500Y-113019750D01*
X132200500Y-111411304D01*
X139519500Y-111411304D01*
X139519500Y-111588695D01*
X139554103Y-111762658D01*
X139554106Y-111762667D01*
X139621983Y-111926540D01*
X139621990Y-111926553D01*
X139720535Y-112074034D01*
X139720538Y-112074038D01*
X139845961Y-112199461D01*
X139845965Y-112199464D01*
X139993446Y-112298009D01*
X139993459Y-112298016D01*
X140116363Y-112348923D01*
X140157334Y-112365894D01*
X140157336Y-112365894D01*
X140157341Y-112365896D01*
X140331304Y-112400499D01*
X140331307Y-112400500D01*
X140331309Y-112400500D01*
X140508693Y-112400500D01*
X140508694Y-112400499D01*
X140566682Y-112388964D01*
X140682658Y-112365896D01*
X140682661Y-112365894D01*
X140682666Y-112365894D01*
X140846547Y-112298013D01*
X140994035Y-112199464D01*
X141119464Y-112074035D01*
X141218013Y-111926547D01*
X141285894Y-111762666D01*
X141320500Y-111588691D01*
X141320500Y-111411309D01*
X141320500Y-111411306D01*
X141320499Y-111411304D01*
X144599500Y-111411304D01*
X144599500Y-111588695D01*
X144634103Y-111762658D01*
X144634106Y-111762667D01*
X144701983Y-111926540D01*
X144701990Y-111926553D01*
X144800535Y-112074034D01*
X144800538Y-112074038D01*
X144925961Y-112199461D01*
X144925965Y-112199464D01*
X145073446Y-112298009D01*
X145073459Y-112298016D01*
X145196363Y-112348923D01*
X145237334Y-112365894D01*
X145237336Y-112365894D01*
X145237341Y-112365896D01*
X145411304Y-112400499D01*
X145411307Y-112400500D01*
X145411309Y-112400500D01*
X145588693Y-112400500D01*
X145588694Y-112400499D01*
X145646682Y-112388964D01*
X145762658Y-112365896D01*
X145762661Y-112365894D01*
X145762666Y-112365894D01*
X145926547Y-112298013D01*
X146074035Y-112199464D01*
X146199464Y-112074035D01*
X146298013Y-111926547D01*
X146318516Y-111877047D01*
X146362356Y-111822645D01*
X146428650Y-111800579D01*
X146433077Y-111800500D01*
X149672716Y-111800500D01*
X149739755Y-111820185D01*
X149785510Y-111872989D01*
X149795454Y-111942147D01*
X149766429Y-112005703D01*
X149760397Y-112012181D01*
X149722863Y-112049714D01*
X149722860Y-112049718D01*
X149613371Y-112213579D01*
X149613364Y-112213592D01*
X149537950Y-112395660D01*
X149537947Y-112395670D01*
X149499500Y-112588956D01*
X149499500Y-112588959D01*
X149499500Y-112786041D01*
X149499500Y-112786043D01*
X149499499Y-112786043D01*
X149537947Y-112979329D01*
X149537950Y-112979339D01*
X149613364Y-113161407D01*
X149613371Y-113161420D01*
X149722860Y-113325281D01*
X149722863Y-113325285D01*
X149862214Y-113464636D01*
X149862218Y-113464639D01*
X150026079Y-113574128D01*
X150026092Y-113574135D01*
X150208160Y-113649549D01*
X150208165Y-113649551D01*
X150208169Y-113649551D01*
X150208170Y-113649552D01*
X150277112Y-113663266D01*
X150339023Y-113695651D01*
X150373597Y-113756367D01*
X150369857Y-113826136D01*
X150328990Y-113882808D01*
X150272318Y-113907356D01*
X150195582Y-113919509D01*
X150000968Y-113982744D01*
X149818644Y-114075643D01*
X149774077Y-114108023D01*
X149774077Y-114108024D01*
X150453554Y-114787500D01*
X150447339Y-114787500D01*
X150345606Y-114814759D01*
X150254394Y-114867420D01*
X150179920Y-114941894D01*
X150127259Y-115033106D01*
X150100000Y-115134839D01*
X150100000Y-115141053D01*
X149420524Y-114461577D01*
X149420523Y-114461577D01*
X149388143Y-114506144D01*
X149295244Y-114688468D01*
X149232009Y-114883082D01*
X149200000Y-115085182D01*
X149200000Y-115289817D01*
X149232009Y-115491917D01*
X149295244Y-115686531D01*
X149388141Y-115868850D01*
X149388147Y-115868859D01*
X149420523Y-115913421D01*
X149420524Y-115913422D01*
X150100000Y-115233946D01*
X150100000Y-115240161D01*
X150127259Y-115341894D01*
X150179920Y-115433106D01*
X150254394Y-115507580D01*
X150345606Y-115560241D01*
X150447339Y-115587500D01*
X150453553Y-115587500D01*
X149774076Y-116266974D01*
X149818650Y-116299359D01*
X150000968Y-116392255D01*
X150195582Y-116455490D01*
X150397683Y-116487500D01*
X150602317Y-116487500D01*
X150804417Y-116455490D01*
X150999031Y-116392255D01*
X151181349Y-116299359D01*
X151225921Y-116266974D01*
X150546447Y-115587500D01*
X150552661Y-115587500D01*
X150654394Y-115560241D01*
X150745606Y-115507580D01*
X150820080Y-115433106D01*
X150872741Y-115341894D01*
X150900000Y-115240161D01*
X150900000Y-115233947D01*
X151579474Y-115913421D01*
X151611859Y-115868849D01*
X151704755Y-115686531D01*
X151767990Y-115491917D01*
X151800000Y-115289817D01*
X151800000Y-115085182D01*
X151767990Y-114883082D01*
X151704755Y-114688468D01*
X151611859Y-114506150D01*
X151579474Y-114461577D01*
X151579474Y-114461576D01*
X150900000Y-115141051D01*
X150900000Y-115134839D01*
X150872741Y-115033106D01*
X150820080Y-114941894D01*
X150745606Y-114867420D01*
X150654394Y-114814759D01*
X150552661Y-114787500D01*
X150546446Y-114787500D01*
X151225922Y-114108024D01*
X151225921Y-114108023D01*
X151181359Y-114075647D01*
X151181350Y-114075641D01*
X150999031Y-113982744D01*
X150804417Y-113919509D01*
X150727681Y-113907356D01*
X150664546Y-113877427D01*
X150627615Y-113818115D01*
X150628613Y-113748253D01*
X150667223Y-113690020D01*
X150722888Y-113663266D01*
X150752092Y-113657456D01*
X150791835Y-113649551D01*
X150973914Y-113574132D01*
X151137782Y-113464639D01*
X151277139Y-113325282D01*
X151386632Y-113161414D01*
X151462051Y-112979335D01*
X151500500Y-112786041D01*
X151500500Y-112588959D01*
X151500500Y-112588956D01*
X151462052Y-112395670D01*
X151462051Y-112395669D01*
X151462051Y-112395665D01*
X151462049Y-112395660D01*
X151386635Y-112213592D01*
X151386628Y-112213579D01*
X151277139Y-112049718D01*
X151277136Y-112049714D01*
X151239603Y-112012181D01*
X151206118Y-111950858D01*
X151211102Y-111881166D01*
X151252974Y-111825233D01*
X151318438Y-111800816D01*
X151327284Y-111800500D01*
X155956667Y-111800500D01*
X156023706Y-111820185D01*
X156044348Y-111836819D01*
X161431192Y-117223663D01*
X161464677Y-117284986D01*
X161459693Y-117354678D01*
X161458073Y-117358795D01*
X161440799Y-117400499D01*
X161421629Y-117446782D01*
X161417948Y-117455668D01*
X161417947Y-117455671D01*
X161379500Y-117648956D01*
X161379500Y-117648959D01*
X161379500Y-117846041D01*
X161379500Y-117846043D01*
X161379499Y-117846043D01*
X161417947Y-118039329D01*
X161417950Y-118039339D01*
X161493364Y-118221407D01*
X161493371Y-118221420D01*
X161602860Y-118385281D01*
X161602863Y-118385285D01*
X161742214Y-118524636D01*
X161742218Y-118524639D01*
X161906079Y-118634128D01*
X161906092Y-118634135D01*
X162056188Y-118696306D01*
X162088165Y-118709551D01*
X162088169Y-118709551D01*
X162088170Y-118709552D01*
X162281456Y-118748000D01*
X162281459Y-118748000D01*
X162478543Y-118748000D01*
X162608582Y-118722132D01*
X162671835Y-118709551D01*
X162713164Y-118692431D01*
X162779021Y-118665154D01*
X162853907Y-118634135D01*
X162853907Y-118634134D01*
X162853914Y-118634132D01*
X163017782Y-118524639D01*
X163157139Y-118385282D01*
X163266632Y-118221414D01*
X163342051Y-118039335D01*
X163378034Y-117858437D01*
X163410419Y-117796527D01*
X163471134Y-117761953D01*
X163540904Y-117765692D01*
X163597576Y-117806559D01*
X163622124Y-117863231D01*
X163652009Y-118051917D01*
X163715244Y-118246531D01*
X163808141Y-118428850D01*
X163808147Y-118428859D01*
X163840523Y-118473421D01*
X163840524Y-118473422D01*
X164520000Y-117793946D01*
X164520000Y-117800161D01*
X164547259Y-117901894D01*
X164599920Y-117993106D01*
X164674394Y-118067580D01*
X164765606Y-118120241D01*
X164867339Y-118147500D01*
X164873553Y-118147500D01*
X164194076Y-118826974D01*
X164238650Y-118859359D01*
X164420968Y-118952255D01*
X164615582Y-119015490D01*
X164817683Y-119047500D01*
X165022317Y-119047500D01*
X165224417Y-119015490D01*
X165419031Y-118952255D01*
X165601349Y-118859359D01*
X165645921Y-118826974D01*
X164966447Y-118147500D01*
X164972661Y-118147500D01*
X165074394Y-118120241D01*
X165165606Y-118067580D01*
X165240080Y-117993106D01*
X165292741Y-117901894D01*
X165320000Y-117800161D01*
X165320000Y-117793948D01*
X165999474Y-118473422D01*
X165999474Y-118473421D01*
X166031859Y-118428849D01*
X166124755Y-118246531D01*
X166187990Y-118051917D01*
X166217875Y-117863231D01*
X166247804Y-117800096D01*
X166307116Y-117763165D01*
X166376978Y-117764163D01*
X166435211Y-117802773D01*
X166461965Y-117858437D01*
X166497947Y-118039329D01*
X166497950Y-118039339D01*
X166573364Y-118221407D01*
X166573371Y-118221420D01*
X166682860Y-118385281D01*
X166682863Y-118385285D01*
X166822214Y-118524636D01*
X166822218Y-118524639D01*
X166986079Y-118634128D01*
X166986092Y-118634135D01*
X167136188Y-118696306D01*
X167168165Y-118709551D01*
X167168169Y-118709551D01*
X167168170Y-118709552D01*
X167361456Y-118748000D01*
X167361459Y-118748000D01*
X167558543Y-118748000D01*
X167688582Y-118722132D01*
X167751835Y-118709551D01*
X167933914Y-118634132D01*
X168097782Y-118524639D01*
X168237139Y-118385282D01*
X168346632Y-118221414D01*
X168422051Y-118039335D01*
X168458034Y-117858438D01*
X168460500Y-117846043D01*
X168460500Y-117648956D01*
X168422052Y-117455670D01*
X168422051Y-117455669D01*
X168422051Y-117455665D01*
X168399201Y-117400499D01*
X168346635Y-117273592D01*
X168346628Y-117273579D01*
X168237139Y-117109718D01*
X168237136Y-117109714D01*
X168097785Y-116970363D01*
X168097781Y-116970360D01*
X167933920Y-116860871D01*
X167933907Y-116860864D01*
X167751839Y-116785450D01*
X167751829Y-116785447D01*
X167558543Y-116747000D01*
X167558541Y-116747000D01*
X167361459Y-116747000D01*
X167361457Y-116747000D01*
X167168170Y-116785447D01*
X167168160Y-116785450D01*
X166986092Y-116860864D01*
X166986079Y-116860871D01*
X166822218Y-116970360D01*
X166822214Y-116970363D01*
X166682863Y-117109714D01*
X166682860Y-117109718D01*
X166573371Y-117273579D01*
X166573364Y-117273592D01*
X166497950Y-117455660D01*
X166497947Y-117455670D01*
X166461965Y-117636562D01*
X166429580Y-117698473D01*
X166368864Y-117733047D01*
X166299094Y-117729306D01*
X166242423Y-117688440D01*
X166217875Y-117631768D01*
X166187990Y-117443082D01*
X166124755Y-117248468D01*
X166031859Y-117066150D01*
X165999474Y-117021577D01*
X165999474Y-117021576D01*
X165320000Y-117701051D01*
X165320000Y-117694839D01*
X165292741Y-117593106D01*
X165240080Y-117501894D01*
X165165606Y-117427420D01*
X165074394Y-117374759D01*
X164972661Y-117347500D01*
X164966446Y-117347500D01*
X165645922Y-116668024D01*
X165645921Y-116668023D01*
X165601359Y-116635647D01*
X165601350Y-116635641D01*
X165419031Y-116542744D01*
X165224417Y-116479509D01*
X165022317Y-116447500D01*
X164817683Y-116447500D01*
X164615582Y-116479509D01*
X164420968Y-116542744D01*
X164238644Y-116635643D01*
X164194077Y-116668023D01*
X164194077Y-116668024D01*
X164873554Y-117347500D01*
X164867339Y-117347500D01*
X164765606Y-117374759D01*
X164674394Y-117427420D01*
X164599920Y-117501894D01*
X164547259Y-117593106D01*
X164520000Y-117694839D01*
X164520000Y-117701053D01*
X163840524Y-117021577D01*
X163840523Y-117021577D01*
X163808143Y-117066144D01*
X163715244Y-117248468D01*
X163652010Y-117443081D01*
X163622124Y-117631769D01*
X163592194Y-117694903D01*
X163532883Y-117731834D01*
X163463020Y-117730836D01*
X163404788Y-117692226D01*
X163378034Y-117636561D01*
X163368409Y-117588174D01*
X163342051Y-117455665D01*
X163319201Y-117400499D01*
X163266635Y-117273592D01*
X163266628Y-117273579D01*
X163157139Y-117109718D01*
X163157136Y-117109714D01*
X163017785Y-116970363D01*
X163017781Y-116970360D01*
X162853920Y-116860871D01*
X162853907Y-116860864D01*
X162779016Y-116829844D01*
X162671839Y-116785450D01*
X162671829Y-116785447D01*
X162478543Y-116747000D01*
X162478541Y-116747000D01*
X162281459Y-116747000D01*
X162281457Y-116747000D01*
X162088171Y-116785447D01*
X162088168Y-116785448D01*
X162088166Y-116785448D01*
X162088165Y-116785449D01*
X162088163Y-116785450D01*
X161991295Y-116825573D01*
X161921826Y-116833040D01*
X161859347Y-116801765D01*
X161856163Y-116798692D01*
X156317012Y-111259541D01*
X156317004Y-111259535D01*
X156248495Y-111219982D01*
X156248490Y-111219979D01*
X156223013Y-111213152D01*
X156172062Y-111199500D01*
X156172060Y-111199500D01*
X146433077Y-111199500D01*
X146366038Y-111179815D01*
X146320283Y-111127011D01*
X146318527Y-111122978D01*
X146298013Y-111073453D01*
X146298009Y-111073446D01*
X146199464Y-110925965D01*
X146199461Y-110925961D01*
X146074038Y-110800538D01*
X146074034Y-110800535D01*
X145926553Y-110701990D01*
X145926540Y-110701983D01*
X145762667Y-110634106D01*
X145762658Y-110634103D01*
X145588694Y-110599500D01*
X145588691Y-110599500D01*
X145411309Y-110599500D01*
X145411306Y-110599500D01*
X145237341Y-110634103D01*
X145237332Y-110634106D01*
X145073459Y-110701983D01*
X145073446Y-110701990D01*
X144925965Y-110800535D01*
X144925961Y-110800538D01*
X144800538Y-110925961D01*
X144800535Y-110925965D01*
X144701990Y-111073446D01*
X144701983Y-111073459D01*
X144634106Y-111237332D01*
X144634103Y-111237341D01*
X144599500Y-111411304D01*
X141320499Y-111411304D01*
X141285896Y-111237341D01*
X141285893Y-111237332D01*
X141218016Y-111073459D01*
X141218009Y-111073446D01*
X141119464Y-110925965D01*
X141119461Y-110925961D01*
X140994038Y-110800538D01*
X140994034Y-110800535D01*
X140846553Y-110701990D01*
X140846540Y-110701983D01*
X140682667Y-110634106D01*
X140682658Y-110634103D01*
X140508694Y-110599500D01*
X140508691Y-110599500D01*
X140331309Y-110599500D01*
X140331306Y-110599500D01*
X140157341Y-110634103D01*
X140157332Y-110634106D01*
X139993459Y-110701983D01*
X139993446Y-110701990D01*
X139845965Y-110800535D01*
X139845961Y-110800538D01*
X139720538Y-110925961D01*
X139720535Y-110925965D01*
X139621990Y-111073446D01*
X139621983Y-111073459D01*
X139554106Y-111237332D01*
X139554103Y-111237341D01*
X139519500Y-111411304D01*
X132200500Y-111411304D01*
X132200500Y-110226043D01*
X156299499Y-110226043D01*
X156337947Y-110419329D01*
X156337950Y-110419339D01*
X156413364Y-110601407D01*
X156413371Y-110601420D01*
X156522860Y-110765281D01*
X156522863Y-110765285D01*
X156662214Y-110904636D01*
X156662218Y-110904639D01*
X156826079Y-111014128D01*
X156826092Y-111014135D01*
X156969315Y-111073459D01*
X157008165Y-111089551D01*
X157008169Y-111089551D01*
X157008170Y-111089552D01*
X157201456Y-111128000D01*
X157201459Y-111128000D01*
X157398543Y-111128000D01*
X157528582Y-111102132D01*
X157591835Y-111089551D01*
X157773914Y-111014132D01*
X157937782Y-110904639D01*
X158077139Y-110765282D01*
X158186632Y-110601414D01*
X158262051Y-110419335D01*
X158298034Y-110238438D01*
X158300500Y-110226043D01*
X158839499Y-110226043D01*
X158877947Y-110419329D01*
X158877950Y-110419339D01*
X158953364Y-110601407D01*
X158953371Y-110601420D01*
X159062860Y-110765281D01*
X159062863Y-110765285D01*
X159202214Y-110904636D01*
X159202218Y-110904639D01*
X159366079Y-111014128D01*
X159366092Y-111014135D01*
X159509315Y-111073459D01*
X159548165Y-111089551D01*
X159548169Y-111089551D01*
X159548170Y-111089552D01*
X159741456Y-111128000D01*
X159741459Y-111128000D01*
X159938543Y-111128000D01*
X160068582Y-111102132D01*
X160131835Y-111089551D01*
X160173164Y-111072431D01*
X160239021Y-111045154D01*
X160313907Y-111014135D01*
X160313907Y-111014134D01*
X160313914Y-111014132D01*
X160477782Y-110904639D01*
X160617139Y-110765282D01*
X160726632Y-110601414D01*
X160802051Y-110419335D01*
X160838034Y-110238437D01*
X160870419Y-110176527D01*
X160931134Y-110141953D01*
X161000904Y-110145692D01*
X161057576Y-110186559D01*
X161082124Y-110243231D01*
X161112009Y-110431917D01*
X161175244Y-110626531D01*
X161268141Y-110808850D01*
X161268147Y-110808859D01*
X161300523Y-110853421D01*
X161300524Y-110853422D01*
X161980000Y-110173946D01*
X161980000Y-110180161D01*
X162007259Y-110281894D01*
X162059920Y-110373106D01*
X162134394Y-110447580D01*
X162225606Y-110500241D01*
X162327339Y-110527500D01*
X162333553Y-110527500D01*
X161654076Y-111206974D01*
X161698650Y-111239359D01*
X161880968Y-111332255D01*
X162075582Y-111395490D01*
X162277683Y-111427500D01*
X162482317Y-111427500D01*
X162684417Y-111395490D01*
X162879031Y-111332255D01*
X163061349Y-111239359D01*
X163105921Y-111206974D01*
X162426447Y-110527500D01*
X162432661Y-110527500D01*
X162534394Y-110500241D01*
X162625606Y-110447580D01*
X162700080Y-110373106D01*
X162752741Y-110281894D01*
X162780000Y-110180161D01*
X162780000Y-110173947D01*
X163459474Y-110853421D01*
X163491859Y-110808849D01*
X163584755Y-110626531D01*
X163647990Y-110431917D01*
X163677875Y-110243231D01*
X163707804Y-110180096D01*
X163767116Y-110143165D01*
X163836978Y-110144163D01*
X163895211Y-110182773D01*
X163921965Y-110238437D01*
X163957947Y-110419329D01*
X163957950Y-110419339D01*
X164033364Y-110601407D01*
X164033371Y-110601420D01*
X164142860Y-110765281D01*
X164142863Y-110765285D01*
X164282214Y-110904636D01*
X164282218Y-110904639D01*
X164446079Y-111014128D01*
X164446092Y-111014135D01*
X164589315Y-111073459D01*
X164628165Y-111089551D01*
X164628169Y-111089551D01*
X164628170Y-111089552D01*
X164821456Y-111128000D01*
X164821459Y-111128000D01*
X165018543Y-111128000D01*
X165148582Y-111102132D01*
X165211835Y-111089551D01*
X165393914Y-111014132D01*
X165557782Y-110904639D01*
X165697139Y-110765282D01*
X165806632Y-110601414D01*
X165882051Y-110419335D01*
X165918034Y-110238438D01*
X165920500Y-110226043D01*
X166459499Y-110226043D01*
X166497947Y-110419329D01*
X166497950Y-110419339D01*
X166573364Y-110601407D01*
X166573371Y-110601420D01*
X166682860Y-110765281D01*
X166682863Y-110765285D01*
X166822214Y-110904636D01*
X166822218Y-110904639D01*
X166986079Y-111014128D01*
X166986092Y-111014135D01*
X167129315Y-111073459D01*
X167168165Y-111089551D01*
X167168169Y-111089551D01*
X167168170Y-111089552D01*
X167361456Y-111128000D01*
X167361459Y-111128000D01*
X167558543Y-111128000D01*
X167688582Y-111102132D01*
X167751835Y-111089551D01*
X167793164Y-111072431D01*
X167859021Y-111045154D01*
X167933907Y-111014135D01*
X167933907Y-111014134D01*
X167933914Y-111014132D01*
X168097782Y-110904639D01*
X168237139Y-110765282D01*
X168346632Y-110601414D01*
X168422051Y-110419335D01*
X168458034Y-110238437D01*
X168490419Y-110176527D01*
X168551134Y-110141953D01*
X168620904Y-110145692D01*
X168677576Y-110186559D01*
X168702124Y-110243231D01*
X168732009Y-110431917D01*
X168795244Y-110626531D01*
X168888141Y-110808850D01*
X168888147Y-110808859D01*
X168920523Y-110853421D01*
X168920524Y-110853422D01*
X169600000Y-110173946D01*
X169600000Y-110180161D01*
X169627259Y-110281894D01*
X169679920Y-110373106D01*
X169754394Y-110447580D01*
X169845606Y-110500241D01*
X169947339Y-110527500D01*
X169953553Y-110527500D01*
X169274076Y-111206974D01*
X169318650Y-111239359D01*
X169500968Y-111332255D01*
X169695582Y-111395490D01*
X169897683Y-111427500D01*
X170102317Y-111427500D01*
X170304417Y-111395490D01*
X170499031Y-111332255D01*
X170681349Y-111239359D01*
X170725921Y-111206974D01*
X170046447Y-110527500D01*
X170052661Y-110527500D01*
X170154394Y-110500241D01*
X170245606Y-110447580D01*
X170320080Y-110373106D01*
X170372741Y-110281894D01*
X170400000Y-110180161D01*
X170400000Y-110173948D01*
X171079474Y-110853422D01*
X171079474Y-110853421D01*
X171111859Y-110808849D01*
X171204755Y-110626531D01*
X171267990Y-110431917D01*
X171297875Y-110243231D01*
X171327804Y-110180096D01*
X171387116Y-110143165D01*
X171456978Y-110144163D01*
X171515211Y-110182773D01*
X171541965Y-110238437D01*
X171577947Y-110419329D01*
X171577950Y-110419339D01*
X171653364Y-110601407D01*
X171653371Y-110601420D01*
X171762860Y-110765281D01*
X171762863Y-110765285D01*
X171902214Y-110904636D01*
X171902218Y-110904639D01*
X172066079Y-111014128D01*
X172066092Y-111014135D01*
X172209315Y-111073459D01*
X172248165Y-111089551D01*
X172248169Y-111089551D01*
X172248170Y-111089552D01*
X172441456Y-111128000D01*
X172441459Y-111128000D01*
X172638543Y-111128000D01*
X172768582Y-111102132D01*
X172831835Y-111089551D01*
X173013914Y-111014132D01*
X173177782Y-110904639D01*
X173317139Y-110765282D01*
X173426632Y-110601414D01*
X173502051Y-110419335D01*
X173538034Y-110238438D01*
X173540500Y-110226043D01*
X173540500Y-110028956D01*
X173502052Y-109835670D01*
X173502051Y-109835669D01*
X173502051Y-109835665D01*
X173487071Y-109799500D01*
X173426635Y-109653592D01*
X173426628Y-109653579D01*
X173317139Y-109489718D01*
X173317136Y-109489714D01*
X173177785Y-109350363D01*
X173177781Y-109350360D01*
X173013920Y-109240871D01*
X173013907Y-109240864D01*
X172831839Y-109165450D01*
X172831829Y-109165447D01*
X172638543Y-109127000D01*
X172638541Y-109127000D01*
X172441459Y-109127000D01*
X172441457Y-109127000D01*
X172248170Y-109165447D01*
X172248160Y-109165450D01*
X172066092Y-109240864D01*
X172066079Y-109240871D01*
X171902218Y-109350360D01*
X171902214Y-109350363D01*
X171762863Y-109489714D01*
X171762860Y-109489718D01*
X171653371Y-109653579D01*
X171653364Y-109653592D01*
X171577950Y-109835660D01*
X171577947Y-109835670D01*
X171541965Y-110016562D01*
X171509580Y-110078473D01*
X171448864Y-110113047D01*
X171379094Y-110109306D01*
X171322423Y-110068440D01*
X171297875Y-110011768D01*
X171267990Y-109823082D01*
X171204755Y-109628468D01*
X171111859Y-109446150D01*
X171079474Y-109401577D01*
X171079474Y-109401576D01*
X170400000Y-110081051D01*
X170400000Y-110074839D01*
X170372741Y-109973106D01*
X170320080Y-109881894D01*
X170245606Y-109807420D01*
X170154394Y-109754759D01*
X170052661Y-109727500D01*
X170046446Y-109727500D01*
X170725922Y-109048024D01*
X170725921Y-109048023D01*
X170681359Y-109015647D01*
X170681350Y-109015641D01*
X170499031Y-108922744D01*
X170304417Y-108859509D01*
X170102317Y-108827500D01*
X169897683Y-108827500D01*
X169695582Y-108859509D01*
X169500968Y-108922744D01*
X169318644Y-109015643D01*
X169274077Y-109048023D01*
X169274077Y-109048024D01*
X169953554Y-109727500D01*
X169947339Y-109727500D01*
X169845606Y-109754759D01*
X169754394Y-109807420D01*
X169679920Y-109881894D01*
X169627259Y-109973106D01*
X169600000Y-110074839D01*
X169600000Y-110081053D01*
X168920524Y-109401577D01*
X168920523Y-109401577D01*
X168888143Y-109446144D01*
X168795244Y-109628468D01*
X168732010Y-109823081D01*
X168702124Y-110011769D01*
X168672194Y-110074903D01*
X168612883Y-110111834D01*
X168543020Y-110110836D01*
X168484788Y-110072226D01*
X168458034Y-110016561D01*
X168448409Y-109968174D01*
X168422051Y-109835665D01*
X168407071Y-109799500D01*
X168346635Y-109653592D01*
X168346628Y-109653579D01*
X168237139Y-109489718D01*
X168237136Y-109489714D01*
X168097785Y-109350363D01*
X168097781Y-109350360D01*
X167933920Y-109240871D01*
X167933907Y-109240864D01*
X167859016Y-109209844D01*
X167751839Y-109165450D01*
X167751829Y-109165447D01*
X167558543Y-109127000D01*
X167558541Y-109127000D01*
X167361459Y-109127000D01*
X167361457Y-109127000D01*
X167168170Y-109165447D01*
X167168160Y-109165450D01*
X166986092Y-109240864D01*
X166986079Y-109240871D01*
X166822218Y-109350360D01*
X166822214Y-109350363D01*
X166682863Y-109489714D01*
X166682860Y-109489718D01*
X166573371Y-109653579D01*
X166573364Y-109653592D01*
X166497950Y-109835660D01*
X166497947Y-109835670D01*
X166459500Y-110028956D01*
X166459500Y-110028959D01*
X166459500Y-110226041D01*
X166459500Y-110226043D01*
X166459499Y-110226043D01*
X165920500Y-110226043D01*
X165920500Y-110028956D01*
X165882052Y-109835670D01*
X165882051Y-109835669D01*
X165882051Y-109835665D01*
X165867071Y-109799500D01*
X165806635Y-109653592D01*
X165806628Y-109653579D01*
X165697139Y-109489718D01*
X165697136Y-109489714D01*
X165557785Y-109350363D01*
X165557781Y-109350360D01*
X165393920Y-109240871D01*
X165393907Y-109240864D01*
X165211839Y-109165450D01*
X165211829Y-109165447D01*
X165018543Y-109127000D01*
X165018541Y-109127000D01*
X164821459Y-109127000D01*
X164821457Y-109127000D01*
X164628170Y-109165447D01*
X164628160Y-109165450D01*
X164446092Y-109240864D01*
X164446079Y-109240871D01*
X164282218Y-109350360D01*
X164282214Y-109350363D01*
X164142863Y-109489714D01*
X164142860Y-109489718D01*
X164033371Y-109653579D01*
X164033364Y-109653592D01*
X163957950Y-109835660D01*
X163957947Y-109835670D01*
X163921965Y-110016562D01*
X163889580Y-110078473D01*
X163828864Y-110113047D01*
X163759094Y-110109306D01*
X163702423Y-110068440D01*
X163677875Y-110011768D01*
X163647990Y-109823082D01*
X163584755Y-109628468D01*
X163491859Y-109446150D01*
X163459474Y-109401577D01*
X163459474Y-109401576D01*
X162780000Y-110081051D01*
X162780000Y-110074839D01*
X162752741Y-109973106D01*
X162700080Y-109881894D01*
X162625606Y-109807420D01*
X162534394Y-109754759D01*
X162432661Y-109727500D01*
X162426446Y-109727500D01*
X163105922Y-109048024D01*
X163105921Y-109048023D01*
X163061359Y-109015647D01*
X163061350Y-109015641D01*
X162879031Y-108922744D01*
X162684417Y-108859509D01*
X162482317Y-108827500D01*
X162277683Y-108827500D01*
X162075582Y-108859509D01*
X161880968Y-108922744D01*
X161698644Y-109015643D01*
X161654077Y-109048023D01*
X161654077Y-109048024D01*
X162333554Y-109727500D01*
X162327339Y-109727500D01*
X162225606Y-109754759D01*
X162134394Y-109807420D01*
X162059920Y-109881894D01*
X162007259Y-109973106D01*
X161980000Y-110074839D01*
X161980000Y-110081053D01*
X161300524Y-109401577D01*
X161300523Y-109401577D01*
X161268143Y-109446144D01*
X161175244Y-109628468D01*
X161112010Y-109823081D01*
X161082124Y-110011769D01*
X161052194Y-110074903D01*
X160992883Y-110111834D01*
X160923020Y-110110836D01*
X160864788Y-110072226D01*
X160838034Y-110016561D01*
X160828409Y-109968174D01*
X160802051Y-109835665D01*
X160787071Y-109799500D01*
X160726635Y-109653592D01*
X160726628Y-109653579D01*
X160617139Y-109489718D01*
X160617136Y-109489714D01*
X160477785Y-109350363D01*
X160477781Y-109350360D01*
X160313920Y-109240871D01*
X160313907Y-109240864D01*
X160239016Y-109209844D01*
X160131839Y-109165450D01*
X160131829Y-109165447D01*
X159938543Y-109127000D01*
X159938541Y-109127000D01*
X159741459Y-109127000D01*
X159741457Y-109127000D01*
X159548170Y-109165447D01*
X159548160Y-109165450D01*
X159366092Y-109240864D01*
X159366079Y-109240871D01*
X159202218Y-109350360D01*
X159202214Y-109350363D01*
X159062863Y-109489714D01*
X159062860Y-109489718D01*
X158953371Y-109653579D01*
X158953364Y-109653592D01*
X158877950Y-109835660D01*
X158877947Y-109835670D01*
X158839500Y-110028956D01*
X158839500Y-110028959D01*
X158839500Y-110226041D01*
X158839500Y-110226043D01*
X158839499Y-110226043D01*
X158300500Y-110226043D01*
X158300500Y-110028956D01*
X158262052Y-109835670D01*
X158262051Y-109835669D01*
X158262051Y-109835665D01*
X158247071Y-109799500D01*
X158186635Y-109653592D01*
X158186628Y-109653579D01*
X158077139Y-109489718D01*
X158077136Y-109489714D01*
X157937785Y-109350363D01*
X157937781Y-109350360D01*
X157773920Y-109240871D01*
X157773907Y-109240864D01*
X157591839Y-109165450D01*
X157591829Y-109165447D01*
X157398543Y-109127000D01*
X157398541Y-109127000D01*
X157201459Y-109127000D01*
X157201457Y-109127000D01*
X157008170Y-109165447D01*
X157008160Y-109165450D01*
X156826092Y-109240864D01*
X156826079Y-109240871D01*
X156662218Y-109350360D01*
X156662214Y-109350363D01*
X156522863Y-109489714D01*
X156522860Y-109489718D01*
X156413371Y-109653579D01*
X156413364Y-109653592D01*
X156337950Y-109835660D01*
X156337947Y-109835670D01*
X156299500Y-110028956D01*
X156299500Y-110028959D01*
X156299500Y-110226041D01*
X156299500Y-110226043D01*
X156299499Y-110226043D01*
X132200500Y-110226043D01*
X132200500Y-109980249D01*
X132200499Y-109980247D01*
X132188868Y-109921770D01*
X132188867Y-109921769D01*
X132144552Y-109855447D01*
X132078230Y-109811132D01*
X132078229Y-109811131D01*
X132019752Y-109799500D01*
X132019748Y-109799500D01*
X128980252Y-109799500D01*
X128980247Y-109799500D01*
X128921770Y-109811131D01*
X128921769Y-109811132D01*
X128855447Y-109855447D01*
X128811132Y-109921769D01*
X128811131Y-109921770D01*
X128799500Y-109980247D01*
X125500500Y-109980247D01*
X125500500Y-99368905D01*
X128500000Y-99368905D01*
X128500000Y-99631094D01*
X128534220Y-99891009D01*
X128534222Y-99891020D01*
X128602075Y-100144255D01*
X128702404Y-100386471D01*
X128702409Y-100386482D01*
X128833488Y-100613516D01*
X128833494Y-100613524D01*
X128920080Y-100726365D01*
X129898958Y-99747487D01*
X129923978Y-99807890D01*
X129995112Y-99914351D01*
X130085649Y-100004888D01*
X130192110Y-100076022D01*
X130252511Y-100101041D01*
X129273633Y-101079917D01*
X129273633Y-101079918D01*
X129386475Y-101166505D01*
X129386483Y-101166511D01*
X129613517Y-101297590D01*
X129613528Y-101297595D01*
X129855744Y-101397924D01*
X130108979Y-101465777D01*
X130108990Y-101465779D01*
X130368905Y-101499999D01*
X130368920Y-101500000D01*
X130631080Y-101500000D01*
X130631094Y-101499999D01*
X130891009Y-101465779D01*
X130891020Y-101465777D01*
X131144255Y-101397924D01*
X131386471Y-101297595D01*
X131386482Y-101297590D01*
X131613516Y-101166511D01*
X131613534Y-101166499D01*
X131726365Y-101079919D01*
X131726365Y-101079917D01*
X130747488Y-100101041D01*
X130807890Y-100076022D01*
X130914351Y-100004888D01*
X131004888Y-99914351D01*
X131076022Y-99807890D01*
X131101041Y-99747489D01*
X132079917Y-100726365D01*
X132079920Y-100726365D01*
X132123372Y-100669737D01*
X132123374Y-100669735D01*
X132166505Y-100613524D01*
X132166511Y-100613516D01*
X132297590Y-100386482D01*
X132297595Y-100386471D01*
X132397924Y-100144255D01*
X132465777Y-99891020D01*
X132465779Y-99891009D01*
X132499999Y-99631094D01*
X132500000Y-99631080D01*
X132500000Y-99451770D01*
X142500000Y-99451770D01*
X142500000Y-99687875D01*
X142536934Y-99921070D01*
X142609897Y-100145625D01*
X142717087Y-100355997D01*
X142777338Y-100438927D01*
X142777340Y-100438928D01*
X143517037Y-99699231D01*
X143534075Y-99762816D01*
X143599901Y-99876830D01*
X143692993Y-99969922D01*
X143807007Y-100035748D01*
X143870590Y-100052785D01*
X143130893Y-100792481D01*
X143213828Y-100852737D01*
X143424197Y-100959925D01*
X143648752Y-101032888D01*
X143648751Y-101032888D01*
X143881948Y-101069823D01*
X144118052Y-101069823D01*
X144351247Y-101032888D01*
X144575802Y-100959925D01*
X144786163Y-100852741D01*
X144786169Y-100852737D01*
X144869104Y-100792481D01*
X144869105Y-100792481D01*
X144129408Y-100052785D01*
X144192993Y-100035748D01*
X144307007Y-99969922D01*
X144400099Y-99876830D01*
X144465925Y-99762816D01*
X144482962Y-99699232D01*
X145222658Y-100438928D01*
X145222658Y-100438927D01*
X145282914Y-100355992D01*
X145282918Y-100355986D01*
X145390102Y-100145625D01*
X145463065Y-99921070D01*
X145500000Y-99687875D01*
X145500000Y-99451770D01*
X145463065Y-99218575D01*
X145390102Y-98994020D01*
X145282914Y-98783651D01*
X145222658Y-98700717D01*
X145222658Y-98700716D01*
X144482962Y-99440413D01*
X144465925Y-99376830D01*
X144400099Y-99262816D01*
X144307007Y-99169724D01*
X144192993Y-99103898D01*
X144129409Y-99086860D01*
X144869105Y-98347163D01*
X144869104Y-98347161D01*
X144786174Y-98286910D01*
X144575802Y-98179720D01*
X144351247Y-98106757D01*
X144351248Y-98106757D01*
X144118052Y-98069823D01*
X143881948Y-98069823D01*
X143648752Y-98106757D01*
X143424197Y-98179720D01*
X143213830Y-98286907D01*
X143130894Y-98347163D01*
X143870591Y-99086860D01*
X143807007Y-99103898D01*
X143692993Y-99169724D01*
X143599901Y-99262816D01*
X143534075Y-99376830D01*
X143517037Y-99440414D01*
X142777340Y-98700717D01*
X142717084Y-98783653D01*
X142609897Y-98994020D01*
X142536934Y-99218575D01*
X142500000Y-99451770D01*
X132500000Y-99451770D01*
X132500000Y-99368919D01*
X132499999Y-99368905D01*
X132465779Y-99108990D01*
X132465777Y-99108979D01*
X132397924Y-98855744D01*
X132297595Y-98613528D01*
X132297590Y-98613517D01*
X132206892Y-98456424D01*
X132206891Y-98456423D01*
X132166506Y-98386476D01*
X132166505Y-98386475D01*
X132079918Y-98273633D01*
X132079917Y-98273633D01*
X131101040Y-99252509D01*
X131076022Y-99192110D01*
X131004888Y-99085649D01*
X130914351Y-98995112D01*
X130807890Y-98923978D01*
X130747487Y-98898957D01*
X131726365Y-97920080D01*
X131613524Y-97833494D01*
X131613516Y-97833488D01*
X131386482Y-97702409D01*
X131386471Y-97702404D01*
X131144255Y-97602075D01*
X130891020Y-97534222D01*
X130891009Y-97534220D01*
X130631094Y-97500000D01*
X130368905Y-97500000D01*
X130108990Y-97534220D01*
X130108979Y-97534222D01*
X129855744Y-97602075D01*
X129613528Y-97702404D01*
X129613517Y-97702409D01*
X129386471Y-97833496D01*
X129273633Y-97920079D01*
X129273633Y-97920080D01*
X130252511Y-98898958D01*
X130192110Y-98923978D01*
X130085649Y-98995112D01*
X129995112Y-99085649D01*
X129923978Y-99192110D01*
X129898958Y-99252511D01*
X128920080Y-98273633D01*
X128920079Y-98273633D01*
X128833496Y-98386471D01*
X128702409Y-98613517D01*
X128702404Y-98613528D01*
X128602075Y-98855744D01*
X128534222Y-99108979D01*
X128534220Y-99108990D01*
X128500000Y-99368905D01*
X125500500Y-99368905D01*
X125500500Y-92980247D01*
X128799500Y-92980247D01*
X128799500Y-96019752D01*
X128811131Y-96078229D01*
X128811132Y-96078230D01*
X128855447Y-96144552D01*
X128921769Y-96188867D01*
X128921770Y-96188868D01*
X128980247Y-96200499D01*
X128980250Y-96200500D01*
X128980252Y-96200500D01*
X132019750Y-96200500D01*
X132019751Y-96200499D01*
X132034568Y-96197552D01*
X132053035Y-96193879D01*
X153649500Y-96193879D01*
X153649500Y-97681120D01*
X153686025Y-97864743D01*
X153686027Y-97864751D01*
X153757676Y-98037728D01*
X153757681Y-98037737D01*
X153861697Y-98193407D01*
X153861700Y-98193411D01*
X153994088Y-98325799D01*
X153994092Y-98325802D01*
X154149762Y-98429818D01*
X154149768Y-98429821D01*
X154149769Y-98429822D01*
X154322749Y-98501473D01*
X154506379Y-98537999D01*
X154506383Y-98538000D01*
X154506384Y-98538000D01*
X154693617Y-98538000D01*
X154693618Y-98537999D01*
X154877251Y-98501473D01*
X155050231Y-98429822D01*
X155205908Y-98325802D01*
X155338302Y-98193408D01*
X155442322Y-98037731D01*
X155513973Y-97864751D01*
X155550500Y-97681116D01*
X155550500Y-96193884D01*
X155550499Y-96193879D01*
X157449500Y-96193879D01*
X157449500Y-97681120D01*
X157486025Y-97864743D01*
X157486027Y-97864751D01*
X157557676Y-98037728D01*
X157557681Y-98037737D01*
X157661697Y-98193407D01*
X157661700Y-98193411D01*
X157794088Y-98325799D01*
X157794092Y-98325802D01*
X157949762Y-98429818D01*
X157949768Y-98429821D01*
X157949769Y-98429822D01*
X158122749Y-98501473D01*
X158306379Y-98537999D01*
X158306383Y-98538000D01*
X158306384Y-98538000D01*
X158493617Y-98538000D01*
X158493618Y-98537999D01*
X158677251Y-98501473D01*
X158850231Y-98429822D01*
X159005908Y-98325802D01*
X159138302Y-98193408D01*
X159242322Y-98037731D01*
X159313973Y-97864751D01*
X159350500Y-97681116D01*
X159350500Y-96193884D01*
X159350499Y-96193879D01*
X161749500Y-96193879D01*
X161749500Y-97681120D01*
X161786025Y-97864743D01*
X161786027Y-97864751D01*
X161857676Y-98037728D01*
X161857681Y-98037737D01*
X161961697Y-98193407D01*
X161961700Y-98193411D01*
X162094088Y-98325799D01*
X162094092Y-98325802D01*
X162249762Y-98429818D01*
X162249768Y-98429821D01*
X162249769Y-98429822D01*
X162422749Y-98501473D01*
X162606379Y-98537999D01*
X162606383Y-98538000D01*
X162606384Y-98538000D01*
X162793617Y-98538000D01*
X162793618Y-98537999D01*
X162977251Y-98501473D01*
X163150231Y-98429822D01*
X163305908Y-98325802D01*
X163438302Y-98193408D01*
X163542322Y-98037731D01*
X163613973Y-97864751D01*
X163650500Y-97681116D01*
X163650500Y-96193884D01*
X163650499Y-96193879D01*
X165549500Y-96193879D01*
X165549500Y-97681120D01*
X165586025Y-97864743D01*
X165586027Y-97864751D01*
X165657676Y-98037728D01*
X165657681Y-98037737D01*
X165761697Y-98193407D01*
X165761700Y-98193411D01*
X165894088Y-98325799D01*
X165894092Y-98325802D01*
X166049762Y-98429818D01*
X166049768Y-98429821D01*
X166049769Y-98429822D01*
X166222749Y-98501473D01*
X166406379Y-98537999D01*
X166406383Y-98538000D01*
X166406384Y-98538000D01*
X166593617Y-98538000D01*
X166593618Y-98537999D01*
X166777251Y-98501473D01*
X166950231Y-98429822D01*
X167105908Y-98325802D01*
X167238302Y-98193408D01*
X167342322Y-98037731D01*
X167413973Y-97864751D01*
X167450500Y-97681116D01*
X167450500Y-96193884D01*
X167413973Y-96010249D01*
X167342322Y-95837269D01*
X167342321Y-95837268D01*
X167342318Y-95837262D01*
X167238302Y-95681592D01*
X167238299Y-95681588D01*
X167105911Y-95549200D01*
X167105907Y-95549197D01*
X166950237Y-95445181D01*
X166950228Y-95445176D01*
X166777251Y-95373527D01*
X166777243Y-95373525D01*
X166593620Y-95337000D01*
X166593616Y-95337000D01*
X166406384Y-95337000D01*
X166406379Y-95337000D01*
X166222756Y-95373525D01*
X166222748Y-95373527D01*
X166049771Y-95445176D01*
X166049762Y-95445181D01*
X165894092Y-95549197D01*
X165894088Y-95549200D01*
X165761700Y-95681588D01*
X165761697Y-95681592D01*
X165657681Y-95837262D01*
X165657676Y-95837271D01*
X165586027Y-96010248D01*
X165586025Y-96010256D01*
X165549500Y-96193879D01*
X163650499Y-96193879D01*
X163613973Y-96010249D01*
X163542322Y-95837269D01*
X163542321Y-95837268D01*
X163542318Y-95837262D01*
X163438302Y-95681592D01*
X163438299Y-95681588D01*
X163305911Y-95549200D01*
X163305907Y-95549197D01*
X163150237Y-95445181D01*
X163150228Y-95445176D01*
X162977251Y-95373527D01*
X162977243Y-95373525D01*
X162793620Y-95337000D01*
X162793616Y-95337000D01*
X162606384Y-95337000D01*
X162606379Y-95337000D01*
X162422756Y-95373525D01*
X162422748Y-95373527D01*
X162249771Y-95445176D01*
X162249762Y-95445181D01*
X162094092Y-95549197D01*
X162094088Y-95549200D01*
X161961700Y-95681588D01*
X161961697Y-95681592D01*
X161857681Y-95837262D01*
X161857676Y-95837271D01*
X161786027Y-96010248D01*
X161786025Y-96010256D01*
X161749500Y-96193879D01*
X159350499Y-96193879D01*
X159313973Y-96010249D01*
X159242322Y-95837269D01*
X159242321Y-95837268D01*
X159242318Y-95837262D01*
X159138302Y-95681592D01*
X159138299Y-95681588D01*
X159005911Y-95549200D01*
X159005907Y-95549197D01*
X158850237Y-95445181D01*
X158850228Y-95445176D01*
X158677251Y-95373527D01*
X158677243Y-95373525D01*
X158493620Y-95337000D01*
X158493616Y-95337000D01*
X158306384Y-95337000D01*
X158306379Y-95337000D01*
X158122756Y-95373525D01*
X158122748Y-95373527D01*
X157949771Y-95445176D01*
X157949762Y-95445181D01*
X157794092Y-95549197D01*
X157794088Y-95549200D01*
X157661700Y-95681588D01*
X157661697Y-95681592D01*
X157557681Y-95837262D01*
X157557676Y-95837271D01*
X157486027Y-96010248D01*
X157486025Y-96010256D01*
X157449500Y-96193879D01*
X155550499Y-96193879D01*
X155513973Y-96010249D01*
X155442322Y-95837269D01*
X155442321Y-95837268D01*
X155442318Y-95837262D01*
X155338302Y-95681592D01*
X155338299Y-95681588D01*
X155205911Y-95549200D01*
X155205907Y-95549197D01*
X155050237Y-95445181D01*
X155050228Y-95445176D01*
X154877251Y-95373527D01*
X154877243Y-95373525D01*
X154693620Y-95337000D01*
X154693616Y-95337000D01*
X154506384Y-95337000D01*
X154506379Y-95337000D01*
X154322756Y-95373525D01*
X154322748Y-95373527D01*
X154149771Y-95445176D01*
X154149762Y-95445181D01*
X153994092Y-95549197D01*
X153994088Y-95549200D01*
X153861700Y-95681588D01*
X153861697Y-95681592D01*
X153757681Y-95837262D01*
X153757676Y-95837271D01*
X153686027Y-96010248D01*
X153686025Y-96010256D01*
X153649500Y-96193879D01*
X132053035Y-96193879D01*
X132078229Y-96188868D01*
X132078229Y-96188867D01*
X132078231Y-96188867D01*
X132144552Y-96144552D01*
X132188867Y-96078231D01*
X132188867Y-96078229D01*
X132188868Y-96078229D01*
X132200499Y-96019752D01*
X132200500Y-96019750D01*
X132200500Y-93765553D01*
X142799500Y-93765553D01*
X142799500Y-95374092D01*
X142802353Y-95404522D01*
X142802353Y-95404524D01*
X142837919Y-95506162D01*
X142847207Y-95532705D01*
X142927850Y-95641973D01*
X143037118Y-95722616D01*
X143079845Y-95737567D01*
X143165299Y-95767469D01*
X143195730Y-95770323D01*
X143195734Y-95770323D01*
X144804270Y-95770323D01*
X144834699Y-95767469D01*
X144834701Y-95767469D01*
X144898790Y-95745042D01*
X144962882Y-95722616D01*
X145072150Y-95641973D01*
X145152793Y-95532705D01*
X145183421Y-95445176D01*
X145197646Y-95404524D01*
X145197646Y-95404522D01*
X145200500Y-95374092D01*
X145200500Y-93765553D01*
X145197646Y-93735123D01*
X145197646Y-93735121D01*
X145152793Y-93606942D01*
X145152792Y-93606940D01*
X145072150Y-93497673D01*
X144962882Y-93417030D01*
X144962880Y-93417029D01*
X144834700Y-93372176D01*
X144804270Y-93369323D01*
X144804266Y-93369323D01*
X143195734Y-93369323D01*
X143195730Y-93369323D01*
X143165300Y-93372176D01*
X143165298Y-93372176D01*
X143037119Y-93417029D01*
X143037117Y-93417030D01*
X142927850Y-93497673D01*
X142847207Y-93606940D01*
X142847206Y-93606942D01*
X142802353Y-93735121D01*
X142802353Y-93735123D01*
X142799500Y-93765553D01*
X132200500Y-93765553D01*
X132200500Y-92980249D01*
X132200499Y-92980247D01*
X132188868Y-92921770D01*
X132188867Y-92921769D01*
X132144552Y-92855447D01*
X132078230Y-92811132D01*
X132078229Y-92811131D01*
X132019752Y-92799500D01*
X132019748Y-92799500D01*
X128980252Y-92799500D01*
X128980247Y-92799500D01*
X128921770Y-92811131D01*
X128921769Y-92811132D01*
X128855447Y-92855447D01*
X128811132Y-92921769D01*
X128811131Y-92921770D01*
X128799500Y-92980247D01*
X125500500Y-92980247D01*
X125500500Y-82368905D01*
X128500000Y-82368905D01*
X128500000Y-82631094D01*
X128534220Y-82891009D01*
X128534222Y-82891020D01*
X128602075Y-83144255D01*
X128702404Y-83386471D01*
X128702409Y-83386482D01*
X128833488Y-83613516D01*
X128833494Y-83613524D01*
X128920080Y-83726365D01*
X129898958Y-82747487D01*
X129923978Y-82807890D01*
X129995112Y-82914351D01*
X130085649Y-83004888D01*
X130192110Y-83076022D01*
X130252511Y-83101041D01*
X129273633Y-84079917D01*
X129273633Y-84079918D01*
X129386475Y-84166505D01*
X129386483Y-84166511D01*
X129613517Y-84297590D01*
X129613528Y-84297595D01*
X129855744Y-84397924D01*
X130108979Y-84465777D01*
X130108990Y-84465779D01*
X130368905Y-84499999D01*
X130368920Y-84500000D01*
X130631080Y-84500000D01*
X130631094Y-84499999D01*
X130891009Y-84465779D01*
X130891020Y-84465777D01*
X131144255Y-84397924D01*
X131386471Y-84297595D01*
X131386482Y-84297590D01*
X131613516Y-84166511D01*
X131613534Y-84166499D01*
X131726365Y-84079919D01*
X131726365Y-84079917D01*
X130747488Y-83101041D01*
X130807890Y-83076022D01*
X130914351Y-83004888D01*
X131004888Y-82914351D01*
X131076022Y-82807890D01*
X131101041Y-82747489D01*
X132079917Y-83726365D01*
X132079920Y-83726365D01*
X132123372Y-83669737D01*
X132123374Y-83669735D01*
X132166505Y-83613524D01*
X132166511Y-83613516D01*
X132297590Y-83386482D01*
X132297595Y-83386471D01*
X132397924Y-83144255D01*
X132465777Y-82891020D01*
X132465779Y-82891009D01*
X132499999Y-82631094D01*
X132500000Y-82631080D01*
X132500000Y-82451770D01*
X142500000Y-82451770D01*
X142500000Y-82687875D01*
X142536934Y-82921070D01*
X142609897Y-83145625D01*
X142717087Y-83355997D01*
X142777338Y-83438927D01*
X142777340Y-83438928D01*
X143517037Y-82699231D01*
X143534075Y-82762816D01*
X143599901Y-82876830D01*
X143692993Y-82969922D01*
X143807007Y-83035748D01*
X143870590Y-83052785D01*
X143130893Y-83792481D01*
X143213828Y-83852737D01*
X143424197Y-83959925D01*
X143648752Y-84032888D01*
X143648751Y-84032888D01*
X143881948Y-84069823D01*
X144118052Y-84069823D01*
X144351247Y-84032888D01*
X144575802Y-83959925D01*
X144786163Y-83852741D01*
X144786169Y-83852737D01*
X144869104Y-83792481D01*
X144869105Y-83792481D01*
X144129408Y-83052785D01*
X144192993Y-83035748D01*
X144307007Y-82969922D01*
X144400099Y-82876830D01*
X144465925Y-82762816D01*
X144482962Y-82699232D01*
X145222658Y-83438928D01*
X145222658Y-83438927D01*
X145282914Y-83355992D01*
X145282918Y-83355986D01*
X145390102Y-83145625D01*
X145463065Y-82921070D01*
X145500000Y-82687875D01*
X145500000Y-82451770D01*
X145463065Y-82218575D01*
X145390102Y-81994020D01*
X145282914Y-81783651D01*
X145222658Y-81700717D01*
X145222658Y-81700716D01*
X144482962Y-82440413D01*
X144465925Y-82376830D01*
X144400099Y-82262816D01*
X144307007Y-82169724D01*
X144192993Y-82103898D01*
X144129409Y-82086860D01*
X144869105Y-81347163D01*
X144869104Y-81347161D01*
X144786174Y-81286910D01*
X144575802Y-81179720D01*
X144351247Y-81106757D01*
X144351248Y-81106757D01*
X144118052Y-81069823D01*
X143881948Y-81069823D01*
X143648752Y-81106757D01*
X143424197Y-81179720D01*
X143213830Y-81286907D01*
X143130894Y-81347163D01*
X143870591Y-82086860D01*
X143807007Y-82103898D01*
X143692993Y-82169724D01*
X143599901Y-82262816D01*
X143534075Y-82376830D01*
X143517037Y-82440414D01*
X142777340Y-81700717D01*
X142717084Y-81783653D01*
X142609897Y-81994020D01*
X142536934Y-82218575D01*
X142500000Y-82451770D01*
X132500000Y-82451770D01*
X132500000Y-82368919D01*
X132499999Y-82368905D01*
X132465779Y-82108990D01*
X132465777Y-82108979D01*
X132397924Y-81855744D01*
X132297595Y-81613528D01*
X132297590Y-81613517D01*
X132206892Y-81456424D01*
X132206891Y-81456423D01*
X132166506Y-81386476D01*
X132166505Y-81386475D01*
X132079918Y-81273633D01*
X132079917Y-81273633D01*
X131101040Y-82252509D01*
X131076022Y-82192110D01*
X131004888Y-82085649D01*
X130914351Y-81995112D01*
X130807890Y-81923978D01*
X130747487Y-81898957D01*
X131726365Y-80920080D01*
X131613524Y-80833494D01*
X131613516Y-80833488D01*
X131386482Y-80702409D01*
X131386471Y-80702404D01*
X131144255Y-80602075D01*
X130891020Y-80534222D01*
X130891009Y-80534220D01*
X130631094Y-80500000D01*
X130368905Y-80500000D01*
X130108990Y-80534220D01*
X130108979Y-80534222D01*
X129855744Y-80602075D01*
X129613528Y-80702404D01*
X129613517Y-80702409D01*
X129386471Y-80833496D01*
X129273633Y-80920079D01*
X129273633Y-80920080D01*
X130252511Y-81898958D01*
X130192110Y-81923978D01*
X130085649Y-81995112D01*
X129995112Y-82085649D01*
X129923978Y-82192110D01*
X129898958Y-82252511D01*
X128920080Y-81273633D01*
X128920079Y-81273633D01*
X128833496Y-81386471D01*
X128702409Y-81613517D01*
X128702404Y-81613528D01*
X128602075Y-81855744D01*
X128534222Y-82108979D01*
X128534220Y-82108990D01*
X128500000Y-82368905D01*
X125500500Y-82368905D01*
X125500500Y-75980247D01*
X128799500Y-75980247D01*
X128799500Y-79019752D01*
X128811131Y-79078229D01*
X128811132Y-79078230D01*
X128855447Y-79144552D01*
X128921769Y-79188867D01*
X128921770Y-79188868D01*
X128980247Y-79200499D01*
X128980250Y-79200500D01*
X128980252Y-79200500D01*
X132019750Y-79200500D01*
X132019751Y-79200499D01*
X132034568Y-79197552D01*
X132053035Y-79193879D01*
X153649500Y-79193879D01*
X153649500Y-80681120D01*
X153686025Y-80864743D01*
X153686027Y-80864751D01*
X153757676Y-81037728D01*
X153757681Y-81037737D01*
X153861697Y-81193407D01*
X153861700Y-81193411D01*
X153994088Y-81325799D01*
X153994092Y-81325802D01*
X154149762Y-81429818D01*
X154149768Y-81429821D01*
X154149769Y-81429822D01*
X154322749Y-81501473D01*
X154506379Y-81537999D01*
X154506383Y-81538000D01*
X154506384Y-81538000D01*
X154693617Y-81538000D01*
X154693618Y-81537999D01*
X154877251Y-81501473D01*
X155050231Y-81429822D01*
X155205908Y-81325802D01*
X155338302Y-81193408D01*
X155442322Y-81037731D01*
X155513973Y-80864751D01*
X155550500Y-80681116D01*
X155550500Y-79193884D01*
X155550499Y-79193879D01*
X157449500Y-79193879D01*
X157449500Y-80681120D01*
X157486025Y-80864743D01*
X157486027Y-80864751D01*
X157557676Y-81037728D01*
X157557681Y-81037737D01*
X157661697Y-81193407D01*
X157661700Y-81193411D01*
X157794088Y-81325799D01*
X157794092Y-81325802D01*
X157949762Y-81429818D01*
X157949768Y-81429821D01*
X157949769Y-81429822D01*
X158122749Y-81501473D01*
X158306379Y-81537999D01*
X158306383Y-81538000D01*
X158306384Y-81538000D01*
X158493617Y-81538000D01*
X158493618Y-81537999D01*
X158677251Y-81501473D01*
X158850231Y-81429822D01*
X159005908Y-81325802D01*
X159138302Y-81193408D01*
X159242322Y-81037731D01*
X159313973Y-80864751D01*
X159350500Y-80681116D01*
X159350500Y-79193884D01*
X159350499Y-79193879D01*
X161749500Y-79193879D01*
X161749500Y-80681120D01*
X161786025Y-80864743D01*
X161786027Y-80864751D01*
X161857676Y-81037728D01*
X161857681Y-81037737D01*
X161961697Y-81193407D01*
X161961700Y-81193411D01*
X162094088Y-81325799D01*
X162094092Y-81325802D01*
X162249762Y-81429818D01*
X162249768Y-81429821D01*
X162249769Y-81429822D01*
X162422749Y-81501473D01*
X162606379Y-81537999D01*
X162606383Y-81538000D01*
X162606384Y-81538000D01*
X162793617Y-81538000D01*
X162793618Y-81537999D01*
X162977251Y-81501473D01*
X163150231Y-81429822D01*
X163305908Y-81325802D01*
X163438302Y-81193408D01*
X163542322Y-81037731D01*
X163613973Y-80864751D01*
X163650500Y-80681116D01*
X163650500Y-79193884D01*
X163650499Y-79193879D01*
X165549500Y-79193879D01*
X165549500Y-80681120D01*
X165586025Y-80864743D01*
X165586027Y-80864751D01*
X165657676Y-81037728D01*
X165657681Y-81037737D01*
X165761697Y-81193407D01*
X165761700Y-81193411D01*
X165894088Y-81325799D01*
X165894092Y-81325802D01*
X166049762Y-81429818D01*
X166049768Y-81429821D01*
X166049769Y-81429822D01*
X166222749Y-81501473D01*
X166406379Y-81537999D01*
X166406383Y-81538000D01*
X166406384Y-81538000D01*
X166593617Y-81538000D01*
X166593618Y-81537999D01*
X166777251Y-81501473D01*
X166950231Y-81429822D01*
X167105908Y-81325802D01*
X167238302Y-81193408D01*
X167342322Y-81037731D01*
X167413973Y-80864751D01*
X167450500Y-80681116D01*
X167450500Y-79193884D01*
X167413973Y-79010249D01*
X167342322Y-78837269D01*
X167342321Y-78837268D01*
X167342318Y-78837262D01*
X167238302Y-78681592D01*
X167238299Y-78681588D01*
X167105911Y-78549200D01*
X167105907Y-78549197D01*
X166950237Y-78445181D01*
X166950228Y-78445176D01*
X166777251Y-78373527D01*
X166777243Y-78373525D01*
X166593620Y-78337000D01*
X166593616Y-78337000D01*
X166406384Y-78337000D01*
X166406379Y-78337000D01*
X166222756Y-78373525D01*
X166222748Y-78373527D01*
X166049771Y-78445176D01*
X166049762Y-78445181D01*
X165894092Y-78549197D01*
X165894088Y-78549200D01*
X165761700Y-78681588D01*
X165761697Y-78681592D01*
X165657681Y-78837262D01*
X165657676Y-78837271D01*
X165586027Y-79010248D01*
X165586025Y-79010256D01*
X165549500Y-79193879D01*
X163650499Y-79193879D01*
X163613973Y-79010249D01*
X163542322Y-78837269D01*
X163542321Y-78837268D01*
X163542318Y-78837262D01*
X163438302Y-78681592D01*
X163438299Y-78681588D01*
X163305911Y-78549200D01*
X163305907Y-78549197D01*
X163150237Y-78445181D01*
X163150228Y-78445176D01*
X162977251Y-78373527D01*
X162977243Y-78373525D01*
X162793620Y-78337000D01*
X162793616Y-78337000D01*
X162606384Y-78337000D01*
X162606379Y-78337000D01*
X162422756Y-78373525D01*
X162422748Y-78373527D01*
X162249771Y-78445176D01*
X162249762Y-78445181D01*
X162094092Y-78549197D01*
X162094088Y-78549200D01*
X161961700Y-78681588D01*
X161961697Y-78681592D01*
X161857681Y-78837262D01*
X161857676Y-78837271D01*
X161786027Y-79010248D01*
X161786025Y-79010256D01*
X161749500Y-79193879D01*
X159350499Y-79193879D01*
X159313973Y-79010249D01*
X159242322Y-78837269D01*
X159242321Y-78837268D01*
X159242318Y-78837262D01*
X159138302Y-78681592D01*
X159138299Y-78681588D01*
X159005911Y-78549200D01*
X159005907Y-78549197D01*
X158850237Y-78445181D01*
X158850228Y-78445176D01*
X158677251Y-78373527D01*
X158677243Y-78373525D01*
X158493620Y-78337000D01*
X158493616Y-78337000D01*
X158306384Y-78337000D01*
X158306379Y-78337000D01*
X158122756Y-78373525D01*
X158122748Y-78373527D01*
X157949771Y-78445176D01*
X157949762Y-78445181D01*
X157794092Y-78549197D01*
X157794088Y-78549200D01*
X157661700Y-78681588D01*
X157661697Y-78681592D01*
X157557681Y-78837262D01*
X157557676Y-78837271D01*
X157486027Y-79010248D01*
X157486025Y-79010256D01*
X157449500Y-79193879D01*
X155550499Y-79193879D01*
X155513973Y-79010249D01*
X155442322Y-78837269D01*
X155442321Y-78837268D01*
X155442318Y-78837262D01*
X155338302Y-78681592D01*
X155338299Y-78681588D01*
X155205911Y-78549200D01*
X155205907Y-78549197D01*
X155050237Y-78445181D01*
X155050228Y-78445176D01*
X154877251Y-78373527D01*
X154877243Y-78373525D01*
X154693620Y-78337000D01*
X154693616Y-78337000D01*
X154506384Y-78337000D01*
X154506379Y-78337000D01*
X154322756Y-78373525D01*
X154322748Y-78373527D01*
X154149771Y-78445176D01*
X154149762Y-78445181D01*
X153994092Y-78549197D01*
X153994088Y-78549200D01*
X153861700Y-78681588D01*
X153861697Y-78681592D01*
X153757681Y-78837262D01*
X153757676Y-78837271D01*
X153686027Y-79010248D01*
X153686025Y-79010256D01*
X153649500Y-79193879D01*
X132053035Y-79193879D01*
X132078229Y-79188868D01*
X132078229Y-79188867D01*
X132078231Y-79188867D01*
X132144552Y-79144552D01*
X132188867Y-79078231D01*
X132188867Y-79078229D01*
X132188868Y-79078229D01*
X132200499Y-79019752D01*
X132200500Y-79019750D01*
X132200500Y-76765553D01*
X142799500Y-76765553D01*
X142799500Y-78374092D01*
X142802353Y-78404522D01*
X142802353Y-78404524D01*
X142847206Y-78532703D01*
X142847207Y-78532705D01*
X142927850Y-78641973D01*
X143037118Y-78722616D01*
X143079845Y-78737567D01*
X143165299Y-78767469D01*
X143195730Y-78770323D01*
X143195734Y-78770323D01*
X144804270Y-78770323D01*
X144834699Y-78767469D01*
X144834701Y-78767469D01*
X144898790Y-78745042D01*
X144962882Y-78722616D01*
X145072150Y-78641973D01*
X145152793Y-78532705D01*
X145183421Y-78445176D01*
X145197646Y-78404524D01*
X145197646Y-78404522D01*
X145200500Y-78374092D01*
X145200500Y-76765553D01*
X145197646Y-76735123D01*
X145197646Y-76735121D01*
X145152793Y-76606942D01*
X145152792Y-76606940D01*
X145108792Y-76547322D01*
X145072150Y-76497673D01*
X144962882Y-76417030D01*
X144962880Y-76417029D01*
X144834700Y-76372176D01*
X144804270Y-76369323D01*
X144804266Y-76369323D01*
X143195734Y-76369323D01*
X143195730Y-76369323D01*
X143165300Y-76372176D01*
X143165298Y-76372176D01*
X143037119Y-76417029D01*
X143037117Y-76417030D01*
X142927850Y-76497673D01*
X142847207Y-76606940D01*
X142847206Y-76606942D01*
X142802353Y-76735121D01*
X142802353Y-76735123D01*
X142799500Y-76765553D01*
X132200500Y-76765553D01*
X132200500Y-75980249D01*
X132200499Y-75980247D01*
X132188868Y-75921770D01*
X132188867Y-75921769D01*
X132144552Y-75855447D01*
X132078230Y-75811132D01*
X132078229Y-75811131D01*
X132019752Y-75799500D01*
X132019748Y-75799500D01*
X128980252Y-75799500D01*
X128980247Y-75799500D01*
X128921770Y-75811131D01*
X128921769Y-75811132D01*
X128855447Y-75855447D01*
X128811132Y-75921769D01*
X128811131Y-75921770D01*
X128799500Y-75980247D01*
X125500500Y-75980247D01*
X125500500Y-65368905D01*
X128500000Y-65368905D01*
X128500000Y-65631094D01*
X128534220Y-65891009D01*
X128534222Y-65891020D01*
X128602075Y-66144255D01*
X128702404Y-66386471D01*
X128702409Y-66386482D01*
X128833488Y-66613516D01*
X128833494Y-66613524D01*
X128920080Y-66726365D01*
X129898958Y-65747487D01*
X129923978Y-65807890D01*
X129995112Y-65914351D01*
X130085649Y-66004888D01*
X130192110Y-66076022D01*
X130252511Y-66101041D01*
X129273633Y-67079917D01*
X129273633Y-67079918D01*
X129386475Y-67166505D01*
X129386483Y-67166511D01*
X129613517Y-67297590D01*
X129613528Y-67297595D01*
X129855744Y-67397924D01*
X130108979Y-67465777D01*
X130108990Y-67465779D01*
X130368905Y-67499999D01*
X130368920Y-67500000D01*
X130631080Y-67500000D01*
X130631094Y-67499999D01*
X130891009Y-67465779D01*
X130891020Y-67465777D01*
X131144255Y-67397924D01*
X131386471Y-67297595D01*
X131386482Y-67297590D01*
X131613516Y-67166511D01*
X131613534Y-67166499D01*
X131726365Y-67079919D01*
X131726365Y-67079917D01*
X130747488Y-66101041D01*
X130807890Y-66076022D01*
X130914351Y-66004888D01*
X131004888Y-65914351D01*
X131076022Y-65807890D01*
X131101041Y-65747489D01*
X132079917Y-66726365D01*
X132079919Y-66726365D01*
X132166499Y-66613534D01*
X132166511Y-66613516D01*
X132297590Y-66386482D01*
X132297595Y-66386471D01*
X132397924Y-66144255D01*
X132465777Y-65891020D01*
X132465780Y-65891007D01*
X132470458Y-65855475D01*
X132470458Y-65855474D01*
X132499999Y-65631094D01*
X132500000Y-65631080D01*
X132500000Y-65368919D01*
X132499999Y-65368905D01*
X132465779Y-65108990D01*
X132465777Y-65108979D01*
X132397924Y-64855744D01*
X132297595Y-64613528D01*
X132297590Y-64613517D01*
X132166511Y-64386483D01*
X132166505Y-64386475D01*
X132079918Y-64273633D01*
X132079917Y-64273633D01*
X131101040Y-65252509D01*
X131076022Y-65192110D01*
X131004888Y-65085649D01*
X130914351Y-64995112D01*
X130807890Y-64923978D01*
X130747487Y-64898957D01*
X131545193Y-64101253D01*
X142150000Y-64101253D01*
X142150000Y-64313746D01*
X142183242Y-64523627D01*
X142183242Y-64523630D01*
X142248904Y-64725717D01*
X142345375Y-64915050D01*
X142384728Y-64969216D01*
X143017036Y-64336907D01*
X143034075Y-64400493D01*
X143099901Y-64514507D01*
X143192993Y-64607599D01*
X143307007Y-64673425D01*
X143370590Y-64690462D01*
X142738282Y-65322769D01*
X142738282Y-65322770D01*
X142792449Y-65362124D01*
X142986121Y-65460806D01*
X142985603Y-65461821D01*
X143035808Y-65502279D01*
X143057873Y-65568573D01*
X143040594Y-65636272D01*
X142989458Y-65683883D01*
X142933952Y-65697000D01*
X142630247Y-65697000D01*
X142571770Y-65708631D01*
X142571769Y-65708632D01*
X142505447Y-65752947D01*
X142461132Y-65819269D01*
X142461131Y-65819270D01*
X142449500Y-65877747D01*
X142449500Y-67617252D01*
X142461131Y-67675729D01*
X142461132Y-67675730D01*
X142505447Y-67742052D01*
X142571769Y-67786367D01*
X142571770Y-67786368D01*
X142630247Y-67797999D01*
X142630250Y-67798000D01*
X142630252Y-67798000D01*
X144369750Y-67798000D01*
X144369751Y-67797999D01*
X144384568Y-67795052D01*
X144428229Y-67786368D01*
X144428229Y-67786367D01*
X144428231Y-67786367D01*
X144494552Y-67742052D01*
X144494551Y-67742052D01*
X144504707Y-67735267D01*
X144506262Y-67737595D01*
X144551609Y-67712834D01*
X144577967Y-67710000D01*
X167134457Y-67710000D01*
X167201496Y-67729685D01*
X167222138Y-67746319D01*
X170838181Y-71362361D01*
X170871666Y-71423684D01*
X170874500Y-71450042D01*
X170874500Y-102018778D01*
X170911485Y-102204718D01*
X170911488Y-102204727D01*
X170984039Y-102379884D01*
X170984046Y-102379897D01*
X171089376Y-102537533D01*
X171089379Y-102537537D01*
X172632876Y-104081033D01*
X172659756Y-104121261D01*
X172690604Y-104195736D01*
X172690609Y-104195745D01*
X172778210Y-104326848D01*
X172778213Y-104326852D01*
X172889710Y-104438349D01*
X173016744Y-104523230D01*
X173020821Y-104525954D01*
X173109494Y-104562682D01*
X173130926Y-104574138D01*
X173273669Y-104669517D01*
X173354335Y-104702929D01*
X173397521Y-104720817D01*
X173397524Y-104720818D01*
X173397529Y-104720820D01*
X173448833Y-104742072D01*
X173634781Y-104779059D01*
X173634785Y-104779060D01*
X173634786Y-104779060D01*
X173894799Y-104779060D01*
X173894800Y-104779059D01*
X174080751Y-104742072D01*
X174255915Y-104669516D01*
X174337472Y-104615020D01*
X174382166Y-104596507D01*
X174433497Y-104586297D01*
X174579179Y-104525954D01*
X174710289Y-104438349D01*
X174821789Y-104326849D01*
X174909394Y-104195739D01*
X174969737Y-104050057D01*
X175000500Y-103895402D01*
X175000500Y-103737718D01*
X175000500Y-103737714D01*
X174999959Y-103734993D01*
X197995820Y-103734993D01*
X197995820Y-103892686D01*
X198026581Y-104047329D01*
X198026584Y-104047341D01*
X198086922Y-104193012D01*
X198086929Y-104193025D01*
X198174530Y-104324128D01*
X198174533Y-104324132D01*
X198286027Y-104435626D01*
X198286031Y-104435629D01*
X198417134Y-104523230D01*
X198417147Y-104523237D01*
X198512370Y-104562679D01*
X198562823Y-104583577D01*
X198717473Y-104614339D01*
X198717476Y-104614340D01*
X198717478Y-104614340D01*
X199675164Y-104614340D01*
X199675165Y-104614339D01*
X199829817Y-104583577D01*
X199975499Y-104523234D01*
X200106609Y-104435629D01*
X200218109Y-104324129D01*
X200305714Y-104193019D01*
X200366057Y-104047337D01*
X200396820Y-103892682D01*
X200396820Y-103734998D01*
X200396820Y-103734995D01*
X200396819Y-103734993D01*
X200366058Y-103580350D01*
X200366057Y-103580343D01*
X200366055Y-103580338D01*
X200305717Y-103434667D01*
X200305710Y-103434654D01*
X200218109Y-103303551D01*
X200218106Y-103303547D01*
X200106612Y-103192053D01*
X200106608Y-103192050D01*
X199975505Y-103104449D01*
X199975492Y-103104442D01*
X199829821Y-103044104D01*
X199829809Y-103044101D01*
X199675165Y-103013340D01*
X199675162Y-103013340D01*
X198717478Y-103013340D01*
X198717475Y-103013340D01*
X198562830Y-103044101D01*
X198562818Y-103044104D01*
X198417147Y-103104442D01*
X198417134Y-103104449D01*
X198286031Y-103192050D01*
X198286027Y-103192053D01*
X198174533Y-103303547D01*
X198174530Y-103303551D01*
X198086929Y-103434654D01*
X198086922Y-103434667D01*
X198026584Y-103580338D01*
X198026581Y-103580350D01*
X197995820Y-103734993D01*
X174999959Y-103734993D01*
X174969738Y-103583070D01*
X174969737Y-103583063D01*
X174968608Y-103580338D01*
X174909397Y-103437387D01*
X174909390Y-103437374D01*
X174821789Y-103306271D01*
X174821786Y-103306267D01*
X174710292Y-103194773D01*
X174710288Y-103194770D01*
X174579185Y-103107169D01*
X174579172Y-103107162D01*
X174433501Y-103046824D01*
X174433492Y-103046821D01*
X174382168Y-103036612D01*
X174376541Y-103034383D01*
X174373029Y-103034431D01*
X174350316Y-103023998D01*
X174340730Y-103020202D01*
X174339070Y-103019167D01*
X174255915Y-102963604D01*
X174238317Y-102956314D01*
X174229614Y-102950885D01*
X174223477Y-102943993D01*
X174207564Y-102933359D01*
X173562946Y-102288741D01*
X173529461Y-102227418D01*
X173534445Y-102157726D01*
X173576317Y-102101793D01*
X173641781Y-102077376D01*
X173650627Y-102077060D01*
X174278844Y-102077060D01*
X174278845Y-102077059D01*
X174433497Y-102046297D01*
X174579179Y-101985954D01*
X174710289Y-101898349D01*
X174821789Y-101786849D01*
X174909394Y-101655739D01*
X174969737Y-101510057D01*
X175000500Y-101355402D01*
X175000500Y-101197718D01*
X175000500Y-101197714D01*
X174999959Y-101194993D01*
X197995820Y-101194993D01*
X197995820Y-101352686D01*
X198026581Y-101507329D01*
X198026584Y-101507341D01*
X198086922Y-101653012D01*
X198086929Y-101653025D01*
X198174530Y-101784128D01*
X198174533Y-101784132D01*
X198286027Y-101895626D01*
X198286031Y-101895629D01*
X198417134Y-101983230D01*
X198417147Y-101983237D01*
X198502952Y-102018778D01*
X198562823Y-102043577D01*
X198717473Y-102074339D01*
X198717476Y-102074340D01*
X198717478Y-102074340D01*
X199675164Y-102074340D01*
X199675165Y-102074339D01*
X199829817Y-102043577D01*
X199975499Y-101983234D01*
X200106609Y-101895629D01*
X200218109Y-101784129D01*
X200305714Y-101653019D01*
X200366057Y-101507337D01*
X200396820Y-101352682D01*
X200396820Y-101194998D01*
X200396820Y-101194995D01*
X200396819Y-101194993D01*
X200366057Y-101040343D01*
X200332747Y-100959925D01*
X200305717Y-100894667D01*
X200305710Y-100894654D01*
X200218109Y-100763551D01*
X200218106Y-100763547D01*
X200106612Y-100652053D01*
X200106608Y-100652050D01*
X199975505Y-100564449D01*
X199975492Y-100564442D01*
X199829821Y-100504104D01*
X199829809Y-100504101D01*
X199675165Y-100473340D01*
X199675162Y-100473340D01*
X198717478Y-100473340D01*
X198717475Y-100473340D01*
X198562830Y-100504101D01*
X198562818Y-100504104D01*
X198417147Y-100564442D01*
X198417134Y-100564449D01*
X198286031Y-100652050D01*
X198286027Y-100652053D01*
X198174533Y-100763547D01*
X198174530Y-100763551D01*
X198086929Y-100894654D01*
X198086922Y-100894667D01*
X198026584Y-101040338D01*
X198026581Y-101040350D01*
X197995820Y-101194993D01*
X174999959Y-101194993D01*
X174969738Y-101043070D01*
X174969737Y-101043063D01*
X174968608Y-101040338D01*
X174909397Y-100897387D01*
X174909390Y-100897374D01*
X174821789Y-100766271D01*
X174821786Y-100766267D01*
X174710292Y-100654773D01*
X174710288Y-100654770D01*
X174579185Y-100567169D01*
X174579172Y-100567162D01*
X174433501Y-100506824D01*
X174433489Y-100506821D01*
X174278845Y-100476060D01*
X174278842Y-100476060D01*
X173321158Y-100476060D01*
X173321155Y-100476060D01*
X173166510Y-100506821D01*
X173166498Y-100506824D01*
X173020827Y-100567162D01*
X173020811Y-100567171D01*
X172992389Y-100586162D01*
X172925712Y-100607039D01*
X172858332Y-100588554D01*
X172811642Y-100536574D01*
X172799500Y-100483059D01*
X172799500Y-99530060D01*
X172819185Y-99463021D01*
X172871989Y-99417266D01*
X172941147Y-99407322D01*
X172992391Y-99426958D01*
X173005895Y-99435981D01*
X173020821Y-99445954D01*
X173020823Y-99445955D01*
X173020827Y-99445957D01*
X173151303Y-99500001D01*
X173166503Y-99506297D01*
X173285967Y-99530060D01*
X173321153Y-99537059D01*
X173321156Y-99537060D01*
X173321158Y-99537060D01*
X174278844Y-99537060D01*
X174278845Y-99537059D01*
X174433497Y-99506297D01*
X174579179Y-99445954D01*
X174710289Y-99358349D01*
X174821789Y-99246849D01*
X174909394Y-99115739D01*
X174969737Y-98970057D01*
X175000500Y-98815402D01*
X175000500Y-98657718D01*
X175000500Y-98657715D01*
X175000499Y-98657713D01*
X197999500Y-98657713D01*
X197999500Y-98815406D01*
X198030261Y-98970049D01*
X198030264Y-98970061D01*
X198090602Y-99115732D01*
X198090609Y-99115745D01*
X198178210Y-99246848D01*
X198178213Y-99246852D01*
X198289707Y-99358346D01*
X198289711Y-99358349D01*
X198420814Y-99445950D01*
X198420827Y-99445957D01*
X198551303Y-99500001D01*
X198566503Y-99506297D01*
X198685967Y-99530060D01*
X198721153Y-99537059D01*
X198721156Y-99537060D01*
X198721158Y-99537060D01*
X199678844Y-99537060D01*
X199678845Y-99537059D01*
X199833497Y-99506297D01*
X199979179Y-99445954D01*
X200110289Y-99358349D01*
X200221789Y-99246849D01*
X200309394Y-99115739D01*
X200369737Y-98970057D01*
X200400500Y-98815402D01*
X200400500Y-98657718D01*
X200400500Y-98657715D01*
X200400499Y-98657713D01*
X200369738Y-98503070D01*
X200369737Y-98503063D01*
X200350418Y-98456423D01*
X200309397Y-98357387D01*
X200309390Y-98357374D01*
X200221789Y-98226271D01*
X200221786Y-98226267D01*
X200110292Y-98114773D01*
X200110288Y-98114770D01*
X199979185Y-98027169D01*
X199979172Y-98027162D01*
X199833501Y-97966824D01*
X199833489Y-97966821D01*
X199678845Y-97936060D01*
X199678842Y-97936060D01*
X198721158Y-97936060D01*
X198721155Y-97936060D01*
X198566510Y-97966821D01*
X198566498Y-97966824D01*
X198420827Y-98027162D01*
X198420814Y-98027169D01*
X198289711Y-98114770D01*
X198289707Y-98114773D01*
X198178213Y-98226267D01*
X198178210Y-98226271D01*
X198090609Y-98357374D01*
X198090602Y-98357387D01*
X198030264Y-98503058D01*
X198030261Y-98503070D01*
X197999500Y-98657713D01*
X175000499Y-98657713D01*
X174969738Y-98503070D01*
X174969737Y-98503063D01*
X174950418Y-98456423D01*
X174909397Y-98357387D01*
X174909390Y-98357374D01*
X174821789Y-98226271D01*
X174821786Y-98226267D01*
X174710292Y-98114773D01*
X174710288Y-98114770D01*
X174579185Y-98027169D01*
X174579172Y-98027162D01*
X174433501Y-97966824D01*
X174433489Y-97966821D01*
X174278845Y-97936060D01*
X174278842Y-97936060D01*
X173321158Y-97936060D01*
X173321155Y-97936060D01*
X173166510Y-97966821D01*
X173166498Y-97966824D01*
X173020827Y-98027162D01*
X173020811Y-98027171D01*
X172992389Y-98046162D01*
X172925712Y-98067039D01*
X172858332Y-98048554D01*
X172811642Y-97996574D01*
X172799500Y-97943059D01*
X172799500Y-96990060D01*
X172819185Y-96923021D01*
X172871989Y-96877266D01*
X172941147Y-96867322D01*
X172992391Y-96886958D01*
X173020815Y-96905950D01*
X173020821Y-96905954D01*
X173020823Y-96905955D01*
X173020827Y-96905957D01*
X173166498Y-96966295D01*
X173166503Y-96966297D01*
X173285967Y-96990060D01*
X173321153Y-96997059D01*
X173321156Y-96997060D01*
X173321158Y-96997060D01*
X174278844Y-96997060D01*
X174278845Y-96997059D01*
X174433497Y-96966297D01*
X174579179Y-96905954D01*
X174710289Y-96818349D01*
X174821789Y-96706849D01*
X174909394Y-96575739D01*
X174969737Y-96430057D01*
X175000500Y-96275402D01*
X175000500Y-96117718D01*
X175000500Y-96117715D01*
X175000499Y-96117713D01*
X197999500Y-96117713D01*
X197999500Y-96275406D01*
X198030261Y-96430049D01*
X198030264Y-96430061D01*
X198090602Y-96575732D01*
X198090609Y-96575745D01*
X198178210Y-96706848D01*
X198178213Y-96706852D01*
X198289707Y-96818346D01*
X198289711Y-96818349D01*
X198420814Y-96905950D01*
X198420827Y-96905957D01*
X198566498Y-96966295D01*
X198566503Y-96966297D01*
X198685967Y-96990060D01*
X198721153Y-96997059D01*
X198721156Y-96997060D01*
X198721158Y-96997060D01*
X199678844Y-96997060D01*
X199678845Y-96997059D01*
X199833497Y-96966297D01*
X199979179Y-96905954D01*
X200110289Y-96818349D01*
X200221789Y-96706849D01*
X200309394Y-96575739D01*
X200369737Y-96430057D01*
X200400500Y-96275402D01*
X200400500Y-96117718D01*
X200400500Y-96117715D01*
X200400499Y-96117713D01*
X200379123Y-96010249D01*
X200369737Y-95963063D01*
X200317629Y-95837262D01*
X200309397Y-95817387D01*
X200309390Y-95817374D01*
X200221789Y-95686271D01*
X200221786Y-95686267D01*
X200110292Y-95574773D01*
X200110288Y-95574770D01*
X199979185Y-95487169D01*
X199979172Y-95487162D01*
X199833501Y-95426824D01*
X199833489Y-95426821D01*
X199678845Y-95396060D01*
X199678842Y-95396060D01*
X198721158Y-95396060D01*
X198721155Y-95396060D01*
X198566510Y-95426821D01*
X198566498Y-95426824D01*
X198420827Y-95487162D01*
X198420814Y-95487169D01*
X198289711Y-95574770D01*
X198289707Y-95574773D01*
X198178213Y-95686267D01*
X198178210Y-95686271D01*
X198090609Y-95817374D01*
X198090602Y-95817387D01*
X198030264Y-95963058D01*
X198030261Y-95963070D01*
X197999500Y-96117713D01*
X175000499Y-96117713D01*
X174979123Y-96010249D01*
X174969737Y-95963063D01*
X174917629Y-95837262D01*
X174909397Y-95817387D01*
X174909390Y-95817374D01*
X174821789Y-95686271D01*
X174821786Y-95686267D01*
X174710292Y-95574773D01*
X174710288Y-95574770D01*
X174579185Y-95487169D01*
X174579172Y-95487162D01*
X174433501Y-95426824D01*
X174433489Y-95426821D01*
X174278845Y-95396060D01*
X174278842Y-95396060D01*
X173321158Y-95396060D01*
X173321155Y-95396060D01*
X173166510Y-95426821D01*
X173166498Y-95426824D01*
X173020827Y-95487162D01*
X173020811Y-95487171D01*
X172992389Y-95506162D01*
X172925712Y-95527039D01*
X172858332Y-95508554D01*
X172811642Y-95456574D01*
X172799500Y-95403059D01*
X172799500Y-94450060D01*
X172819185Y-94383021D01*
X172871989Y-94337266D01*
X172941147Y-94327322D01*
X172992391Y-94346958D01*
X173020815Y-94365950D01*
X173020821Y-94365954D01*
X173020823Y-94365955D01*
X173020827Y-94365957D01*
X173166498Y-94426295D01*
X173166503Y-94426297D01*
X173285967Y-94450060D01*
X173321153Y-94457059D01*
X173321156Y-94457060D01*
X173321158Y-94457060D01*
X174278844Y-94457060D01*
X174278845Y-94457059D01*
X174433497Y-94426297D01*
X174579179Y-94365954D01*
X174710289Y-94278349D01*
X174821789Y-94166849D01*
X174909394Y-94035739D01*
X174969737Y-93890057D01*
X175000500Y-93735402D01*
X175000500Y-93577718D01*
X175000500Y-93577715D01*
X175000499Y-93577713D01*
X197999500Y-93577713D01*
X197999500Y-93735406D01*
X198030261Y-93890049D01*
X198030264Y-93890061D01*
X198090602Y-94035732D01*
X198090609Y-94035745D01*
X198178210Y-94166848D01*
X198178213Y-94166852D01*
X198289707Y-94278346D01*
X198289711Y-94278349D01*
X198420814Y-94365950D01*
X198420827Y-94365957D01*
X198566498Y-94426295D01*
X198566503Y-94426297D01*
X198685967Y-94450060D01*
X198721153Y-94457059D01*
X198721156Y-94457060D01*
X198721158Y-94457060D01*
X199678844Y-94457060D01*
X199678845Y-94457059D01*
X199833497Y-94426297D01*
X199979179Y-94365954D01*
X200110289Y-94278349D01*
X200221789Y-94166849D01*
X200309394Y-94035739D01*
X200369737Y-93890057D01*
X200400500Y-93735402D01*
X200400500Y-93577718D01*
X200400500Y-93577715D01*
X200400499Y-93577713D01*
X200369738Y-93423070D01*
X200369737Y-93423063D01*
X200367238Y-93417029D01*
X200309397Y-93277387D01*
X200309390Y-93277374D01*
X200221789Y-93146271D01*
X200221786Y-93146267D01*
X200110292Y-93034773D01*
X200110288Y-93034770D01*
X199979185Y-92947169D01*
X199979172Y-92947162D01*
X199833501Y-92886824D01*
X199833489Y-92886821D01*
X199678845Y-92856060D01*
X199678842Y-92856060D01*
X198721158Y-92856060D01*
X198721155Y-92856060D01*
X198566510Y-92886821D01*
X198566498Y-92886824D01*
X198420827Y-92947162D01*
X198420814Y-92947169D01*
X198289711Y-93034770D01*
X198289707Y-93034773D01*
X198178213Y-93146267D01*
X198178210Y-93146271D01*
X198090609Y-93277374D01*
X198090602Y-93277387D01*
X198030264Y-93423058D01*
X198030261Y-93423070D01*
X197999500Y-93577713D01*
X175000499Y-93577713D01*
X174969738Y-93423070D01*
X174969737Y-93423063D01*
X174967238Y-93417029D01*
X174909397Y-93277387D01*
X174909390Y-93277374D01*
X174821789Y-93146271D01*
X174821786Y-93146267D01*
X174710292Y-93034773D01*
X174710288Y-93034770D01*
X174579185Y-92947169D01*
X174579172Y-92947162D01*
X174433501Y-92886824D01*
X174433489Y-92886821D01*
X174278845Y-92856060D01*
X174278842Y-92856060D01*
X173321158Y-92856060D01*
X173321155Y-92856060D01*
X173166510Y-92886821D01*
X173166498Y-92886824D01*
X173020827Y-92947162D01*
X173020811Y-92947171D01*
X172992389Y-92966162D01*
X172925712Y-92987039D01*
X172858332Y-92968554D01*
X172811642Y-92916574D01*
X172799500Y-92863059D01*
X172799500Y-92247498D01*
X172819185Y-92180459D01*
X172871989Y-92134704D01*
X172941147Y-92124760D01*
X172972932Y-92134841D01*
X172973238Y-92134103D01*
X172977736Y-92135965D01*
X173142415Y-92189474D01*
X173313429Y-92216560D01*
X173550000Y-92216560D01*
X173550000Y-91432246D01*
X173554394Y-91436640D01*
X173645606Y-91489301D01*
X173747339Y-91516560D01*
X173852661Y-91516560D01*
X173954394Y-91489301D01*
X174045606Y-91436640D01*
X174050000Y-91432246D01*
X174050000Y-92216560D01*
X174286571Y-92216560D01*
X174457584Y-92189474D01*
X174622257Y-92135968D01*
X174776524Y-92057364D01*
X174916602Y-91955592D01*
X175039032Y-91833162D01*
X175140804Y-91693084D01*
X175219408Y-91538815D01*
X175272914Y-91374144D01*
X175274115Y-91366560D01*
X174115686Y-91366560D01*
X174120080Y-91362166D01*
X174172741Y-91270954D01*
X174200000Y-91169221D01*
X174200000Y-91063899D01*
X174192984Y-91037713D01*
X197999500Y-91037713D01*
X197999500Y-91195406D01*
X198030261Y-91350049D01*
X198030264Y-91350061D01*
X198090602Y-91495732D01*
X198090609Y-91495745D01*
X198178210Y-91626848D01*
X198178213Y-91626852D01*
X198289707Y-91738346D01*
X198289711Y-91738349D01*
X198420814Y-91825950D01*
X198420827Y-91825957D01*
X198566498Y-91886295D01*
X198566503Y-91886297D01*
X198721153Y-91917059D01*
X198721156Y-91917060D01*
X198721158Y-91917060D01*
X199678844Y-91917060D01*
X199678845Y-91917059D01*
X199833497Y-91886297D01*
X199979179Y-91825954D01*
X200110289Y-91738349D01*
X200221789Y-91626849D01*
X200309394Y-91495739D01*
X200369737Y-91350057D01*
X200400500Y-91195402D01*
X200400500Y-91037718D01*
X200400500Y-91037715D01*
X200400499Y-91037713D01*
X200369737Y-90883063D01*
X200362901Y-90866559D01*
X200309397Y-90737387D01*
X200309390Y-90737374D01*
X200221789Y-90606271D01*
X200221786Y-90606267D01*
X200110292Y-90494773D01*
X200110288Y-90494770D01*
X199979185Y-90407169D01*
X199979172Y-90407162D01*
X199833501Y-90346824D01*
X199833489Y-90346821D01*
X199678845Y-90316060D01*
X199678842Y-90316060D01*
X198721158Y-90316060D01*
X198721155Y-90316060D01*
X198566510Y-90346821D01*
X198566498Y-90346824D01*
X198420827Y-90407162D01*
X198420814Y-90407169D01*
X198289711Y-90494770D01*
X198289707Y-90494773D01*
X198178213Y-90606267D01*
X198178210Y-90606271D01*
X198090609Y-90737374D01*
X198090602Y-90737387D01*
X198030264Y-90883058D01*
X198030261Y-90883070D01*
X197999500Y-91037713D01*
X174192984Y-91037713D01*
X174172741Y-90962166D01*
X174120080Y-90870954D01*
X174115686Y-90866560D01*
X175274115Y-90866560D01*
X175274115Y-90866559D01*
X175272914Y-90858975D01*
X175219408Y-90694304D01*
X175140804Y-90540035D01*
X175039032Y-90399957D01*
X174916602Y-90277527D01*
X174776524Y-90175755D01*
X174622257Y-90097151D01*
X174457584Y-90043645D01*
X174286571Y-90016560D01*
X174050000Y-90016560D01*
X174050000Y-90800874D01*
X174045606Y-90796480D01*
X173954394Y-90743819D01*
X173852661Y-90716560D01*
X173747339Y-90716560D01*
X173645606Y-90743819D01*
X173554394Y-90796480D01*
X173550000Y-90800874D01*
X173550000Y-90016560D01*
X173313429Y-90016560D01*
X173142415Y-90043645D01*
X172977736Y-90097154D01*
X172973238Y-90099017D01*
X172972593Y-90097461D01*
X172911111Y-90109001D01*
X172846374Y-90082716D01*
X172806123Y-90025605D01*
X172799500Y-89985621D01*
X172799500Y-89370060D01*
X172819185Y-89303021D01*
X172871989Y-89257266D01*
X172941147Y-89247322D01*
X172992391Y-89266958D01*
X173020815Y-89285950D01*
X173020821Y-89285954D01*
X173020823Y-89285955D01*
X173020827Y-89285957D01*
X173166498Y-89346295D01*
X173166503Y-89346297D01*
X173285967Y-89370060D01*
X173321153Y-89377059D01*
X173321156Y-89377060D01*
X173321158Y-89377060D01*
X174278844Y-89377060D01*
X174278845Y-89377059D01*
X174433497Y-89346297D01*
X174579179Y-89285954D01*
X174710289Y-89198349D01*
X174821789Y-89086849D01*
X174909394Y-88955739D01*
X174969737Y-88810057D01*
X175000500Y-88655402D01*
X175000500Y-88497718D01*
X175000500Y-88497715D01*
X175000499Y-88497713D01*
X197999500Y-88497713D01*
X197999500Y-88655406D01*
X198030261Y-88810049D01*
X198030264Y-88810061D01*
X198090602Y-88955732D01*
X198090609Y-88955745D01*
X198178210Y-89086848D01*
X198178213Y-89086852D01*
X198289707Y-89198346D01*
X198289711Y-89198349D01*
X198420814Y-89285950D01*
X198420827Y-89285957D01*
X198566498Y-89346295D01*
X198566503Y-89346297D01*
X198685967Y-89370060D01*
X198721153Y-89377059D01*
X198721156Y-89377060D01*
X198721158Y-89377060D01*
X199678844Y-89377060D01*
X199678845Y-89377059D01*
X199833497Y-89346297D01*
X199979179Y-89285954D01*
X200110289Y-89198349D01*
X200221789Y-89086849D01*
X200309394Y-88955739D01*
X200369737Y-88810057D01*
X200400500Y-88655402D01*
X200400500Y-88497718D01*
X200400500Y-88497715D01*
X200400499Y-88497713D01*
X200369738Y-88343070D01*
X200369737Y-88343063D01*
X200369735Y-88343058D01*
X200309397Y-88197387D01*
X200309390Y-88197374D01*
X200221789Y-88066271D01*
X200221786Y-88066267D01*
X200110292Y-87954773D01*
X200110288Y-87954770D01*
X199979185Y-87867169D01*
X199979172Y-87867162D01*
X199833501Y-87806824D01*
X199833489Y-87806821D01*
X199678845Y-87776060D01*
X199678842Y-87776060D01*
X198721158Y-87776060D01*
X198721155Y-87776060D01*
X198566510Y-87806821D01*
X198566498Y-87806824D01*
X198420827Y-87867162D01*
X198420814Y-87867169D01*
X198289711Y-87954770D01*
X198289707Y-87954773D01*
X198178213Y-88066267D01*
X198178210Y-88066271D01*
X198090609Y-88197374D01*
X198090602Y-88197387D01*
X198030264Y-88343058D01*
X198030261Y-88343070D01*
X197999500Y-88497713D01*
X175000499Y-88497713D01*
X174969738Y-88343070D01*
X174969737Y-88343063D01*
X174969735Y-88343058D01*
X174909397Y-88197387D01*
X174909390Y-88197374D01*
X174821789Y-88066271D01*
X174821786Y-88066267D01*
X174710292Y-87954773D01*
X174710288Y-87954770D01*
X174579185Y-87867169D01*
X174579172Y-87867162D01*
X174433501Y-87806824D01*
X174433489Y-87806821D01*
X174278845Y-87776060D01*
X174278842Y-87776060D01*
X173321158Y-87776060D01*
X173321155Y-87776060D01*
X173166510Y-87806821D01*
X173166498Y-87806824D01*
X173020827Y-87867162D01*
X173020811Y-87867171D01*
X172992389Y-87886162D01*
X172925712Y-87907039D01*
X172858332Y-87888554D01*
X172811642Y-87836574D01*
X172799500Y-87783059D01*
X172799500Y-86830060D01*
X172819185Y-86763021D01*
X172871989Y-86717266D01*
X172941147Y-86707322D01*
X172992391Y-86726958D01*
X173020815Y-86745950D01*
X173020821Y-86745954D01*
X173020823Y-86745955D01*
X173020827Y-86745957D01*
X173166498Y-86806295D01*
X173166503Y-86806297D01*
X173285967Y-86830060D01*
X173321153Y-86837059D01*
X173321156Y-86837060D01*
X173321158Y-86837060D01*
X174278844Y-86837060D01*
X174278845Y-86837059D01*
X174433497Y-86806297D01*
X174579179Y-86745954D01*
X174710289Y-86658349D01*
X174821789Y-86546849D01*
X174909394Y-86415739D01*
X174969737Y-86270057D01*
X175000500Y-86115402D01*
X175000500Y-85957718D01*
X175000500Y-85957715D01*
X175000499Y-85957713D01*
X197999500Y-85957713D01*
X197999500Y-86115406D01*
X198030261Y-86270049D01*
X198030264Y-86270061D01*
X198090602Y-86415732D01*
X198090609Y-86415745D01*
X198178210Y-86546848D01*
X198178213Y-86546852D01*
X198289707Y-86658346D01*
X198289711Y-86658349D01*
X198420814Y-86745950D01*
X198420827Y-86745957D01*
X198566498Y-86806295D01*
X198566503Y-86806297D01*
X198685967Y-86830060D01*
X198721153Y-86837059D01*
X198721156Y-86837060D01*
X198721158Y-86837060D01*
X199678844Y-86837060D01*
X199678845Y-86837059D01*
X199833497Y-86806297D01*
X199979179Y-86745954D01*
X200110289Y-86658349D01*
X200221789Y-86546849D01*
X200309394Y-86415739D01*
X200369737Y-86270057D01*
X200400500Y-86115402D01*
X200400500Y-85957718D01*
X200400500Y-85957715D01*
X200400499Y-85957713D01*
X200369738Y-85803070D01*
X200369737Y-85803063D01*
X200369735Y-85803058D01*
X200309397Y-85657387D01*
X200309390Y-85657374D01*
X200221789Y-85526271D01*
X200221786Y-85526267D01*
X200110292Y-85414773D01*
X200110288Y-85414770D01*
X199979185Y-85327169D01*
X199979172Y-85327162D01*
X199833501Y-85266824D01*
X199833489Y-85266821D01*
X199678845Y-85236060D01*
X199678842Y-85236060D01*
X198721158Y-85236060D01*
X198721155Y-85236060D01*
X198566510Y-85266821D01*
X198566498Y-85266824D01*
X198420827Y-85327162D01*
X198420814Y-85327169D01*
X198289711Y-85414770D01*
X198289707Y-85414773D01*
X198178213Y-85526267D01*
X198178210Y-85526271D01*
X198090609Y-85657374D01*
X198090602Y-85657387D01*
X198030264Y-85803058D01*
X198030261Y-85803070D01*
X197999500Y-85957713D01*
X175000499Y-85957713D01*
X174969738Y-85803070D01*
X174969737Y-85803063D01*
X174969735Y-85803058D01*
X174909397Y-85657387D01*
X174909390Y-85657374D01*
X174821789Y-85526271D01*
X174821786Y-85526267D01*
X174710292Y-85414773D01*
X174710288Y-85414770D01*
X174579185Y-85327169D01*
X174579172Y-85327162D01*
X174433501Y-85266824D01*
X174433489Y-85266821D01*
X174278845Y-85236060D01*
X174278842Y-85236060D01*
X173321158Y-85236060D01*
X173321155Y-85236060D01*
X173166510Y-85266821D01*
X173166498Y-85266824D01*
X173020827Y-85327162D01*
X173020811Y-85327171D01*
X172992389Y-85346162D01*
X172925712Y-85367039D01*
X172858332Y-85348554D01*
X172811642Y-85296574D01*
X172799500Y-85243059D01*
X172799500Y-84290060D01*
X172819185Y-84223021D01*
X172871989Y-84177266D01*
X172941147Y-84167322D01*
X172992391Y-84186958D01*
X173020815Y-84205950D01*
X173020821Y-84205954D01*
X173020823Y-84205955D01*
X173020827Y-84205957D01*
X173166498Y-84266295D01*
X173166503Y-84266297D01*
X173285967Y-84290060D01*
X173321153Y-84297059D01*
X173321156Y-84297060D01*
X173321158Y-84297060D01*
X174278844Y-84297060D01*
X174278845Y-84297059D01*
X174433497Y-84266297D01*
X174579179Y-84205954D01*
X174710289Y-84118349D01*
X174821789Y-84006849D01*
X174909394Y-83875739D01*
X174969737Y-83730057D01*
X175000500Y-83575402D01*
X175000500Y-83417718D01*
X175000500Y-83417715D01*
X175000499Y-83417713D01*
X197999500Y-83417713D01*
X197999500Y-83575406D01*
X198030261Y-83730049D01*
X198030264Y-83730061D01*
X198090602Y-83875732D01*
X198090609Y-83875745D01*
X198178210Y-84006848D01*
X198178213Y-84006852D01*
X198289707Y-84118346D01*
X198289711Y-84118349D01*
X198420814Y-84205950D01*
X198420827Y-84205957D01*
X198566498Y-84266295D01*
X198566503Y-84266297D01*
X198685967Y-84290060D01*
X198721153Y-84297059D01*
X198721156Y-84297060D01*
X198721158Y-84297060D01*
X199678844Y-84297060D01*
X199678845Y-84297059D01*
X199833497Y-84266297D01*
X199979179Y-84205954D01*
X200110289Y-84118349D01*
X200221789Y-84006849D01*
X200309394Y-83875739D01*
X200369737Y-83730057D01*
X200400500Y-83575402D01*
X200400500Y-83417718D01*
X200400500Y-83417715D01*
X200400499Y-83417713D01*
X200394287Y-83386482D01*
X200369737Y-83263063D01*
X200369735Y-83263058D01*
X200309397Y-83117387D01*
X200309390Y-83117374D01*
X200221789Y-82986271D01*
X200221786Y-82986267D01*
X200110292Y-82874773D01*
X200110288Y-82874770D01*
X199979185Y-82787169D01*
X199979172Y-82787162D01*
X199833501Y-82726824D01*
X199833489Y-82726821D01*
X199678845Y-82696060D01*
X199678842Y-82696060D01*
X198721158Y-82696060D01*
X198721155Y-82696060D01*
X198566510Y-82726821D01*
X198566498Y-82726824D01*
X198420827Y-82787162D01*
X198420814Y-82787169D01*
X198289711Y-82874770D01*
X198289707Y-82874773D01*
X198178213Y-82986267D01*
X198178210Y-82986271D01*
X198090609Y-83117374D01*
X198090602Y-83117387D01*
X198030264Y-83263058D01*
X198030261Y-83263070D01*
X197999500Y-83417713D01*
X175000499Y-83417713D01*
X174994287Y-83386482D01*
X174969737Y-83263063D01*
X174969735Y-83263058D01*
X174909397Y-83117387D01*
X174909390Y-83117374D01*
X174821789Y-82986271D01*
X174821786Y-82986267D01*
X174710292Y-82874773D01*
X174710288Y-82874770D01*
X174579185Y-82787169D01*
X174579172Y-82787162D01*
X174433501Y-82726824D01*
X174433489Y-82726821D01*
X174278845Y-82696060D01*
X174278842Y-82696060D01*
X173321158Y-82696060D01*
X173321155Y-82696060D01*
X173166510Y-82726821D01*
X173166498Y-82726824D01*
X173020827Y-82787162D01*
X173020811Y-82787171D01*
X172992389Y-82806162D01*
X172925712Y-82827039D01*
X172858332Y-82808554D01*
X172811642Y-82756574D01*
X172799500Y-82703059D01*
X172799500Y-81750060D01*
X172819185Y-81683021D01*
X172871989Y-81637266D01*
X172941147Y-81627322D01*
X172992391Y-81646958D01*
X173020815Y-81665950D01*
X173020821Y-81665954D01*
X173020823Y-81665955D01*
X173020827Y-81665957D01*
X173166498Y-81726295D01*
X173166503Y-81726297D01*
X173285967Y-81750060D01*
X173321153Y-81757059D01*
X173321156Y-81757060D01*
X173321158Y-81757060D01*
X174278844Y-81757060D01*
X174278845Y-81757059D01*
X174433497Y-81726297D01*
X174579179Y-81665954D01*
X174710289Y-81578349D01*
X174821789Y-81466849D01*
X174909394Y-81335739D01*
X174969737Y-81190057D01*
X175000500Y-81035402D01*
X175000500Y-80877718D01*
X175000500Y-80877715D01*
X175000499Y-80877713D01*
X197999500Y-80877713D01*
X197999500Y-81035406D01*
X198030261Y-81190049D01*
X198030264Y-81190061D01*
X198090602Y-81335732D01*
X198090609Y-81335745D01*
X198178210Y-81466848D01*
X198178213Y-81466852D01*
X198289707Y-81578346D01*
X198289711Y-81578349D01*
X198420814Y-81665950D01*
X198420827Y-81665957D01*
X198566498Y-81726295D01*
X198566503Y-81726297D01*
X198685967Y-81750060D01*
X198721153Y-81757059D01*
X198721156Y-81757060D01*
X198721158Y-81757060D01*
X199678844Y-81757060D01*
X199678845Y-81757059D01*
X199833497Y-81726297D01*
X199979179Y-81665954D01*
X200110289Y-81578349D01*
X200221789Y-81466849D01*
X200309394Y-81335739D01*
X200369737Y-81190057D01*
X200400500Y-81035402D01*
X200400500Y-80877718D01*
X200400500Y-80877715D01*
X200400499Y-80877713D01*
X200369738Y-80723070D01*
X200369737Y-80723063D01*
X200319623Y-80602075D01*
X200309397Y-80577387D01*
X200309390Y-80577374D01*
X200221789Y-80446271D01*
X200221786Y-80446267D01*
X200110292Y-80334773D01*
X200110288Y-80334770D01*
X199979185Y-80247169D01*
X199979172Y-80247162D01*
X199833501Y-80186824D01*
X199833489Y-80186821D01*
X199678845Y-80156060D01*
X199678842Y-80156060D01*
X198721158Y-80156060D01*
X198721155Y-80156060D01*
X198566510Y-80186821D01*
X198566498Y-80186824D01*
X198420827Y-80247162D01*
X198420814Y-80247169D01*
X198289711Y-80334770D01*
X198289707Y-80334773D01*
X198178213Y-80446267D01*
X198178210Y-80446271D01*
X198090609Y-80577374D01*
X198090602Y-80577387D01*
X198030264Y-80723058D01*
X198030261Y-80723070D01*
X197999500Y-80877713D01*
X175000499Y-80877713D01*
X174969738Y-80723070D01*
X174969737Y-80723063D01*
X174919623Y-80602075D01*
X174909397Y-80577387D01*
X174909390Y-80577374D01*
X174821789Y-80446271D01*
X174821786Y-80446267D01*
X174710292Y-80334773D01*
X174710288Y-80334770D01*
X174579185Y-80247169D01*
X174579172Y-80247162D01*
X174433501Y-80186824D01*
X174433489Y-80186821D01*
X174278845Y-80156060D01*
X174278842Y-80156060D01*
X173321158Y-80156060D01*
X173321155Y-80156060D01*
X173166510Y-80186821D01*
X173166498Y-80186824D01*
X173020827Y-80247162D01*
X173020811Y-80247171D01*
X172992389Y-80266162D01*
X172925712Y-80287039D01*
X172858332Y-80268554D01*
X172811642Y-80216574D01*
X172799500Y-80163059D01*
X172799500Y-79210060D01*
X172819185Y-79143021D01*
X172871989Y-79097266D01*
X172941147Y-79087322D01*
X172992391Y-79106958D01*
X173010265Y-79118901D01*
X173020821Y-79125954D01*
X173020823Y-79125955D01*
X173020827Y-79125957D01*
X173166498Y-79186295D01*
X173166503Y-79186297D01*
X173285967Y-79210060D01*
X173321153Y-79217059D01*
X173321156Y-79217060D01*
X173321158Y-79217060D01*
X174278844Y-79217060D01*
X174278845Y-79217059D01*
X174433497Y-79186297D01*
X174579179Y-79125954D01*
X174710289Y-79038349D01*
X174821789Y-78926849D01*
X174909394Y-78795739D01*
X174969737Y-78650057D01*
X175000500Y-78495402D01*
X175000500Y-78337718D01*
X175000500Y-78337715D01*
X175000499Y-78337713D01*
X197999500Y-78337713D01*
X197999500Y-78495406D01*
X198030261Y-78650049D01*
X198030264Y-78650061D01*
X198090602Y-78795732D01*
X198090609Y-78795745D01*
X198178210Y-78926848D01*
X198178213Y-78926852D01*
X198289707Y-79038346D01*
X198289711Y-79038349D01*
X198420814Y-79125950D01*
X198420827Y-79125957D01*
X198566498Y-79186295D01*
X198566503Y-79186297D01*
X198685967Y-79210060D01*
X198721153Y-79217059D01*
X198721156Y-79217060D01*
X198721158Y-79217060D01*
X199678844Y-79217060D01*
X199678845Y-79217059D01*
X199833497Y-79186297D01*
X199979179Y-79125954D01*
X200110289Y-79038349D01*
X200221789Y-78926849D01*
X200309394Y-78795739D01*
X200369737Y-78650057D01*
X200400500Y-78495402D01*
X200400500Y-78337718D01*
X200400500Y-78337715D01*
X200400499Y-78337713D01*
X200369738Y-78183070D01*
X200369737Y-78183063D01*
X200369735Y-78183058D01*
X200309397Y-78037387D01*
X200309390Y-78037374D01*
X200221789Y-77906271D01*
X200221786Y-77906267D01*
X200110292Y-77794773D01*
X200110288Y-77794770D01*
X199979185Y-77707169D01*
X199979172Y-77707162D01*
X199833501Y-77646824D01*
X199833489Y-77646821D01*
X199678845Y-77616060D01*
X199678842Y-77616060D01*
X198721158Y-77616060D01*
X198721155Y-77616060D01*
X198566510Y-77646821D01*
X198566498Y-77646824D01*
X198420827Y-77707162D01*
X198420814Y-77707169D01*
X198289711Y-77794770D01*
X198289707Y-77794773D01*
X198178213Y-77906267D01*
X198178210Y-77906271D01*
X198090609Y-78037374D01*
X198090602Y-78037387D01*
X198030264Y-78183058D01*
X198030261Y-78183070D01*
X197999500Y-78337713D01*
X175000499Y-78337713D01*
X174969738Y-78183070D01*
X174969737Y-78183063D01*
X174969735Y-78183058D01*
X174909397Y-78037387D01*
X174909390Y-78037374D01*
X174821789Y-77906271D01*
X174821786Y-77906267D01*
X174710292Y-77794773D01*
X174710288Y-77794770D01*
X174579185Y-77707169D01*
X174579172Y-77707162D01*
X174433501Y-77646824D01*
X174433489Y-77646821D01*
X174278845Y-77616060D01*
X174278842Y-77616060D01*
X173321158Y-77616060D01*
X173321155Y-77616060D01*
X173166510Y-77646821D01*
X173166498Y-77646824D01*
X173020827Y-77707162D01*
X173020811Y-77707171D01*
X172992389Y-77726162D01*
X172925712Y-77747039D01*
X172858332Y-77728554D01*
X172811642Y-77676574D01*
X172799500Y-77623059D01*
X172799500Y-76670060D01*
X172819185Y-76603021D01*
X172871989Y-76557266D01*
X172941147Y-76547322D01*
X172992391Y-76566958D01*
X173020815Y-76585950D01*
X173020821Y-76585954D01*
X173020823Y-76585955D01*
X173020827Y-76585957D01*
X173166498Y-76646295D01*
X173166503Y-76646297D01*
X173285967Y-76670060D01*
X173321153Y-76677059D01*
X173321156Y-76677060D01*
X173321158Y-76677060D01*
X174278844Y-76677060D01*
X174278845Y-76677059D01*
X174433497Y-76646297D01*
X174579179Y-76585954D01*
X174710289Y-76498349D01*
X174821789Y-76386849D01*
X174909394Y-76255739D01*
X174969737Y-76110057D01*
X175000500Y-75955402D01*
X175000500Y-75797718D01*
X175000500Y-75797715D01*
X175000499Y-75797713D01*
X197999500Y-75797713D01*
X197999500Y-75955406D01*
X198030261Y-76110049D01*
X198030264Y-76110061D01*
X198090602Y-76255732D01*
X198090609Y-76255745D01*
X198178210Y-76386848D01*
X198178213Y-76386852D01*
X198289707Y-76498346D01*
X198289711Y-76498349D01*
X198420814Y-76585950D01*
X198420827Y-76585957D01*
X198566498Y-76646295D01*
X198566503Y-76646297D01*
X198685967Y-76670060D01*
X198721153Y-76677059D01*
X198721156Y-76677060D01*
X198721158Y-76677060D01*
X199678844Y-76677060D01*
X199678845Y-76677059D01*
X199833497Y-76646297D01*
X199979179Y-76585954D01*
X200110289Y-76498349D01*
X200221789Y-76386849D01*
X200309394Y-76255739D01*
X200369737Y-76110057D01*
X200400500Y-75955402D01*
X200400500Y-75797718D01*
X200400500Y-75797715D01*
X200400499Y-75797713D01*
X200369738Y-75643070D01*
X200369737Y-75643063D01*
X200369735Y-75643058D01*
X200309397Y-75497387D01*
X200309390Y-75497374D01*
X200221789Y-75366271D01*
X200221786Y-75366267D01*
X200110292Y-75254773D01*
X200110288Y-75254770D01*
X199979185Y-75167169D01*
X199979172Y-75167162D01*
X199833501Y-75106824D01*
X199833489Y-75106821D01*
X199678845Y-75076060D01*
X199678842Y-75076060D01*
X198721158Y-75076060D01*
X198721155Y-75076060D01*
X198566510Y-75106821D01*
X198566498Y-75106824D01*
X198420827Y-75167162D01*
X198420814Y-75167169D01*
X198289711Y-75254770D01*
X198289707Y-75254773D01*
X198178213Y-75366267D01*
X198178210Y-75366271D01*
X198090609Y-75497374D01*
X198090602Y-75497387D01*
X198030264Y-75643058D01*
X198030261Y-75643070D01*
X197999500Y-75797713D01*
X175000499Y-75797713D01*
X174969738Y-75643070D01*
X174969737Y-75643063D01*
X174969735Y-75643058D01*
X174909397Y-75497387D01*
X174909390Y-75497374D01*
X174821789Y-75366271D01*
X174821786Y-75366267D01*
X174710292Y-75254773D01*
X174710288Y-75254770D01*
X174579185Y-75167169D01*
X174579172Y-75167162D01*
X174433501Y-75106824D01*
X174433489Y-75106821D01*
X174278845Y-75076060D01*
X174278842Y-75076060D01*
X173321158Y-75076060D01*
X173321155Y-75076060D01*
X173166510Y-75106821D01*
X173166498Y-75106824D01*
X173020827Y-75167162D01*
X173020811Y-75167171D01*
X172992389Y-75186162D01*
X172925712Y-75207039D01*
X172858332Y-75188554D01*
X172811642Y-75136574D01*
X172799500Y-75083059D01*
X172799500Y-74130060D01*
X172819185Y-74063021D01*
X172871989Y-74017266D01*
X172941147Y-74007322D01*
X172992391Y-74026958D01*
X173020815Y-74045950D01*
X173020821Y-74045954D01*
X173020823Y-74045955D01*
X173020827Y-74045957D01*
X173166498Y-74106295D01*
X173166503Y-74106297D01*
X173285967Y-74130060D01*
X173321153Y-74137059D01*
X173321156Y-74137060D01*
X173321158Y-74137060D01*
X174278844Y-74137060D01*
X174278845Y-74137059D01*
X174433497Y-74106297D01*
X174579179Y-74045954D01*
X174710289Y-73958349D01*
X174821789Y-73846849D01*
X174909394Y-73715739D01*
X174969737Y-73570057D01*
X174975231Y-73542432D01*
X174978640Y-73525302D01*
X174978640Y-73525300D01*
X175000499Y-73415406D01*
X175000500Y-73415404D01*
X175000500Y-73257715D01*
X175000499Y-73257713D01*
X174978640Y-73147816D01*
X174973649Y-73122734D01*
X174969737Y-73103063D01*
X174962901Y-73086559D01*
X197725884Y-73086559D01*
X197725885Y-73086560D01*
X198884314Y-73086560D01*
X198879920Y-73090954D01*
X198827259Y-73182166D01*
X198800000Y-73283899D01*
X198800000Y-73389221D01*
X198827259Y-73490954D01*
X198879920Y-73582166D01*
X198884314Y-73586560D01*
X197725885Y-73586560D01*
X197727085Y-73594144D01*
X197780591Y-73758815D01*
X197859195Y-73913084D01*
X197960967Y-74053162D01*
X198083397Y-74175592D01*
X198223475Y-74277364D01*
X198377742Y-74355968D01*
X198542415Y-74409474D01*
X198713429Y-74436560D01*
X198950000Y-74436560D01*
X198950000Y-73652246D01*
X198954394Y-73656640D01*
X199045606Y-73709301D01*
X199147339Y-73736560D01*
X199252661Y-73736560D01*
X199354394Y-73709301D01*
X199445606Y-73656640D01*
X199450000Y-73652246D01*
X199450000Y-74436560D01*
X199686571Y-74436560D01*
X199857584Y-74409474D01*
X200022257Y-74355968D01*
X200176524Y-74277364D01*
X200316602Y-74175592D01*
X200439032Y-74053162D01*
X200540804Y-73913084D01*
X200619408Y-73758815D01*
X200672914Y-73594144D01*
X200674115Y-73586560D01*
X199515686Y-73586560D01*
X199520080Y-73582166D01*
X199572741Y-73490954D01*
X199600000Y-73389221D01*
X199600000Y-73283899D01*
X199572741Y-73182166D01*
X199520080Y-73090954D01*
X199515686Y-73086560D01*
X200674115Y-73086560D01*
X200674115Y-73086559D01*
X200672914Y-73078975D01*
X200619408Y-72914304D01*
X200540804Y-72760035D01*
X200439032Y-72619957D01*
X200316602Y-72497527D01*
X200176524Y-72395755D01*
X200022257Y-72317151D01*
X199857584Y-72263645D01*
X199686571Y-72236560D01*
X199450000Y-72236560D01*
X199450000Y-73020874D01*
X199445606Y-73016480D01*
X199354394Y-72963819D01*
X199252661Y-72936560D01*
X199147339Y-72936560D01*
X199045606Y-72963819D01*
X198954394Y-73016480D01*
X198950000Y-73020874D01*
X198950000Y-72236560D01*
X198713429Y-72236560D01*
X198542415Y-72263645D01*
X198377742Y-72317151D01*
X198223475Y-72395755D01*
X198083397Y-72497527D01*
X197960967Y-72619957D01*
X197859195Y-72760035D01*
X197780591Y-72914304D01*
X197727085Y-73078975D01*
X197725884Y-73086559D01*
X174962901Y-73086559D01*
X174909397Y-72957387D01*
X174909390Y-72957374D01*
X174821789Y-72826271D01*
X174821786Y-72826267D01*
X174710292Y-72714773D01*
X174710288Y-72714770D01*
X174579185Y-72627169D01*
X174579172Y-72627162D01*
X174433501Y-72566824D01*
X174433489Y-72566821D01*
X174278845Y-72536060D01*
X174278842Y-72536060D01*
X173321158Y-72536060D01*
X173321155Y-72536060D01*
X173166510Y-72566821D01*
X173166498Y-72566824D01*
X173020827Y-72627162D01*
X173020811Y-72627171D01*
X172992389Y-72646162D01*
X172925712Y-72667039D01*
X172858332Y-72648554D01*
X172811642Y-72596574D01*
X172799500Y-72543059D01*
X172799500Y-71590060D01*
X172819185Y-71523021D01*
X172871989Y-71477266D01*
X172941147Y-71467322D01*
X172992391Y-71486958D01*
X173020815Y-71505950D01*
X173020821Y-71505954D01*
X173020823Y-71505955D01*
X173020827Y-71505957D01*
X173166498Y-71566295D01*
X173166503Y-71566297D01*
X173285967Y-71590060D01*
X173321153Y-71597059D01*
X173321156Y-71597060D01*
X173321158Y-71597060D01*
X174278844Y-71597060D01*
X174278845Y-71597059D01*
X174433497Y-71566297D01*
X174579179Y-71505954D01*
X174710289Y-71418349D01*
X174821789Y-71306849D01*
X174909394Y-71175739D01*
X174969737Y-71030057D01*
X175000500Y-70875402D01*
X175000500Y-70717718D01*
X175000500Y-70717715D01*
X175000499Y-70717713D01*
X197999500Y-70717713D01*
X197999500Y-70875406D01*
X198030261Y-71030049D01*
X198030264Y-71030061D01*
X198090602Y-71175732D01*
X198090609Y-71175745D01*
X198178210Y-71306848D01*
X198178213Y-71306852D01*
X198289707Y-71418346D01*
X198289711Y-71418349D01*
X198420814Y-71505950D01*
X198420827Y-71505957D01*
X198566498Y-71566295D01*
X198566503Y-71566297D01*
X198685967Y-71590060D01*
X198721153Y-71597059D01*
X198721156Y-71597060D01*
X198721158Y-71597060D01*
X199678844Y-71597060D01*
X199678845Y-71597059D01*
X199833497Y-71566297D01*
X199979179Y-71505954D01*
X200110289Y-71418349D01*
X200221789Y-71306849D01*
X200309394Y-71175739D01*
X200369737Y-71030057D01*
X200400500Y-70875402D01*
X200400500Y-70717718D01*
X200400500Y-70717715D01*
X200400499Y-70717713D01*
X200369738Y-70563070D01*
X200369737Y-70563063D01*
X200369735Y-70563058D01*
X200309397Y-70417387D01*
X200309390Y-70417374D01*
X200221789Y-70286271D01*
X200221786Y-70286267D01*
X200110292Y-70174773D01*
X200110288Y-70174770D01*
X199979185Y-70087169D01*
X199979172Y-70087162D01*
X199833501Y-70026824D01*
X199833489Y-70026821D01*
X199678845Y-69996060D01*
X199678842Y-69996060D01*
X198721158Y-69996060D01*
X198721155Y-69996060D01*
X198566510Y-70026821D01*
X198566498Y-70026824D01*
X198420827Y-70087162D01*
X198420814Y-70087169D01*
X198289711Y-70174770D01*
X198289707Y-70174773D01*
X198178213Y-70286267D01*
X198178210Y-70286271D01*
X198090609Y-70417374D01*
X198090602Y-70417387D01*
X198030264Y-70563058D01*
X198030261Y-70563070D01*
X197999500Y-70717713D01*
X175000499Y-70717713D01*
X174969738Y-70563070D01*
X174969737Y-70563063D01*
X174969735Y-70563058D01*
X174909397Y-70417387D01*
X174909390Y-70417374D01*
X174821789Y-70286271D01*
X174821786Y-70286267D01*
X174710292Y-70174773D01*
X174710288Y-70174770D01*
X174579185Y-70087169D01*
X174579172Y-70087162D01*
X174433501Y-70026824D01*
X174433489Y-70026821D01*
X174278845Y-69996060D01*
X174278842Y-69996060D01*
X173321158Y-69996060D01*
X173321155Y-69996060D01*
X173166510Y-70026821D01*
X173166498Y-70026824D01*
X173020827Y-70087162D01*
X173020814Y-70087169D01*
X172889711Y-70174770D01*
X172889707Y-70174773D01*
X172778213Y-70286267D01*
X172778208Y-70286273D01*
X172744489Y-70336737D01*
X172690877Y-70381541D01*
X172621551Y-70390248D01*
X172558524Y-70360093D01*
X172553707Y-70355526D01*
X170457488Y-68259307D01*
X170375894Y-68177713D01*
X172599500Y-68177713D01*
X172599500Y-68335406D01*
X172630261Y-68490049D01*
X172630264Y-68490061D01*
X172690602Y-68635732D01*
X172690609Y-68635745D01*
X172778210Y-68766848D01*
X172778213Y-68766852D01*
X172889707Y-68878346D01*
X172889711Y-68878349D01*
X173020814Y-68965950D01*
X173020827Y-68965957D01*
X173166498Y-69026295D01*
X173166503Y-69026297D01*
X173321153Y-69057059D01*
X173321156Y-69057060D01*
X173321158Y-69057060D01*
X174278844Y-69057060D01*
X174278845Y-69057059D01*
X174433497Y-69026297D01*
X174579179Y-68965954D01*
X174710289Y-68878349D01*
X174821789Y-68766849D01*
X174909394Y-68635739D01*
X174969737Y-68490057D01*
X175000500Y-68335402D01*
X175000500Y-68177718D01*
X175000500Y-68177715D01*
X175000499Y-68177713D01*
X197999500Y-68177713D01*
X197999500Y-68335406D01*
X198030261Y-68490049D01*
X198030264Y-68490061D01*
X198090602Y-68635732D01*
X198090609Y-68635745D01*
X198178210Y-68766848D01*
X198178213Y-68766852D01*
X198289707Y-68878346D01*
X198289711Y-68878349D01*
X198420814Y-68965950D01*
X198420827Y-68965957D01*
X198566498Y-69026295D01*
X198566503Y-69026297D01*
X198721153Y-69057059D01*
X198721156Y-69057060D01*
X198721158Y-69057060D01*
X199678844Y-69057060D01*
X199678845Y-69057059D01*
X199833497Y-69026297D01*
X199979179Y-68965954D01*
X200110289Y-68878349D01*
X200221789Y-68766849D01*
X200309394Y-68635739D01*
X200369737Y-68490057D01*
X200400500Y-68335402D01*
X200400500Y-68177718D01*
X200400500Y-68177715D01*
X200400499Y-68177713D01*
X200369738Y-68023070D01*
X200369737Y-68023063D01*
X200369735Y-68023058D01*
X200309397Y-67877387D01*
X200309390Y-67877374D01*
X200221789Y-67746271D01*
X200221786Y-67746267D01*
X200110292Y-67634773D01*
X200110288Y-67634770D01*
X199979185Y-67547169D01*
X199979172Y-67547162D01*
X199833501Y-67486824D01*
X199833489Y-67486821D01*
X199678845Y-67456060D01*
X199678842Y-67456060D01*
X198721158Y-67456060D01*
X198721155Y-67456060D01*
X198566510Y-67486821D01*
X198566498Y-67486824D01*
X198420827Y-67547162D01*
X198420814Y-67547169D01*
X198289711Y-67634770D01*
X198289707Y-67634773D01*
X198178213Y-67746267D01*
X198178210Y-67746271D01*
X198090609Y-67877374D01*
X198090602Y-67877387D01*
X198030264Y-68023058D01*
X198030261Y-68023070D01*
X197999500Y-68177713D01*
X175000499Y-68177713D01*
X174969738Y-68023070D01*
X174969737Y-68023063D01*
X174969735Y-68023058D01*
X174909397Y-67877387D01*
X174909390Y-67877374D01*
X174821789Y-67746271D01*
X174821786Y-67746267D01*
X174710292Y-67634773D01*
X174710288Y-67634770D01*
X174579185Y-67547169D01*
X174579172Y-67547162D01*
X174433501Y-67486824D01*
X174433489Y-67486821D01*
X174278845Y-67456060D01*
X174278842Y-67456060D01*
X173321158Y-67456060D01*
X173321155Y-67456060D01*
X173166510Y-67486821D01*
X173166498Y-67486824D01*
X173020827Y-67547162D01*
X173020814Y-67547169D01*
X172889711Y-67634770D01*
X172889707Y-67634773D01*
X172778213Y-67746267D01*
X172778210Y-67746271D01*
X172690609Y-67877374D01*
X172690602Y-67877387D01*
X172630264Y-68023058D01*
X172630261Y-68023070D01*
X172599500Y-68177713D01*
X170375894Y-68177713D01*
X168198061Y-65999879D01*
X168198057Y-65999876D01*
X168040418Y-65894544D01*
X168040415Y-65894543D01*
X167916555Y-65843239D01*
X167865254Y-65821989D01*
X167865244Y-65821986D01*
X167679302Y-65785000D01*
X167679298Y-65785000D01*
X144577967Y-65785000D01*
X144510928Y-65765315D01*
X144506662Y-65762447D01*
X144495795Y-65754809D01*
X144494552Y-65752948D01*
X144466109Y-65733942D01*
X144466081Y-65733923D01*
X144428230Y-65708632D01*
X144428229Y-65708631D01*
X144369752Y-65697000D01*
X144369748Y-65697000D01*
X144066048Y-65697000D01*
X143999009Y-65677315D01*
X143964694Y-65637713D01*
X172599500Y-65637713D01*
X172599500Y-65795406D01*
X172630261Y-65950049D01*
X172630264Y-65950061D01*
X172690602Y-66095732D01*
X172690609Y-66095745D01*
X172778210Y-66226848D01*
X172778213Y-66226852D01*
X172889707Y-66338346D01*
X172889711Y-66338349D01*
X173020814Y-66425950D01*
X173020827Y-66425957D01*
X173166498Y-66486295D01*
X173166503Y-66486297D01*
X173321153Y-66517059D01*
X173321156Y-66517060D01*
X173321158Y-66517060D01*
X174278844Y-66517060D01*
X174278845Y-66517059D01*
X174433497Y-66486297D01*
X174579179Y-66425954D01*
X174710289Y-66338349D01*
X174821789Y-66226849D01*
X174909394Y-66095739D01*
X174969737Y-65950057D01*
X175000500Y-65795402D01*
X175000500Y-65637718D01*
X175000500Y-65637715D01*
X175000499Y-65637713D01*
X197999500Y-65637713D01*
X197999500Y-65795406D01*
X198030261Y-65950049D01*
X198030264Y-65950061D01*
X198090602Y-66095732D01*
X198090609Y-66095745D01*
X198178210Y-66226848D01*
X198178213Y-66226852D01*
X198289707Y-66338346D01*
X198289711Y-66338349D01*
X198420814Y-66425950D01*
X198420827Y-66425957D01*
X198566498Y-66486295D01*
X198566503Y-66486297D01*
X198721153Y-66517059D01*
X198721156Y-66517060D01*
X198721158Y-66517060D01*
X199678844Y-66517060D01*
X199678845Y-66517059D01*
X199833497Y-66486297D01*
X199979179Y-66425954D01*
X200110289Y-66338349D01*
X200221789Y-66226849D01*
X200309394Y-66095739D01*
X200369737Y-65950057D01*
X200400500Y-65795402D01*
X200400500Y-65637718D01*
X200400500Y-65637715D01*
X200400499Y-65637713D01*
X200373106Y-65500000D01*
X200369737Y-65483063D01*
X200350235Y-65435981D01*
X200309397Y-65337387D01*
X200309390Y-65337374D01*
X200221789Y-65206271D01*
X200221786Y-65206267D01*
X200110292Y-65094773D01*
X200110288Y-65094770D01*
X199979185Y-65007169D01*
X199979172Y-65007162D01*
X199833501Y-64946824D01*
X199833489Y-64946821D01*
X199678845Y-64916060D01*
X199678842Y-64916060D01*
X198721158Y-64916060D01*
X198721155Y-64916060D01*
X198566510Y-64946821D01*
X198566498Y-64946824D01*
X198420827Y-65007162D01*
X198420814Y-65007169D01*
X198289711Y-65094770D01*
X198289707Y-65094773D01*
X198178213Y-65206267D01*
X198178210Y-65206271D01*
X198090609Y-65337374D01*
X198090602Y-65337387D01*
X198030264Y-65483058D01*
X198030261Y-65483070D01*
X197999500Y-65637713D01*
X175000499Y-65637713D01*
X174973106Y-65500000D01*
X174969737Y-65483063D01*
X174950235Y-65435981D01*
X174909397Y-65337387D01*
X174909390Y-65337374D01*
X174821789Y-65206271D01*
X174821786Y-65206267D01*
X174710292Y-65094773D01*
X174710288Y-65094770D01*
X174579185Y-65007169D01*
X174579172Y-65007162D01*
X174433501Y-64946824D01*
X174433489Y-64946821D01*
X174278845Y-64916060D01*
X174278842Y-64916060D01*
X173321158Y-64916060D01*
X173321155Y-64916060D01*
X173166510Y-64946821D01*
X173166498Y-64946824D01*
X173020827Y-65007162D01*
X173020814Y-65007169D01*
X172889711Y-65094770D01*
X172889707Y-65094773D01*
X172778213Y-65206267D01*
X172778210Y-65206271D01*
X172690609Y-65337374D01*
X172690602Y-65337387D01*
X172630264Y-65483058D01*
X172630261Y-65483070D01*
X172599500Y-65637713D01*
X143964694Y-65637713D01*
X143953254Y-65624511D01*
X143943310Y-65555353D01*
X143972335Y-65491797D01*
X144014264Y-65461561D01*
X144013879Y-65460806D01*
X144207554Y-65362122D01*
X144261716Y-65322770D01*
X144261717Y-65322770D01*
X143629408Y-64690462D01*
X143692993Y-64673425D01*
X143807007Y-64607599D01*
X143900099Y-64514507D01*
X143965925Y-64400493D01*
X143982962Y-64336908D01*
X144615270Y-64969217D01*
X144615270Y-64969216D01*
X144654622Y-64915054D01*
X144751095Y-64725717D01*
X144816757Y-64523630D01*
X144816757Y-64523627D01*
X144850000Y-64313746D01*
X144850000Y-64101253D01*
X144816757Y-63891372D01*
X144816757Y-63891369D01*
X144751095Y-63689282D01*
X144654624Y-63499949D01*
X144615270Y-63445782D01*
X144615269Y-63445782D01*
X143982962Y-64078090D01*
X143965925Y-64014507D01*
X143900099Y-63900493D01*
X143807007Y-63807401D01*
X143692993Y-63741575D01*
X143629409Y-63724537D01*
X144256231Y-63097713D01*
X172599500Y-63097713D01*
X172599500Y-63255406D01*
X172630261Y-63410049D01*
X172630264Y-63410061D01*
X172690602Y-63555732D01*
X172690609Y-63555745D01*
X172778210Y-63686848D01*
X172778213Y-63686852D01*
X172889707Y-63798346D01*
X172889711Y-63798349D01*
X173020814Y-63885950D01*
X173020827Y-63885957D01*
X173166498Y-63946295D01*
X173166503Y-63946297D01*
X173321153Y-63977059D01*
X173321156Y-63977060D01*
X173321158Y-63977060D01*
X174278844Y-63977060D01*
X174278845Y-63977059D01*
X174433497Y-63946297D01*
X174579179Y-63885954D01*
X174710289Y-63798349D01*
X174821789Y-63686849D01*
X174909394Y-63555739D01*
X174969737Y-63410057D01*
X175000500Y-63255402D01*
X175000500Y-63097718D01*
X175000500Y-63097715D01*
X175000499Y-63097713D01*
X197999500Y-63097713D01*
X197999500Y-63255406D01*
X198030261Y-63410049D01*
X198030264Y-63410061D01*
X198090602Y-63555732D01*
X198090609Y-63555745D01*
X198178210Y-63686848D01*
X198178213Y-63686852D01*
X198289707Y-63798346D01*
X198289711Y-63798349D01*
X198420814Y-63885950D01*
X198420827Y-63885957D01*
X198566498Y-63946295D01*
X198566503Y-63946297D01*
X198721153Y-63977059D01*
X198721156Y-63977060D01*
X198721158Y-63977060D01*
X199678844Y-63977060D01*
X199678845Y-63977059D01*
X199833497Y-63946297D01*
X199979179Y-63885954D01*
X200110289Y-63798349D01*
X200221789Y-63686849D01*
X200309394Y-63555739D01*
X200369737Y-63410057D01*
X200400500Y-63255402D01*
X200400500Y-63097718D01*
X200400500Y-63097715D01*
X200400499Y-63097713D01*
X200372391Y-62956405D01*
X200369737Y-62943063D01*
X200351550Y-62899156D01*
X200309397Y-62797387D01*
X200309390Y-62797374D01*
X200221789Y-62666271D01*
X200221786Y-62666267D01*
X200110292Y-62554773D01*
X200110288Y-62554770D01*
X199979185Y-62467169D01*
X199979172Y-62467162D01*
X199833501Y-62406824D01*
X199833489Y-62406821D01*
X199678845Y-62376060D01*
X199678842Y-62376060D01*
X198721158Y-62376060D01*
X198721155Y-62376060D01*
X198566510Y-62406821D01*
X198566498Y-62406824D01*
X198420827Y-62467162D01*
X198420814Y-62467169D01*
X198289711Y-62554770D01*
X198289707Y-62554773D01*
X198178213Y-62666267D01*
X198178210Y-62666271D01*
X198090609Y-62797374D01*
X198090602Y-62797387D01*
X198030264Y-62943058D01*
X198030261Y-62943070D01*
X197999500Y-63097713D01*
X175000499Y-63097713D01*
X174972391Y-62956405D01*
X174969737Y-62943063D01*
X174951550Y-62899156D01*
X174909397Y-62797387D01*
X174909390Y-62797374D01*
X174821789Y-62666271D01*
X174821786Y-62666267D01*
X174710292Y-62554773D01*
X174710288Y-62554770D01*
X174579185Y-62467169D01*
X174579172Y-62467162D01*
X174433501Y-62406824D01*
X174433489Y-62406821D01*
X174278845Y-62376060D01*
X174278842Y-62376060D01*
X173321158Y-62376060D01*
X173321155Y-62376060D01*
X173166510Y-62406821D01*
X173166498Y-62406824D01*
X173020827Y-62467162D01*
X173020814Y-62467169D01*
X172889711Y-62554770D01*
X172889707Y-62554773D01*
X172778213Y-62666267D01*
X172778210Y-62666271D01*
X172690609Y-62797374D01*
X172690602Y-62797387D01*
X172630264Y-62943058D01*
X172630261Y-62943070D01*
X172599500Y-63097713D01*
X144256231Y-63097713D01*
X144261716Y-63092228D01*
X144207550Y-63052875D01*
X144018216Y-62956404D01*
X143842026Y-62899156D01*
X143784350Y-62859718D01*
X143757152Y-62795360D01*
X143769067Y-62726513D01*
X143816311Y-62675038D01*
X143832882Y-62666668D01*
X143997598Y-62598441D01*
X144169655Y-62483477D01*
X144315977Y-62337155D01*
X144430941Y-62165098D01*
X144510130Y-61973920D01*
X144550500Y-61770965D01*
X144550500Y-61564035D01*
X144510130Y-61361080D01*
X144430941Y-61169902D01*
X144315977Y-60997845D01*
X144315975Y-60997842D01*
X144169657Y-60851524D01*
X143997596Y-60736557D01*
X143827706Y-60666187D01*
X143827704Y-60666186D01*
X143806424Y-60657371D01*
X143806412Y-60657368D01*
X143603469Y-60617000D01*
X143603465Y-60617000D01*
X143396535Y-60617000D01*
X143396530Y-60617000D01*
X143193587Y-60657368D01*
X143193579Y-60657370D01*
X143002403Y-60736558D01*
X142830342Y-60851524D01*
X142684024Y-60997842D01*
X142569058Y-61169903D01*
X142489870Y-61361079D01*
X142489868Y-61361087D01*
X142449500Y-61564030D01*
X142449500Y-61770969D01*
X142489868Y-61973912D01*
X142489870Y-61973920D01*
X142560548Y-62144552D01*
X142569059Y-62165098D01*
X142592713Y-62200499D01*
X142684024Y-62337157D01*
X142830342Y-62483475D01*
X143002405Y-62598443D01*
X143105043Y-62640956D01*
X143167108Y-62666664D01*
X143221511Y-62710505D01*
X143243576Y-62776799D01*
X143226297Y-62844498D01*
X143175160Y-62892109D01*
X143157974Y-62899156D01*
X142981781Y-62956405D01*
X142792439Y-63052880D01*
X142738282Y-63092227D01*
X142738282Y-63092228D01*
X143370591Y-63724537D01*
X143307007Y-63741575D01*
X143192993Y-63807401D01*
X143099901Y-63900493D01*
X143034075Y-64014507D01*
X143017037Y-64078091D01*
X142384728Y-63445782D01*
X142384727Y-63445782D01*
X142345380Y-63499939D01*
X142248904Y-63689282D01*
X142183242Y-63891369D01*
X142183242Y-63891372D01*
X142150000Y-64101253D01*
X131545193Y-64101253D01*
X131637746Y-64008700D01*
X131726365Y-63920080D01*
X131613524Y-63833494D01*
X131613516Y-63833488D01*
X131386482Y-63702409D01*
X131386471Y-63702404D01*
X131144255Y-63602075D01*
X130891020Y-63534222D01*
X130891009Y-63534220D01*
X130631094Y-63500000D01*
X130368905Y-63500000D01*
X130108990Y-63534220D01*
X130108979Y-63534222D01*
X129855744Y-63602075D01*
X129613528Y-63702404D01*
X129613517Y-63702409D01*
X129386471Y-63833496D01*
X129273633Y-63920079D01*
X129273633Y-63920080D01*
X130252511Y-64898958D01*
X130192110Y-64923978D01*
X130085649Y-64995112D01*
X129995112Y-65085649D01*
X129923978Y-65192110D01*
X129898958Y-65252511D01*
X128920080Y-64273633D01*
X128920079Y-64273633D01*
X128833496Y-64386471D01*
X128702409Y-64613517D01*
X128702404Y-64613528D01*
X128602075Y-64855744D01*
X128534222Y-65108979D01*
X128534220Y-65108990D01*
X128500000Y-65368905D01*
X125500500Y-65368905D01*
X125500500Y-58980247D01*
X128799500Y-58980247D01*
X128799500Y-62019752D01*
X128811131Y-62078229D01*
X128811132Y-62078230D01*
X128855447Y-62144552D01*
X128921769Y-62188867D01*
X128921770Y-62188868D01*
X128980247Y-62200499D01*
X128980250Y-62200500D01*
X128980252Y-62200500D01*
X132019750Y-62200500D01*
X132019751Y-62200499D01*
X132034568Y-62197552D01*
X132078229Y-62188868D01*
X132078229Y-62188867D01*
X132078231Y-62188867D01*
X132144552Y-62144552D01*
X132188867Y-62078231D01*
X132188867Y-62078229D01*
X132188868Y-62078229D01*
X132200499Y-62019752D01*
X132200500Y-62019750D01*
X132200500Y-60557713D01*
X172599500Y-60557713D01*
X172599500Y-60715406D01*
X172630261Y-60870049D01*
X172630264Y-60870061D01*
X172690602Y-61015732D01*
X172690609Y-61015745D01*
X172778210Y-61146848D01*
X172778213Y-61146852D01*
X172889707Y-61258346D01*
X172889711Y-61258349D01*
X173020814Y-61345950D01*
X173020827Y-61345957D01*
X173166498Y-61406295D01*
X173166503Y-61406297D01*
X173321153Y-61437059D01*
X173321156Y-61437060D01*
X173321158Y-61437060D01*
X174278844Y-61437060D01*
X174278845Y-61437059D01*
X174433497Y-61406297D01*
X174579179Y-61345954D01*
X174710289Y-61258349D01*
X174821789Y-61146849D01*
X174909394Y-61015739D01*
X174969737Y-60870057D01*
X175000500Y-60715402D01*
X175000500Y-60557718D01*
X175000500Y-60557715D01*
X175000499Y-60557713D01*
X197999500Y-60557713D01*
X197999500Y-60715406D01*
X198030261Y-60870049D01*
X198030264Y-60870061D01*
X198090602Y-61015732D01*
X198090609Y-61015745D01*
X198178210Y-61146848D01*
X198178213Y-61146852D01*
X198289707Y-61258346D01*
X198289711Y-61258349D01*
X198420814Y-61345950D01*
X198420827Y-61345957D01*
X198566498Y-61406295D01*
X198566503Y-61406297D01*
X198721153Y-61437059D01*
X198721156Y-61437060D01*
X198721158Y-61437060D01*
X199678844Y-61437060D01*
X199678845Y-61437059D01*
X199833497Y-61406297D01*
X199979179Y-61345954D01*
X200110289Y-61258349D01*
X200221789Y-61146849D01*
X200309394Y-61015739D01*
X200369737Y-60870057D01*
X200400500Y-60715402D01*
X200400500Y-60557718D01*
X200400500Y-60557715D01*
X200400499Y-60557713D01*
X200369738Y-60403070D01*
X200369737Y-60403063D01*
X200369735Y-60403058D01*
X200309397Y-60257387D01*
X200309390Y-60257374D01*
X200221789Y-60126271D01*
X200221786Y-60126267D01*
X200110292Y-60014773D01*
X200110288Y-60014770D01*
X199979185Y-59927169D01*
X199979172Y-59927162D01*
X199833501Y-59866824D01*
X199833489Y-59866821D01*
X199678845Y-59836060D01*
X199678842Y-59836060D01*
X198721158Y-59836060D01*
X198721155Y-59836060D01*
X198566510Y-59866821D01*
X198566498Y-59866824D01*
X198420827Y-59927162D01*
X198420814Y-59927169D01*
X198289711Y-60014770D01*
X198289707Y-60014773D01*
X198178213Y-60126267D01*
X198178210Y-60126271D01*
X198090609Y-60257374D01*
X198090602Y-60257387D01*
X198030264Y-60403058D01*
X198030261Y-60403070D01*
X197999500Y-60557713D01*
X175000499Y-60557713D01*
X174969738Y-60403070D01*
X174969737Y-60403063D01*
X174969735Y-60403058D01*
X174909397Y-60257387D01*
X174909390Y-60257374D01*
X174821789Y-60126271D01*
X174821786Y-60126267D01*
X174710292Y-60014773D01*
X174710288Y-60014770D01*
X174579185Y-59927169D01*
X174579172Y-59927162D01*
X174433501Y-59866824D01*
X174433489Y-59866821D01*
X174278845Y-59836060D01*
X174278842Y-59836060D01*
X173321158Y-59836060D01*
X173321155Y-59836060D01*
X173166510Y-59866821D01*
X173166498Y-59866824D01*
X173020827Y-59927162D01*
X173020814Y-59927169D01*
X172889711Y-60014770D01*
X172889707Y-60014773D01*
X172778213Y-60126267D01*
X172778210Y-60126271D01*
X172690609Y-60257374D01*
X172690602Y-60257387D01*
X172630264Y-60403058D01*
X172630261Y-60403070D01*
X172599500Y-60557713D01*
X132200500Y-60557713D01*
X132200500Y-59024030D01*
X142449500Y-59024030D01*
X142449500Y-59230969D01*
X142489868Y-59433912D01*
X142489870Y-59433920D01*
X142569058Y-59625096D01*
X142684024Y-59797157D01*
X142830342Y-59943475D01*
X142830345Y-59943477D01*
X143002402Y-60058441D01*
X143193580Y-60137630D01*
X143396530Y-60177999D01*
X143396534Y-60178000D01*
X143396535Y-60178000D01*
X143603466Y-60178000D01*
X143603467Y-60177999D01*
X143806420Y-60137630D01*
X143997598Y-60058441D01*
X144169655Y-59943477D01*
X144315977Y-59797155D01*
X144430941Y-59625098D01*
X144510130Y-59433920D01*
X144550500Y-59230965D01*
X144550500Y-59024035D01*
X144510130Y-58821080D01*
X144430941Y-58629902D01*
X144315977Y-58457845D01*
X144315975Y-58457842D01*
X144169657Y-58311524D01*
X144079006Y-58250954D01*
X143997598Y-58196559D01*
X143806420Y-58117370D01*
X143806412Y-58117368D01*
X143603469Y-58077000D01*
X143603465Y-58077000D01*
X143396535Y-58077000D01*
X143396530Y-58077000D01*
X143193587Y-58117368D01*
X143193579Y-58117370D01*
X143002403Y-58196558D01*
X142830342Y-58311524D01*
X142684024Y-58457842D01*
X142569058Y-58629903D01*
X142489870Y-58821079D01*
X142489868Y-58821087D01*
X142449500Y-59024030D01*
X132200500Y-59024030D01*
X132200500Y-58980249D01*
X132200499Y-58980247D01*
X132188868Y-58921770D01*
X132188867Y-58921769D01*
X132144552Y-58855447D01*
X132078230Y-58811132D01*
X132078229Y-58811131D01*
X132019752Y-58799500D01*
X132019748Y-58799500D01*
X128980252Y-58799500D01*
X128980247Y-58799500D01*
X128921770Y-58811131D01*
X128921769Y-58811132D01*
X128855447Y-58855447D01*
X128811132Y-58921769D01*
X128811131Y-58921770D01*
X128799500Y-58980247D01*
X125500500Y-58980247D01*
X125500500Y-57476807D01*
X172599500Y-57476807D01*
X172599500Y-58716312D01*
X172611131Y-58774789D01*
X172611132Y-58774790D01*
X172655447Y-58841112D01*
X172721769Y-58885427D01*
X172721770Y-58885428D01*
X172780247Y-58897059D01*
X172780250Y-58897060D01*
X172780252Y-58897060D01*
X174819750Y-58897060D01*
X174819751Y-58897059D01*
X174834568Y-58894112D01*
X174878229Y-58885428D01*
X174878229Y-58885427D01*
X174878231Y-58885427D01*
X174944552Y-58841112D01*
X174988867Y-58774791D01*
X174988867Y-58774789D01*
X174988868Y-58774789D01*
X175000499Y-58716312D01*
X175000500Y-58716310D01*
X175000500Y-57846559D01*
X197725884Y-57846559D01*
X197725885Y-57846560D01*
X198884314Y-57846560D01*
X198879920Y-57850954D01*
X198827259Y-57942166D01*
X198800000Y-58043899D01*
X198800000Y-58149221D01*
X198827259Y-58250954D01*
X198879920Y-58342166D01*
X198884314Y-58346560D01*
X197725885Y-58346560D01*
X197727085Y-58354144D01*
X197780591Y-58518815D01*
X197859195Y-58673084D01*
X197960967Y-58813162D01*
X198083397Y-58935592D01*
X198223475Y-59037364D01*
X198377742Y-59115968D01*
X198542415Y-59169474D01*
X198713429Y-59196560D01*
X198950000Y-59196560D01*
X198950000Y-58412246D01*
X198954394Y-58416640D01*
X199045606Y-58469301D01*
X199147339Y-58496560D01*
X199252661Y-58496560D01*
X199354394Y-58469301D01*
X199445606Y-58416640D01*
X199450000Y-58412246D01*
X199450000Y-59196560D01*
X199686571Y-59196560D01*
X199857584Y-59169474D01*
X200022257Y-59115968D01*
X200176524Y-59037364D01*
X200316602Y-58935592D01*
X200439032Y-58813162D01*
X200540804Y-58673084D01*
X200619408Y-58518815D01*
X200672914Y-58354144D01*
X200674115Y-58346560D01*
X199515686Y-58346560D01*
X199520080Y-58342166D01*
X199572741Y-58250954D01*
X199600000Y-58149221D01*
X199600000Y-58043899D01*
X199572741Y-57942166D01*
X199520080Y-57850954D01*
X199515686Y-57846560D01*
X200674115Y-57846560D01*
X200674115Y-57846559D01*
X200672914Y-57838975D01*
X200619408Y-57674304D01*
X200540804Y-57520035D01*
X200439032Y-57379957D01*
X200316602Y-57257527D01*
X200176524Y-57155755D01*
X200022257Y-57077151D01*
X199857584Y-57023645D01*
X199686571Y-56996560D01*
X199450000Y-56996560D01*
X199450000Y-57780874D01*
X199445606Y-57776480D01*
X199354394Y-57723819D01*
X199252661Y-57696560D01*
X199147339Y-57696560D01*
X199045606Y-57723819D01*
X198954394Y-57776480D01*
X198950000Y-57780874D01*
X198950000Y-56996560D01*
X198713429Y-56996560D01*
X198542415Y-57023645D01*
X198377742Y-57077151D01*
X198223475Y-57155755D01*
X198083397Y-57257527D01*
X197960967Y-57379957D01*
X197859195Y-57520035D01*
X197780591Y-57674304D01*
X197727085Y-57838975D01*
X197725884Y-57846559D01*
X175000500Y-57846559D01*
X175000500Y-57476809D01*
X175000499Y-57476807D01*
X174988868Y-57418330D01*
X174988867Y-57418329D01*
X174944552Y-57352007D01*
X174878230Y-57307692D01*
X174878229Y-57307691D01*
X174819752Y-57296060D01*
X174819748Y-57296060D01*
X172780252Y-57296060D01*
X172780247Y-57296060D01*
X172721770Y-57307691D01*
X172721769Y-57307692D01*
X172655447Y-57352007D01*
X172611132Y-57418329D01*
X172611131Y-57418330D01*
X172599500Y-57476807D01*
X125500500Y-57476807D01*
X125500500Y-56624000D01*
X125520185Y-56556961D01*
X125572989Y-56511206D01*
X125624500Y-56500000D01*
X134500000Y-56500000D01*
X134500000Y-47624500D01*
X134519685Y-47557461D01*
X134572489Y-47511706D01*
X134624000Y-47500500D01*
X174876000Y-47500500D01*
X174943039Y-47520185D01*
G37*
%TD.AperFunction*%
%TD*%
M02*
